<?xml version="1.0" encoding="UTF-8" standalone="no"?><svg xmlns="http://www.w3.org/2000/svg" xmlns:xlink="http://www.w3.org/1999/xlink" clip-rule="evenodd" stroke-miterlimit="10" viewBox="0 0 977 505"><desc>SVG generated by Keynote</desc><defs><linearGradient id="gradSh1.36" x1="0.0" y1="0.0" x2="100.0" y2="0.0" gradientUnits="userSpaceOnUse" gradientTransform="matrix(0.00, -1.68, -1.68, 0.00, 920.0, 170.0)"><stop offset="0.00000" stop-color="#70BF41"></stop><stop offset="0.00293" stop-color="#6FBF41"></stop><stop offset="0.05718" stop-color="#69BC3F"></stop><stop offset="0.06525" stop-color="#68BC3F"></stop><stop offset="1.00000" stop-color="#00882B"></stop></linearGradient><linearGradient id="gradSh2.37" x1="0.0" y1="0.0" x2="100.0" y2="0.0" gradientUnits="userSpaceOnUse" gradientTransform="matrix(0.00, -2.42, -2.42, 0.00, 796.0, 244.0)"><stop offset="0.00000" stop-color="#51A7F9"></stop><stop offset="0.01100" stop-color="#51A6F9"></stop><stop offset="0.22874" stop-color="#3F98EC"></stop><stop offset="0.23754" stop-color="#3F97EC"></stop><stop offset="0.63636" stop-color="#1F7DD5"></stop><stop offset="0.64516" stop-color="#1F7CD5"></stop><stop offset="0.83944" stop-color="#0F70C9"></stop><stop offset="0.84091" stop-color="#0F6FC9"></stop><stop offset="0.94135" stop-color="#0769C4"></stop><stop offset="0.94282" stop-color="#0769C3"></stop><stop offset="0.99194" stop-color="#0365C1"></stop><stop offset="0.99560" stop-color="#0365C0"></stop><stop offset="1.00000" stop-color="#0365C0"></stop></linearGradient><linearGradient id="gradSh3.38" x1="0.0" y1="0.0" x2="100.0" y2="0.0" gradientUnits="userSpaceOnUse" gradientTransform="matrix(0.00, -5.02, -5.02, 0.00, 673.0, 504.0)"><stop offset="0.00000" stop-color="#885CB2"></stop><stop offset="0.00220" stop-color="#885BB2"></stop><stop offset="0.48314" stop-color="#7F4EA7"></stop><stop offset="0.48974" stop-color="#7F4DA7"></stop><stop offset="1.00000" stop-color="#773F9B"></stop></linearGradient><linearGradient id="gradSh4.39" x1="0.0" y1="0.0" x2="100.0" y2="0.0" gradientUnits="userSpaceOnUse" gradientTransform="matrix(0.00, -2.42, -2.42, 0.00, 550.0, 244.0)"><stop offset="0.00000" stop-color="#FB4912"></stop><stop offset="0.00513" stop-color="#FA4912"></stop><stop offset="0.23167" stop-color="#EF410F"></stop><stop offset="0.24267" stop-color="#EF400F"></stop><stop offset="0.85777" stop-color="#D02B07"></stop><stop offset="0.85924" stop-color="#CF2A07"></stop><stop offset="1.00000" stop-color="#C82506"></stop></linearGradient><linearGradient id="gradSh5.40" x1="0.0" y1="0.0" x2="100.0" y2="0.0" gradientUnits="userSpaceOnUse" gradientTransform="matrix(0.00, -4.60, -4.60, 0.00, 427.0, 462.0)"><stop offset="0.00000" stop-color="#EF951A"></stop><stop offset="0.00220" stop-color="#EF941A"></stop><stop offset="1.00000" stop-color="#DE6A10"></stop></linearGradient><linearGradient id="gradSh6.41" x1="0.0" y1="0.0" x2="100.0" y2="0.0" gradientUnits="userSpaceOnUse" gradientTransform="matrix(0.00, -2.74, -2.74, 0.00, 304.0, 276.0)"><stop offset="0.00000" stop-color="#FBE12B"></stop><stop offset="0.00513" stop-color="#FBE02B"></stop><stop offset="0.68842" stop-color="#D1B01F"></stop><stop offset="0.69721" stop-color="#D1AF1F"></stop><stop offset="1.00000" stop-color="#BE9A1A"></stop></linearGradient><linearGradient id="gradSh1.42" x1="0.0" y1="0.0" x2="100.0" y2="0.0" gradientUnits="userSpaceOnUse" gradientTransform="matrix(0.00, -1.30, -1.30, 0.00, 181.0, 132.0)"><stop offset="0.00000" stop-color="#70BF41"></stop><stop offset="0.00293" stop-color="#6FBF41"></stop><stop offset="0.05718" stop-color="#69BC3F"></stop><stop offset="0.06525" stop-color="#68BC3F"></stop><stop offset="1.00000" stop-color="#00882B"></stop></linearGradient><linearGradient id="gradSh2.43" x1="0.0" y1="0.0" x2="100.0" y2="0.0" gradientUnits="userSpaceOnUse" gradientTransform="matrix(0.00, -4.60, -4.60, 0.00, 57.5, 462.0)"><stop offset="0.00000" stop-color="#51A7F9"></stop><stop offset="0.01100" stop-color="#51A6F9"></stop><stop offset="0.22874" stop-color="#3F98EC"></stop><stop offset="0.23754" stop-color="#3F97EC"></stop><stop offset="0.63636" stop-color="#1F7DD5"></stop><stop offset="0.64516" stop-color="#1F7CD5"></stop><stop offset="0.83944" stop-color="#0F70C9"></stop><stop offset="0.84091" stop-color="#0F6FC9"></stop><stop offset="0.94135" stop-color="#0769C4"></stop><stop offset="0.94282" stop-color="#0769C3"></stop><stop offset="0.99194" stop-color="#0365C1"></stop><stop offset="0.99560" stop-color="#0365C0"></stop><stop offset="1.00000" stop-color="#0365C0"></stop></linearGradient></defs><g transform="matrix(1.00, 0.00, -0.00, -1.00, 0.0, 505.0)"><g><clipPath id="clip0x7fdfb4767ed0"><path d="M 864.0 2.0 L 976.0 2.0 L 976.0 170.0 L 864.0 170.0 Z M 864.0 2.0 "></path></clipPath><g clip-path="url(#clip0x7fdfb4767ed0)"><path d="M 864.0 2.0 L 976.0 2.0 L 976.0 170.0 L 864.0 170.0 Z M 864.0 2.0 " fill="url(#gradSh1.36)"></path></g></g><g><clipPath id="clip0x7fdfb47b4a70"><path d="M 740.0 2.0 L 852.0 2.0 L 852.0 244.0 L 740.0 244.0 Z M 740.0 2.0 "></path></clipPath><g clip-path="url(#clip0x7fdfb47b4a70)"><path d="M 740.0 2.0 L 852.0 2.0 L 852.0 244.0 L 740.0 244.0 Z M 740.0 2.0 " fill="url(#gradSh2.37)"></path></g></g><g><clipPath id="clip0x7fdfb4806400"><path d="M 617.0 2.0 L 729.0 2.0 L 729.0 504.0 L 617.0 504.0 Z M 617.0 2.0 "></path></clipPath><g clip-path="url(#clip0x7fdfb4806400)"><path d="M 617.0 2.0 L 729.0 2.0 L 729.0 504.0 L 617.0 504.0 Z M 617.0 2.0 " fill="url(#gradSh3.38)"></path></g></g><g><clipPath id="clip0x7fdfb4852f30"><path d="M 494.0 2.0 L 606.0 2.0 L 606.0 244.0 L 494.0 244.0 Z M 494.0 2.0 "></path></clipPath><g clip-path="url(#clip0x7fdfb4852f30)"><path d="M 494.0 2.0 L 606.0 2.0 L 606.0 244.0 L 494.0 244.0 Z M 494.0 2.0 " fill="url(#gradSh4.39)"></path></g></g><g><clipPath id="clip0x7fdfb489fe10"><path d="M 371.0 2.0 L 483.0 2.0 L 483.0 462.0 L 371.0 462.0 Z M 371.0 2.0 "></path></clipPath><g clip-path="url(#clip0x7fdfb489fe10)"><path d="M 371.0 2.0 L 483.0 2.0 L 483.0 462.0 L 371.0 462.0 Z M 371.0 2.0 " fill="url(#gradSh5.40)"></path></g></g><g><clipPath id="clip0x7fdfb48ec5f0"><path d="M 248.0 2.0 L 360.0 2.0 L 360.0 276.0 L 248.0 276.0 Z M 248.0 2.0 "></path></clipPath><g clip-path="url(#clip0x7fdfb48ec5f0)"><path d="M 248.0 2.0 L 360.0 2.0 L 360.0 276.0 L 248.0 276.0 Z M 248.0 2.0 " fill="url(#gradSh6.41)"></path></g></g><g><clipPath id="clip0x7fdfb493d060"><path d="M 125.0 2.0 L 237.0 2.0 L 237.0 132.0 L 125.0 132.0 Z M 125.0 2.0 "></path></clipPath><g clip-path="url(#clip0x7fdfb493d060)"><path d="M 125.0 2.0 L 237.0 2.0 L 237.0 132.0 L 125.0 132.0 Z M 125.0 2.0 " fill="url(#gradSh1.42)"></path></g></g><g><clipPath id="clip0x7fdfb4989420"><path d="M 2.0 2.0 L 113.0 2.0 L 113.0 462.0 L 2.0 462.0 Z M 2.0 2.0 "></path></clipPath><g clip-path="url(#clip0x7fdfb4989420)"><path d="M 2.0 2.0 L 113.0 2.0 L 113.0 462.0 L 2.0 462.0 Z M 2.0 2.0 " fill="url(#gradSh2.43)"></path></g></g></g></svg>