<?xml version="1.0" encoding="UTF-8" standalone="no"?><svg xmlns="http://www.w3.org/2000/svg" xmlns:xlink="http://www.w3.org/1999/xlink" clip-rule="evenodd" stroke-miterlimit="10" viewBox="0 0 17 498"><desc>SVG generated by Keynote</desc><defs></defs><g transform="matrix(1.00, 0.00, -0.00, -1.00, 0.0, 498.0)"><path d="M 11.7 32.7 C 11.3 32.1 11.9 30.4 11.5 29.9 M 11.7 32.7 C 14.3 31.1 14.5 28.0 14.9 23.9 C 15.0 19.4 12.6 24.0 11.5 23.5 C 10.5 17.7 12.3 17.7 15.1 18.5 C 13.2 16.3 16.5 9.6 13.1 11.0 C 13.1 20.4 12.3 4.5 10.3 12.3 C 9.7 13.2 8.8 10.9 8.8 10.0 C 7.4 12.6 5.7 8.2 4.7 12.4 C 2.5 12.9 3.4 12.2 1.7 14.8 C 1.5 16.0 2.2 15.5 2.7 15.4 C 5.3 15.8 1.3 18.6 2.9 20.8 C -0.4 22.7 3.5 24.8 4.9 23.1 C 4.5 25.0 1.0 27.3 3.4 29.4 C 1.8 30.5 2.9 35.8 5.0 32.6 C 6.3 30.3 7.3 32.9 8.1 33.3 C 8.8 32.5 7.8 29.2 8.4 28.7 C 8.9 29.7 10.1 33.9 10.0 29.4 C 11.2 30.9 11.9 28.7 11.7 32.7 C 11.7 32.7 11.7 32.7 11.7 32.7 Z M 13.6 16.9 C 14.5 16.9 13.6 18.4 13.6 16.9 C 13.6 16.9 13.6 16.9 13.6 16.9 Z M 1.8 27.7 C 2.6 27.7 1.7 29.2 1.8 27.7 C 1.8 27.7 1.8 27.7 1.8 27.7 Z M 2.7 16.1 C 3.6 16.1 2.7 17.6 2.7 16.1 C 2.7 16.1 2.7 16.1 2.7 16.1 Z M 13.1 21.0 C 12.3 23.5 11.8 18.9 12.6 18.6 C 12.5 19.1 13.8 20.4 13.1 21.0 C 13.1 21.0 13.1 21.0 13.1 21.0 Z M 7.9 21.4 C 8.2 21.6 8.4 22.6 7.5 22.5 C 7.2 21.8 7.6 21.2 7.9 21.4 C 7.9 21.4 7.9 21.4 7.9 21.4 Z M 11.6 9.0 C 11.9 9.2 12.0 10.2 11.1 10.1 C 10.9 9.5 11.2 8.8 11.6 9.0 C 11.6 9.0 11.6 9.0 11.6 9.0 Z M 10.7 23.9 C 10.5 24.5 9.7 24.7 9.6 24.0 C 10.0 23.6 10.2 21.9 10.7 23.9 C 10.7 23.9 10.7 23.9 10.7 23.9 Z M 13.7 27.8 C 13.2 29.8 11.9 25.6 12.3 25.7 C 12.9 25.0 14.4 26.6 13.7 27.8 C 13.7 27.8 13.7 27.8 13.7 27.8 Z M 9.5 25.1 C 9.0 26.8 8.8 24.3 9.5 25.1 C 9.5 25.1 9.5 25.1 9.5 25.1 Z M 5.0 10.7 C 4.6 12.4 4.3 10.0 5.0 10.7 C 5.0 10.7 5.0 10.7 5.0 10.7 Z M 2.2 19.8 C 1.8 21.5 1.6 19.1 2.2 19.8 C 2.2 19.8 2.2 19.8 2.2 19.8 Z M 11.3 16.4 C 11.3 13.4 13.5 16.0 11.3 16.4 C 11.3 16.4 11.3 16.4 11.3 16.4 Z M 13.9 32.6 C 13.9 29.6 16.1 32.2 13.9 32.6 C 13.9 32.6 13.9 32.6 13.9 32.6 Z M 13.1 485.3 C 13.5 488.0 16.5 477.3 13.0 481.4 C 10.1 482.6 10.4 475.3 13.0 477.1 C 13.3 475.0 13.5 475.0 12.2 473.8 C 14.3 473.4 15.3 468.3 14.2 466.6 C 12.4 465.5 14.0 469.9 12.1 467.1 C 11.5 460.7 10.1 467.5 7.7 465.1 C 7.7 464.8 8.9 464.7 8.2 464.1 C 6.0 463.9 4.5 467.5 2.8 465.9 C 3.1 466.8 0.7 471.4 2.7 469.5 C 4.7 468.9 0.1 474.5 3.6 474.1 C 2.0 475.6 4.2 477.2 2.2 478.6 C 1.8 479.8 3.6 479.8 4.1 479.6 C 5.7 479.5 0.5 481.0 3.3 482.8 C 2.5 482.9 2.8 488.0 4.1 484.2 C 3.8 485.3 3.1 491.2 6.1 488.1 C 7.6 484.0 9.3 492.3 9.5 487.5 C 9.8 483.8 9.2 483.1 10.8 485.8 C 10.6 486.7 10.9 490.9 12.3 487.3 C 11.9 486.5 12.2 484.8 13.1 485.3 C 13.1 485.3 13.1 485.3 13.1 485.3 Z M 8.5 486.0 C 8.4 483.9 9.7 485.9 8.5 486.0 C 8.5 486.0 8.5 486.0 8.5 486.0 Z M 1.5 478.3 C 1.4 476.2 2.7 478.2 1.5 478.3 C 1.5 478.3 1.5 478.3 1.5 478.3 Z M 13.9 478.6 C 12.9 477.5 16.1 477.2 13.9 478.6 C 13.9 478.6 13.9 478.6 13.9 478.6 Z M 4.1 481.9 C 4.1 481.8 4.5 482.3 4.7 482.7 C 4.5 482.6 4.1 482.1 4.1 481.9 C 4.1 481.9 4.1 481.9 4.1 481.9 Z M 13.8 475.0 C 12.3 471.9 16.3 474.4 13.8 475.0 C 13.8 475.0 13.8 475.0 13.8 475.0 Z M 10.8 468.6 C 7.6 468.2 11.5 465.3 10.8 468.6 C 10.8 468.6 10.8 468.6 10.8 468.6 Z M 3.8 473.1 C 4.5 473.6 3.4 473.6 3.8 473.1 C 3.8 473.1 3.8 473.1 3.8 473.1 Z M 3.3 486.9 C 4.0 487.5 2.9 487.5 3.3 486.9 C 3.3 486.9 3.3 486.9 3.3 486.9 Z M 4.1 469.1 C 5.2 469.3 3.5 470.3 4.1 469.1 C 4.1 469.1 4.1 469.1 4.1 469.1 Z M 12.6 478.0 C 15.1 480.9 8.8 481.6 12.6 478.0 C 12.6 478.0 12.6 478.0 12.6 478.0 Z M 12.8 483.2 C 13.4 485.2 11.2 482.9 11.6 482.0 C 11.9 482.1 12.7 482.9 12.8 483.2 C 12.8 483.2 12.8 483.2 12.8 483.2 Z M 12.3 475.0 C 13.5 477.0 11.6 476.8 12.3 475.0 C 12.3 475.0 12.3 475.0 12.3 475.0 Z M 13.7 480.0 C 13.4 481.0 13.3 479.2 13.7 480.0 C 13.7 480.0 13.7 480.0 13.7 480.0 Z M 14.9 471.0 C 14.6 472.0 14.6 470.2 14.9 471.0 C 14.9 471.0 14.9 471.0 14.9 471.0 Z M 14.1 485.7 C 13.8 486.7 13.8 484.9 14.1 485.7 C 14.1 485.7 14.1 485.7 14.1 485.7 Z M 13.2 471.9 C 12.1 471.6 9.6 474.4 11.7 469.3 C 12.5 468.4 14.2 470.5 13.2 471.9 C 13.2 471.9 13.2 471.9 13.2 471.9 Z M 11.6 40.9 C 15.2 29.1 8.9 31.9 7.8 31.4 C 6.1 29.8 5.0 31.4 3.8 33.7 C -0.1 36.2 7.9 37.4 4.0 39.2 C -1.4 42.4 8.6 42.8 3.0 44.2 C 1.5 43.6 2.7 48.2 3.1 47.8 C 0.4 50.1 5.1 53.4 5.6 53.4 C 4.9 55.0 -0.1 55.1 3.7 59.9 C 5.0 63.6 0.0 65.2 3.4 64.2 C -0.4 66.9 4.5 66.0 3.3 68.7 C 1.2 70.6 6.5 68.8 2.5 72.2 C 5.7 73.6 0.3 70.6 2.7 79.7 C 2.9 75.3 5.2 84.0 3.1 82.2 C 0.7 79.1 3.9 86.5 2.5 90.6 C 3.7 91.8 6.6 96.7 3.4 95.9 C -0.3 100.1 5.7 100.2 2.7 102.0 C 1.4 103.5 4.1 104.0 3.9 105.0 C 1.6 106.5 3.1 107.8 2.5 113.1 C 1.3 124.8 8.4 114.9 9.1 119.3 C 10.2 120.1 17.7 113.6 12.0 116.2 C 13.6 115.3 7.8 105.9 14.0 110.6 C 11.5 106.9 16.5 111.3 13.5 104.1 C 9.2 114.0 11.8 92.7 13.9 102.3 C 15.2 100.7 14.9 96.8 13.9 99.6 C 9.9 100.7 15.7 92.8 10.9 96.7 C 12.2 90.6 7.9 92.2 10.9 90.5 C 16.1 89.1 9.6 90.8 11.1 87.7 C 11.1 80.5 17.1 86.1 13.1 81.7 C 15.7 74.6 10.9 80.2 10.2 77.7 C 6.6 77.0 13.0 70.5 13.4 75.9 C 11.5 73.0 15.2 75.4 12.9 72.2 C 9.6 74.5 16.4 67.9 13.7 68.9 C 12.9 66.0 10.9 67.5 10.8 66.6 C 10.8 62.3 14.1 63.6 11.6 62.8 C 10.3 61.8 14.6 59.8 13.5 59.2 C 13.4 63.6 10.0 55.5 11.8 55.1 C 12.1 57.8 16.2 53.7 13.6 51.9 C 6.3 54.1 15.4 48.1 12.9 46.1 C 8.9 48.0 12.4 36.4 14.2 40.8 C 13.9 40.5 11.6 40.9 11.6 40.9 M 12.9 57.9 C 12.6 61.6 12.1 54.0 12.9 57.9 M 14.0 57.8 C 12.7 59.4 15.0 54.3 14.5 58.0 C 14.4 58.0 14.1 57.5 14.0 57.8 M 14.2 72.8 C 13.0 72.4 14.8 70.8 14.2 72.8 M 11.7 75.7 C 10.6 78.1 11.5 72.5 11.7 75.7 M 12.5 109.1 C 6.5 105.7 15.8 105.5 12.5 109.1 M 13.7 87.0 C 12.9 82.9 16.2 88.4 13.7 87.0 M 12.2 85.8 C 11.2 83.9 13.5 85.4 12.2 85.8 M 12.5 102.7 C 12.3 103.0 12.3 103.0 12.5 102.7 C 12.5 102.7 12.5 102.7 12.5 102.7 Z M 12.3 112.6 C 12.4 112.7 12.4 112.7 12.3 112.6 C 12.3 112.6 12.3 112.6 12.3 112.6 Z M 11.8 93.1 C 13.2 90.1 12.4 98.1 11.8 93.1 C 11.8 93.1 11.8 93.1 11.8 93.1 Z M 3.2 107.9 C 3.1 107.7 3.1 107.7 3.2 107.9 C 3.2 107.9 3.2 107.9 3.2 107.9 Z M 10.2 55.0 C 10.1 54.9 10.1 54.9 10.2 55.0 C 10.2 55.0 10.2 55.0 10.2 55.0 Z M 12.5 43.8 C 11.7 43.9 13.1 41.8 12.5 43.8 C 12.5 43.8 12.5 43.8 12.5 43.8 Z M 5.6 34.7 C 5.5 34.6 5.5 34.6 5.6 34.7 C 5.6 34.7 5.6 34.7 5.6 34.7 Z M 7.1 51.3 C 7.0 51.1 7.0 51.1 7.1 51.3 C 7.1 51.3 7.1 51.3 7.1 51.3 Z M 11.5 52.9 C 14.8 51.1 10.6 57.1 11.5 52.9 C 11.5 52.9 11.5 52.9 11.5 52.9 Z M 3.5 89.4 C 5.0 89.5 3.0 92.0 3.5 89.4 C 3.5 89.4 3.5 89.4 3.5 89.4 Z M 10.3 76.2 C 11.1 76.6 10.0 77.8 10.3 76.2 C 10.3 76.2 10.3 76.2 10.3 76.2 Z M 14.8 70.0 C 15.5 70.5 14.4 71.6 14.8 70.0 C 14.8 70.0 14.8 70.0 14.8 70.0 Z M 13.4 44.0 C 13.6 44.2 13.6 44.2 13.4 44.0 C 13.4 44.0 13.4 44.0 13.4 44.0 Z M 10.9 48.0 C 14.0 45.2 9.2 52.3 10.9 48.0 C 10.9 48.0 10.9 48.0 10.9 48.0 Z M 10.0 43.2 C 8.8 44.7 10.5 39.6 10.0 43.2 M 5.3 46.0 C 6.6 49.4 -0.3 42.9 5.3 46.0 C 5.3 46.0 5.3 46.0 5.3 46.0 Z M 4.0 63.3 C 3.9 63.5 3.9 63.5 4.0 63.3 C 4.0 63.3 4.0 63.3 4.0 63.3 Z M 13.1 61.5 C 12.9 64.5 12.3 59.5 13.1 61.5 C 13.1 61.5 13.1 61.5 13.1 61.5 Z M 13.7 35.4 C 13.6 38.4 13.0 33.4 13.7 35.4 C 13.7 35.4 13.7 35.4 13.7 35.4 Z M 7.0 73.4 C 7.5 78.3 5.4 70.3 7.0 73.4 C 7.0 73.4 7.0 73.4 7.0 73.4 Z M 10.6 91.4 C 10.5 91.6 10.5 91.6 10.6 91.4 C 10.6 91.4 10.6 91.4 10.6 91.4 Z M 11.9 94.8 C 11.8 94.9 11.8 94.9 11.9 94.8 C 11.9 94.8 11.9 94.8 11.9 94.8 Z M 8.7 108.8 C 8.6 109.0 8.6 109.0 8.7 108.8 C 8.7 108.8 8.7 108.8 8.7 108.8 Z M 13.4 97.8 C 13.3 97.9 13.3 97.9 13.4 97.8 C 13.4 97.8 13.4 97.8 13.4 97.8 Z M 12.6 107.5 C 12.5 107.7 12.5 107.7 12.6 107.5 C 12.6 107.5 12.6 107.5 12.6 107.5 Z M 15.3 106.2 C 15.1 106.4 15.1 106.4 15.3 106.2 C 15.3 106.2 15.3 106.2 15.3 106.2 Z M 1.8 84.6 C 1.6 84.8 1.6 84.8 1.8 84.6 C 1.8 84.6 1.8 84.6 1.8 84.6 Z M 14.4 49.3 C 14.1 49.5 14.1 49.5 14.4 49.3 C 14.4 49.3 14.4 49.3 14.4 49.3 Z M 11.4 106.8 C 11.3 106.9 11.3 106.9 11.4 106.8 C 11.4 106.8 11.4 106.8 11.4 106.8 Z M 8.9 83.1 C 6.3 83.2 12.4 81.1 9.1 83.7 C 8.9 83.6 9.3 82.9 8.9 83.1 M 4.6 86.3 C 4.5 86.1 4.5 86.1 4.6 86.3 C 4.6 86.3 4.6 86.3 4.6 86.3 Z M 2.9 75.5 C 2.8 75.4 2.8 75.4 2.9 75.5 C 2.9 75.5 2.9 75.5 2.9 75.5 Z M 13.9 96.1 C 15.4 95.7 12.8 98.8 13.8 95.7 M 4.1 108.9 C 5.6 108.4 3.0 111.5 4.0 108.5 M 12.8 32.0 C 11.6 31.6 13.4 29.9 12.8 32.0 M 1.5 73.1 C 0.4 72.7 2.2 71.1 1.5 73.1 M 4.9 78.1 C 6.4 77.7 3.8 80.8 4.8 77.7 M 4.2 101.5 C 4.2 101.7 4.2 101.7 4.2 101.5 C 4.2 101.5 4.2 101.5 4.2 101.5 Z M 12.8 66.0 C 12.7 66.2 12.7 66.2 12.8 66.0 C 12.8 66.0 12.8 66.0 12.8 66.0 Z M 9.6 79.2 C 11.7 77.4 8.3 81.5 9.6 79.2 M 9.2 62.2 C 11.8 59.7 8.4 66.4 9.2 62.2 M 3.5 114.4 C 6.5 111.5 1.9 116.6 3.5 114.4 M 11.1 100.0 C 14.1 97.1 9.4 102.2 11.1 100.0 M 11.5 68.7 C 13.0 68.5 10.5 71.6 11.5 68.7 M 13.0 38.8 C 13.3 36.0 14.2 42.4 13.0 38.8 M 4.1 94.4 C 4.0 94.6 4.0 94.6 4.1 94.4 C 4.1 94.4 4.1 94.4 4.1 94.4 Z M 1.5 47.8 C 1.3 47.9 1.3 47.9 1.5 47.8 C 1.5 47.8 1.5 47.8 1.5 47.8 Z M 13.4 118.2 C 13.3 118.3 13.3 118.3 13.4 118.2 C 13.4 118.2 13.4 118.2 13.4 118.2 Z M 9.7 98.3 C 9.5 98.4 9.5 98.4 9.7 98.3 C 9.7 98.3 9.7 98.3 9.7 98.3 Z M 13.8 112.6 C 13.6 112.8 13.6 112.8 13.8 112.6 C 13.8 112.6 13.8 112.6 13.8 112.6 Z M 7.3 89.2 C 7.2 89.3 7.2 89.3 7.3 89.2 C 7.3 89.2 7.3 89.2 7.3 89.2 Z M 15.0 87.4 C 15.0 87.4 15.0 87.4 15.0 87.4 C 15.0 87.4 15.0 87.4 15.0 87.4 Z M 11.7 77.5 C 11.7 77.5 11.7 77.5 11.7 77.5 C 11.7 77.5 11.7 77.5 11.7 77.5 Z M 14.4 91.9 C 14.9 97.8 11.8 88.9 14.4 91.9 C 14.4 91.9 14.4 91.9 14.4 91.9 Z M 6.7 81.7 C 6.6 81.7 6.6 81.7 6.7 81.7 C 6.7 81.7 6.7 81.7 6.7 81.7 Z M 12.2 80.8 C 14.4 84.6 8.4 82.8 12.2 80.8 M 14.0 64.3 C 15.2 65.4 12.2 64.9 14.0 64.3 M 3.9 57.7 C 3.7 57.7 3.7 57.7 3.9 57.7 C 3.9 57.7 3.9 57.7 3.9 57.7 Z M 4.7 59.5 C 4.6 59.7 4.6 59.7 4.7 59.5 C 4.7 59.5 4.7 59.5 4.7 59.5 Z M 14.4 60.3 C 14.4 60.4 14.4 60.4 14.4 60.3 C 14.4 60.3 14.4 60.3 14.4 60.3 Z M 1.8 59.7 C 1.7 59.9 1.7 59.9 1.8 59.7 C 1.8 59.7 1.8 59.7 1.8 59.7 Z M 14.8 85.1 C 14.8 85.2 14.8 85.2 14.8 85.1 C 14.8 85.1 14.8 85.1 14.8 85.1 Z M 14.9 115.5 C 14.9 115.6 14.9 115.6 14.9 115.5 C 14.9 115.5 14.9 115.5 14.9 115.5 Z M 4.9 39.6 C 4.8 39.8 4.8 39.8 4.9 39.6 C 4.9 39.6 4.9 39.6 4.9 39.6 Z M 11.8 88.3 C 11.7 88.4 11.7 88.4 11.8 88.3 C 11.8 88.3 11.8 88.3 11.8 88.3 Z M 4.3 53.4 C 4.2 53.5 4.2 53.5 4.3 53.4 C 4.3 53.4 4.3 53.4 4.3 53.4 Z M 12.4 86.3 C 12.4 86.4 12.4 86.4 12.4 86.3 C 12.4 86.3 12.4 86.3 12.4 86.3 Z M 3.5 93.5 C 3.4 93.5 3.4 93.5 3.5 93.5 C 3.5 93.5 3.5 93.5 3.5 93.5 Z M 1.7 100.0 C 1.7 100.1 1.7 100.1 1.7 100.0 C 1.7 100.0 1.7 100.0 1.7 100.0 Z M 8.8 93.0 C 8.8 93.1 8.8 93.1 8.8 93.0 C 8.8 93.0 8.8 93.0 8.8 93.0 Z M 7.6 51.3 C 10.3 39.4 8.8 60.8 7.6 51.3 M 8.2 95.0 C 8.8 86.7 11.2 101.7 8.2 95.0 C 9.0 95.9 8.3 95.1 8.2 95.0 M 14.7 121.1 C 11.8 117.7 9.1 117.7 6.2 119.2 C 4.7 120.9 10.4 120.8 5.6 120.9 C 4.7 117.0 -1.6 122.6 4.6 122.5 C 5.5 127.7 0.6 123.4 3.1 126.4 C 3.7 131.9 1.8 129.1 2.3 133.4 C 5.6 135.8 0.6 135.8 3.8 136.9 C 0.3 134.8 4.8 141.5 3.2 141.6 C 1.0 137.7 3.1 156.3 4.2 146.2 C 5.8 150.3 2.9 149.5 2.5 150.9 C 4.5 152.7 0.9 157.7 2.9 160.2 C 3.3 159.7 3.5 158.5 4.2 158.1 C 5.5 157.4 3.9 161.0 4.0 160.6 C 4.7 162.3 6.8 168.9 3.2 161.8 C 1.5 161.5 3.9 167.6 2.4 167.4 C 2.4 173.6 5.8 168.9 3.3 171.7 C 3.2 176.1 3.2 179.2 3.6 179.2 C 3.2 181.9 1.3 182.4 3.2 184.8 C -0.5 190.2 10.2 188.6 3.0 190.7 C 4.7 192.2 0.1 193.7 4.5 193.5 C 2.5 191.6 1.0 202.7 4.3 197.9 C 5.3 199.1 -0.3 206.1 4.2 205.1 C 7.5 207.6 10.8 207.1 14.0 201.7 C 11.4 202.3 16.6 196.0 12.2 200.1 C 10.7 204.7 10.6 191.5 12.2 194.3 C 17.5 195.0 8.9 187.9 12.7 185.2 C 10.6 187.4 9.6 176.7 13.5 179.8 C 13.8 177.9 12.0 177.4 14.3 175.2 C 13.9 181.6 10.1 172.8 12.5 173.2 C 14.0 174.2 15.2 164.7 13.0 165.7 C 7.5 169.0 14.1 163.2 12.0 161.5 C 10.8 156.3 16.6 162.4 12.6 158.4 C 13.3 157.4 13.3 150.4 14.4 154.8 C 13.9 156.5 8.5 150.6 13.1 149.9 C 15.7 157.4 14.6 141.3 13.1 143.8 C 10.6 155.4 10.2 131.5 12.8 140.6 C 15.3 135.5 13.8 142.1 12.7 135.7 C 11.2 136.6 9.8 131.6 12.7 132.8 C 17.2 131.8 6.9 131.1 12.9 127.1 C 15.5 126.6 11.0 119.4 13.9 122.2 C 14.2 122.4 14.7 121.3 14.7 121.1 M 14.1 123.4 C 13.2 122.6 15.4 122.0 14.1 123.4 M 13.2 122.5 C 13.3 122.4 13.3 122.4 13.2 122.5 C 13.2 122.5 13.2 122.5 13.2 122.5 Z M 12.5 134.8 C 12.6 134.7 12.6 134.7 12.5 134.8 C 12.5 134.8 12.5 134.8 12.5 134.8 Z M 1.4 144.5 C 1.6 144.5 1.6 144.5 1.4 144.5 C 1.4 144.5 1.4 144.5 1.4 144.5 Z M 12.3 143.0 C 12.3 142.9 12.3 142.9 12.3 143.0 C 12.3 143.0 12.3 143.0 12.3 143.0 Z M 11.8 130.4 C 11.8 130.3 11.8 130.3 11.8 130.4 C 11.8 130.4 11.8 130.4 11.8 130.4 Z M 13.9 142.3 C 12.2 142.9 15.1 139.4 14.1 142.4 C 14.0 142.5 14.0 142.0 13.9 142.3 M 14.5 153.0 C 14.3 153.1 14.3 153.1 14.5 153.0 M 1.5 176.6 C 1.3 176.7 1.3 176.7 1.5 176.6 M 14.7 178.6 C 14.5 178.8 14.5 178.8 14.7 178.6 M 12.9 163.6 C 13.1 166.9 12.0 164.5 12.9 163.6 M 13.7 187.2 C 14.8 183.1 14.6 191.6 13.7 187.2 M 14.7 191.2 C 14.5 191.6 14.5 191.6 14.7 191.2 M 14.1 172.6 C 13.9 172.5 13.9 172.5 14.1 172.6 C 14.1 172.6 14.1 172.6 14.1 172.6 Z M 13.5 162.3 C 14.4 158.0 15.1 166.6 13.5 162.3 M 14.1 136.3 C 14.9 138.6 12.0 136.2 14.1 136.3 M 13.2 131.4 C 13.1 131.4 13.1 131.4 13.2 131.4 C 13.2 131.4 13.2 131.4 13.2 131.4 Z M 13.8 180.6 C 13.8 180.4 13.8 180.4 13.8 180.6 C 13.8 180.6 13.8 180.6 13.8 180.6 Z M 14.1 185.3 C 14.1 185.2 14.1 185.2 14.1 185.3 C 14.1 185.3 14.1 185.3 14.1 185.3 Z M 2.0 193.2 C 1.9 193.1 1.9 193.1 2.0 193.2 C 2.0 193.2 2.0 193.2 2.0 193.2 Z M 8.1 135.0 C 9.0 131.8 12.1 138.3 9.1 137.6 C 7.9 138.0 8.4 135.4 8.1 135.0 M 9.9 159.1 C 5.7 160.0 15.5 156.0 9.9 159.1 M 12.0 191.8 C 7.1 195.0 15.5 187.8 12.0 191.8 M 12.8 198.3 C 11.8 200.2 12.3 186.2 13.6 196.0 C 14.4 196.9 13.4 197.6 12.8 198.3 M 12.5 153.1 C 10.2 154.1 13.5 148.1 12.5 153.1 M 5.7 172.9 C 7.1 174.4 8.4 178.5 5.9 176.7 C 2.7 176.7 4.4 171.0 5.7 172.9 M 11.8 124.4 C 15.5 127.0 8.7 124.3 11.8 124.4 M 11.5 136.9 C 11.7 136.9 11.7 136.9 11.5 136.9 C 11.5 136.9 11.5 136.9 11.5 136.9 Z M 12.1 141.8 C 11.8 142.0 11.8 142.0 12.1 141.8 M 15.0 126.4 C 14.7 126.6 14.7 126.6 15.0 126.4 M 9.5 172.8 C 9.2 173.0 9.2 173.0 9.5 172.8 M 11.9 162.7 C 8.3 167.5 11.2 160.1 11.9 162.7 M 4.9 151.0 C 3.2 152.4 4.8 147.9 4.9 151.0 M 13.3 170.6 C 9.9 174.0 10.0 165.9 13.3 170.6 M 12.3 160.3 C 12.3 160.6 12.3 160.6 12.3 160.3 C 12.3 160.3 12.3 160.3 12.3 160.3 Z M 5.3 174.1 C 5.2 174.0 5.2 174.0 5.3 174.1 C 5.3 174.1 5.3 174.1 5.3 174.1 Z M 5.5 175.6 C 5.4 175.4 5.4 175.4 5.5 175.6 C 5.5 175.6 5.5 175.6 5.5 175.6 Z M 13.7 174.8 C 13.6 174.6 13.6 174.6 13.7 174.8 C 13.7 174.8 13.7 174.8 13.7 174.8 Z M 3.7 131.1 C 3.4 134.5 3.1 128.4 3.7 131.1 C 3.7 131.1 3.7 131.1 3.7 131.1 Z M 13.8 146.2 C 11.1 151.8 11.3 142.2 13.8 146.2 C 13.8 146.2 13.8 146.2 13.8 146.2 Z M 9.3 152.6 C 9.2 152.6 9.2 152.6 9.3 152.6 C 9.3 152.6 9.3 152.6 9.3 152.6 Z M 15.4 168.4 C 15.2 168.4 15.2 168.4 15.4 168.4 C 15.4 168.4 15.4 168.4 15.4 168.4 Z M 3.2 132.8 C 3.0 132.8 3.0 132.8 3.2 132.8 C 3.2 132.8 3.2 132.8 3.2 132.8 Z M 11.8 184.5 C 11.6 184.5 11.6 184.5 11.8 184.5 C 11.8 184.5 11.8 184.5 11.8 184.5 Z M 4.7 164.9 C 6.1 166.1 3.7 165.2 4.7 164.9 C 4.7 164.9 4.7 164.9 4.7 164.9 Z M 4.7 170.0 C 4.7 170.1 4.7 170.1 4.7 170.0 C 4.7 170.0 4.7 170.0 4.7 170.0 Z M 15.0 192.5 C 15.0 192.6 15.0 192.6 15.0 192.5 C 15.0 192.5 15.0 192.5 15.0 192.5 Z M 1.5 182.9 C 1.5 183.1 1.5 183.1 1.5 182.9 C 1.5 182.9 1.5 182.9 1.5 182.9 Z M 5.5 187.2 C 5.5 187.1 5.5 187.1 5.5 187.2 C 5.5 187.2 5.5 187.2 5.5 187.2 Z M 12.8 173.9 C 13.5 179.0 11.3 172.7 12.8 173.9 C 12.8 173.9 12.8 173.9 12.8 173.9 Z M 6.6 199.8 C 6.4 199.9 6.4 199.9 6.6 199.8 C 6.6 199.8 6.6 199.8 6.6 199.8 Z M 11.3 202.4 C 11.1 202.5 11.1 202.5 11.3 202.4 C 11.3 202.4 11.3 202.4 11.3 202.4 Z M 13.8 203.7 C 13.6 203.8 13.6 203.8 13.8 203.7 C 13.8 203.7 13.8 203.7 13.8 203.7 Z M 7.0 141.7 C 7.2 141.6 7.2 141.6 7.0 141.7 C 7.0 141.7 7.0 141.7 7.0 141.7 Z M 14.7 139.7 C 14.7 139.6 14.7 139.6 14.7 139.7 C 14.7 139.7 14.7 139.7 14.7 139.7 Z M 15.0 146.6 C 15.1 146.5 15.1 146.5 15.0 146.6 C 15.0 146.6 15.0 146.6 15.0 146.6 Z M 2.4 140.5 C 2.5 140.4 2.5 140.4 2.4 140.5 C 2.4 140.5 2.4 140.5 2.4 140.5 Z M 8.9 166.3 C 9.0 166.2 9.0 166.2 8.9 166.3 C 8.9 166.3 8.9 166.3 8.9 166.3 Z M 5.8 168.7 C 5.9 168.6 5.9 168.6 5.8 168.7 C 5.8 168.7 5.8 168.7 5.8 168.7 Z M 1.7 162.7 C 1.7 162.7 1.7 162.7 1.7 162.7 C 1.7 162.7 1.7 162.7 1.7 162.7 Z M 3.1 170.6 C 3.2 170.5 3.2 170.5 3.1 170.6 C 3.1 170.6 3.1 170.6 3.1 170.6 Z M 3.8 123.2 C 3.7 123.1 3.7 123.1 3.8 123.2 C 3.8 123.2 3.8 123.2 3.8 123.2 Z M 9.7 122.6 C 9.5 122.5 9.5 122.5 9.7 122.6 C 9.7 122.6 9.7 122.6 9.7 122.6 Z M 13.2 167.1 C 14.4 168.2 11.5 169.4 13.2 167.1 M 12.4 157.2 C 12.3 157.2 12.3 157.2 12.4 157.2 C 12.4 157.2 12.4 157.2 12.4 157.2 Z M 12.9 183.6 C 10.6 184.9 14.1 179.0 12.9 183.6 C 12.9 183.6 12.9 183.6 12.9 183.6 Z M 3.1 178.4 C 3.1 178.5 3.1 178.5 3.1 178.4 C 3.1 178.4 3.1 178.4 3.1 178.4 Z M 4.1 181.0 C 3.9 181.2 3.9 181.2 4.1 181.0 C 4.1 181.0 4.1 181.0 4.1 181.0 Z M 10.5 195.2 C 10.2 195.5 10.2 195.5 10.5 195.2 M 14.5 156.0 C 13.5 157.4 13.7 157.2 14.5 156.0 M 12.8 186.9 C 12.8 186.8 12.8 186.8 12.8 186.9 C 12.8 186.9 12.8 186.9 12.8 186.9 Z M 11.8 198.4 C 11.7 198.2 11.7 198.2 11.8 198.4 C 11.8 198.4 11.8 198.4 11.8 198.4 Z M 12.9 149.0 C 10.1 149.2 10.7 147.9 12.9 149.0 M 12.0 129.4 C 11.8 129.4 11.8 129.4 12.0 129.4 C 12.0 129.4 12.0 129.4 12.0 129.4 Z M 13.8 214.0 C 16.9 208.6 12.5 208.6 12.4 208.6 C 18.3 209.2 10.0 203.9 8.9 204.9 C 8.1 204.7 -2.3 208.9 4.0 212.6 C 4.8 213.6 2.9 214.2 2.8 215.0 C 3.0 221.5 6.0 210.4 6.0 218.4 C 5.2 219.8 0.2 218.2 3.6 222.9 C 3.2 223.1 1.3 228.4 3.6 226.4 C 1.3 228.9 4.1 230.6 4.6 232.9 C 3.3 235.1 1.0 231.2 3.8 238.8 C -0.3 242.1 6.8 243.3 2.3 246.3 C 2.2 248.2 9.6 251.1 5.4 246.7 C 5.8 247.3 9.4 244.5 8.1 250.6 C 7.2 249.7 -0.4 246.4 3.2 255.9 C 3.0 257.4 5.0 261.1 4.2 261.9 C 3.3 257.0 0.8 268.6 3.1 267.4 C 1.6 275.1 5.0 270.7 2.4 276.2 C 2.4 280.7 5.8 274.7 3.8 280.3 C 4.2 284.5 2.3 281.7 2.5 281.2 C 2.1 284.9 3.5 286.2 3.4 287.5 C 3.0 288.3 1.4 290.0 3.3 290.9 C 6.7 294.7 10.2 291.2 13.6 292.9 C 15.2 290.0 11.0 291.6 13.5 289.7 C 11.4 288.3 13.7 289.5 13.2 281.8 C 12.7 282.0 11.2 283.8 11.0 282.0 C 11.3 279.0 17.1 281.1 13.0 276.1 C 11.7 282.0 11.1 267.9 9.9 273.4 C 9.2 266.6 10.4 271.4 11.8 266.5 C 7.9 266.8 15.9 266.1 12.8 264.3 C 14.4 263.8 13.7 256.1 11.3 261.6 C 10.3 253.6 12.5 258.7 14.6 255.8 C 14.8 252.1 8.2 255.6 13.0 253.2 C 15.2 248.4 10.7 253.0 14.4 249.6 C 11.1 251.1 14.4 246.0 10.8 247.3 C 10.5 239.1 14.7 248.4 12.1 242.6 C 12.0 244.4 16.9 243.7 13.7 240.1 C 8.0 241.6 18.8 235.5 11.2 238.1 C 9.0 226.6 14.4 236.1 14.4 229.8 C 14.4 228.2 11.9 231.6 11.8 230.1 C 12.9 222.0 14.9 228.7 11.2 224.5 C 10.2 216.5 14.4 222.2 14.6 218.2 C 12.8 217.9 9.8 214.7 13.8 214.0 M 12.0 221.1 C 13.1 222.8 10.7 222.2 12.0 221.1 M 13.8 205.0 C 14.9 206.7 12.5 206.0 13.8 205.0 M 13.1 227.7 C 14.3 230.0 11.1 228.4 13.1 227.7 M 11.2 271.0 C 11.2 268.0 12.2 272.4 11.2 271.0 M 14.0 211.4 C 15.4 213.8 11.9 212.1 14.0 211.4 M 11.0 208.5 C 11.0 208.6 11.0 208.6 11.0 208.5 M 14.3 275.3 C 14.3 275.4 14.3 275.4 14.3 275.3 M 14.4 263.7 C 14.3 266.2 13.6 262.3 14.4 263.7 M 1.8 263.3 C 1.7 265.8 1.0 261.9 1.8 263.3 M 14.5 281.6 C 15.4 284.1 13.1 282.3 14.5 281.6 M 11.7 288.1 C 12.8 290.3 10.5 289.5 11.7 288.1 M 7.6 219.7 C 7.5 219.6 7.5 219.6 7.6 219.7 C 7.6 219.7 7.6 219.7 7.6 219.7 Z M 4.5 240.9 C 5.7 238.4 2.9 244.0 4.5 240.9 M 12.7 237.0 C 10.1 238.7 12.9 233.7 12.7 237.0 C 12.7 237.0 12.7 237.0 12.7 237.0 Z M 11.5 233.3 C 11.4 233.2 11.4 233.2 11.5 233.3 C 11.5 233.3 11.5 233.3 11.5 233.3 Z M 11.4 245.3 C 11.4 245.2 11.4 245.2 11.4 245.3 C 11.4 245.3 11.4 245.3 11.4 245.3 Z M 11.2 242.8 C 10.6 241.8 11.7 241.4 11.2 242.8 C 11.2 242.8 11.2 242.8 11.2 242.8 Z M 3.1 260.3 C 2.5 259.2 3.6 258.9 3.1 260.3 C 3.1 260.3 3.1 260.3 3.1 260.3 Z M 10.3 239.0 C 7.7 238.7 12.0 237.3 10.3 239.0 C 10.3 239.0 10.3 239.0 10.3 239.0 Z M 4.2 251.9 C 4.9 253.0 1.8 254.1 4.2 251.9 M 13.9 277.7 C 14.5 278.8 11.4 280.0 13.9 277.7 M 14.6 252.3 C 15.3 253.4 12.2 254.6 14.6 252.3 M 13.1 222.5 C 12.8 222.8 12.8 222.8 13.1 222.5 M 2.0 236.6 C 3.0 238.2 0.9 237.4 2.0 236.6 M 2.9 212.7 C 3.8 214.4 1.7 213.5 2.9 212.7 M 2.1 274.1 C 2.8 274.0 1.8 276.7 2.1 274.1 M 10.5 255.3 C 10.2 257.6 8.8 259.8 9.0 255.2 C 9.6 254.9 9.9 256.3 10.5 255.3 C 10.5 255.3 10.5 255.3 10.5 255.3 Z M 4.7 263.3 C 4.5 263.6 4.5 263.6 4.7 263.3 M 12.9 259.3 C 12.6 259.6 12.6 259.6 12.9 259.3 M 12.6 272.3 C 12.2 272.5 12.2 272.5 12.6 272.3 M 13.3 273.9 C 13.2 273.8 13.2 273.8 13.3 273.9 C 13.3 273.9 13.3 273.9 13.3 273.9 Z M 14.4 288.1 C 14.3 288.1 14.3 288.1 14.4 288.1 C 14.4 288.1 14.4 288.1 14.4 288.1 Z M 12.3 268.1 C 12.2 268.1 12.2 268.1 12.3 268.1 C 12.3 268.1 12.3 268.1 12.3 268.1 Z M 2.6 279.9 C 2.5 279.9 2.5 279.9 2.6 279.9 C 2.6 279.9 2.6 279.9 2.6 279.9 Z M 4.1 278.4 C 4.0 278.4 4.0 278.4 4.1 278.4 C 4.1 278.4 4.1 278.4 4.1 278.4 Z M 13.8 215.1 C 15.6 217.1 9.4 216.2 13.8 215.1 M 4.1 284.7 C 2.3 286.6 3.7 281.4 4.1 284.7 C 4.1 284.7 4.1 284.7 4.1 284.7 Z M 10.2 266.6 C 9.8 266.7 9.8 266.7 10.2 266.6 M 13.1 274.7 C 12.8 274.9 12.8 274.9 13.1 274.7 M 15.0 236.9 C 14.7 237.1 14.7 237.1 15.0 236.9 M 12.6 284.7 C 12.0 290.8 9.0 282.0 12.6 284.7 M 12.6 234.1 C 12.8 234.0 12.8 234.0 12.6 234.1 M 7.9 247.8 C 8.0 251.8 6.4 246.3 7.9 247.8 M 11.1 258.1 C 10.9 258.0 10.9 258.0 11.1 258.1 C 11.1 258.1 11.1 258.1 11.1 258.1 Z M 11.1 252.1 C 10.7 249.1 11.8 251.3 11.1 252.1 C 11.1 252.1 11.1 252.1 11.1 252.1 Z M 11.5 218.0 C 11.1 221.8 10.6 214.0 11.5 218.0 C 11.5 218.0 11.5 218.0 11.5 218.0 Z M 6.7 281.9 C 6.5 281.8 6.5 281.8 6.7 281.9 C 6.7 281.9 6.7 281.9 6.7 281.9 Z M 14.1 267.4 C 13.4 265.6 14.8 266.5 14.1 267.4 C 14.1 267.4 14.1 267.4 14.1 267.4 Z M 14.4 290.3 C 13.7 288.5 15.1 289.4 14.4 290.3 C 14.4 290.3 14.4 290.3 14.4 290.3 Z M 11.9 213.4 C 7.7 227.4 13.0 194.6 11.9 213.4 C 11.9 213.4 11.9 213.4 11.9 213.4 Z M 12.8 254.5 C 12.6 254.4 12.6 254.4 12.8 254.5 C 12.8 254.5 12.8 254.5 12.8 254.5 Z M 14.5 228.5 C 14.4 228.5 14.4 228.5 14.5 228.5 C 14.5 228.5 14.5 228.5 14.5 228.5 Z M 12.2 224.1 C 12.1 224.1 12.1 224.1 12.2 224.1 C 12.2 224.1 12.2 224.1 12.2 224.1 Z M 2.3 225.4 C 2.1 225.3 2.1 225.3 2.3 225.4 C 2.3 225.4 2.3 225.4 2.3 225.4 Z M 6.8 226.9 C 6.5 226.7 6.5 226.7 6.8 226.9 C 6.8 226.9 6.8 226.9 6.8 226.9 Z M 5.1 217.8 C 4.9 217.7 4.9 217.7 5.1 217.8 C 5.1 217.8 5.1 217.8 5.1 217.8 Z M 3.8 218.0 C 3.7 218.0 3.7 218.0 3.8 218.0 C 3.8 218.0 3.8 218.0 3.8 218.0 Z M 10.3 274.7 C 10.1 274.6 10.1 274.6 10.3 274.7 C 10.3 274.7 10.3 274.7 10.3 274.7 Z M 6.1 269.9 C 7.6 273.1 4.0 268.9 6.1 269.9 C 6.1 269.9 6.1 269.9 6.1 269.9 Z M 8.2 240.8 C 8.7 243.9 6.9 238.9 8.2 240.8 C 8.2 240.8 8.2 240.8 8.2 240.8 Z M 2.8 244.1 C 2.7 244.2 2.7 244.2 2.8 244.1 C 2.8 244.1 2.8 244.1 2.8 244.1 Z M 14.6 224.2 C 14.4 224.0 14.4 224.0 14.6 224.2 C 14.6 224.2 14.6 224.2 14.6 224.2 Z M 12.9 218.6 C 10.8 218.4 14.0 216.9 12.9 218.6 M 14.1 246.4 C 13.9 246.4 13.9 246.4 14.1 246.4 C 14.1 246.4 14.1 246.4 14.1 246.4 Z M 10.8 264.1 C 10.7 264.0 10.7 264.0 10.8 264.1 C 10.8 264.1 10.8 264.1 10.8 264.1 Z M 12.2 281.5 C 11.9 281.4 11.9 281.4 12.2 281.5 C 12.2 281.5 12.2 281.5 12.2 281.5 Z M 13.9 257.4 C 13.6 257.3 13.6 257.3 13.9 257.4 C 13.9 257.4 13.9 257.4 13.9 257.4 Z M 11.9 249.1 C 11.7 249.0 11.7 249.0 11.9 249.1 C 11.9 249.1 11.9 249.1 11.9 249.1 Z M 9.2 285.4 C 9.1 285.2 9.1 285.2 9.2 285.4 C 9.2 285.4 9.2 285.4 9.2 285.4 Z M 14.2 259.4 C 14.1 259.3 14.1 259.3 14.2 259.4 C 14.2 259.4 14.2 259.4 14.2 259.4 Z M 7.5 264.4 C 7.3 264.3 7.3 264.3 7.5 264.4 C 7.5 264.4 7.5 264.4 7.5 264.4 Z M 15.9 219.4 C 15.8 219.3 15.8 219.3 15.9 219.4 C 15.9 219.4 15.9 219.4 15.9 219.4 Z M 12.0 285.5 C 11.9 285.5 11.9 285.5 12.0 285.5 C 12.0 285.5 12.0 285.5 12.0 285.5 Z M 13.9 286.6 C 13.8 286.6 13.8 286.6 13.9 286.6 C 13.9 286.6 13.9 286.6 13.9 286.6 Z M 3.9 274.3 C 5.1 268.1 4.4 279.8 6.7 275.3 C 7.2 284.1 3.8 275.6 3.9 274.3 C 3.9 274.3 3.9 274.3 3.9 274.3 Z M 14.7 294.9 C 11.8 291.4 9.1 291.5 6.2 293.0 C 4.7 294.6 10.4 294.6 5.6 294.7 C 4.7 290.8 -1.6 296.4 4.6 296.3 C 5.5 301.4 0.6 297.1 3.1 300.2 C 3.7 305.7 1.8 302.9 2.3 307.1 C 5.6 309.6 0.6 309.6 3.8 310.7 C 0.3 308.6 4.8 315.2 3.2 315.4 C 1.0 311.5 3.1 330.1 4.2 320.0 C 5.8 324.1 2.9 323.3 2.5 324.7 C 4.5 326.5 0.9 331.5 2.9 334.0 C 3.3 333.5 3.5 332.2 4.2 331.9 C 5.5 331.1 3.9 334.7 4.0 334.4 C 4.7 336.0 6.8 342.7 3.2 335.6 C 1.5 335.2 3.9 341.4 2.4 341.1 C 2.4 347.3 5.8 342.7 3.3 345.4 C 3.2 349.8 3.2 353.0 3.6 353.0 C 3.2 355.6 1.3 356.2 3.2 358.6 C -0.5 364.0 10.2 362.4 3.0 364.4 C 4.7 366.0 0.1 367.5 4.5 367.2 C 2.5 365.4 1.0 376.4 4.3 371.7 C 5.3 372.9 -0.3 379.8 4.2 378.9 C 7.5 381.3 10.8 380.9 14.0 375.5 C 11.4 376.1 16.6 369.8 12.2 373.8 C 10.7 378.5 10.6 365.3 12.2 368.1 C 17.5 368.8 8.9 361.7 12.7 358.9 C 10.6 361.2 9.6 350.5 13.5 353.6 C 13.8 351.6 12.0 351.2 14.3 349.0 C 13.9 355.4 10.1 346.5 12.5 346.9 C 14.0 348.0 15.2 338.4 13.0 339.4 C 7.5 342.8 14.1 336.9 12.0 335.3 C 10.8 330.0 16.6 336.1 12.6 332.2 C 13.3 331.2 13.3 324.1 14.4 328.6 C 13.9 330.2 8.5 324.4 13.1 323.7 C 15.7 331.2 14.6 315.0 13.1 317.6 C 10.6 329.1 10.2 305.3 12.8 314.4 C 15.3 309.2 13.8 315.9 12.7 309.5 C 11.2 310.4 9.8 305.4 12.7 306.6 C 17.2 305.6 6.9 304.8 12.9 300.9 C 15.5 300.4 11.0 293.2 13.9 296.0 C 14.2 296.1 14.7 295.1 14.7 294.9 M 14.1 297.2 C 13.2 296.3 15.4 295.8 14.1 297.2 M 13.2 296.3 C 13.3 296.2 13.3 296.2 13.2 296.3 C 13.2 296.3 13.2 296.3 13.2 296.3 Z M 12.5 308.6 C 12.6 308.5 12.6 308.5 12.5 308.6 C 12.5 308.6 12.5 308.6 12.5 308.6 Z M 1.4 318.3 C 1.6 318.2 1.6 318.2 1.4 318.3 C 1.4 318.3 1.4 318.3 1.4 318.3 Z M 12.3 316.8 C 12.3 316.7 12.3 316.7 12.3 316.8 C 12.3 316.8 12.3 316.8 12.3 316.8 Z M 11.8 304.2 C 11.8 304.1 11.8 304.1 11.8 304.2 C 11.8 304.2 11.8 304.2 11.8 304.2 Z M 13.9 316.0 C 12.2 316.7 15.1 313.2 14.1 316.2 C 14.0 316.3 14.0 315.7 13.9 316.0 M 14.5 326.8 C 14.3 326.8 14.3 326.8 14.5 326.8 M 1.5 350.4 C 1.3 350.5 1.3 350.5 1.5 350.4 M 14.7 352.3 C 14.5 352.6 14.5 352.6 14.7 352.3 M 12.9 337.4 C 13.1 340.7 12.0 338.2 12.9 337.4 M 13.7 361.0 C 14.8 356.9 14.6 365.4 13.7 361.0 M 14.7 365.0 C 14.5 365.3 14.5 365.3 14.7 365.0 M 14.1 346.4 C 13.9 346.3 13.9 346.3 14.1 346.4 C 14.1 346.4 14.1 346.4 14.1 346.4 Z M 13.5 336.0 C 14.4 331.7 15.1 340.4 13.5 336.0 M 14.1 310.0 C 14.9 312.4 12.0 310.0 14.1 310.0 M 13.2 305.2 C 13.1 305.1 13.1 305.1 13.2 305.2 C 13.2 305.2 13.2 305.2 13.2 305.2 Z M 13.8 354.4 C 13.8 354.2 13.8 354.2 13.8 354.4 C 13.8 354.4 13.8 354.4 13.8 354.4 Z M 14.1 359.1 C 14.1 358.9 14.1 358.9 14.1 359.1 C 14.1 359.1 14.1 359.1 14.1 359.1 Z M 2.0 367.0 C 1.9 366.8 1.9 366.8 2.0 367.0 C 2.0 367.0 2.0 367.0 2.0 367.0 Z M 8.1 308.8 C 9.0 305.6 12.1 312.0 9.1 311.4 C 7.9 311.7 8.4 309.1 8.1 308.8 M 9.9 332.9 C 5.7 333.7 15.5 329.8 9.9 332.9 M 12.0 365.6 C 7.1 368.7 15.5 361.5 12.0 365.6 M 12.8 372.1 C 11.8 373.9 12.3 360.0 13.6 369.8 C 14.4 370.7 13.4 371.4 12.8 372.1 M 12.5 326.9 C 10.2 327.8 13.5 321.8 12.5 326.9 M 5.7 346.6 C 7.1 348.2 8.4 352.3 5.9 350.5 C 2.7 350.4 4.4 344.7 5.7 346.6 M 11.8 298.2 C 15.5 300.8 8.7 298.1 11.8 298.2 M 11.5 310.6 C 11.7 310.7 11.7 310.7 11.5 310.6 C 11.5 310.6 11.5 310.6 11.5 310.6 Z M 12.1 315.6 C 11.8 315.8 11.8 315.8 12.1 315.6 M 15.0 300.2 C 14.7 300.4 14.7 300.4 15.0 300.2 M 9.5 346.5 C 9.2 346.8 9.2 346.8 9.5 346.5 M 11.9 336.5 C 8.3 341.3 11.2 333.9 11.9 336.5 M 4.9 324.7 C 3.2 326.2 4.8 321.7 4.9 324.7 M 13.3 344.4 C 9.9 347.8 10.0 339.7 13.3 344.4 M 12.3 334.1 C 12.3 334.3 12.3 334.3 12.3 334.1 C 12.3 334.1 12.3 334.1 12.3 334.1 Z M 5.3 347.9 C 5.2 347.8 5.2 347.8 5.3 347.9 C 5.3 347.9 5.3 347.9 5.3 347.9 Z M 5.5 349.3 C 5.4 349.2 5.4 349.2 5.5 349.3 C 5.5 349.3 5.5 349.3 5.5 349.3 Z M 13.7 348.6 C 13.6 348.4 13.6 348.4 13.7 348.6 C 13.7 348.6 13.7 348.6 13.7 348.6 Z M 3.7 304.8 C 3.4 308.2 3.1 302.2 3.7 304.8 C 3.7 304.8 3.7 304.8 3.7 304.8 Z M 13.8 319.9 C 11.1 325.6 11.3 316.0 13.8 319.9 C 13.8 319.9 13.8 319.9 13.8 319.9 Z M 9.3 326.3 C 9.2 326.3 9.2 326.3 9.3 326.3 C 9.3 326.3 9.3 326.3 9.3 326.3 Z M 15.4 342.2 C 15.2 342.2 15.2 342.2 15.4 342.2 C 15.4 342.2 15.4 342.2 15.4 342.2 Z M 3.2 306.6 C 3.0 306.6 3.0 306.6 3.2 306.6 C 3.2 306.6 3.2 306.6 3.2 306.6 Z M 11.8 358.2 C 11.6 358.2 11.6 358.2 11.8 358.2 C 11.8 358.2 11.8 358.2 11.8 358.2 Z M 4.7 338.7 C 6.1 339.9 3.7 338.9 4.7 338.7 C 4.7 338.7 4.7 338.7 4.7 338.7 Z M 4.7 343.7 C 4.7 343.9 4.7 343.9 4.7 343.7 C 4.7 343.7 4.7 343.7 4.7 343.7 Z M 15.0 366.2 C 15.0 366.4 15.0 366.4 15.0 366.2 C 15.0 366.2 15.0 366.2 15.0 366.2 Z M 1.5 356.7 C 1.5 356.9 1.5 356.9 1.5 356.7 C 1.5 356.7 1.5 356.7 1.5 356.7 Z M 5.5 361.0 C 5.5 360.9 5.5 360.9 5.5 361.0 C 5.5 361.0 5.5 361.0 5.5 361.0 Z M 12.8 347.6 C 13.5 352.7 11.3 346.5 12.8 347.6 C 12.8 347.6 12.8 347.6 12.8 347.6 Z M 6.6 373.6 C 6.4 373.7 6.4 373.7 6.6 373.6 C 6.6 373.6 6.6 373.6 6.6 373.6 Z M 11.3 376.1 C 11.1 376.3 11.1 376.3 11.3 376.1 C 11.3 376.1 11.3 376.1 11.3 376.1 Z M 13.8 377.4 C 13.6 377.6 13.6 377.6 13.8 377.4 C 13.8 377.4 13.8 377.4 13.8 377.4 Z M 7.0 315.5 C 7.2 315.3 7.2 315.3 7.0 315.5 C 7.0 315.5 7.0 315.5 7.0 315.5 Z M 14.7 313.5 C 14.7 313.4 14.7 313.4 14.7 313.5 C 14.7 313.5 14.7 313.5 14.7 313.5 Z M 15.0 320.3 C 15.1 320.3 15.1 320.3 15.0 320.3 C 15.0 320.3 15.0 320.3 15.0 320.3 Z M 2.4 314.2 C 2.5 314.1 2.5 314.1 2.4 314.2 C 2.4 314.2 2.4 314.2 2.4 314.2 Z M 8.9 340.1 C 9.0 339.9 9.0 339.9 8.9 340.1 C 8.9 340.1 8.9 340.1 8.9 340.1 Z M 5.8 342.5 C 5.9 342.3 5.9 342.3 5.8 342.5 C 5.8 342.5 5.8 342.5 5.8 342.5 Z M 1.7 336.5 C 1.7 336.5 1.7 336.5 1.7 336.5 C 1.7 336.5 1.7 336.5 1.7 336.5 Z M 3.1 344.4 C 3.2 344.3 3.2 344.3 3.1 344.4 C 3.1 344.4 3.1 344.4 3.1 344.4 Z M 3.8 296.9 C 3.7 296.9 3.7 296.9 3.8 296.9 C 3.8 296.9 3.8 296.9 3.8 296.9 Z M 9.7 296.4 C 9.5 296.3 9.5 296.3 9.7 296.4 C 9.7 296.4 9.7 296.4 9.7 296.4 Z M 13.2 340.8 C 14.4 342.0 11.5 343.2 13.2 340.8 M 12.4 331.0 C 12.3 330.9 12.3 330.9 12.4 331.0 C 12.4 331.0 12.4 331.0 12.4 331.0 Z M 12.9 357.4 C 10.6 358.6 14.1 352.8 12.9 357.4 C 12.9 357.4 12.9 357.4 12.9 357.4 Z M 3.1 352.2 C 3.1 352.3 3.1 352.3 3.1 352.2 C 3.1 352.2 3.1 352.2 3.1 352.2 Z M 4.1 354.8 C 3.9 354.9 3.9 354.9 4.1 354.8 C 4.1 354.8 4.1 354.8 4.1 354.8 Z M 10.5 369.0 C 10.2 369.2 10.2 369.2 10.5 369.0 M 14.5 329.7 C 13.5 331.2 13.7 330.9 14.5 329.7 M 12.8 360.7 C 12.8 360.6 12.8 360.6 12.8 360.7 C 12.8 360.7 12.8 360.7 12.8 360.7 Z M 11.8 372.1 C 11.7 372.0 11.7 372.0 11.8 372.1 C 11.8 372.1 11.8 372.1 11.8 372.1 Z M 12.9 322.8 C 10.1 323.0 10.7 321.7 12.9 322.8 M 12.0 303.2 C 11.8 303.2 11.8 303.2 12.0 303.2 C 12.0 303.2 12.0 303.2 12.0 303.2 Z M 13.8 387.7 C 16.9 382.4 12.5 382.4 12.4 382.4 C 18.3 383.0 10.0 377.6 8.9 378.7 C 8.1 378.5 -2.3 382.6 4.0 386.4 C 4.8 387.4 2.9 388.0 2.8 388.7 C 3.0 395.3 6.0 384.2 6.0 392.2 C 5.2 393.6 0.2 392.0 3.6 396.6 C 3.2 396.8 1.3 402.2 3.6 400.2 C 1.3 402.7 4.1 404.3 4.6 406.7 C 3.3 408.9 1.0 404.9 3.8 412.6 C -0.3 415.9 6.8 417.1 2.3 420.0 C 2.2 422.0 9.6 424.9 5.4 420.4 C 5.8 421.1 9.4 418.3 8.1 424.3 C 7.2 423.5 -0.4 420.1 3.2 429.7 C 3.0 431.2 5.0 434.8 4.2 435.7 C 3.3 430.8 0.8 442.4 3.1 441.2 C 1.6 448.8 5.0 444.4 2.4 449.9 C 2.4 454.5 5.8 448.5 3.8 454.1 C 4.2 458.3 2.3 455.4 2.5 455.0 C 2.1 458.6 3.5 460.0 3.4 461.3 C 3.0 462.1 1.4 463.7 3.3 464.6 C 6.7 468.5 10.2 464.9 13.6 466.7 C 15.2 463.8 11.0 465.4 13.5 463.5 C 11.4 462.1 13.7 463.3 13.2 455.5 C 12.7 455.7 11.2 457.6 11.0 455.7 C 11.3 452.7 17.1 454.9 13.0 449.9 C 11.7 455.8 11.1 441.7 9.9 447.1 C 9.2 440.4 10.4 445.2 11.8 440.3 C 7.9 440.5 15.9 439.9 12.8 438.1 C 14.4 437.6 13.7 429.9 11.3 435.4 C 10.3 427.4 12.5 432.5 14.6 429.6 C 14.8 425.9 8.2 429.3 13.0 427.0 C 15.2 422.2 10.7 426.8 14.4 423.3 C 11.1 424.9 14.4 419.8 10.8 421.1 C 10.5 412.9 14.7 422.1 12.1 416.3 C 12.0 418.1 16.9 417.4 13.7 413.9 C 8.0 415.4 18.8 409.3 11.2 411.8 C 9.0 400.3 14.4 409.9 14.4 403.6 C 14.4 402.0 11.9 405.3 11.8 403.9 C 12.9 395.8 14.9 402.5 11.2 398.3 C 10.2 390.2 14.4 395.9 14.6 392.0 C 12.8 391.7 9.8 388.5 13.8 387.7 M 12.0 394.9 C 13.1 396.5 10.7 395.9 12.0 394.9 M 13.8 378.8 C 14.9 380.4 12.5 379.8 13.8 378.8 M 13.1 401.5 C 14.3 403.7 11.1 402.2 13.1 401.5 M 11.2 444.8 C 11.2 441.8 12.2 446.2 11.2 444.8 M 14.0 385.2 C 15.4 387.5 11.9 385.8 14.0 385.2 M 11.0 382.2 C 11.0 382.4 11.0 382.4 11.0 382.2 M 14.3 449.1 C 14.3 449.2 14.3 449.2 14.3 449.1 M 14.4 437.5 C 14.3 439.9 13.6 436.1 14.4 437.5 M 1.8 437.0 C 1.7 439.5 1.0 435.6 1.8 437.0 M 14.5 455.4 C 15.4 457.8 13.1 456.1 14.5 455.4 M 11.7 461.8 C 12.8 464.1 10.5 463.3 11.7 461.8 M 7.6 393.4 C 7.5 393.4 7.5 393.4 7.6 393.4 C 7.6 393.4 7.6 393.4 7.6 393.4 Z M 4.5 414.7 C 5.7 412.2 2.9 417.8 4.5 414.7 M 12.7 410.8 C 10.1 412.5 12.9 407.5 12.7 410.8 C 12.7 410.8 12.7 410.8 12.7 410.8 Z M 11.5 407.1 C 11.4 407.0 11.4 407.0 11.5 407.1 C 11.5 407.1 11.5 407.1 11.5 407.1 Z M 11.4 419.1 C 11.4 418.9 11.4 418.9 11.4 419.1 C 11.4 419.1 11.4 419.1 11.4 419.1 Z M 11.2 416.6 C 10.6 415.6 11.7 415.2 11.2 416.6 C 11.2 416.6 11.2 416.6 11.2 416.6 Z M 3.1 434.0 C 2.5 433.0 3.6 432.7 3.1 434.0 C 3.1 434.0 3.1 434.0 3.1 434.0 Z M 10.3 412.8 C 7.7 412.5 12.0 411.1 10.3 412.8 C 10.3 412.8 10.3 412.8 10.3 412.8 Z M 4.2 425.7 C 4.9 426.8 1.8 427.9 4.2 425.7 M 13.9 451.5 C 14.5 452.5 11.4 453.7 13.9 451.5 M 14.6 426.1 C 15.3 427.2 12.2 428.3 14.6 426.1 M 13.1 396.3 C 12.8 396.5 12.8 396.5 13.1 396.3 M 2.0 410.4 C 3.0 412.0 0.9 411.2 2.0 410.4 M 2.9 386.4 C 3.8 388.1 1.7 387.2 2.9 386.4 M 2.1 447.9 C 2.8 447.8 1.8 450.5 2.1 447.9 M 10.5 429.1 C 10.2 431.3 8.8 433.6 9.0 428.9 C 9.6 428.7 9.9 430.1 10.5 429.1 C 10.5 429.1 10.5 429.1 10.5 429.1 Z M 4.7 437.1 C 4.5 437.4 4.5 437.4 4.7 437.1 M 12.9 433.0 C 12.6 433.3 12.6 433.3 12.9 433.0 M 12.6 446.0 C 12.2 446.3 12.2 446.3 12.6 446.0 M 13.3 447.7 C 13.2 447.6 13.2 447.6 13.3 447.7 C 13.3 447.7 13.3 447.7 13.3 447.7 Z M 14.4 461.9 C 14.3 461.9 14.3 461.9 14.4 461.9 C 14.4 461.9 14.4 461.9 14.4 461.9 Z M 12.3 441.9 C 12.2 441.8 12.2 441.8 12.3 441.9 C 12.3 441.9 12.3 441.9 12.3 441.9 Z M 2.6 453.6 C 2.5 453.7 2.5 453.7 2.6 453.6 C 2.6 453.6 2.6 453.6 2.6 453.6 Z M 4.1 452.2 C 4.0 452.2 4.0 452.2 4.1 452.2 C 4.1 452.2 4.1 452.2 4.1 452.2 Z M 13.8 388.9 C 15.6 390.8 9.4 389.9 13.8 388.9 M 4.1 458.5 C 2.3 460.4 3.7 455.2 4.1 458.5 C 4.1 458.5 4.1 458.5 4.1 458.5 Z M 10.2 440.3 C 9.8 440.5 9.8 440.5 10.2 440.3 M 13.1 448.5 C 12.8 448.6 12.8 448.6 13.1 448.5 M 15.0 410.7 C 14.7 410.9 14.7 410.9 15.0 410.7 M 12.6 458.5 C 12.0 464.5 9.0 455.7 12.6 458.5 M 12.6 407.9 C 12.8 407.8 12.8 407.8 12.6 407.9 M 7.9 421.5 C 8.0 425.6 6.4 420.1 7.9 421.5 M 11.1 431.9 C 10.9 431.8 10.9 431.8 11.1 431.9 C 11.1 431.9 11.1 431.9 11.1 431.9 Z M 11.1 425.8 C 10.7 422.9 11.8 425.1 11.1 425.8 C 11.1 425.8 11.1 425.8 11.1 425.8 Z M 11.5 391.7 C 11.1 395.6 10.6 387.8 11.5 391.7 C 11.5 391.7 11.5 391.7 11.5 391.7 Z M 6.7 455.7 C 6.5 455.6 6.5 455.6 6.7 455.7 C 6.7 455.7 6.7 455.7 6.7 455.7 Z M 14.1 441.1 C 13.4 439.4 14.8 440.3 14.1 441.1 C 14.1 441.1 14.1 441.1 14.1 441.1 Z M 14.4 464.0 C 13.7 462.2 15.1 463.2 14.4 464.0 C 14.4 464.0 14.4 464.0 14.4 464.0 Z M 11.9 387.1 C 7.7 401.2 13.0 368.4 11.9 387.1 C 11.9 387.1 11.9 387.1 11.9 387.1 Z M 12.8 428.2 C 12.6 428.2 12.6 428.2 12.8 428.2 C 12.8 428.2 12.8 428.2 12.8 428.2 Z M 14.5 402.3 C 14.4 402.2 14.4 402.2 14.5 402.3 C 14.5 402.3 14.5 402.3 14.5 402.3 Z M 12.2 397.9 C 12.1 397.8 12.1 397.8 12.2 397.9 C 12.2 397.9 12.2 397.9 12.2 397.9 Z M 2.3 399.1 C 2.1 399.1 2.1 399.1 2.3 399.1 C 2.3 399.1 2.3 399.1 2.3 399.1 Z M 6.8 400.7 C 6.5 400.4 6.5 400.4 6.8 400.7 C 6.8 400.7 6.8 400.7 6.8 400.7 Z M 5.1 391.6 C 4.9 391.5 4.9 391.5 5.1 391.6 C 5.1 391.6 5.1 391.6 5.1 391.6 Z M 3.8 391.8 C 3.7 391.7 3.7 391.7 3.8 391.8 C 3.8 391.8 3.8 391.8 3.8 391.8 Z M 10.3 448.5 C 10.1 448.4 10.1 448.4 10.3 448.5 C 10.3 448.5 10.3 448.5 10.3 448.5 Z M 6.1 443.6 C 7.6 446.9 4.0 442.6 6.1 443.6 C 6.1 443.6 6.1 443.6 6.1 443.6 Z M 8.2 414.6 C 8.7 417.6 6.9 412.7 8.2 414.6 C 8.2 414.6 8.2 414.6 8.2 414.6 Z M 2.8 417.9 C 2.7 417.9 2.7 417.9 2.8 417.9 C 2.8 417.9 2.8 417.9 2.8 417.9 Z M 14.6 397.9 C 14.4 397.8 14.4 397.8 14.6 397.9 C 14.6 397.9 14.6 397.9 14.6 397.9 Z M 12.9 392.4 C 10.8 392.2 14.0 390.7 12.9 392.4 M 14.1 420.2 C 13.9 420.2 13.9 420.2 14.1 420.2 C 14.1 420.2 14.1 420.2 14.1 420.2 Z M 10.8 437.8 C 10.7 437.8 10.7 437.8 10.8 437.8 C 10.8 437.8 10.8 437.8 10.8 437.8 Z M 12.2 455.3 C 11.9 455.2 11.9 455.2 12.2 455.3 C 12.2 455.3 12.2 455.3 12.2 455.3 Z M 13.9 431.2 C 13.6 431.1 13.6 431.1 13.9 431.2 C 13.9 431.2 13.9 431.2 13.9 431.2 Z M 11.9 422.8 C 11.7 422.8 11.7 422.8 11.9 422.8 C 11.9 422.8 11.9 422.8 11.9 422.8 Z M 9.2 459.2 C 9.1 459.0 9.1 459.0 9.2 459.2 C 9.2 459.2 9.2 459.2 9.2 459.2 Z M 14.2 433.1 C 14.1 433.1 14.1 433.1 14.2 433.1 C 14.2 433.1 14.2 433.1 14.2 433.1 Z M 7.5 438.2 C 7.3 438.0 7.3 438.0 7.5 438.2 C 7.5 438.2 7.5 438.2 7.5 438.2 Z M 15.9 393.2 C 15.8 393.1 15.8 393.1 15.9 393.2 C 15.9 393.2 15.9 393.2 15.9 393.2 Z M 12.0 459.3 C 11.9 459.2 11.9 459.2 12.0 459.3 C 12.0 459.3 12.0 459.3 12.0 459.3 Z M 13.9 460.4 C 13.8 460.3 13.8 460.3 13.9 460.4 C 13.9 460.4 13.9 460.4 13.9 460.4 Z M 3.9 448.0 C 5.1 441.9 4.4 453.5 6.7 449.1 C 7.2 457.9 3.8 449.3 3.9 448.0 C 3.9 448.0 3.9 448.0 3.9 448.0 Z M 3.9 448.0 " fill="#EB5C56"></path></g></svg>