<?xml version="1.0" encoding="UTF-8" standalone="no"?><svg xmlns="http://www.w3.org/2000/svg" xmlns:xlink="http://www.w3.org/1999/xlink" clip-rule="evenodd" stroke-miterlimit="10" viewBox="0 0 627 528"><desc>SVG generated by Keynote</desc><defs></defs><g transform="matrix(1.00, 0.00, -0.00, -1.00, 0.0, 528.0)"><g><clipPath id="clip0x7fdf9e893200"><path d="M 10.8 83.6 L 616.3 83.6 L 616.3 521.0 L 10.8 521.0 Z M 10.8 83.6 "></path></clipPath><g clip-path="url(#clip0x7fdf9e893200)"><path d="M 27.3 43.1 L 30.4 43.1 M 347.4 43.1 L 344.2 43.1 M 23.1 43.1 " fill="none" stroke="#000000" stroke-width="0.50" transform="matrix(1.78, 0.00, 0.00, 1.78, -2.1, 82.5)"></path><text xml:space="preserve" font-family="Helvetica,Helvetica" font-size="7.0" fill="#000000" transform="matrix(1.78, 0.00, -0.00, -1.78, 17.5, 155.2)">0</text><text xml:space="preserve" font-family="Helvetica,Helvetica" font-size="7.0" fill="#000000" transform="matrix(1.78, 0.00, -0.00, -1.78, 24.5, 155.2)"> </text><text xml:space="preserve" font-family="Helvetica,Helvetica" font-size="7.0" fill="#000000" transform="matrix(1.78, 0.00, -0.00, -1.78, 27.9, 155.2)">%</text><path d="M 27.3 76.5 L 30.4 76.5 M 347.4 76.5 L 344.2 76.5 M 23.1 76.5 " fill="none" stroke="#000000" stroke-width="0.50" transform="matrix(1.78, 0.00, 0.00, 1.78, -2.1, 82.5)"></path><text xml:space="preserve" font-family="Helvetica,Helvetica" font-size="7.0" fill="#000000" transform="matrix(1.78, 0.00, -0.00, -1.78, 17.5, 214.5)">5</text><text xml:space="preserve" font-family="Helvetica,Helvetica" font-size="7.0" fill="#000000" transform="matrix(1.78, 0.00, -0.00, -1.78, 24.5, 214.5)"> </text><text xml:space="preserve" font-family="Helvetica,Helvetica" font-size="7.0" fill="#000000" transform="matrix(1.78, 0.00, -0.00, -1.78, 27.9, 214.5)">%</text><path d="M 27.3 110.0 L 30.4 110.0 M 347.4 110.0 L 344.2 110.0 M 23.1 110.0 " fill="none" stroke="#000000" stroke-width="0.50" transform="matrix(1.78, 0.00, 0.00, 1.78, -2.1, 82.5)"></path><text xml:space="preserve" font-family="Helvetica,Helvetica" font-size="7.0" fill="#000000" transform="matrix(1.78, 0.00, -0.00, -1.78, 10.6, 273.9)">1</text><text xml:space="preserve" font-family="Helvetica,Helvetica" font-size="7.0" fill="#000000" transform="matrix(1.78, 0.00, -0.00, -1.78, 17.5, 273.9)">0</text><text xml:space="preserve" font-family="Helvetica,Helvetica" font-size="7.0" fill="#000000" transform="matrix(1.78, 0.00, -0.00, -1.78, 24.5, 273.9)"> </text><text xml:space="preserve" font-family="Helvetica,Helvetica" font-size="7.0" fill="#000000" transform="matrix(1.78, 0.00, -0.00, -1.78, 27.9, 273.9)">%</text><path d="M 27.3 143.3 L 30.4 143.3 M 347.4 143.3 L 344.2 143.3 M 23.1 143.3 " fill="none" stroke="#000000" stroke-width="0.50" transform="matrix(1.78, 0.00, 0.00, 1.78, -2.1, 82.5)"></path><text xml:space="preserve" font-family="Helvetica,Helvetica" font-size="7.0" fill="#000000" transform="matrix(1.78, 0.00, -0.00, -1.78, 10.6, 333.3)">1</text><text xml:space="preserve" font-family="Helvetica,Helvetica" font-size="7.0" fill="#000000" transform="matrix(1.78, 0.00, -0.00, -1.78, 17.5, 333.3)">5</text><text xml:space="preserve" font-family="Helvetica,Helvetica" font-size="7.0" fill="#000000" transform="matrix(1.78, 0.00, -0.00, -1.78, 24.5, 333.3)"> </text><text xml:space="preserve" font-family="Helvetica,Helvetica" font-size="7.0" fill="#000000" transform="matrix(1.78, 0.00, -0.00, -1.78, 27.9, 333.3)">%</text><path d="M 27.3 176.8 L 30.4 176.8 M 347.4 176.8 L 344.2 176.8 M 23.1 176.8 " fill="none" stroke="#000000" stroke-width="0.50" transform="matrix(1.78, 0.00, 0.00, 1.78, -2.1, 82.5)"></path><text xml:space="preserve" font-family="Helvetica,Helvetica" font-size="7.0" fill="#000000" transform="matrix(1.78, 0.00, -0.00, -1.78, 10.6, 392.6)">2</text><text xml:space="preserve" font-family="Helvetica,Helvetica" font-size="7.0" fill="#000000" transform="matrix(1.78, 0.00, -0.00, -1.78, 17.5, 392.6)">0</text><text xml:space="preserve" font-family="Helvetica,Helvetica" font-size="7.0" fill="#000000" transform="matrix(1.78, 0.00, -0.00, -1.78, 24.5, 392.6)"> </text><text xml:space="preserve" font-family="Helvetica,Helvetica" font-size="7.0" fill="#000000" transform="matrix(1.78, 0.00, -0.00, -1.78, 27.9, 392.6)">%</text><path d="M 27.3 210.2 L 30.4 210.2 M 347.4 210.2 L 344.2 210.2 M 23.1 210.2 " fill="none" stroke="#000000" stroke-width="0.50" transform="matrix(1.78, 0.00, 0.00, 1.78, -2.1, 82.5)"></path><text xml:space="preserve" font-family="Helvetica,Helvetica" font-size="7.0" fill="#000000" transform="matrix(1.78, 0.00, -0.00, -1.78, 10.6, 452.0)">2</text><text xml:space="preserve" font-family="Helvetica,Helvetica" font-size="7.0" fill="#000000" transform="matrix(1.78, 0.00, -0.00, -1.78, 17.5, 452.0)">5</text><text xml:space="preserve" font-family="Helvetica,Helvetica" font-size="7.0" fill="#000000" transform="matrix(1.78, 0.00, -0.00, -1.78, 24.5, 452.0)"> </text><text xml:space="preserve" font-family="Helvetica,Helvetica" font-size="7.0" fill="#000000" transform="matrix(1.78, 0.00, -0.00, -1.78, 27.9, 452.0)">%</text><path d="M 27.3 243.6 L 30.4 243.6 M 347.4 243.6 L 344.2 243.6 M 23.1 243.6 " fill="none" stroke="#000000" stroke-width="0.50" transform="matrix(1.78, 0.00, 0.00, 1.78, -2.1, 82.5)"></path><text xml:space="preserve" font-family="Helvetica,Helvetica" font-size="7.0" fill="#000000" transform="matrix(1.78, 0.00, -0.00, -1.78, 10.6, 511.4)">3</text><text xml:space="preserve" font-family="Helvetica,Helvetica" font-size="7.0" fill="#000000" transform="matrix(1.78, 0.00, -0.00, -1.78, 17.5, 511.4)">0</text><text xml:space="preserve" font-family="Helvetica,Helvetica" font-size="7.0" fill="#000000" transform="matrix(1.78, 0.00, -0.00, -1.78, 24.5, 511.4)"> </text><text xml:space="preserve" font-family="Helvetica,Helvetica" font-size="7.0" fill="#000000" transform="matrix(1.78, 0.00, -0.00, -1.78, 27.9, 511.4)">%</text><path d="M 23.1 241.2 " fill="none" stroke="#000000" stroke-width="0.50" transform="matrix(1.78, 0.00, 0.00, 1.78, -2.1, 82.5)"></path><path d="M 56.4 43.1 L 56.4 46.3 M 56.4 39.0 " fill="none" stroke="#000000" stroke-width="0.50" transform="matrix(1.78, 0.00, 0.00, 1.78, -2.1, 82.5)"></path><text xml:space="preserve" font-family="Helvetica,Helvetica" font-size="7.0" fill="#000000" transform="matrix(1.26, -1.26, -1.26, -1.26, 95.3, 148.9)">0</text><text xml:space="preserve" font-family="Helvetica,Helvetica" font-size="7.0" fill="#000000" transform="matrix(1.26, -1.26, -1.26, -1.26, 102.2, 148.9)">-</text><text xml:space="preserve" font-family="Helvetica,Helvetica" font-size="7.0" fill="#000000" transform="matrix(1.26, -1.26, -1.26, -1.26, 106.3, 148.9)">2</text><text xml:space="preserve" font-family="Helvetica,Helvetica" font-size="7.0" fill="#000000" transform="matrix(1.26, -1.26, -1.26, -1.26, 113.3, 148.9)">0</text><path d="M 56.4 43.1 L 56.4 46.3 M 56.4 39.0 " fill="none" stroke="#000000" stroke-width="0.50" transform="matrix(1.78, 0.00, 0.00, 1.78, -2.1, 82.5)"></path><path d="M 85.5 43.1 L 85.5 46.3 M 85.5 39.0 " fill="none" stroke="#000000" stroke-width="0.50" transform="matrix(1.78, 0.00, 0.00, 1.78, -2.1, 82.5)"></path><text xml:space="preserve" font-family="Helvetica,Helvetica" font-size="7.0" fill="#000000" transform="matrix(1.26, -1.26, -1.26, -1.26, 147.0, 148.9)">2</text><text xml:space="preserve" font-family="Helvetica,Helvetica" font-size="7.0" fill="#000000" transform="matrix(1.26, -1.26, -1.26, -1.26, 153.9, 148.9)">0</text><text xml:space="preserve" font-family="Helvetica,Helvetica" font-size="7.0" fill="#000000" transform="matrix(1.26, -1.26, -1.26, -1.26, 160.8, 148.9)">-</text><text xml:space="preserve" font-family="Helvetica,Helvetica" font-size="7.0" fill="#000000" transform="matrix(1.26, -1.26, -1.26, -1.26, 165.0, 148.9)">4</text><text xml:space="preserve" font-family="Helvetica,Helvetica" font-size="7.0" fill="#000000" transform="matrix(1.26, -1.26, -1.26, -1.26, 171.9, 148.9)">0</text><path d="M 85.5 43.1 L 85.5 46.3 M 85.5 39.0 " fill="none" stroke="#000000" stroke-width="0.50" transform="matrix(1.78, 0.00, 0.00, 1.78, -2.1, 82.5)"></path><path d="M 114.6 43.1 L 114.6 46.3 M 114.6 39.0 " fill="none" stroke="#000000" stroke-width="0.50" transform="matrix(1.78, 0.00, 0.00, 1.78, -2.1, 82.5)"></path><text xml:space="preserve" font-family="Helvetica,Helvetica" font-size="7.0" fill="#000000" transform="matrix(1.26, -1.26, -1.26, -1.26, 198.7, 148.9)">4</text><text xml:space="preserve" font-family="Helvetica,Helvetica" font-size="7.0" fill="#000000" transform="matrix(1.26, -1.26, -1.26, -1.26, 205.7, 148.9)">0</text><text xml:space="preserve" font-family="Helvetica,Helvetica" font-size="7.0" fill="#000000" transform="matrix(1.26, -1.26, -1.26, -1.26, 212.6, 148.9)">-</text><text xml:space="preserve" font-family="Helvetica,Helvetica" font-size="7.0" fill="#000000" transform="matrix(1.26, -1.26, -1.26, -1.26, 216.7, 148.9)">6</text><text xml:space="preserve" font-family="Helvetica,Helvetica" font-size="7.0" fill="#000000" transform="matrix(1.26, -1.26, -1.26, -1.26, 223.6, 148.9)">0</text><path d="M 114.6 43.1 L 114.6 46.3 M 114.6 39.0 " fill="none" stroke="#000000" stroke-width="0.50" transform="matrix(1.78, 0.00, 0.00, 1.78, -2.1, 82.5)"></path><path d="M 143.7 43.1 L 143.7 46.3 M 143.7 39.0 " fill="none" stroke="#000000" stroke-width="0.50" transform="matrix(1.78, 0.00, 0.00, 1.78, -2.1, 82.5)"></path><text xml:space="preserve" font-family="Helvetica,Helvetica" font-size="7.0" fill="#000000" transform="matrix(1.26, -1.26, -1.26, -1.26, 250.5, 148.9)">6</text><text xml:space="preserve" font-family="Helvetica,Helvetica" font-size="7.0" fill="#000000" transform="matrix(1.26, -1.26, -1.26, -1.26, 257.4, 148.9)">0</text><text xml:space="preserve" font-family="Helvetica,Helvetica" font-size="7.0" fill="#000000" transform="matrix(1.26, -1.26, -1.26, -1.26, 264.3, 148.9)">-</text><text xml:space="preserve" font-family="Helvetica,Helvetica" font-size="7.0" fill="#000000" transform="matrix(1.26, -1.26, -1.26, -1.26, 268.4, 148.9)">8</text><text xml:space="preserve" font-family="Helvetica,Helvetica" font-size="7.0" fill="#000000" transform="matrix(1.26, -1.26, -1.26, -1.26, 275.4, 148.9)">0</text><path d="M 143.7 43.1 L 143.7 46.3 M 143.7 39.0 " fill="none" stroke="#000000" stroke-width="0.50" transform="matrix(1.78, 0.00, 0.00, 1.78, -2.1, 82.5)"></path><path d="M 172.8 43.1 L 172.8 46.3 M 172.8 39.0 " fill="none" stroke="#000000" stroke-width="0.50" transform="matrix(1.78, 0.00, 0.00, 1.78, -2.1, 82.5)"></path><text xml:space="preserve" font-family="Helvetica,Helvetica" font-size="7.0" fill="#000000" transform="matrix(1.26, -1.26, -1.26, -1.26, 302.2, 148.9)">8</text><text xml:space="preserve" font-family="Helvetica,Helvetica" font-size="7.0" fill="#000000" transform="matrix(1.26, -1.26, -1.26, -1.26, 309.1, 148.9)">0</text><text xml:space="preserve" font-family="Helvetica,Helvetica" font-size="7.0" fill="#000000" transform="matrix(1.26, -1.26, -1.26, -1.26, 316.0, 148.9)">-</text><text xml:space="preserve" font-family="Helvetica,Helvetica" font-size="7.0" fill="#000000" transform="matrix(1.26, -1.26, -1.26, -1.26, 320.2, 148.9)">1</text><text xml:space="preserve" font-family="Helvetica,Helvetica" font-size="7.0" fill="#000000" transform="matrix(1.26, -1.26, -1.26, -1.26, 327.1, 148.9)">0</text><text xml:space="preserve" font-family="Helvetica,Helvetica" font-size="7.0" fill="#000000" transform="matrix(1.26, -1.26, -1.26, -1.26, 334.0, 148.9)">0</text><path d="M 172.8 43.1 L 172.8 46.3 M 172.8 39.0 " fill="none" stroke="#000000" stroke-width="0.50" transform="matrix(1.78, 0.00, 0.00, 1.78, -2.1, 82.5)"></path><path d="M 201.8 43.1 L 201.8 46.3 M 201.8 39.0 " fill="none" stroke="#000000" stroke-width="0.50" transform="matrix(1.78, 0.00, 0.00, 1.78, -2.1, 82.5)"></path><text xml:space="preserve" font-family="Helvetica,Helvetica" font-size="7.0" fill="#000000" transform="matrix(1.26, -1.26, -1.26, -1.26, 353.8, 148.9)">1</text><text xml:space="preserve" font-family="Helvetica,Helvetica" font-size="7.0" fill="#000000" transform="matrix(1.26, -1.26, -1.26, -1.26, 360.7, 148.9)">0</text><text xml:space="preserve" font-family="Helvetica,Helvetica" font-size="7.0" fill="#000000" transform="matrix(1.26, -1.26, -1.26, -1.26, 367.7, 148.9)">0</text><text xml:space="preserve" font-family="Helvetica,Helvetica" font-size="7.0" fill="#000000" transform="matrix(1.26, -1.26, -1.26, -1.26, 374.6, 148.9)">-</text><text xml:space="preserve" font-family="Helvetica,Helvetica" font-size="7.0" fill="#000000" transform="matrix(1.26, -1.26, -1.26, -1.26, 378.7, 148.9)">1</text><text xml:space="preserve" font-family="Helvetica,Helvetica" font-size="7.0" fill="#000000" transform="matrix(1.26, -1.26, -1.26, -1.26, 385.6, 148.9)">2</text><text xml:space="preserve" font-family="Helvetica,Helvetica" font-size="7.0" fill="#000000" transform="matrix(1.26, -1.26, -1.26, -1.26, 392.6, 148.9)">0</text><path d="M 201.8 43.1 L 201.8 46.3 M 201.8 39.0 " fill="none" stroke="#000000" stroke-width="0.50" transform="matrix(1.78, 0.00, 0.00, 1.78, -2.1, 82.5)"></path><path d="M 231.0 43.1 L 231.0 46.3 M 231.0 39.0 " fill="none" stroke="#000000" stroke-width="0.50" transform="matrix(1.78, 0.00, 0.00, 1.78, -2.1, 82.5)"></path><text xml:space="preserve" font-family="Helvetica,Helvetica" font-size="7.0" fill="#000000" transform="matrix(1.26, -1.26, -1.26, -1.26, 405.6, 148.9)">1</text><text xml:space="preserve" font-family="Helvetica,Helvetica" font-size="7.0" fill="#000000" transform="matrix(1.26, -1.26, -1.26, -1.26, 412.5, 148.9)">2</text><text xml:space="preserve" font-family="Helvetica,Helvetica" font-size="7.0" fill="#000000" transform="matrix(1.26, -1.26, -1.26, -1.26, 419.4, 148.9)">0</text><text xml:space="preserve" font-family="Helvetica,Helvetica" font-size="7.0" fill="#000000" transform="matrix(1.26, -1.26, -1.26, -1.26, 426.3, 148.9)">-</text><text xml:space="preserve" font-family="Helvetica,Helvetica" font-size="7.0" fill="#000000" transform="matrix(1.26, -1.26, -1.26, -1.26, 430.5, 148.9)">1</text><text xml:space="preserve" font-family="Helvetica,Helvetica" font-size="7.0" fill="#000000" transform="matrix(1.26, -1.26, -1.26, -1.26, 437.4, 148.9)">4</text><text xml:space="preserve" font-family="Helvetica,Helvetica" font-size="7.0" fill="#000000" transform="matrix(1.26, -1.26, -1.26, -1.26, 444.3, 148.9)">0</text><path d="M 231.0 43.1 L 231.0 46.3 M 231.0 39.0 " fill="none" stroke="#000000" stroke-width="0.50" transform="matrix(1.78, 0.00, 0.00, 1.78, -2.1, 82.5)"></path><path d="M 260.1 43.1 L 260.1 46.3 M 260.1 39.0 " fill="none" stroke="#000000" stroke-width="0.50" transform="matrix(1.78, 0.00, 0.00, 1.78, -2.1, 82.5)"></path><text xml:space="preserve" font-family="Helvetica,Helvetica" font-size="7.0" fill="#000000" transform="matrix(1.26, -1.26, -1.26, -1.26, 457.3, 148.9)">1</text><text xml:space="preserve" font-family="Helvetica,Helvetica" font-size="7.0" fill="#000000" transform="matrix(1.26, -1.26, -1.26, -1.26, 464.2, 148.9)">4</text><text xml:space="preserve" font-family="Helvetica,Helvetica" font-size="7.0" fill="#000000" transform="matrix(1.26, -1.26, -1.26, -1.26, 471.1, 148.9)">0</text><text xml:space="preserve" font-family="Helvetica,Helvetica" font-size="7.0" fill="#000000" transform="matrix(1.26, -1.26, -1.26, -1.26, 478.0, 148.9)">-</text><text xml:space="preserve" font-family="Helvetica,Helvetica" font-size="7.0" fill="#000000" transform="matrix(1.26, -1.26, -1.26, -1.26, 482.2, 148.9)">1</text><text xml:space="preserve" font-family="Helvetica,Helvetica" font-size="7.0" fill="#000000" transform="matrix(1.26, -1.26, -1.26, -1.26, 489.1, 148.9)">6</text><text xml:space="preserve" font-family="Helvetica,Helvetica" font-size="7.0" fill="#000000" transform="matrix(1.26, -1.26, -1.26, -1.26, 496.0, 148.9)">0</text><path d="M 260.1 43.1 L 260.1 46.3 M 260.1 39.0 " fill="none" stroke="#000000" stroke-width="0.50" transform="matrix(1.78, 0.00, 0.00, 1.78, -2.1, 82.5)"></path><path d="M 289.2 43.1 L 289.2 46.3 M 289.2 39.0 " fill="none" stroke="#000000" stroke-width="0.50" transform="matrix(1.78, 0.00, 0.00, 1.78, -2.1, 82.5)"></path><text xml:space="preserve" font-family="Helvetica,Helvetica" font-size="7.0" fill="#000000" transform="matrix(1.26, -1.26, -1.26, -1.26, 509.0, 148.9)">1</text><text xml:space="preserve" font-family="Helvetica,Helvetica" font-size="7.0" fill="#000000" transform="matrix(1.26, -1.26, -1.26, -1.26, 515.9, 148.9)">6</text><text xml:space="preserve" font-family="Helvetica,Helvetica" font-size="7.0" fill="#000000" transform="matrix(1.26, -1.26, -1.26, -1.26, 522.8, 148.9)">0</text><text xml:space="preserve" font-family="Helvetica,Helvetica" font-size="7.0" fill="#000000" transform="matrix(1.26, -1.26, -1.26, -1.26, 529.8, 148.9)">-</text><text xml:space="preserve" font-family="Helvetica,Helvetica" font-size="7.0" fill="#000000" transform="matrix(1.26, -1.26, -1.26, -1.26, 533.9, 148.9)">1</text><text xml:space="preserve" font-family="Helvetica,Helvetica" font-size="7.0" fill="#000000" transform="matrix(1.26, -1.26, -1.26, -1.26, 540.8, 148.9)">8</text><text xml:space="preserve" font-family="Helvetica,Helvetica" font-size="7.0" fill="#000000" transform="matrix(1.26, -1.26, -1.26, -1.26, 547.8, 148.9)">0</text><path d="M 289.2 43.1 L 289.2 46.3 M 289.2 39.0 " fill="none" stroke="#000000" stroke-width="0.50" transform="matrix(1.78, 0.00, 0.00, 1.78, -2.1, 82.5)"></path><path d="M 318.2 43.1 L 318.2 46.3 M 318.2 39.0 " fill="none" stroke="#000000" stroke-width="0.50" transform="matrix(1.78, 0.00, 0.00, 1.78, -2.1, 82.5)"></path><text xml:space="preserve" font-family="Helvetica,Helvetica" font-size="7.0" fill="#000000" transform="matrix(1.26, -1.26, -1.26, -1.26, 560.7, 148.9)">1</text><text xml:space="preserve" font-family="Helvetica,Helvetica" font-size="7.0" fill="#000000" transform="matrix(1.26, -1.26, -1.26, -1.26, 567.7, 148.9)">8</text><text xml:space="preserve" font-family="Helvetica,Helvetica" font-size="7.0" fill="#000000" transform="matrix(1.26, -1.26, -1.26, -1.26, 574.6, 148.9)">0</text><text xml:space="preserve" font-family="Helvetica,Helvetica" font-size="7.0" fill="#000000" transform="matrix(1.26, -1.26, -1.26, -1.26, 581.5, 148.9)">-</text><text xml:space="preserve" font-family="Helvetica,Helvetica" font-size="7.0" fill="#000000" transform="matrix(1.26, -1.26, -1.26, -1.26, 585.6, 148.9)">2</text><text xml:space="preserve" font-family="Helvetica,Helvetica" font-size="7.0" fill="#000000" transform="matrix(1.26, -1.26, -1.26, -1.26, 592.6, 148.9)">0</text><text xml:space="preserve" font-family="Helvetica,Helvetica" font-size="7.0" fill="#000000" transform="matrix(1.26, -1.26, -1.26, -1.26, 599.5, 148.9)">0</text><path d="M 318.2 43.1 L 318.2 46.3 M 27.3 43.1 L 347.4 43.1 L 347.4 243.6 L 27.3 243.6 Z M 174.7 4.9 " fill="none" stroke="#000000" stroke-width="0.50" transform="matrix(1.78, 0.00, 0.00, 1.78, -2.1, 82.5)"></path><text xml:space="preserve" font-family="Helvetica,Helvetica" font-size="7.0" fill="#000000" transform="matrix(1.78, 0.00, -0.00, -1.78, 274.9, 87.2)">D</text><text xml:space="preserve" font-family="Helvetica,Helvetica" font-size="7.0" fill="#000000" transform="matrix(1.78, 0.00, -0.00, -1.78, 283.9, 87.2)">i</text><text xml:space="preserve" font-family="Helvetica,Helvetica" font-size="7.0" fill="#000000" transform="matrix(1.78, 0.00, -0.00, -1.78, 286.7, 87.2)">s</text><text xml:space="preserve" font-family="Helvetica,Helvetica" font-size="7.0" fill="#000000" transform="matrix(1.78, 0.00, -0.00, -1.78, 292.9, 87.2)">t</text><text xml:space="preserve" font-family="Helvetica,Helvetica" font-size="7.0" fill="#000000" transform="matrix(1.78, 0.00, -0.00, -1.78, 296.4, 87.2)">a</text><text xml:space="preserve" font-family="Helvetica,Helvetica" font-size="7.0" fill="#000000" transform="matrix(1.78, 0.00, -0.00, -1.78, 303.3, 87.2)">n</text><text xml:space="preserve" font-family="Helvetica,Helvetica" font-size="7.0" fill="#000000" transform="matrix(1.78, 0.00, -0.00, -1.78, 310.2, 87.2)">c</text><text xml:space="preserve" font-family="Helvetica,Helvetica" font-size="7.0" fill="#000000" transform="matrix(1.78, 0.00, -0.00, -1.78, 316.4, 87.2)">e</text><text xml:space="preserve" font-family="Helvetica,Helvetica" font-size="7.0" fill="#000000" transform="matrix(1.78, 0.00, -0.00, -1.78, 323.3, 87.2)">(</text><text xml:space="preserve" font-family="Helvetica,Helvetica" font-size="7.0" fill="#000000" transform="matrix(1.78, 0.00, -0.00, -1.78, 327.5, 87.2)">m</text><text xml:space="preserve" font-family="Helvetica,Helvetica" font-size="7.0" fill="#000000" transform="matrix(1.78, 0.00, -0.00, -1.78, 337.8, 87.2)">)</text><path d="M 193.6 2.6 " fill="none" stroke="#000000" stroke-width="0.50" transform="matrix(1.78, 0.00, 0.00, 1.78, -2.1, 82.5)"></path><path d="M 85.2 239.5 L 111.1 239.5 L 111.1 159.2 L 85.2 159.2 Z M 85.2 239.5 " fill="#9999FF"></path><path d="M 49.1 88.2 L 63.6 88.2 L 63.6 43.1 L 49.1 43.1 Z M 49.1 88.2 " fill="none" stroke="#0000FF" stroke-width="0.25" transform="matrix(1.78, 0.00, 0.00, 1.78, -2.1, 82.5)"></path><path d="M 136.9 512.4 L 162.9 512.4 L 162.9 159.2 L 136.9 159.2 Z M 136.9 512.4 " fill="#9999FF"></path><path d="M 78.2 241.8 L 92.8 241.8 L 92.8 43.1 L 78.2 43.1 Z M 78.2 241.8 " fill="none" stroke="#0000FF" stroke-width="0.25" transform="matrix(1.78, 0.00, 0.00, 1.78, -2.1, 82.5)"></path><path d="M 188.6 336.8 L 214.6 336.8 L 214.6 159.2 L 188.6 159.2 Z M 188.6 336.8 " fill="#9999FF"></path><path d="M 107.3 143.0 L 121.9 143.0 L 121.9 43.1 L 107.3 43.1 Z M 107.3 143.0 " fill="none" stroke="#0000FF" stroke-width="0.25" transform="matrix(1.78, 0.00, 0.00, 1.78, -2.1, 82.5)"></path><path d="M 240.4 304.4 L 266.3 304.4 L 266.3 159.2 L 240.4 159.2 Z M 240.4 304.4 " fill="#9999FF"></path><path d="M 136.4 124.8 L 151.0 124.8 L 151.0 43.1 L 136.4 43.1 Z M 136.4 124.8 " fill="none" stroke="#0000FF" stroke-width="0.25" transform="matrix(1.78, 0.00, 0.00, 1.78, -2.1, 82.5)"></path><path d="M 292.1 244.6 L 318.1 244.6 L 318.1 159.2 L 292.1 159.2 Z M 292.1 244.6 " fill="#9999FF"></path><path d="M 165.5 91.1 L 180.1 91.1 L 180.1 43.1 L 165.5 43.1 Z M 165.5 91.1 " fill="none" stroke="#0000FF" stroke-width="0.25" transform="matrix(1.78, 0.00, 0.00, 1.78, -2.1, 82.5)"></path><path d="M 343.8 309.4 L 369.8 309.4 L 369.8 159.2 L 343.8 159.2 Z M 343.8 309.4 " fill="#9999FF"></path><path d="M 194.6 127.6 L 209.2 127.6 L 209.2 43.1 L 194.6 43.1 Z M 194.6 127.6 " fill="none" stroke="#0000FF" stroke-width="0.25" transform="matrix(1.78, 0.00, 0.00, 1.78, -2.1, 82.5)"></path><path d="M 395.6 250.9 L 421.5 250.9 L 421.5 159.2 L 395.6 159.2 Z M 395.6 250.9 " fill="#9999FF"></path><path d="M 223.7 94.7 L 238.2 94.7 L 238.2 43.1 L 223.7 43.1 Z M 223.7 94.7 " fill="none" stroke="#0000FF" stroke-width="0.25" transform="matrix(1.78, 0.00, 0.00, 1.78, -2.1, 82.5)"></path><path d="M 447.3 201.9 L 473.2 201.9 L 473.2 159.2 L 447.3 159.2 Z M 447.3 201.9 " fill="#9999FF"></path><path d="M 252.8 67.1 L 267.4 67.1 L 267.4 43.1 L 252.8 43.1 Z M 252.8 67.1 " fill="none" stroke="#0000FF" stroke-width="0.25" transform="matrix(1.78, 0.00, 0.00, 1.78, -2.1, 82.5)"></path><path d="M 499.0 182.3 L 525.0 182.3 L 525.0 159.2 L 499.0 159.2 Z M 499.0 182.3 " fill="#9999FF"></path><path d="M 281.9 56.1 L 296.4 56.1 L 296.4 43.1 L 281.9 43.1 Z M 281.9 56.1 " fill="none" stroke="#0000FF" stroke-width="0.25" transform="matrix(1.78, 0.00, 0.00, 1.78, -2.1, 82.5)"></path><path d="M 550.7 198.8 L 576.7 198.8 L 576.7 159.2 L 550.7 159.2 Z M 550.7 198.8 " fill="#9999FF"></path><path d="M 311.0 65.3 L 325.6 65.3 L 325.6 43.1 L 311.0 43.1 Z M 311.0 65.3 " fill="none" stroke="#0000FF" stroke-width="0.25" transform="matrix(1.78, 0.00, 0.00, 1.78, -2.1, 82.5)"></path><path d="M 27.3 43.1 L 347.4 43.1 L 347.4 243.6 L 27.3 243.6 Z M 27.3 43.1 " fill="none" stroke="#000000" stroke-width="0.50" transform="matrix(1.78, 0.00, 0.00, 1.78, -2.1, 82.5)"></path></g></g><g><clipPath id="clip0x7fdf9e984740"><path d="M 0.8 64.6 L 626.3 64.6 L 626.3 528.0 L 0.8 528.0 Z M 0.8 64.6 "></path></clipPath><g clip-path="url(#clip0x7fdf9e984740)"><image xlink:href="2F441D696761ACB05E5E183D35971763.png" width="625.00" height="463.00" transform="matrix(1.00, 0.00, -0.00, 1.00, 0.8, 64.6)"></image></g></g><g><clipPath id="clip0x7fdf9e9858b0"><path d="M 216.2 -6.6 L 410.9 -6.6 L 410.9 78.4 L 216.2 78.4 Z M 216.2 -6.6 "></path></clipPath><g clip-path="url(#clip0x7fdf9e9858b0)"><text xml:space="preserve" font-family="Helvetica-Light,Helvetica" font-size="50.0" fill="#000000" transform="matrix(1.00, 0.00, -0.00, -1.00, 229.2, 17.4)">W</text><text xml:space="preserve" font-family="Helvetica-Light,Helvetica" font-size="50.0" fill="#000000" transform="matrix(1.00, 0.00, -0.00, -1.00, 272.8, 17.4)">e</text><text xml:space="preserve" font-family="Helvetica-Light,Helvetica" font-size="50.0" fill="#000000" transform="matrix(1.00, 0.00, -0.00, -1.00, 300.6, 17.4)">c</text><text xml:space="preserve" font-family="Helvetica-Light,Helvetica" font-size="50.0" fill="#000000" transform="matrix(1.00, 0.00, -0.00, -1.00, 328.4, 17.4)">h</text><text xml:space="preserve" font-family="Helvetica-Light,Helvetica" font-size="50.0" fill="#000000" transform="matrix(1.00, 0.00, -0.00, -1.00, 356.2, 17.4)">a</text><text xml:space="preserve" font-family="Helvetica-Light,Helvetica" font-size="50.0" fill="#000000" transform="matrix(1.00, 0.00, -0.00, -1.00, 384.0, 17.4)">t</text></g></g></g></svg>