<?xml version="1.0" encoding="UTF-8" standalone="no"?><svg xmlns="http://www.w3.org/2000/svg" xmlns:xlink="http://www.w3.org/1999/xlink" clip-rule="evenodd" stroke-miterlimit="10" viewBox="0 0 632 534"><desc>SVG generated by Keynote</desc><defs></defs><g transform="matrix(1.00, 0.00, -0.00, -1.00, 0.0, 534.0)"><g><clipPath id="clip0x7fdf9e573aa0"><path d="M 17.7 91.2 L 614.2 91.2 L 614.2 522.1 L 17.7 522.1 Z M 17.7 91.2 "></path></clipPath><g clip-path="url(#clip0x7fdf9e573aa0)"><path d="M 27.3 43.1 L 30.4 43.1 M 347.4 43.1 L 344.2 43.1 M 23.1 43.1 " fill="none" stroke="#000000" stroke-width="0.50" transform="matrix(1.75, 0.00, 0.00, 1.75, 5.0, 90.1)"></path><text xml:space="preserve" font-family="Helvetica,Helvetica" font-size="7.0" fill="#000000" transform="matrix(1.75, 0.00, -0.00, -1.75, 24.3, 161.6)">0</text><text xml:space="preserve" font-family="Helvetica,Helvetica" font-size="7.0" fill="#000000" transform="matrix(1.75, 0.00, -0.00, -1.75, 31.2, 161.6)"> </text><text xml:space="preserve" font-family="Helvetica,Helvetica" font-size="7.0" fill="#000000" transform="matrix(1.75, 0.00, -0.00, -1.75, 34.6, 161.6)">%</text><path d="M 27.3 76.5 L 30.4 76.5 M 347.4 76.5 L 344.2 76.5 M 23.1 76.5 " fill="none" stroke="#000000" stroke-width="0.50" transform="matrix(1.75, 0.00, 0.00, 1.75, 5.0, 90.1)"></path><text xml:space="preserve" font-family="Helvetica,Helvetica" font-size="7.0" fill="#000000" transform="matrix(1.75, 0.00, -0.00, -1.75, 17.5, 220.1)">1</text><text xml:space="preserve" font-family="Helvetica,Helvetica" font-size="7.0" fill="#000000" transform="matrix(1.75, 0.00, -0.00, -1.75, 24.3, 220.1)">0</text><text xml:space="preserve" font-family="Helvetica,Helvetica" font-size="7.0" fill="#000000" transform="matrix(1.75, 0.00, -0.00, -1.75, 31.2, 220.1)"> </text><text xml:space="preserve" font-family="Helvetica,Helvetica" font-size="7.0" fill="#000000" transform="matrix(1.75, 0.00, -0.00, -1.75, 34.6, 220.1)">%</text><path d="M 27.3 110.0 L 30.4 110.0 M 347.4 110.0 L 344.2 110.0 M 23.1 110.0 " fill="none" stroke="#000000" stroke-width="0.50" transform="matrix(1.75, 0.00, 0.00, 1.75, 5.0, 90.1)"></path><text xml:space="preserve" font-family="Helvetica,Helvetica" font-size="7.0" fill="#000000" transform="matrix(1.75, 0.00, -0.00, -1.75, 17.5, 278.6)">2</text><text xml:space="preserve" font-family="Helvetica,Helvetica" font-size="7.0" fill="#000000" transform="matrix(1.75, 0.00, -0.00, -1.75, 24.3, 278.6)">0</text><text xml:space="preserve" font-family="Helvetica,Helvetica" font-size="7.0" fill="#000000" transform="matrix(1.75, 0.00, -0.00, -1.75, 31.2, 278.6)"> </text><text xml:space="preserve" font-family="Helvetica,Helvetica" font-size="7.0" fill="#000000" transform="matrix(1.75, 0.00, -0.00, -1.75, 34.6, 278.6)">%</text><path d="M 27.3 143.3 L 30.4 143.3 M 347.4 143.3 L 344.2 143.3 M 23.1 143.3 " fill="none" stroke="#000000" stroke-width="0.50" transform="matrix(1.75, 0.00, 0.00, 1.75, 5.0, 90.1)"></path><text xml:space="preserve" font-family="Helvetica,Helvetica" font-size="7.0" fill="#000000" transform="matrix(1.75, 0.00, -0.00, -1.75, 17.5, 337.1)">3</text><text xml:space="preserve" font-family="Helvetica,Helvetica" font-size="7.0" fill="#000000" transform="matrix(1.75, 0.00, -0.00, -1.75, 24.3, 337.1)">0</text><text xml:space="preserve" font-family="Helvetica,Helvetica" font-size="7.0" fill="#000000" transform="matrix(1.75, 0.00, -0.00, -1.75, 31.2, 337.1)"> </text><text xml:space="preserve" font-family="Helvetica,Helvetica" font-size="7.0" fill="#000000" transform="matrix(1.75, 0.00, -0.00, -1.75, 34.6, 337.1)">%</text><path d="M 27.3 176.8 L 30.4 176.8 M 347.4 176.8 L 344.2 176.8 M 23.1 176.8 " fill="none" stroke="#000000" stroke-width="0.50" transform="matrix(1.75, 0.00, 0.00, 1.75, 5.0, 90.1)"></path><text xml:space="preserve" font-family="Helvetica,Helvetica" font-size="7.0" fill="#000000" transform="matrix(1.75, 0.00, -0.00, -1.75, 17.5, 395.6)">4</text><text xml:space="preserve" font-family="Helvetica,Helvetica" font-size="7.0" fill="#000000" transform="matrix(1.75, 0.00, -0.00, -1.75, 24.3, 395.6)">0</text><text xml:space="preserve" font-family="Helvetica,Helvetica" font-size="7.0" fill="#000000" transform="matrix(1.75, 0.00, -0.00, -1.75, 31.2, 395.6)"> </text><text xml:space="preserve" font-family="Helvetica,Helvetica" font-size="7.0" fill="#000000" transform="matrix(1.75, 0.00, -0.00, -1.75, 34.6, 395.6)">%</text><path d="M 27.3 210.2 L 30.4 210.2 M 347.4 210.2 L 344.2 210.2 M 23.1 210.2 " fill="none" stroke="#000000" stroke-width="0.50" transform="matrix(1.75, 0.00, 0.00, 1.75, 5.0, 90.1)"></path><text xml:space="preserve" font-family="Helvetica,Helvetica" font-size="7.0" fill="#000000" transform="matrix(1.75, 0.00, -0.00, -1.75, 17.5, 454.1)">5</text><text xml:space="preserve" font-family="Helvetica,Helvetica" font-size="7.0" fill="#000000" transform="matrix(1.75, 0.00, -0.00, -1.75, 24.3, 454.1)">0</text><text xml:space="preserve" font-family="Helvetica,Helvetica" font-size="7.0" fill="#000000" transform="matrix(1.75, 0.00, -0.00, -1.75, 31.2, 454.1)"> </text><text xml:space="preserve" font-family="Helvetica,Helvetica" font-size="7.0" fill="#000000" transform="matrix(1.75, 0.00, -0.00, -1.75, 34.6, 454.1)">%</text><path d="M 27.3 243.6 L 30.4 243.6 M 347.4 243.6 L 344.2 243.6 M 23.1 243.6 " fill="none" stroke="#000000" stroke-width="0.50" transform="matrix(1.75, 0.00, 0.00, 1.75, 5.0, 90.1)"></path><text xml:space="preserve" font-family="Helvetica,Helvetica" font-size="7.0" fill="#000000" transform="matrix(1.75, 0.00, -0.00, -1.75, 17.5, 512.6)">6</text><text xml:space="preserve" font-family="Helvetica,Helvetica" font-size="7.0" fill="#000000" transform="matrix(1.75, 0.00, -0.00, -1.75, 24.3, 512.6)">0</text><text xml:space="preserve" font-family="Helvetica,Helvetica" font-size="7.0" fill="#000000" transform="matrix(1.75, 0.00, -0.00, -1.75, 31.2, 512.6)"> </text><text xml:space="preserve" font-family="Helvetica,Helvetica" font-size="7.0" fill="#000000" transform="matrix(1.75, 0.00, -0.00, -1.75, 34.6, 512.6)">%</text><path d="M 23.1 241.2 " fill="none" stroke="#000000" stroke-width="0.50" transform="matrix(1.75, 0.00, 0.00, 1.75, 5.0, 90.1)"></path><path d="M 56.4 43.1 L 56.4 46.3 M 56.4 39.0 " fill="none" stroke="#000000" stroke-width="0.50" transform="matrix(1.75, 0.00, 0.00, 1.75, 5.0, 90.1)"></path><text xml:space="preserve" font-family="Helvetica,Helvetica" font-size="7.0" fill="#000000" transform="matrix(1.24, -1.24, -1.24, -1.24, 100.9, 155.5)">0</text><text xml:space="preserve" font-family="Helvetica,Helvetica" font-size="7.0" fill="#000000" transform="matrix(1.24, -1.24, -1.24, -1.24, 107.7, 155.5)">-</text><text xml:space="preserve" font-family="Helvetica,Helvetica" font-size="7.0" fill="#000000" transform="matrix(1.24, -1.24, -1.24, -1.24, 111.8, 155.5)">2</text><text xml:space="preserve" font-family="Helvetica,Helvetica" font-size="7.0" fill="#000000" transform="matrix(1.24, -1.24, -1.24, -1.24, 118.6, 155.5)">0</text><path d="M 56.4 43.1 L 56.4 46.3 M 56.4 39.0 " fill="none" stroke="#000000" stroke-width="0.50" transform="matrix(1.75, 0.00, 0.00, 1.75, 5.0, 90.1)"></path><path d="M 85.5 43.1 L 85.5 46.3 M 85.5 39.0 " fill="none" stroke="#000000" stroke-width="0.50" transform="matrix(1.75, 0.00, 0.00, 1.75, 5.0, 90.1)"></path><text xml:space="preserve" font-family="Helvetica,Helvetica" font-size="7.0" fill="#000000" transform="matrix(1.24, -1.24, -1.24, -1.24, 151.9, 155.5)">2</text><text xml:space="preserve" font-family="Helvetica,Helvetica" font-size="7.0" fill="#000000" transform="matrix(1.24, -1.24, -1.24, -1.24, 158.7, 155.5)">0</text><text xml:space="preserve" font-family="Helvetica,Helvetica" font-size="7.0" fill="#000000" transform="matrix(1.24, -1.24, -1.24, -1.24, 165.5, 155.5)">-</text><text xml:space="preserve" font-family="Helvetica,Helvetica" font-size="7.0" fill="#000000" transform="matrix(1.24, -1.24, -1.24, -1.24, 169.6, 155.5)">4</text><text xml:space="preserve" font-family="Helvetica,Helvetica" font-size="7.0" fill="#000000" transform="matrix(1.24, -1.24, -1.24, -1.24, 176.4, 155.5)">0</text><path d="M 85.5 43.1 L 85.5 46.3 M 85.5 39.0 " fill="none" stroke="#000000" stroke-width="0.50" transform="matrix(1.75, 0.00, 0.00, 1.75, 5.0, 90.1)"></path><path d="M 114.6 43.1 L 114.6 46.3 M 114.6 39.0 " fill="none" stroke="#000000" stroke-width="0.50" transform="matrix(1.75, 0.00, 0.00, 1.75, 5.0, 90.1)"></path><text xml:space="preserve" font-family="Helvetica,Helvetica" font-size="7.0" fill="#000000" transform="matrix(1.24, -1.24, -1.24, -1.24, 202.9, 155.5)">4</text><text xml:space="preserve" font-family="Helvetica,Helvetica" font-size="7.0" fill="#000000" transform="matrix(1.24, -1.24, -1.24, -1.24, 209.7, 155.5)">0</text><text xml:space="preserve" font-family="Helvetica,Helvetica" font-size="7.0" fill="#000000" transform="matrix(1.24, -1.24, -1.24, -1.24, 216.5, 155.5)">-</text><text xml:space="preserve" font-family="Helvetica,Helvetica" font-size="7.0" fill="#000000" transform="matrix(1.24, -1.24, -1.24, -1.24, 220.6, 155.5)">6</text><text xml:space="preserve" font-family="Helvetica,Helvetica" font-size="7.0" fill="#000000" transform="matrix(1.24, -1.24, -1.24, -1.24, 227.4, 155.5)">0</text><path d="M 114.6 43.1 L 114.6 46.3 M 114.6 39.0 " fill="none" stroke="#000000" stroke-width="0.50" transform="matrix(1.75, 0.00, 0.00, 1.75, 5.0, 90.1)"></path><path d="M 143.7 43.1 L 143.7 46.3 M 143.7 39.0 " fill="none" stroke="#000000" stroke-width="0.50" transform="matrix(1.75, 0.00, 0.00, 1.75, 5.0, 90.1)"></path><text xml:space="preserve" font-family="Helvetica,Helvetica" font-size="7.0" fill="#000000" transform="matrix(1.24, -1.24, -1.24, -1.24, 253.8, 155.5)">6</text><text xml:space="preserve" font-family="Helvetica,Helvetica" font-size="7.0" fill="#000000" transform="matrix(1.24, -1.24, -1.24, -1.24, 260.6, 155.5)">0</text><text xml:space="preserve" font-family="Helvetica,Helvetica" font-size="7.0" fill="#000000" transform="matrix(1.24, -1.24, -1.24, -1.24, 267.4, 155.5)">-</text><text xml:space="preserve" font-family="Helvetica,Helvetica" font-size="7.0" fill="#000000" transform="matrix(1.24, -1.24, -1.24, -1.24, 271.5, 155.5)">8</text><text xml:space="preserve" font-family="Helvetica,Helvetica" font-size="7.0" fill="#000000" transform="matrix(1.24, -1.24, -1.24, -1.24, 278.3, 155.5)">0</text><path d="M 143.7 43.1 L 143.7 46.3 M 143.7 39.0 " fill="none" stroke="#000000" stroke-width="0.50" transform="matrix(1.75, 0.00, 0.00, 1.75, 5.0, 90.1)"></path><path d="M 172.8 43.1 L 172.8 46.3 M 172.8 39.0 " fill="none" stroke="#000000" stroke-width="0.50" transform="matrix(1.75, 0.00, 0.00, 1.75, 5.0, 90.1)"></path><text xml:space="preserve" font-family="Helvetica,Helvetica" font-size="7.0" fill="#000000" transform="matrix(1.24, -1.24, -1.24, -1.24, 304.8, 155.5)">8</text><text xml:space="preserve" font-family="Helvetica,Helvetica" font-size="7.0" fill="#000000" transform="matrix(1.24, -1.24, -1.24, -1.24, 311.6, 155.5)">0</text><text xml:space="preserve" font-family="Helvetica,Helvetica" font-size="7.0" fill="#000000" transform="matrix(1.24, -1.24, -1.24, -1.24, 318.4, 155.5)">-</text><text xml:space="preserve" font-family="Helvetica,Helvetica" font-size="7.0" fill="#000000" transform="matrix(1.24, -1.24, -1.24, -1.24, 322.5, 155.5)">1</text><text xml:space="preserve" font-family="Helvetica,Helvetica" font-size="7.0" fill="#000000" transform="matrix(1.24, -1.24, -1.24, -1.24, 329.3, 155.5)">0</text><text xml:space="preserve" font-family="Helvetica,Helvetica" font-size="7.0" fill="#000000" transform="matrix(1.24, -1.24, -1.24, -1.24, 336.1, 155.5)">0</text><path d="M 172.8 43.1 L 172.8 46.3 M 172.8 39.0 " fill="none" stroke="#000000" stroke-width="0.50" transform="matrix(1.75, 0.00, 0.00, 1.75, 5.0, 90.1)"></path><path d="M 201.8 43.1 L 201.8 46.3 M 201.8 39.0 " fill="none" stroke="#000000" stroke-width="0.50" transform="matrix(1.75, 0.00, 0.00, 1.75, 5.0, 90.1)"></path><text xml:space="preserve" font-family="Helvetica,Helvetica" font-size="7.0" fill="#000000" transform="matrix(1.24, -1.24, -1.24, -1.24, 355.6, 155.5)">1</text><text xml:space="preserve" font-family="Helvetica,Helvetica" font-size="7.0" fill="#000000" transform="matrix(1.24, -1.24, -1.24, -1.24, 362.5, 155.5)">0</text><text xml:space="preserve" font-family="Helvetica,Helvetica" font-size="7.0" fill="#000000" transform="matrix(1.24, -1.24, -1.24, -1.24, 369.3, 155.5)">0</text><text xml:space="preserve" font-family="Helvetica,Helvetica" font-size="7.0" fill="#000000" transform="matrix(1.24, -1.24, -1.24, -1.24, 376.1, 155.5)">-</text><text xml:space="preserve" font-family="Helvetica,Helvetica" font-size="7.0" fill="#000000" transform="matrix(1.24, -1.24, -1.24, -1.24, 380.2, 155.5)">1</text><text xml:space="preserve" font-family="Helvetica,Helvetica" font-size="7.0" fill="#000000" transform="matrix(1.24, -1.24, -1.24, -1.24, 387.0, 155.5)">2</text><text xml:space="preserve" font-family="Helvetica,Helvetica" font-size="7.0" fill="#000000" transform="matrix(1.24, -1.24, -1.24, -1.24, 393.8, 155.5)">0</text><path d="M 201.8 43.1 L 201.8 46.3 M 201.8 39.0 " fill="none" stroke="#000000" stroke-width="0.50" transform="matrix(1.75, 0.00, 0.00, 1.75, 5.0, 90.1)"></path><path d="M 231.0 43.1 L 231.0 46.3 M 231.0 39.0 " fill="none" stroke="#000000" stroke-width="0.50" transform="matrix(1.75, 0.00, 0.00, 1.75, 5.0, 90.1)"></path><text xml:space="preserve" font-family="Helvetica,Helvetica" font-size="7.0" fill="#000000" transform="matrix(1.24, -1.24, -1.24, -1.24, 406.6, 155.5)">1</text><text xml:space="preserve" font-family="Helvetica,Helvetica" font-size="7.0" fill="#000000" transform="matrix(1.24, -1.24, -1.24, -1.24, 413.4, 155.5)">2</text><text xml:space="preserve" font-family="Helvetica,Helvetica" font-size="7.0" fill="#000000" transform="matrix(1.24, -1.24, -1.24, -1.24, 420.2, 155.5)">0</text><text xml:space="preserve" font-family="Helvetica,Helvetica" font-size="7.0" fill="#000000" transform="matrix(1.24, -1.24, -1.24, -1.24, 427.1, 155.5)">-</text><text xml:space="preserve" font-family="Helvetica,Helvetica" font-size="7.0" fill="#000000" transform="matrix(1.24, -1.24, -1.24, -1.24, 431.1, 155.5)">1</text><text xml:space="preserve" font-family="Helvetica,Helvetica" font-size="7.0" fill="#000000" transform="matrix(1.24, -1.24, -1.24, -1.24, 438.0, 155.5)">4</text><text xml:space="preserve" font-family="Helvetica,Helvetica" font-size="7.0" fill="#000000" transform="matrix(1.24, -1.24, -1.24, -1.24, 444.8, 155.5)">0</text><path d="M 231.0 43.1 L 231.0 46.3 M 231.0 39.0 " fill="none" stroke="#000000" stroke-width="0.50" transform="matrix(1.75, 0.00, 0.00, 1.75, 5.0, 90.1)"></path><path d="M 260.1 43.1 L 260.1 46.3 M 260.1 39.0 " fill="none" stroke="#000000" stroke-width="0.50" transform="matrix(1.75, 0.00, 0.00, 1.75, 5.0, 90.1)"></path><text xml:space="preserve" font-family="Helvetica,Helvetica" font-size="7.0" fill="#000000" transform="matrix(1.24, -1.24, -1.24, -1.24, 457.6, 155.5)">1</text><text xml:space="preserve" font-family="Helvetica,Helvetica" font-size="7.0" fill="#000000" transform="matrix(1.24, -1.24, -1.24, -1.24, 464.4, 155.5)">4</text><text xml:space="preserve" font-family="Helvetica,Helvetica" font-size="7.0" fill="#000000" transform="matrix(1.24, -1.24, -1.24, -1.24, 471.2, 155.5)">0</text><text xml:space="preserve" font-family="Helvetica,Helvetica" font-size="7.0" fill="#000000" transform="matrix(1.24, -1.24, -1.24, -1.24, 478.0, 155.5)">-</text><text xml:space="preserve" font-family="Helvetica,Helvetica" font-size="7.0" fill="#000000" transform="matrix(1.24, -1.24, -1.24, -1.24, 482.1, 155.5)">1</text><text xml:space="preserve" font-family="Helvetica,Helvetica" font-size="7.0" fill="#000000" transform="matrix(1.24, -1.24, -1.24, -1.24, 488.9, 155.5)">6</text><text xml:space="preserve" font-family="Helvetica,Helvetica" font-size="7.0" fill="#000000" transform="matrix(1.24, -1.24, -1.24, -1.24, 495.7, 155.5)">0</text><path d="M 260.1 43.1 L 260.1 46.3 M 260.1 39.0 " fill="none" stroke="#000000" stroke-width="0.50" transform="matrix(1.75, 0.00, 0.00, 1.75, 5.0, 90.1)"></path><path d="M 289.2 43.1 L 289.2 46.3 M 289.2 39.0 " fill="none" stroke="#000000" stroke-width="0.50" transform="matrix(1.75, 0.00, 0.00, 1.75, 5.0, 90.1)"></path><text xml:space="preserve" font-family="Helvetica,Helvetica" font-size="7.0" fill="#000000" transform="matrix(1.24, -1.24, -1.24, -1.24, 508.5, 155.5)">1</text><text xml:space="preserve" font-family="Helvetica,Helvetica" font-size="7.0" fill="#000000" transform="matrix(1.24, -1.24, -1.24, -1.24, 515.4, 155.5)">6</text><text xml:space="preserve" font-family="Helvetica,Helvetica" font-size="7.0" fill="#000000" transform="matrix(1.24, -1.24, -1.24, -1.24, 522.2, 155.5)">0</text><text xml:space="preserve" font-family="Helvetica,Helvetica" font-size="7.0" fill="#000000" transform="matrix(1.24, -1.24, -1.24, -1.24, 529.0, 155.5)">-</text><text xml:space="preserve" font-family="Helvetica,Helvetica" font-size="7.0" fill="#000000" transform="matrix(1.24, -1.24, -1.24, -1.24, 533.1, 155.5)">1</text><text xml:space="preserve" font-family="Helvetica,Helvetica" font-size="7.0" fill="#000000" transform="matrix(1.24, -1.24, -1.24, -1.24, 539.9, 155.5)">8</text><text xml:space="preserve" font-family="Helvetica,Helvetica" font-size="7.0" fill="#000000" transform="matrix(1.24, -1.24, -1.24, -1.24, 546.7, 155.5)">0</text><path d="M 289.2 43.1 L 289.2 46.3 M 289.2 39.0 " fill="none" stroke="#000000" stroke-width="0.50" transform="matrix(1.75, 0.00, 0.00, 1.75, 5.0, 90.1)"></path><path d="M 318.2 43.1 L 318.2 46.3 M 318.2 39.0 " fill="none" stroke="#000000" stroke-width="0.50" transform="matrix(1.75, 0.00, 0.00, 1.75, 5.0, 90.1)"></path><text xml:space="preserve" font-family="Helvetica,Helvetica" font-size="7.0" fill="#000000" transform="matrix(1.24, -1.24, -1.24, -1.24, 559.5, 155.5)">1</text><text xml:space="preserve" font-family="Helvetica,Helvetica" font-size="7.0" fill="#000000" transform="matrix(1.24, -1.24, -1.24, -1.24, 566.3, 155.5)">8</text><text xml:space="preserve" font-family="Helvetica,Helvetica" font-size="7.0" fill="#000000" transform="matrix(1.24, -1.24, -1.24, -1.24, 573.1, 155.5)">0</text><text xml:space="preserve" font-family="Helvetica,Helvetica" font-size="7.0" fill="#000000" transform="matrix(1.24, -1.24, -1.24, -1.24, 580.0, 155.5)">-</text><text xml:space="preserve" font-family="Helvetica,Helvetica" font-size="7.0" fill="#000000" transform="matrix(1.24, -1.24, -1.24, -1.24, 584.0, 155.5)">2</text><text xml:space="preserve" font-family="Helvetica,Helvetica" font-size="7.0" fill="#000000" transform="matrix(1.24, -1.24, -1.24, -1.24, 590.9, 155.5)">0</text><text xml:space="preserve" font-family="Helvetica,Helvetica" font-size="7.0" fill="#000000" transform="matrix(1.24, -1.24, -1.24, -1.24, 597.7, 155.5)">0</text><path d="M 318.2 43.1 L 318.2 46.3 M 27.3 43.1 L 347.4 43.1 L 347.4 243.6 L 27.3 243.6 Z M 174.7 4.9 " fill="none" stroke="#000000" stroke-width="0.50" transform="matrix(1.75, 0.00, 0.00, 1.75, 5.0, 90.1)"></path><text xml:space="preserve" font-family="Helvetica,Helvetica" font-size="7.0" fill="#000000" transform="matrix(1.75, 0.00, -0.00, -1.75, 277.9, 94.7)">D</text><text xml:space="preserve" font-family="Helvetica,Helvetica" font-size="7.0" fill="#000000" transform="matrix(1.75, 0.00, -0.00, -1.75, 286.8, 94.7)">i</text><text xml:space="preserve" font-family="Helvetica,Helvetica" font-size="7.0" fill="#000000" transform="matrix(1.75, 0.00, -0.00, -1.75, 289.5, 94.7)">s</text><text xml:space="preserve" font-family="Helvetica,Helvetica" font-size="7.0" fill="#000000" transform="matrix(1.75, 0.00, -0.00, -1.75, 295.6, 94.7)">t</text><text xml:space="preserve" font-family="Helvetica,Helvetica" font-size="7.0" fill="#000000" transform="matrix(1.75, 0.00, -0.00, -1.75, 299.0, 94.7)">a</text><text xml:space="preserve" font-family="Helvetica,Helvetica" font-size="7.0" fill="#000000" transform="matrix(1.75, 0.00, -0.00, -1.75, 305.8, 94.7)">n</text><text xml:space="preserve" font-family="Helvetica,Helvetica" font-size="7.0" fill="#000000" transform="matrix(1.75, 0.00, -0.00, -1.75, 312.7, 94.7)">c</text><text xml:space="preserve" font-family="Helvetica,Helvetica" font-size="7.0" fill="#000000" transform="matrix(1.75, 0.00, -0.00, -1.75, 318.8, 94.7)">e</text><text xml:space="preserve" font-family="Helvetica,Helvetica" font-size="7.0" fill="#000000" transform="matrix(1.75, 0.00, -0.00, -1.75, 325.6, 94.7)">(</text><text xml:space="preserve" font-family="Helvetica,Helvetica" font-size="7.0" fill="#000000" transform="matrix(1.75, 0.00, -0.00, -1.75, 329.7, 94.7)">m</text><text xml:space="preserve" font-family="Helvetica,Helvetica" font-size="7.0" fill="#000000" transform="matrix(1.75, 0.00, -0.00, -1.75, 339.9, 94.7)">)</text><path d="M 193.6 2.6 " fill="none" stroke="#000000" stroke-width="0.50" transform="matrix(1.75, 0.00, 0.00, 1.75, 5.0, 90.1)"></path><path d="M 91.0 467.9 L 116.6 467.9 L 116.6 165.7 L 91.0 165.7 Z M 91.0 467.9 " fill="#9999FF"></path><path d="M 49.1 215.7 L 63.6 215.7 L 63.6 43.1 L 49.1 43.1 Z M 49.1 215.7 " fill="none" stroke="#0000FF" stroke-width="0.25" transform="matrix(1.75, 0.00, 0.00, 1.75, 5.0, 90.1)"></path><path d="M 142.0 274.4 L 167.5 274.4 L 167.5 165.7 L 142.0 165.7 Z M 142.0 274.4 " fill="#9999FF"></path><path d="M 78.2 105.2 L 92.8 105.2 L 92.8 43.1 L 78.2 43.1 Z M 78.2 105.2 " fill="none" stroke="#0000FF" stroke-width="0.25" transform="matrix(1.75, 0.00, 0.00, 1.75, 5.0, 90.1)"></path><path d="M 192.9 232.5 L 218.5 232.5 L 218.5 165.7 L 192.9 165.7 Z M 192.9 232.5 " fill="#9999FF"></path><path d="M 107.3 81.2 L 121.9 81.2 L 121.9 43.1 L 107.3 43.1 Z M 107.3 81.2 " fill="none" stroke="#0000FF" stroke-width="0.25" transform="matrix(1.75, 0.00, 0.00, 1.75, 5.0, 90.1)"></path><path d="M 243.9 191.9 L 269.4 191.9 L 269.4 165.7 L 243.9 165.7 Z M 243.9 191.9 " fill="#9999FF"></path><path d="M 136.4 58.1 L 151.0 58.1 L 151.0 43.1 L 136.4 43.1 Z M 136.4 58.1 " fill="none" stroke="#0000FF" stroke-width="0.25" transform="matrix(1.75, 0.00, 0.00, 1.75, 5.0, 90.1)"></path><path d="M 294.8 191.0 L 320.4 191.0 L 320.4 165.7 L 294.8 165.7 Z M 294.8 191.0 " fill="#9999FF"></path><path d="M 165.5 57.6 L 180.1 57.6 L 180.1 43.1 L 165.5 43.1 Z M 165.5 57.6 " fill="none" stroke="#0000FF" stroke-width="0.25" transform="matrix(1.75, 0.00, 0.00, 1.75, 5.0, 90.1)"></path><path d="M 345.8 179.7 L 371.4 179.7 L 371.4 165.7 L 345.8 165.7 Z M 345.8 179.7 " fill="#9999FF"></path><path d="M 194.6 51.1 L 209.2 51.1 L 209.2 43.1 L 194.6 43.1 Z M 194.6 51.1 " fill="none" stroke="#0000FF" stroke-width="0.25" transform="matrix(1.75, 0.00, 0.00, 1.75, 5.0, 90.1)"></path><path d="M 396.8 177.1 L 422.3 177.1 L 422.3 165.7 L 396.8 165.7 Z M 396.8 177.1 " fill="#9999FF"></path><path d="M 223.7 49.6 L 238.2 49.6 L 238.2 43.1 L 223.7 43.1 Z M 223.7 49.6 " fill="none" stroke="#0000FF" stroke-width="0.25" transform="matrix(1.75, 0.00, 0.00, 1.75, 5.0, 90.1)"></path><path d="M 447.7 176.9 L 473.3 176.9 L 473.3 165.7 L 447.7 165.7 Z M 447.7 176.9 " fill="#9999FF"></path><path d="M 252.8 49.5 L 267.4 49.5 L 267.4 43.1 L 252.8 43.1 Z M 252.8 49.5 " fill="none" stroke="#0000FF" stroke-width="0.25" transform="matrix(1.75, 0.00, 0.00, 1.75, 5.0, 90.1)"></path><path d="M 498.7 176.5 L 524.3 176.5 L 524.3 165.7 L 498.7 165.7 Z M 498.7 176.5 " fill="#9999FF"></path><path d="M 281.9 49.3 L 296.4 49.3 L 296.4 43.1 L 281.9 43.1 Z M 281.9 49.3 " fill="none" stroke="#0000FF" stroke-width="0.25" transform="matrix(1.75, 0.00, 0.00, 1.75, 5.0, 90.1)"></path><path d="M 549.6 174.6 L 575.2 174.6 L 575.2 165.7 L 549.6 165.7 Z M 549.6 174.6 " fill="#9999FF"></path><path d="M 311.0 48.2 L 325.6 48.2 L 325.6 43.1 L 311.0 43.1 Z M 311.0 48.2 " fill="none" stroke="#0000FF" stroke-width="0.25" transform="matrix(1.75, 0.00, 0.00, 1.75, 5.0, 90.1)"></path><path d="M 27.3 43.1 L 347.4 43.1 L 347.4 243.6 L 27.3 243.6 Z M 27.3 43.1 " fill="none" stroke="#000000" stroke-width="0.50" transform="matrix(1.75, 0.00, 0.00, 1.75, 5.0, 90.1)"></path></g></g><g><clipPath id="clip0x7fdf9e963d90"><path d="M 0.7 58.2 L 631.2 58.2 L 631.2 533.1 L 0.7 533.1 Z M 0.7 58.2 "></path></clipPath><g clip-path="url(#clip0x7fdf9e963d90)"><image xlink:href="034F75F309727E92005E1E4F60A368B6.png" width="630.00" height="475.00" transform="matrix(1.00, 0.00, -0.00, 1.00, 0.7, 58.2)"></image></g></g><g><clipPath id="clip0x7fdf9e964f10"><path d="M 233.5 -6.6 L 398.4 -6.6 L 398.4 78.4 L 233.5 78.4 Z M 233.5 -6.6 "></path></clipPath><g clip-path="url(#clip0x7fdf9e964f10)"><text xml:space="preserve" font-family="Helvetica-Light,Helvetica" font-size="50.0" fill="#000000" transform="matrix(1.00, 0.00, -0.00, -1.00, 246.5, 17.4)">M</text><text xml:space="preserve" font-family="Helvetica-Light,Helvetica" font-size="50.0" fill="#000000" transform="matrix(1.00, 0.00, -0.00, -1.00, 288.2, 17.4)">o</text><text xml:space="preserve" font-family="Helvetica-Light,Helvetica" font-size="50.0" fill="#000000" transform="matrix(1.00, 0.00, -0.00, -1.00, 316.0, 17.4)">m</text><text xml:space="preserve" font-family="Helvetica-Light,Helvetica" font-size="50.0" fill="#000000" transform="matrix(1.00, 0.00, -0.00, -1.00, 357.6, 17.4)">o</text></g></g></g></svg>