<?xml version="1.0" encoding="UTF-8" standalone="no"?><svg xmlns="http://www.w3.org/2000/svg" xmlns:xlink="http://www.w3.org/1999/xlink" clip-rule="evenodd" stroke-miterlimit="10" viewBox="0 0 942 561"><desc>SVG generated by Keynote</desc><defs></defs><g transform="matrix(1.00, 0.00, -0.00, -1.00, 0.0, 561.0)"><g><clipPath id="clip0x7fdfc08071e0"><path d="M 0.3 0.7 L 941.7 0.7 L 941.7 560.7 L 0.3 560.7 Z M 0.3 0.7 "></path></clipPath><g clip-path="url(#clip0x7fdfc08071e0)"><image xlink:href="61D57F486C996A2F5FB44BAC0ADE84B7.png" width="417.00" height="248.00" transform="matrix(2.26, 0.00, -0.00, -2.26, 0.3, 560.7)"></image></g></g><g><clipPath id="clip0x7fdfc0808050"><path d="M 685.2 363.1 L 853.2 363.1 L 853.2 437.5 L 685.2 437.5 Z M 685.2 363.1 "></path></clipPath><g clip-path="url(#clip0x7fdfc0808050)"><path d="M 721.3 424.6 C 720.6 425.0 718.6 424.4 718.1 424.8 M 721.3 424.6 C 721.3 424.6 721.3 424.6 721.3 424.6 C 721.9 424.1 718.6 422.7 718.3 422.2 C 717.9 421.7 717.4 422.2 717.0 422.2 C 716.1 422.3 717.2 420.9 715.3 421.3 C 713.9 421.7 712.4 421.0 711.0 420.9 C 709.7 420.8 708.8 420.8 709.2 422.3 C 711.2 423.5 711.1 424.8 711.0 424.8 C 709.5 425.0 706.3 425.2 705.1 424.6 C 704.8 424.4 705.4 420.7 705.1 420.7 C 704.2 420.4 703.9 421.5 703.0 421.6 C 702.0 421.6 701.6 421.7 700.7 421.0 C 700.5 420.9 698.7 420.8 699.5 421.4 C 698.8 421.3 697.7 421.0 697.0 421.3 C 696.4 421.6 696.2 422.8 697.1 423.0 C 696.9 423.1 700.5 423.5 700.5 423.2 C 700.4 424.3 697.6 422.8 696.9 424.3 C 695.9 426.5 697.6 425.6 698.6 426.2 C 699.6 426.8 697.0 427.9 696.0 427.9 C 694.0 427.9 699.0 429.9 697.0 430.5 C 695.0 431.1 697.1 431.6 698.8 432.6 C 700.1 433.4 699.7 434.2 698.7 434.6 C 700.0 434.5 700.9 434.8 701.9 436.0 C 703.3 436.3 702.6 435.4 702.5 434.8 C 701.8 432.3 706.7 435.2 706.9 435.2 C 707.6 435.1 708.1 434.4 708.9 434.6 C 709.5 434.8 709.5 435.9 710.0 435.9 C 710.7 435.9 711.4 435.9 712.1 435.9 C 712.7 435.9 711.4 435.4 712.1 434.6 C 712.8 433.9 711.6 432.5 711.4 432.3 C 711.3 431.5 715.3 435.1 717.2 435.0 C 719.1 434.9 717.7 434.1 719.0 434.0 C 720.2 434.0 719.9 435.1 720.8 435.1 C 721.6 435.1 721.8 434.5 722.6 434.7 C 724.3 435.4 724.0 433.6 722.6 432.3 C 721.9 431.7 720.9 431.1 721.3 430.0 C 721.7 428.8 723.7 429.5 722.6 428.7 C 721.6 427.9 718.0 429.1 717.4 428.4 C 716.8 427.6 720.9 427.8 720.1 426.9 C 719.4 425.9 719.3 427.0 717.9 426.5 C 717.9 426.0 718.6 426.5 718.6 425.8 C 718.6 425.2 717.6 425.3 718.1 424.8 C 718.6 424.4 720.6 425.0 721.3 424.6 C 721.3 424.6 721.3 424.6 721.3 424.6 Z M 703.5 422.4 C 703.5 422.4 703.5 422.4 703.5 422.4 C 703.3 422.1 703.7 421.9 704.1 422.0 C 704.5 422.1 703.7 422.6 703.5 422.4 C 703.5 422.4 703.5 422.4 703.5 422.4 Z M 717.3 435.9 C 717.3 435.9 717.3 435.9 717.3 435.9 C 717.1 435.7 717.4 435.4 717.9 435.6 C 718.4 435.7 717.6 436.2 717.3 435.9 C 717.3 435.9 717.3 435.9 717.3 435.9 Z M 703.4 434.9 C 703.4 434.9 703.4 434.9 703.4 434.9 C 703.2 434.7 703.6 434.4 704.0 434.5 C 704.5 434.7 703.6 435.1 703.4 434.9 C 703.4 434.9 703.4 434.9 703.4 434.9 Z M 708.1 423.0 C 708.1 423.0 708.1 423.0 708.1 423.0 C 708.7 423.0 709.5 423.5 708.3 424.0 C 707.7 424.1 707.3 424.1 706.9 424.0 C 706.4 423.9 705.7 423.9 705.4 423.5 C 706.5 423.2 707.4 422.3 708.1 423.0 C 708.1 423.0 708.1 423.0 708.1 423.0 Z M 709.0 428.9 C 709.0 428.9 709.0 428.9 709.0 428.9 C 709.2 428.5 710.4 428.4 710.4 429.4 C 709.6 429.7 708.9 429.3 709.0 428.9 C 709.0 428.9 709.0 428.9 709.0 428.9 Z M 694.9 424.7 C 694.9 424.7 694.9 424.7 694.9 424.7 C 695.1 424.4 696.2 424.2 696.1 425.3 C 695.4 425.5 694.7 425.1 694.9 424.7 C 694.9 424.7 694.9 424.7 694.9 424.7 Z M 711.5 425.7 C 711.5 425.7 711.5 425.7 711.5 425.7 C 712.2 425.9 712.6 426.8 711.8 427.0 C 711.3 426.5 709.3 426.3 711.5 425.7 C 711.5 425.7 711.5 425.7 711.5 425.7 Z M 715.4 422.3 C 715.4 422.3 715.4 422.3 715.4 422.3 C 715.8 422.6 716.1 422.5 716.1 423.3 C 715.5 423.3 715.7 423.3 715.1 423.4 C 714.1 423.1 713.9 425.0 713.3 423.9 C 712.4 422.3 715.0 421.8 715.4 422.3 C 715.4 422.3 715.4 422.3 715.4 422.3 Z M 713.0 427.1 C 713.0 427.1 713.0 427.1 713.0 427.1 C 713.3 427.2 713.6 427.4 713.6 427.6 C 713.5 428.0 712.8 427.3 713.0 427.1 C 713.0 427.1 713.0 427.1 713.0 427.1 Z M 696.9 432.3 C 696.9 432.3 696.9 432.3 696.9 432.3 C 697.1 432.3 697.4 432.6 697.5 432.7 C 697.3 433.1 696.7 432.5 696.9 432.3 C 696.9 432.3 696.9 432.3 696.9 432.3 Z M 707.8 435.4 C 707.8 435.4 707.8 435.4 707.8 435.4 C 708.1 435.5 708.4 435.7 708.5 435.8 C 708.3 436.3 707.6 435.6 707.8 435.4 C 707.8 435.4 707.8 435.4 707.8 435.4 Z M 703.1 425.1 C 703.1 425.1 703.1 425.1 703.1 425.1 C 702.7 425.5 701.3 424.5 701.5 424.2 C 701.9 423.4 703.6 424.6 703.1 425.1 C 703.1 425.1 703.1 425.1 703.1 425.1 Z M 720.6 422.1 C 720.6 422.1 720.6 422.1 720.6 422.1 C 720.2 422.5 718.8 421.5 718.9 421.3 C 719.2 420.4 721.0 421.7 720.6 422.1 C 720.6 422.1 720.6 422.1 720.6 422.1 Z M 699.6 424.4 C 699.6 424.4 699.6 424.4 699.6 424.4 C 699.7 424.7 699.8 425.0 699.9 425.3 C 700.0 425.2 700.1 425.1 700.2 425.0 C 700.2 424.7 700.2 424.5 700.2 424.3 C 700.2 423.3 701.5 424.8 701.1 422.8 C 700.8 421.4 701.3 421.4 701.6 420.1 C 701.5 419.8 699.9 420.3 699.6 420.3 C 698.5 420.3 697.2 419.1 697.3 418.9 C 697.2 418.3 696.9 416.9 697.5 416.0 C 697.4 414.8 699.6 416.0 699.6 416.0 C 699.4 414.5 699.8 415.1 700.0 414.0 C 700.0 413.2 698.6 413.0 698.6 412.2 C 698.4 411.8 701.0 412.3 701.0 410.5 C 701.0 409.5 700.9 409.0 701.6 408.4 C 701.7 408.3 701.8 406.6 701.2 407.0 C 701.2 406.6 701.4 406.1 701.0 405.7 C 699.4 404.2 700.0 406.7 699.6 406.6 C 699.5 406.6 699.2 405.2 698.5 405.1 C 697.7 404.9 698.2 400.1 697.3 401.4 C 696.4 403.0 693.8 401.1 693.5 400.5 C 693.5 400.2 694.8 400.7 694.1 399.7 C 693.4 398.6 692.5 400.0 691.9 399.7 C 688.8 398.2 690.8 399.2 689.7 400.6 C 689.2 401.3 688.4 399.5 687.9 398.8 C 687.8 398.9 687.8 400.6 687.6 400.7 C 687.5 401.5 687.9 401.4 687.0 401.8 C 686.6 402.1 687.1 403.8 687.2 404.0 C 687.4 404.4 687.3 403.3 687.8 403.3 C 689.7 403.7 687.4 404.8 687.5 406.3 C 687.5 407.8 687.6 408.3 687.6 408.6 C 687.5 408.8 688.9 409.1 688.8 409.5 C 689.0 410.1 688.4 410.3 688.0 410.6 C 687.6 410.9 688.5 412.4 688.5 413.1 C 688.4 413.7 687.7 413.4 687.3 414.8 C 686.8 416.3 688.9 416.6 689.4 416.5 C 691.3 416.2 687.6 417.4 687.7 418.5 C 687.8 419.5 688.5 419.6 688.5 420.3 C 688.4 420.6 688.2 420.9 687.9 421.2 C 688.3 421.6 688.1 422.1 688.1 423.2 C 688.1 423.3 688.1 423.4 688.1 423.6 C 688.3 423.7 689.1 422.0 689.4 422.2 C 690.1 422.8 689.1 423.7 688.6 424.0 C 689.3 424.6 689.6 425.5 689.2 426.4 C 688.6 428.2 690.4 428.3 691.8 427.1 C 692.4 426.5 693.3 425.3 694.1 426.2 C 694.9 427.2 694.0 429.0 695.4 428.0 C 695.4 427.8 696.1 428.1 695.6 426.5 C 695.1 424.9 695.9 424.1 695.9 424.1 C 696.0 423.2 695.3 423.0 695.8 422.5 C 696.3 422.1 696.3 423.3 696.3 424.2 C 696.6 424.4 697.1 424.0 697.1 424.8 C 697.1 425.6 696.4 425.5 696.9 425.9 C 697.3 426.3 697.1 425.9 697.3 425.8 C 697.4 426.4 697.4 427.0 697.4 427.6 C 697.1 428.8 698.7 426.9 698.8 426.4 C 699.0 425.5 697.9 424.5 699.6 424.4 C 699.6 424.4 699.6 424.4 699.6 424.4 Z M 694.5 424.8 C 694.5 424.8 694.5 424.8 694.5 424.8 C 694.3 424.5 694.6 423.3 694.9 423.9 C 695.3 424.4 694.7 425.2 694.5 424.8 C 694.5 424.8 694.5 424.8 694.5 424.8 Z M 686.5 414.3 C 686.5 414.3 686.5 414.3 686.5 414.3 C 686.3 413.9 686.6 412.6 686.9 413.2 C 687.3 413.9 686.7 414.7 686.5 414.3 C 686.5 414.3 686.5 414.3 686.5 414.3 Z M 700.6 417.7 C 700.6 417.7 700.6 417.7 700.6 417.7 C 699.8 417.2 701.0 416.5 701.3 417.0 C 701.2 417.3 700.8 417.6 700.6 417.7 C 700.6 417.7 700.6 417.7 700.6 417.7 Z M 689.4 419.3 C 689.4 419.3 689.4 419.3 689.4 419.3 C 689.4 419.2 689.4 419.0 689.4 418.8 C 689.8 419.1 690.1 420.0 690.1 420.4 C 689.4 420.4 689.4 419.7 689.4 419.3 C 689.4 419.3 689.4 419.3 689.4 419.3 Z M 700.6 414.0 C 700.6 414.0 700.6 414.0 700.6 414.0 C 700.0 413.4 700.3 413.0 700.3 412.5 C 702.4 413.1 701.1 414.6 700.6 414.0 C 700.6 414.0 700.6 414.0 700.6 414.0 Z M 697.1 406.1 C 697.1 406.1 697.1 406.1 697.1 406.1 C 696.4 406.7 695.4 404.1 696.0 404.0 C 696.6 403.9 696.8 404.8 696.9 405.3 C 697.0 405.5 697.7 405.5 697.1 406.1 C 697.1 406.1 697.1 406.1 697.1 406.1 Z M 689.1 408.3 C 689.1 408.3 689.1 408.3 689.1 408.3 C 689.1 408.5 689.4 408.7 689.3 408.8 C 689.1 408.9 688.8 408.5 689.1 408.3 C 689.1 408.3 689.1 408.3 689.1 408.3 Z M 688.5 425.5 C 688.5 425.5 688.5 425.5 688.5 425.5 C 688.6 425.7 688.9 425.9 688.7 426.0 C 688.6 426.2 688.2 425.8 688.5 425.5 C 688.5 425.5 688.5 425.5 688.5 425.5 Z M 689.4 403.5 C 689.4 403.5 689.4 403.5 689.4 403.5 C 690.0 403.5 689.7 404.1 689.8 404.4 C 689.4 404.3 688.8 403.5 689.4 403.5 C 689.4 403.5 689.4 403.5 689.4 403.5 Z M 699.1 416.8 C 699.1 416.8 699.1 416.8 699.1 416.8 C 700.0 417.6 700.1 419.4 698.4 419.1 C 698.3 418.5 698.0 418.0 698.1 417.5 C 698.2 417.1 698.8 416.9 699.1 416.8 C 699.1 416.8 699.1 416.8 699.1 416.8 Z M 699.4 422.2 C 699.4 422.2 699.4 422.2 699.4 422.2 C 699.7 422.6 699.6 423.4 698.9 422.8 C 698.6 422.6 698.4 422.3 698.3 421.9 C 698.1 421.6 697.7 420.9 698.0 420.8 C 698.3 420.6 699.5 421.5 699.4 422.2 C 699.4 422.2 699.4 422.2 699.4 422.2 Z M 698.8 413.5 C 698.8 413.5 698.8 413.5 698.8 413.5 C 699.3 413.8 699.3 415.1 699.0 415.1 C 698.7 415.0 698.2 413.2 698.8 413.5 C 698.8 413.5 698.8 413.5 698.8 413.5 Z M 700.4 419.1 C 700.4 419.1 700.4 419.1 700.4 419.1 C 700.3 419.3 700.2 419.4 700.1 419.3 C 700.0 419.2 700.0 418.9 700.1 418.9 C 700.2 418.8 700.4 418.9 700.4 419.1 C 700.4 419.1 700.4 419.1 700.4 419.1 Z M 701.8 410.5 C 701.8 410.5 701.8 410.5 701.8 410.5 C 701.7 410.6 701.7 410.8 701.6 410.6 C 701.4 410.5 701.5 410.3 701.6 410.2 C 701.6 410.2 701.8 410.3 701.8 410.5 C 701.8 410.5 701.8 410.5 701.8 410.5 Z M 700.9 424.9 C 700.9 424.9 700.9 424.9 700.9 424.9 C 700.8 425.1 700.8 425.2 700.6 425.1 C 700.5 425.0 700.6 424.8 700.6 424.7 C 700.7 424.6 700.9 424.7 700.9 424.9 C 700.9 424.9 700.9 424.9 700.9 424.9 Z M 699.9 410.6 C 699.9 410.6 699.9 410.6 699.9 410.6 C 699.5 410.8 699.0 410.6 698.9 409.8 C 697.2 413.4 696.8 407.3 698.1 407.3 C 700.1 407.3 700.6 410.5 699.9 410.6 C 699.9 410.6 699.9 410.6 699.9 410.6 Z M 729.4 424.7 C 728.1 423.6 726.2 424.5 724.9 424.0 C 723.5 423.5 722.4 422.1 722.2 423.9 C 722.1 425.2 719.0 425.3 719.5 426.5 C 719.8 427.4 720.4 428.1 720.6 429.1 C 720.8 430.8 719.5 431.3 721.4 432.5 C 722.9 433.6 722.4 431.3 723.8 433.6 C 724.9 435.2 726.7 435.3 727.1 433.7 C 727.4 432.2 728.3 431.3 729.7 433.4 C 730.4 434.5 730.5 434.8 731.5 435.2 C 731.9 435.4 734.0 434.3 734.0 434.4 C 733.7 434.0 731.9 432.8 733.2 432.6 C 733.9 432.6 735.3 433.6 735.3 434.6 C 735.2 436.2 739.7 434.9 739.2 434.5 C 739.4 434.6 741.0 436.4 741.1 435.1 C 741.1 435.1 743.1 434.8 743.4 434.8 C 747.6 434.3 739.7 431.6 744.3 431.5 C 747.3 431.5 746.1 433.9 746.4 434.4 C 747.1 435.3 749.6 435.2 750.6 435.3 C 751.4 435.4 751.7 434.3 752.0 433.8 C 752.4 433.0 754.2 433.3 755.1 434.1 C 755.5 434.4 756.3 435.4 756.8 435.5 C 756.8 435.5 758.4 435.6 758.0 435.3 C 757.7 435.1 756.2 434.5 756.6 434.0 C 756.9 433.7 758.9 435.3 759.4 435.4 C 760.5 435.7 759.3 432.9 761.6 434.2 C 763.2 435.1 762.4 435.0 762.6 433.7 C 762.8 433.0 765.3 434.6 765.7 435.1 C 763.9 432.4 766.9 434.9 766.8 434.4 C 766.9 434.7 766.0 434.9 766.2 435.2 C 766.3 435.4 773.9 435.8 773.7 434.9 C 773.5 434.0 772.0 433.2 774.1 433.5 C 774.8 433.6 776.2 434.2 776.2 434.5 C 775.4 434.9 775.5 434.6 774.7 435.2 C 774.7 435.2 777.2 435.5 777.6 435.5 C 778.9 435.6 779.0 435.0 779.8 434.3 C 780.3 433.9 781.6 435.2 782.6 435.2 C 783.7 435.2 784.7 435.3 785.6 435.1 C 786.5 434.8 786.8 434.9 786.3 434.0 C 785.8 433.1 787.7 433.0 787.9 432.6 C 788.1 432.1 788.2 432.1 789.2 432.6 C 791.0 433.4 790.2 433.6 790.6 434.0 C 792.2 435.7 795.3 435.5 796.2 435.3 C 797.1 434.9 794.7 434.1 794.8 433.9 C 795.1 433.5 796.3 434.0 796.9 434.0 C 797.8 434.0 797.3 434.6 797.8 434.9 C 800.4 436.4 798.8 433.3 800.0 433.5 C 801.8 433.9 803.7 436.0 804.7 435.0 C 805.8 433.9 808.8 436.0 810.0 435.1 C 810.9 434.4 815.1 436.9 814.3 434.6 C 813.9 433.6 814.5 432.4 813.6 431.3 C 813.4 431.0 809.9 427.8 810.0 428.3 C 809.9 428.0 811.0 428.1 810.7 427.6 C 810.5 427.2 808.6 426.6 808.2 426.3 C 807.9 426.2 809.2 425.4 809.0 425.1 C 808.8 424.6 805.0 423.8 803.8 422.3 C 803.4 421.7 801.8 421.2 802.3 422.0 C 802.6 422.3 804.6 424.3 804.9 424.2 C 804.8 424.2 802.8 423.7 802.8 423.7 C 803.2 424.0 803.5 424.3 803.9 424.7 C 803.9 424.9 800.3 424.9 800.0 424.7 C 799.2 424.1 798.5 422.4 797.7 422.0 C 797.2 421.8 797.2 422.8 796.8 422.8 C 795.9 422.7 796.1 421.8 795.2 421.6 C 795.0 421.5 791.5 422.2 791.6 422.5 C 791.6 422.6 793.8 424.2 794.2 424.7 C 795.0 425.8 793.5 425.4 793.0 425.3 C 792.2 425.2 788.8 424.3 787.9 422.9 C 787.6 422.4 789.5 422.3 789.6 422.1 C 789.4 422.4 785.3 419.9 785.6 421.6 C 785.7 421.9 786.8 422.0 786.9 422.1 C 787.1 422.3 787.5 423.9 786.9 423.8 C 786.5 423.7 785.0 422.5 784.9 422.9 C 785.0 422.7 784.8 424.3 784.2 423.7 C 784.5 424.1 786.2 425.2 786.2 425.5 C 786.2 425.6 784.0 425.3 783.8 425.3 C 782.1 424.8 782.9 425.4 782.5 426.0 C 782.1 426.7 780.6 427.2 779.9 425.5 C 779.1 423.5 777.1 422.9 778.0 424.4 C 778.9 426.0 778.4 425.7 776.9 425.3 C 775.4 424.9 774.4 425.5 772.7 424.3 C 770.6 422.8 772.5 422.5 771.8 421.9 C 770.9 421.3 769.9 421.4 769.4 421.5 C 768.5 421.7 769.9 422.8 769.6 423.0 C 769.1 423.2 767.5 421.6 766.9 421.9 C 766.8 421.9 766.2 422.9 766.4 422.9 C 763.3 422.7 766.9 423.6 768.0 425.0 C 768.4 425.5 766.0 424.5 767.3 426.3 C 768.7 428.1 765.9 428.0 765.3 427.2 C 765.4 427.0 765.5 426.8 765.6 426.6 C 764.9 425.7 762.2 426.0 761.8 425.2 C 761.5 424.8 764.7 423.6 763.6 422.6 C 763.0 422.0 762.7 423.0 762.6 423.3 C 762.5 423.7 761.8 422.6 761.6 422.4 C 761.7 422.5 760.2 422.6 760.2 423.2 C 760.3 423.4 761.8 424.0 761.4 424.2 C 760.1 424.9 760.3 423.5 759.1 422.6 C 758.4 422.0 755.3 421.4 755.5 421.5 C 755.6 421.7 756.6 421.9 756.6 422.3 C 756.6 422.8 755.5 422.4 755.5 422.9 C 755.5 423.1 756.4 423.3 756.4 423.4 C 756.3 424.0 754.2 423.8 754.4 424.3 C 754.6 424.8 756.4 424.5 756.7 425.1 C 756.9 425.6 756.2 426.4 755.7 425.6 C 755.1 424.5 753.7 425.7 752.9 425.2 C 752.0 424.6 753.4 423.7 751.9 423.5 C 750.0 423.2 751.6 424.1 751.4 424.7 C 751.0 426.2 747.1 421.3 747.0 422.5 C 747.0 422.9 749.4 424.9 747.6 424.4 C 746.8 424.2 744.2 426.0 743.6 424.5 C 743.5 424.1 745.4 423.9 745.2 423.7 C 744.6 422.9 743.3 423.1 742.8 423.0 C 741.8 422.8 742.0 422.0 741.3 421.5 C 740.4 420.8 740.5 422.5 739.8 422.5 C 739.2 422.4 740.6 424.9 740.7 425.2 C 740.2 424.2 738.8 425.5 738.0 424.6 C 736.3 422.5 736.3 423.2 734.7 422.6 C 735.0 422.6 735.2 422.7 735.4 423.0 C 735.4 423.2 734.4 423.3 734.2 423.3 C 734.7 423.4 735.1 423.7 735.4 424.1 C 735.5 424.2 731.5 426.8 730.5 424.6 C 730.3 424.3 729.1 420.5 728.6 421.7 C 728.4 422.1 729.4 424.7 729.4 424.7 M 746.0 423.2 C 746.3 423.1 746.5 423.2 746.8 423.6 C 746.5 423.9 746.2 423.9 745.8 423.7 C 745.5 423.3 745.6 423.1 746.0 423.2 M 745.4 421.9 C 745.7 421.9 745.9 422.1 746.1 422.4 C 744.6 423.1 743.5 420.5 745.4 421.4 C 745.5 421.5 745.2 421.9 745.4 421.9 M 760.2 421.8 C 760.4 422.0 759.3 422.6 759.2 421.9 C 759.2 421.6 760.0 421.5 760.2 421.8 M 764.5 424.6 C 765.3 425.3 764.2 425.4 763.8 425.0 C 763.3 424.5 764.3 424.5 764.5 424.6 M 797.4 423.7 C 798.7 425.1 797.2 427.3 795.5 425.3 C 793.6 422.8 795.7 421.7 797.4 423.7 M 774.6 422.3 C 774.7 422.9 773.2 422.4 772.9 421.8 C 772.5 420.7 774.4 421.7 774.6 422.3 M 774.3 424.1 C 774.5 424.6 773.4 424.3 773.2 423.9 C 773.0 423.5 774.1 423.4 774.3 424.1 M 791.1 423.7 C 790.9 423.3 792.4 423.9 792.2 424.1 C 792.1 424.3 791.2 424.2 791.1 423.7 C 791.1 423.7 791.1 423.7 791.1 423.7 Z M 801.1 423.9 C 800.8 423.8 800.7 423.4 801.0 423.6 C 801.3 423.7 801.5 424.1 801.1 423.9 C 801.1 423.9 801.1 423.9 801.1 423.9 Z M 781.9 424.4 C 780.8 424.3 781.0 422.9 782.5 423.6 C 783.8 424.2 783.2 424.5 781.9 424.4 C 781.9 424.4 781.9 424.4 781.9 424.4 Z M 803.7 434.3 C 804.1 434.5 803.8 434.8 803.4 434.7 C 802.5 434.3 803.3 434.2 803.7 434.3 C 803.7 434.3 803.7 434.3 803.7 434.3 Z M 744.2 426.3 C 744.8 426.6 744.1 426.8 743.9 426.6 C 743.5 426.3 743.6 425.9 744.2 426.3 C 744.2 426.3 744.2 426.3 744.2 426.3 Z M 732.0 423.7 C 732.6 424.1 731.5 424.1 731.3 423.8 C 731.0 423.5 731.5 423.4 732.0 423.7 C 732.0 423.7 732.0 423.7 732.0 423.7 Z M 724.5 431.5 C 725.1 431.9 724.4 432.1 724.1 431.8 C 723.8 431.5 723.9 431.2 724.5 431.5 C 724.5 431.5 724.5 431.5 724.5 431.5 Z M 741.5 429.9 C 742.1 430.3 741.4 430.4 741.2 430.2 C 740.8 429.9 740.9 429.5 741.5 429.9 C 741.5 429.9 741.5 429.9 741.5 429.9 Z M 741.5 424.8 C 740.9 424.2 740.7 422.3 742.2 423.9 C 743.7 425.3 742.2 425.4 741.5 424.8 C 741.5 424.8 741.5 424.8 741.5 424.8 Z M 783.6 433.9 C 783.6 433.9 783.8 433.2 784.1 433.4 C 785.6 434.3 783.6 433.9 783.6 433.9 C 783.6 433.9 783.6 433.9 783.6 433.9 Z M 765.7 426.1 C 765.7 426.1 766.0 425.8 766.2 425.9 C 767.3 426.4 765.7 426.1 765.7 426.1 C 765.7 426.1 765.7 426.1 765.7 426.1 Z M 757.1 421.0 C 757.1 421.0 757.5 420.7 757.6 420.8 C 758.7 421.3 757.1 421.0 757.1 421.0 C 757.1 421.0 757.1 421.0 757.1 421.0 Z M 732.0 422.7 C 730.7 422.4 731.5 421.7 732.5 422.0 C 733.4 422.2 733.2 422.9 732.0 422.7 C 732.0 422.7 732.0 422.7 732.0 422.7 Z M 736.8 425.5 C 735.4 424.4 736.4 423.9 737.4 424.9 C 738.4 425.8 738.2 426.6 736.8 425.5 C 736.8 425.5 736.8 425.5 736.8 425.5 Z M 732.2 426.5 C 732.5 426.5 732.6 426.6 732.6 426.9 C 732.4 427.3 731.3 427.1 731.0 426.7 C 730.4 426.0 732.2 426.5 732.2 426.5 M 736.5 431.9 C 738.1 430.2 737.4 434.5 736.9 434.1 C 736.4 433.6 736.1 432.3 736.5 431.9 C 736.5 431.9 736.5 431.9 736.5 431.9 Z M 755.4 433.4 C 755.6 432.9 756.6 433.4 756.3 433.8 C 756.1 434.1 755.1 433.8 755.4 433.4 C 755.4 433.4 755.4 433.4 755.4 433.4 Z M 749.5 423.0 C 749.6 422.8 750.8 422.9 750.5 423.3 C 750.3 423.5 749.3 423.5 749.5 423.0 C 749.5 423.0 749.5 423.0 749.5 423.0 Z M 723.3 422.3 C 723.5 422.0 724.6 422.1 724.3 422.5 C 724.0 422.8 723.0 422.7 723.3 422.3 C 723.3 422.3 723.3 422.3 723.3 422.3 Z M 764.5 429.9 C 765.1 429.2 766.2 430.1 765.7 430.5 C 765.1 430.8 764.0 430.6 764.5 429.9 C 764.5 429.9 764.5 429.9 764.5 429.9 Z M 781.0 425.8 C 781.2 425.4 781.9 426.0 781.6 426.1 C 781.3 426.2 780.9 426.0 781.0 425.8 C 781.0 425.8 781.0 425.8 781.0 425.8 Z M 783.5 424.4 C 783.7 424.2 784.2 424.5 783.9 424.6 C 783.6 424.6 783.4 424.5 783.5 424.4 C 783.5 424.4 783.5 424.4 783.5 424.4 Z M 800.2 428.0 C 800.5 427.6 801.9 428.3 801.2 428.4 C 800.4 428.6 799.9 428.3 800.2 428.0 C 800.2 428.0 800.2 428.0 800.2 428.0 Z M 785.5 422.7 C 785.6 422.5 786.2 422.8 785.9 422.9 C 785.6 422.9 785.4 422.8 785.5 422.7 C 785.5 422.7 785.5 422.7 785.5 422.7 Z M 795.8 423.6 C 796.0 423.1 797.1 423.9 796.7 424.0 C 796.2 424.1 795.7 423.8 795.8 423.6 C 795.8 423.6 795.8 423.6 795.8 423.6 Z M 792.3 420.5 C 792.5 420.0 793.6 420.8 793.2 420.9 C 792.8 421.0 792.2 420.8 792.3 420.5 C 792.3 420.5 792.3 420.5 792.3 420.5 Z M 779.6 436.0 C 779.9 435.4 780.9 436.2 780.5 436.3 C 780.0 436.4 779.4 436.2 779.6 436.0 C 779.6 436.0 779.6 436.0 779.6 436.0 Z M 736.9 421.5 C 737.9 421.4 738.4 421.9 737.9 422.4 C 737.5 422.9 735.9 421.6 736.9 421.5 C 736.9 421.5 736.9 421.5 736.9 421.5 Z M 796.0 425.0 C 796.1 424.7 796.6 425.1 796.5 425.2 C 796.3 425.4 795.9 425.3 796.0 425.0 C 796.0 425.0 796.0 425.0 796.0 425.0 Z M 773.5 427.7 C 773.9 428.0 774.0 428.3 774.0 428.5 C 773.3 428.5 772.0 427.4 771.8 426.6 C 771.6 425.9 774.2 426.9 774.1 427.6 C 774.0 427.8 773.1 427.3 773.5 427.7 M 779.6 432.7 C 780.2 433.0 779.9 433.4 779.3 433.0 C 778.6 432.6 779.0 432.4 779.6 432.7 C 779.6 432.7 779.6 432.7 779.6 432.7 Z M 769.1 434.6 C 769.7 434.9 769.4 435.3 768.8 434.9 C 768.1 434.5 768.5 434.3 769.1 434.6 C 769.1 434.6 769.1 434.6 769.1 434.6 Z M 783.4 422.1 C 784.1 422.2 783.2 421.7 783.3 421.6 C 783.6 421.5 784.0 421.7 784.4 422.0 C 785.2 422.8 783.3 422.3 783.1 422.2 C 783.2 422.1 783.3 422.1 783.4 422.1 M 804.0 433.3 C 804.7 433.4 803.8 432.9 803.8 432.8 C 804.2 432.7 804.6 432.9 805.1 433.2 C 805.9 434.0 803.9 433.5 803.7 433.4 C 803.8 433.3 803.9 433.3 804.0 433.3 M 720.1 423.4 C 720.3 423.6 719.0 424.2 719.1 423.5 C 719.1 423.2 720.0 423.1 720.1 423.4 M 767.2 436.2 C 767.5 436.4 766.1 437.0 766.1 436.3 C 766.1 436.0 767.0 435.9 767.2 436.2 M 770.8 432.4 C 771.4 432.4 770.6 432.0 770.7 431.9 C 771.0 431.8 771.4 432.0 771.8 432.3 C 772.5 433.1 770.6 432.6 770.4 432.4 C 770.5 432.4 770.6 432.4 770.8 432.4 M 796.1 433.2 C 795.8 432.8 796.6 432.8 796.6 433.2 C 796.6 433.5 796.3 433.5 796.1 433.2 C 796.1 433.2 796.1 433.2 796.1 433.2 Z M 754.2 423.4 C 754.0 423.1 755.0 423.3 754.7 423.5 C 754.5 423.6 754.4 423.7 754.2 423.4 C 754.2 423.4 754.2 423.4 754.2 423.4 Z M 769.1 426.9 C 768.8 427.3 768.4 426.5 768.4 426.2 C 768.5 425.4 770.2 427.3 770.0 427.3 C 769.8 427.3 769.2 426.9 769.1 426.9 M 752.0 427.4 C 751.4 428.1 750.4 424.8 752.5 426.7 C 754.6 428.6 752.1 427.3 752.0 427.4 M 810.5 434.0 C 810.6 433.6 808.4 433.2 808.3 432.9 C 808.3 432.2 811.0 433.6 811.5 434.4 C 811.7 434.5 810.3 434.6 810.5 434.0 M 789.4 425.3 C 789.5 425.0 787.5 424.6 787.5 424.3 C 787.5 423.5 789.9 425.0 790.4 425.7 C 790.5 425.9 789.2 425.9 789.4 425.3 M 757.5 424.8 C 757.0 424.8 757.6 423.7 758.3 424.4 C 759.6 425.7 757.8 424.9 757.5 424.8 M 726.9 423.1 C 726.6 423.2 726.4 423.1 726.2 422.8 C 725.8 422.3 727.2 422.2 727.2 422.4 C 727.1 422.6 727.0 422.9 726.9 423.1 M 788.6 433.3 C 788.4 432.7 789.6 433.5 789.3 433.7 C 788.9 433.9 788.7 433.9 788.6 433.3 C 788.6 433.3 788.6 433.3 788.6 433.3 Z M 739.7 436.3 C 739.8 435.7 740.6 436.5 740.3 436.7 C 739.9 436.9 739.6 436.9 739.7 436.3 C 739.7 436.3 739.7 436.3 739.7 436.3 Z M 805.7 422.6 C 805.6 422.2 806.7 422.8 806.4 423.0 C 806.1 423.1 805.9 423.1 805.7 422.6 C 805.7 422.6 805.7 422.6 805.7 422.6 Z M 788.6 426.9 C 788.7 426.8 790.0 427.1 789.4 427.6 C 789.1 427.8 788.6 427.1 788.6 426.9 C 788.6 426.9 788.6 426.9 788.6 426.9 Z M 799.8 422.2 C 799.9 422.0 801.5 422.4 800.8 422.9 C 800.4 423.2 799.7 422.3 799.8 422.2 C 799.8 422.2 799.8 422.2 799.8 422.2 Z M 780.9 429.6 C 781.0 429.3 781.5 429.7 781.3 429.9 C 781.0 430.0 780.8 429.9 780.9 429.6 C 780.9 429.6 780.9 429.6 780.9 429.6 Z M 774.1 420.8 C 774.1 420.5 774.6 420.9 774.4 421.0 C 774.2 421.2 774.0 421.0 774.1 420.8 C 774.1 420.8 774.1 420.8 774.1 420.8 Z M 766.2 424.5 C 766.3 424.3 766.7 424.6 766.5 424.8 C 766.3 425.0 766.1 424.8 766.2 424.5 C 766.2 424.5 766.2 424.5 766.2 424.5 Z M 778.9 421.5 C 780.0 421.0 781.2 421.5 780.2 422.5 C 779.5 423.2 778.6 421.6 778.9 421.5 C 778.9 421.5 778.9 421.5 778.9 421.5 Z M 773.4 430.3 C 773.6 430.0 774.0 430.4 773.7 430.5 C 773.5 430.6 773.2 430.5 773.4 430.3 C 773.4 430.3 773.4 430.3 773.4 430.3 Z M 769.3 424.1 C 768.0 423.3 771.7 422.8 772.0 424.6 C 772.5 426.9 769.9 424.4 769.3 424.1 M 751.9 422.0 C 751.4 421.6 752.5 421.4 752.8 422.1 C 753.2 423.4 752.0 422.1 751.9 422.0 M 749.5 433.5 C 749.5 433.5 750.1 434.2 749.6 434.0 C 748.9 433.8 749.5 433.5 749.5 433.5 C 749.5 433.5 749.5 433.5 749.5 433.5 Z M 751.1 432.6 C 751.1 432.2 752.4 432.8 751.8 432.9 C 751.5 433.0 751.0 433.0 751.1 432.6 C 751.1 432.6 751.1 432.6 751.1 432.6 Z M 747.7 421.5 C 747.8 421.3 748.3 421.5 748.0 421.6 C 747.9 421.6 747.7 421.6 747.7 421.5 C 747.7 421.5 747.7 421.5 747.7 421.5 Z M 752.5 435.9 C 752.7 435.6 753.9 436.0 753.2 436.2 C 752.9 436.2 752.4 436.2 752.5 435.9 C 752.5 435.9 752.5 435.9 752.5 435.9 Z M 772.0 421.0 C 772.0 420.8 772.5 421.1 772.3 421.2 C 772.2 421.2 772.0 421.2 772.0 421.0 C 772.0 421.0 772.0 421.0 772.0 421.0 Z M 801.7 420.9 C 801.7 420.7 802.3 421.0 802.1 421.0 C 802.0 421.1 801.8 421.1 801.7 420.9 C 801.7 420.9 801.7 420.9 801.7 420.9 Z M 729.9 432.3 C 730.0 431.9 731.1 432.5 730.5 432.7 C 730.2 432.8 729.8 432.8 729.9 432.3 C 729.9 432.3 729.9 432.3 729.9 432.3 Z M 777.1 424.5 C 777.0 424.0 778.1 424.7 777.6 424.9 C 777.3 425.0 777.1 425.0 777.1 424.5 C 777.1 424.5 777.1 424.5 777.1 424.5 Z M 744.8 433.0 C 744.9 432.5 745.9 433.2 745.2 433.4 C 744.8 433.5 744.6 433.5 744.8 433.0 C 744.8 433.0 744.8 433.0 744.8 433.0 Z M 774.7 423.8 C 774.7 423.5 775.3 423.7 774.9 423.9 C 774.8 423.9 774.7 424.0 774.7 423.8 C 774.7 423.8 774.7 423.8 774.7 423.8 Z M 788.0 434.0 C 788.0 433.7 788.7 434.0 788.3 434.1 C 788.2 434.2 788.1 434.3 788.0 434.0 C 788.0 434.0 788.0 434.0 788.0 434.0 Z M 796.3 436.0 C 796.3 435.7 797.0 436.0 796.6 436.1 C 796.4 436.2 796.3 436.3 796.3 436.0 C 796.3 436.0 796.3 436.0 796.3 436.0 Z M 783.8 427.9 C 783.8 427.6 784.7 427.9 784.3 428.1 C 784.1 428.1 783.8 428.1 783.8 427.9 C 783.8 427.9 783.8 427.9 783.8 427.9 Z M 741.3 429.2 C 740.7 429.3 739.4 428.4 739.0 427.5 C 739.3 428.2 741.3 427.5 741.6 427.6 C 741.8 427.7 741.9 429.1 741.3 429.2 M 786.4 428.6 C 782.6 429.1 782.9 426.0 786.2 427.0 C 786.4 427.1 787.0 428.5 786.4 428.6 C 786.4 427.1 787.0 428.5 786.4 428.6 C 786.4 427.1 787.0 428.5 786.4 428.6 C 786.4 427.1 787.0 428.5 786.4 428.6 M 807.5 421.2 C 805.6 421.5 807.2 421.7 807.4 423.2 C 807.4 423.5 806.5 424.7 807.0 425.1 C 807.8 425.7 808.5 425.0 809.2 425.5 C 810.9 426.7 808.9 427.0 809.1 427.4 C 809.6 428.8 811.8 430.1 813.2 430.9 C 815.2 432.0 813.4 430.1 813.9 429.8 C 814.2 429.6 815.3 431.3 815.5 431.6 C 816.4 433.1 814.2 432.1 816.3 434.2 C 817.7 435.5 818.2 436.1 819.1 435.6 C 819.8 435.2 818.5 433.7 818.1 432.7 C 817.9 432.2 821.5 432.5 821.6 433.7 C 821.7 434.5 822.0 435.3 823.2 435.2 C 823.6 435.1 823.7 434.8 823.7 434.4 C 823.9 433.9 825.1 434.8 825.4 434.4 C 826.2 433.5 830.8 436.3 832.0 435.4 C 832.2 435.2 831.5 432.4 834.5 434.9 C 835.1 435.0 833.9 433.6 834.3 433.6 C 835.5 433.7 836.1 434.7 836.7 434.9 C 837.6 435.1 838.7 433.0 840.0 434.3 C 842.0 436.4 844.1 435.4 843.8 435.0 C 843.7 434.8 846.9 435.3 848.1 435.0 C 847.8 434.9 847.5 434.8 847.2 434.7 C 847.4 434.6 847.6 434.4 847.7 434.4 C 847.2 434.4 844.6 433.6 843.8 433.2 C 843.5 433.0 846.0 431.8 847.3 433.3 C 847.9 434.1 848.3 434.6 848.9 434.3 C 849.8 433.9 849.6 434.8 850.7 435.1 C 850.7 435.1 850.7 435.1 850.7 435.1 C 851.2 433.8 849.1 431.5 850.3 431.3 C 851.2 431.0 850.4 430.4 850.2 429.1 C 849.8 426.9 851.3 428.0 851.2 426.2 C 851.1 426.0 851.0 422.5 850.3 422.9 C 849.7 423.2 849.6 424.6 848.8 424.5 C 847.3 424.2 849.1 421.3 849.0 421.7 C 849.2 420.8 847.3 417.6 847.8 417.3 C 848.2 417.0 849.7 420.3 849.9 420.7 C 850.8 422.3 850.6 417.7 850.6 417.8 C 850.7 417.2 849.9 416.0 850.2 415.6 C 850.6 415.1 850.9 415.1 850.8 414.1 C 850.7 413.4 850.7 413.0 850.8 412.3 C 850.8 411.4 849.3 410.7 848.9 409.9 C 848.1 408.6 849.6 409.0 849.8 408.4 C 850.4 407.1 848.7 403.5 850.0 403.1 C 851.4 402.6 848.0 400.4 849.4 399.0 C 849.9 398.5 850.3 397.0 850.0 396.8 C 850.8 397.3 850.8 394.3 850.8 393.8 C 851.0 393.0 850.2 392.6 849.9 392.0 C 849.6 391.3 850.5 390.4 850.9 389.6 C 851.7 387.7 849.0 389.6 849.9 388.0 C 851.4 385.3 847.6 388.1 847.4 387.6 C 847.3 387.3 849.8 385.1 850.1 384.6 C 850.6 383.9 849.2 384.7 849.7 384.0 C 850.3 383.2 851.2 381.7 850.3 381.4 C 849.8 381.3 848.2 382.8 848.4 382.1 C 848.5 381.9 849.2 380.5 848.9 380.6 C 846.1 382.0 851.5 376.8 850.4 379.4 C 850.9 378.3 851.3 372.9 850.1 373.8 C 849.5 374.2 849.3 376.5 848.7 376.6 C 847.4 376.9 849.4 371.6 849.9 372.4 C 849.5 371.9 851.4 368.2 850.6 367.6 C 850.5 367.5 850.8 366.1 850.5 366.3 C 850.1 366.7 849.1 367.9 848.7 367.9 C 848.6 367.9 848.5 367.9 848.4 367.8 C 847.1 368.4 845.3 369.2 844.6 370.2 C 844.4 370.4 843.0 372.7 842.3 374.0 C 841.8 374.7 841.4 375.2 841.5 375.2 C 841.4 375.2 841.3 375.2 841.2 375.1 C 840.7 375.2 840.1 375.3 839.7 375.7 C 839.3 376.1 839.6 376.2 840.1 376.2 C 840.0 377.0 840.2 377.8 839.2 378.5 C 839.3 378.5 839.0 379.6 838.6 380.0 C 837.4 381.2 837.8 380.5 837.6 381.6 C 837.5 382.4 837.9 381.5 838.5 381.3 C 838.9 381.1 836.7 383.6 837.9 383.7 C 838.2 382.6 838.7 382.5 839.6 381.3 C 840.8 379.5 840.9 381.1 841.0 381.5 C 841.4 383.0 840.6 384.3 839.6 386.3 C 839.0 387.4 835.6 387.6 837.7 387.7 C 838.7 387.8 837.8 391.0 838.4 391.7 C 838.3 391.6 839.1 390.6 839.2 390.6 C 841.6 389.4 839.5 393.8 839.0 394.4 C 838.2 395.3 839.0 395.0 839.9 394.4 C 841.0 393.6 841.1 394.6 841.1 395.2 C 841.1 395.5 840.8 396.6 841.1 396.8 C 841.6 397.1 838.4 398.6 838.1 398.9 C 837.5 399.7 838.9 399.8 838.3 400.7 C 838.3 400.8 836.6 402.6 837.3 402.6 C 838.7 402.8 839.4 399.3 840.0 402.3 C 840.0 402.5 840.4 406.2 839.6 405.6 C 839.2 405.3 839.4 404.9 839.2 404.6 C 839.9 405.8 836.4 405.4 837.3 407.2 C 837.8 408.0 836.9 411.1 838.7 410.8 C 840.3 410.3 841.2 412.3 840.2 412.9 C 839.3 413.4 839.0 413.5 839.9 414.9 C 840.0 415.2 840.6 417.8 839.7 417.0 C 839.1 416.4 839.4 415.8 838.4 415.1 C 837.9 414.7 837.4 414.8 837.6 415.3 C 837.9 415.9 838.7 416.5 839.1 417.1 C 839.3 417.3 838.7 417.8 838.7 417.9 C 838.5 418.3 838.8 419.4 838.3 419.5 C 838.0 419.6 837.3 418.4 837.1 418.4 C 835.7 418.5 839.8 420.7 839.5 420.4 C 839.7 420.6 840.8 423.6 840.9 423.9 C 841.0 424.6 840.9 425.0 840.7 425.1 C 839.8 424.7 838.8 424.0 837.6 423.0 C 837.4 422.8 837.7 422.7 838.1 422.5 C 838.0 421.9 837.9 421.3 837.9 421.3 C 837.3 421.0 837.0 421.0 836.8 421.2 C 835.5 420.9 835.2 421.8 833.9 421.6 C 833.4 421.5 829.6 420.4 832.0 422.3 C 833.4 423.4 831.9 422.9 831.5 423.0 C 831.6 423.0 834.9 424.8 835.5 425.0 C 834.5 425.2 833.6 425.4 832.4 425.4 C 831.8 425.5 831.1 425.6 830.1 425.2 C 829.7 425.1 828.0 423.5 827.8 424.1 C 827.9 423.7 828.4 423.6 828.7 423.4 C 828.0 423.2 824.5 420.8 824.8 421.9 C 824.8 422.3 825.9 422.9 825.4 423.0 C 824.9 423.2 824.2 423.2 823.9 423.5 C 823.7 423.7 826.3 426.4 823.2 425.2 C 823.4 425.3 820.8 423.3 820.9 423.4 C 820.0 422.5 819.4 422.0 818.5 422.0 C 819.1 422.0 821.7 425.1 820.7 425.4 C 819.7 425.7 816.9 425.5 815.1 423.2 C 813.9 422.8 812.0 421.4 811.9 422.7 C 811.9 423.5 810.5 423.9 808.8 423.0 C 808.4 422.7 809.4 422.4 809.3 422.1 C 809.2 421.8 807.7 421.2 807.5 421.2 M 810.3 421.8 C 811.0 422.4 809.2 422.1 809.2 421.4 C 809.4 421.3 809.8 421.5 810.3 421.8 M 810.2 422.9 C 810.2 423.2 809.8 422.7 809.8 422.7 C 809.9 422.6 810.2 422.6 810.2 422.9 C 810.2 422.9 810.2 422.9 810.2 422.9 Z M 823.2 423.7 C 822.6 423.8 822.4 423.5 822.5 423.2 C 822.7 422.8 823.7 423.5 823.2 423.7 C 823.2 423.7 823.2 423.7 823.2 423.7 Z M 845.0 436.3 C 844.5 436.5 844.2 436.2 844.3 435.9 C 844.5 435.5 845.6 436.2 845.0 436.3 C 845.0 436.3 845.0 436.3 845.0 436.3 Z M 831.7 423.9 C 831.8 424.1 831.5 424.1 831.3 423.9 C 831.1 423.7 831.5 423.8 831.7 423.9 C 831.7 423.9 831.7 423.9 831.7 423.9 Z M 819.5 424.5 C 819.6 424.6 819.3 424.6 819.1 424.4 C 818.9 424.2 819.3 424.3 819.5 424.5 C 819.5 424.5 819.5 424.5 819.5 424.5 Z M 829.2 422.1 C 829.7 422.3 830.0 423.5 827.7 421.7 C 827.1 421.3 828.8 421.7 829.0 421.8 C 829.2 421.9 828.7 421.9 829.2 422.1 M 837.0 419.7 C 837.1 419.6 837.3 419.8 837.6 420.2 C 837.7 420.3 837.2 420.6 837.0 419.7 M 851.8 402.3 C 851.9 402.0 852.1 401.9 852.5 402.1 C 852.6 402.1 852.0 403.4 851.8 402.3 M 836.8 400.0 C 836.6 399.8 837.3 399.3 837.5 399.4 C 837.8 399.6 837.3 400.4 836.8 400.0 M 838.9 412.5 C 838.7 412.3 838.8 410.9 839.2 411.4 C 839.6 411.9 838.9 412.7 838.9 412.5 M 837.9 393.1 C 837.7 393.4 837.5 393.8 837.3 394.1 C 837.2 394.3 836.5 392.5 837.4 392.2 C 838.0 392.0 838.0 392.9 837.9 393.1 M 836.8 390.4 C 836.6 390.3 836.9 389.4 837.3 389.2 C 838.0 389.0 837.2 390.5 836.8 390.4 M 837.5 404.7 C 837.6 404.5 838.0 404.8 837.9 405.0 C 837.8 405.3 837.4 404.9 837.5 404.7 C 837.5 404.7 837.5 404.7 837.5 404.7 Z M 838.1 413.2 C 838.1 413.4 837.7 414.1 837.4 413.6 C 836.4 412.4 837.4 410.7 838.1 413.2 M 823.0 421.8 C 823.0 421.8 823.4 421.2 824.4 422.3 C 825.9 423.6 823.1 421.9 823.0 421.8 M 819.1 422.9 C 819.5 423.0 819.6 423.4 819.2 423.2 C 818.8 423.0 818.7 422.8 819.1 422.9 C 819.1 422.9 819.1 422.9 819.1 422.9 Z M 837.8 398.4 C 838.0 398.1 838.2 398.7 837.9 398.7 C 837.7 398.8 837.5 398.7 837.8 398.4 C 837.8 398.4 837.8 398.4 837.8 398.4 Z M 837.4 394.7 C 837.7 394.3 837.8 394.9 837.6 395.0 C 837.3 395.1 837.2 395.0 837.4 394.7 C 837.4 394.7 837.4 394.7 837.4 394.7 Z M 851.3 380.7 C 851.6 380.1 851.7 381.1 851.5 381.3 C 851.2 381.4 851.1 381.3 851.3 380.7 C 851.3 380.7 851.3 380.7 851.3 380.7 Z M 827.8 428.7 C 827.7 428.9 827.4 428.8 827.0 428.4 C 826.8 428.1 826.8 427.9 827.0 427.9 C 826.7 428.0 824.7 427.7 824.9 426.9 C 825.1 426.2 827.0 427.4 827.5 427.1 C 827.7 427.0 827.2 426.1 827.0 425.9 C 827.1 426.0 828.1 426.3 829.5 427.5 C 831.2 429.0 827.9 428.4 827.8 428.7 M 842.3 418.7 C 842.4 418.6 842.6 417.4 842.8 417.6 C 845.0 419.5 842.6 421.4 840.7 419.3 C 838.3 416.8 842.5 418.4 842.3 418.7 M 839.9 388.3 C 839.9 389.3 840.9 386.5 841.5 386.3 C 842.5 385.9 840.7 388.8 840.4 389.1 C 838.3 391.1 838.4 388.3 839.6 387.6 C 839.9 387.6 840.0 387.9 839.9 388.3 M 838.9 383.4 C 839.4 382.6 839.7 384.6 839.5 385.0 C 839.2 385.5 838.3 385.9 838.1 385.9 C 837.1 385.7 838.3 384.4 838.9 383.4 M 839.2 421.7 C 840.1 421.8 840.6 425.1 839.4 423.7 C 838.8 423.0 839.0 421.7 839.2 421.7 M 847.1 406.4 C 846.4 406.7 846.6 404.0 846.5 403.8 C 846.3 403.4 845.0 404.6 845.1 404.3 C 845.4 403.1 845.6 397.2 846.8 402.0 C 847.1 403.0 848.6 403.9 848.8 405.0 C 849.3 407.3 848.1 405.8 847.1 406.4 M 813.4 424.5 C 814.3 424.7 812.7 423.3 813.0 423.1 C 813.4 422.9 815.4 424.4 815.4 424.9 C 815.3 426.9 810.2 423.7 813.4 424.5 M 826.3 424.8 C 825.5 424.6 825.4 424.2 825.9 424.2 C 826.4 424.3 827.1 425.0 826.3 424.8 C 826.3 424.8 826.3 424.8 826.3 424.8 Z M 830.6 424.2 C 830.9 424.1 832.1 424.7 832.3 425.2 C 832.6 425.8 829.7 424.3 830.6 424.2 M 812.3 420.8 C 812.6 420.7 813.7 421.3 813.9 421.8 C 814.1 422.4 811.4 420.9 812.3 420.8 M 842.8 405.6 C 842.7 405.3 843.3 404.8 843.7 405.1 C 844.4 405.5 842.9 406.7 842.8 405.6 M 840.0 413.9 C 839.8 413.1 842.1 413.5 841.9 414.2 C 841.7 414.7 840.2 415.5 840.0 413.9 M 848.0 432.3 C 848.0 432.1 848.1 432.0 848.1 431.8 C 848.8 432.1 849.0 432.7 848.9 433.3 C 848.8 434.0 848.1 434.3 848.0 432.3 C 848.0 432.3 848.0 432.3 848.0 432.3 M 838.4 406.6 C 838.3 405.3 841.4 406.9 841.3 407.7 C 841.1 409.4 838.5 407.8 838.4 406.6 M 839.6 415.8 C 839.3 415.9 838.9 415.0 839.6 415.1 C 839.7 415.1 839.8 415.7 839.6 415.8 C 839.6 415.8 839.6 415.8 839.6 415.8 Z M 847.5 405.0 C 847.8 404.9 848.0 405.3 847.7 405.3 C 847.5 405.4 847.3 405.1 847.5 405.0 C 847.5 405.0 847.5 405.0 847.5 405.0 Z M 847.3 403.3 C 847.4 403.0 847.9 403.6 847.7 403.9 C 847.3 404.3 847.2 403.6 847.3 403.3 C 847.3 403.3 847.3 403.3 847.3 403.3 Z M 837.9 403.0 C 838.0 402.8 838.5 403.3 838.3 403.5 C 837.9 403.7 837.9 403.2 837.9 403.0 C 837.9 403.0 837.9 403.0 837.9 403.0 Z M 828.1 433.7 C 829.4 433.5 829.9 434.2 828.6 434.1 C 827.8 434.0 826.8 433.9 828.1 433.7 C 828.1 433.7 828.1 433.7 828.1 433.7 Z M 833.1 422.1 C 834.7 421.7 838.2 425.2 835.2 424.4 C 835.2 424.4 831.4 422.6 833.1 422.1 C 833.1 422.1 833.1 422.1 833.1 422.1 Z M 842.9 425.6 C 842.7 425.2 843.4 425.7 843.6 426.3 C 843.7 426.7 843.1 426.0 842.9 425.6 C 842.9 425.6 842.9 425.6 842.9 425.6 Z M 836.0 407.5 C 835.7 407.2 836.5 407.4 836.6 407.7 C 836.8 408.0 836.2 407.7 836.0 407.5 C 836.0 407.5 836.0 407.5 836.0 407.5 Z M 830.4 434.3 C 830.4 434.0 831.2 434.8 831.0 434.9 C 830.9 435.1 830.4 434.5 830.4 434.3 C 830.4 434.3 830.4 434.3 830.4 434.3 Z M 840.1 394.7 C 839.8 394.6 840.6 394.3 840.8 394.6 C 840.9 394.8 840.3 394.9 840.1 394.7 C 840.1 394.7 840.1 394.7 840.1 394.7 Z M 848.1 416.0 C 847.5 416.0 847.7 414.2 848.0 415.1 C 848.4 416.3 848.8 416.0 848.1 416.0 C 848.1 416.0 848.1 416.0 848.1 416.0 Z M 848.2 410.0 C 847.8 410.0 847.7 409.2 848.1 409.5 C 848.4 409.7 848.6 410.0 848.2 410.0 C 848.2 410.0 848.2 410.0 848.2 410.0 Z M 836.5 389.5 C 836.1 389.8 836.0 389.4 836.4 389.3 C 836.7 389.2 836.9 389.2 836.5 389.5 C 836.5 389.5 836.5 389.5 836.5 389.5 Z M 851.9 394.0 C 851.5 394.2 851.4 393.3 851.8 393.5 C 852.1 393.6 852.3 393.8 851.9 394.0 C 851.9 394.0 851.9 394.0 851.9 394.0 Z M 847.3 389.9 C 847.5 389.2 848.0 389.5 847.5 390.1 C 847.1 390.5 847.1 390.6 847.3 389.9 C 847.3 389.9 847.3 389.9 847.3 389.9 Z M 838.9 403.9 C 838.5 403.8 838.8 401.2 839.3 402.5 C 839.5 403.2 839.7 404.2 838.9 403.9 C 838.9 403.9 838.9 403.9 838.9 403.9 Z M 846.0 376.5 C 845.7 376.4 846.4 375.5 846.8 375.4 C 846.8 375.4 846.3 376.5 846.0 376.5 C 846.0 376.5 846.0 376.5 846.0 376.5 Z M 840.6 378.4 C 840.3 378.4 841.0 377.5 841.4 377.3 C 841.4 377.3 840.9 378.4 840.6 378.4 C 840.6 378.4 840.6 378.4 840.6 378.4 Z M 837.8 379.9 C 837.4 380.0 838.1 379.1 838.5 378.8 C 838.5 378.8 838.1 379.9 837.8 379.9 C 837.8 379.9 837.8 379.9 837.8 379.9 Z M 835.9 429.9 C 835.7 430.4 835.0 429.4 835.0 429.4 C 836.2 429.5 836.2 429.5 835.9 429.9 C 835.9 429.9 835.9 429.9 835.9 429.9 Z M 825.8 421.2 C 825.7 421.4 825.4 421.0 825.4 421.0 C 825.9 421.0 825.9 421.0 825.8 421.2 C 825.8 421.2 825.8 421.2 825.8 421.2 Z M 832.2 420.8 C 832.1 421.0 831.8 420.5 831.8 420.5 C 832.2 420.6 832.2 420.6 832.2 420.8 C 832.2 420.8 832.2 420.8 832.2 420.8 Z M 839.6 435.2 C 839.4 435.5 839.0 434.9 839.0 434.9 C 839.8 435.0 839.8 435.0 839.6 435.2 C 839.6 435.2 839.6 435.2 839.6 435.2 Z M 843.4 412.3 C 843.8 413.1 842.9 412.4 842.9 412.4 C 843.0 411.5 843.0 411.5 843.4 412.3 C 843.4 412.3 843.4 412.3 843.4 412.3 Z M 846.9 411.1 C 847.4 411.9 846.4 411.3 846.4 411.3 C 846.5 410.3 846.5 410.3 846.9 411.1 C 846.9 411.1 846.9 411.1 846.9 411.1 Z M 851.7 420.5 C 851.8 421.0 851.4 420.6 851.4 420.6 C 851.5 420.1 851.5 420.1 851.7 420.5 C 851.7 420.5 851.7 420.5 851.7 420.5 Z M 850.0 409.8 C 850.2 410.2 849.8 409.9 849.8 409.9 C 849.8 409.4 849.8 409.4 850.0 409.8 C 850.0 409.8 850.0 409.8 850.0 409.8 Z M 819.6 433.6 C 820.0 433.6 820.3 434.0 819.7 433.9 C 819.3 433.8 819.1 433.7 819.6 433.6 C 819.6 433.6 819.6 433.6 819.6 433.6 Z M 813.6 426.9 C 814.3 426.8 815.1 427.8 813.8 427.6 C 813.1 427.5 812.9 427.0 813.6 426.9 C 813.6 426.9 813.6 426.9 813.6 426.9 Z M 838.5 409.5 C 838.4 409.7 838.2 408.9 838.2 408.8 C 838.2 408.6 839.0 408.7 839.1 408.7 C 838.9 408.9 838.7 409.3 838.5 409.5 M 839.4 418.3 C 839.5 418.1 839.8 418.6 839.7 418.7 C 839.6 418.8 839.3 418.5 839.4 418.3 C 839.4 418.3 839.4 418.3 839.4 418.3 Z M 838.8 395.7 C 839.8 395.0 839.9 396.7 839.1 397.2 C 838.9 397.3 837.8 396.5 838.8 395.7 C 838.8 395.7 838.8 395.7 838.8 395.7 Z M 850.0 400.0 C 849.8 399.9 850.0 399.3 850.1 399.7 C 850.3 400.1 850.2 400.1 850.0 400.0 C 850.0 400.0 850.0 400.0 850.0 400.0 Z M 848.9 396.9 C 848.5 396.3 849.8 395.6 849.6 396.2 C 849.4 397.0 849.2 397.5 848.9 396.9 C 848.9 396.9 848.9 396.9 848.9 396.9 Z M 841.6 384.3 C 841.7 383.9 841.9 383.4 842.4 383.0 C 843.2 382.2 841.5 385.6 841.6 384.3 M 837.0 417.5 C 836.9 417.1 837.1 417.0 837.5 417.1 C 838.7 417.6 836.9 418.4 837.0 417.5 M 838.9 392.9 C 839.1 392.5 839.4 392.9 839.1 393.2 C 838.8 393.5 838.7 393.4 838.9 392.9 C 838.9 392.9 838.9 392.9 838.9 392.9 Z M 840.1 382.4 C 840.3 381.8 840.7 382.2 840.4 382.6 C 840.0 383.1 840.0 382.9 840.1 382.4 C 840.1 382.4 840.1 382.4 840.1 382.4 Z M 836.9 423.2 C 837.7 422.9 839.0 425.0 838.8 425.3 C 838.4 425.9 837.3 424.0 837.2 424.0 C 837.1 423.9 838.0 424.8 838.0 424.6 C 837.9 424.0 836.6 423.3 836.9 423.2 M 818.3 424.2 C 819.2 424.4 819.7 425.2 818.9 424.9 C 818.1 424.6 817.3 424.1 818.3 424.2 C 818.3 424.2 818.3 424.2 818.3 424.2 Z M 829.7 378.5 C 829.2 380.0 831.1 379.3 832.4 379.5 C 832.6 379.6 834.6 378.8 834.5 378.5 C 834.2 377.5 837.4 374.9 836.3 376.9 C 835.6 378.1 833.1 380.0 835.2 379.5 C 836.7 379.1 836.9 377.4 838.7 376.8 C 838.9 376.7 839.3 376.6 839.8 376.4 C 840.0 376.6 840.3 376.7 840.5 376.4 C 840.9 376.0 840.9 375.6 841.0 375.3 C 841.0 375.2 841.0 375.1 841.2 374.9 C 841.5 374.6 841.8 374.4 842.2 374.1 C 842.6 373.8 843.1 373.6 843.4 373.3 C 844.3 372.8 845.7 371.1 846.6 369.6 C 846.7 369.4 846.8 369.2 846.7 369.1 C 846.6 368.7 844.8 368.6 846.6 367.6 C 850.2 365.7 846.2 363.9 844.6 365.2 C 843.5 366.1 842.3 366.7 841.1 367.2 C 839.2 368.2 840.4 366.0 839.7 365.9 C 836.1 365.0 836.8 368.4 835.4 369.3 C 834.7 369.7 833.2 369.7 832.8 369.6 C 831.1 369.3 833.7 367.8 835.1 366.0 C 835.5 365.5 830.7 365.0 830.1 366.9 C 828.2 366.8 830.7 365.5 827.9 365.6 C 827.1 365.7 827.2 366.8 826.2 366.8 C 823.6 366.8 826.1 365.7 825.1 365.7 C 824.2 365.6 822.9 366.2 821.8 366.9 C 820.9 367.6 821.1 367.1 820.7 366.8 C 820.0 366.4 819.1 368.0 818.2 368.0 C 815.0 367.7 820.6 365.5 819.4 365.5 C 814.8 365.4 814.8 367.1 812.3 367.0 C 811.3 367.0 811.4 363.8 808.6 366.2 C 805.1 369.3 806.9 365.1 804.8 365.3 C 804.1 365.4 803.6 365.4 802.9 365.4 C 802.4 365.4 802.8 367.0 802.4 367.3 C 802.1 367.6 799.5 369.3 799.8 369.8 C 800.5 371.2 801.2 368.7 802.9 368.8 C 804.7 368.9 803.0 369.7 802.5 370.1 C 802.1 370.2 801.5 370.3 801.2 370.5 C 800.7 371.0 801.5 371.6 801.1 372.1 C 800.9 372.5 797.4 372.4 797.5 372.0 C 797.6 371.3 799.2 371.6 798.9 370.1 C 798.6 368.8 798.9 368.8 800.3 368.0 C 802.3 367.0 800.2 365.2 799.3 365.2 C 798.6 365.2 797.1 365.0 796.4 365.2 C 795.0 365.7 796.8 366.7 793.7 366.4 C 792.0 366.2 787.4 368.4 786.7 367.4 C 786.4 367.1 788.9 365.5 786.4 365.5 C 785.1 365.5 783.8 365.2 782.6 365.2 C 778.6 365.2 781.7 365.9 780.8 366.2 C 779.3 366.8 778.0 365.4 776.6 365.7 C 775.6 365.9 774.9 367.1 773.9 366.5 C 772.6 365.9 772.5 365.5 771.1 365.5 C 770.8 365.5 768.0 366.1 768.1 366.3 C 768.3 366.7 770.1 366.2 769.9 366.7 C 769.5 368.6 767.4 367.5 766.5 367.1 C 765.9 366.8 764.1 367.6 763.9 366.6 C 763.8 365.9 765.7 365.6 765.4 365.5 C 761.2 365.1 759.9 366.7 758.5 366.6 C 756.5 366.4 758.6 365.7 756.4 365.5 C 755.6 365.5 755.1 366.1 754.7 366.5 C 754.1 367.2 754.2 368.3 753.9 369.2 C 753.5 370.3 753.1 370.9 753.5 372.4 C 753.6 373.1 753.9 374.1 754.3 374.8 C 754.6 375.4 755.4 375.2 755.6 376.0 C 755.8 376.7 754.5 378.0 754.9 378.2 C 757.0 379.6 756.4 377.5 756.7 377.3 C 757.0 377.1 757.5 377.9 757.9 378.2 C 758.5 378.5 759.2 378.8 758.4 377.2 C 758.4 377.4 760.6 376.6 761.4 377.7 C 761.9 378.5 764.1 377.7 765.4 377.8 C 765.2 377.2 763.3 375.5 765.1 375.3 C 766.0 375.2 766.4 375.1 767.1 376.2 C 767.4 376.5 766.2 377.0 766.4 377.2 C 766.7 377.3 767.0 377.4 767.3 377.4 C 767.4 377.5 766.3 378.5 766.5 378.6 C 768.4 379.6 771.7 379.5 770.8 377.5 C 770.6 377.1 767.9 376.4 769.2 376.2 C 770.8 375.9 772.0 376.1 773.1 376.1 C 772.9 376.1 772.9 374.3 774.5 374.7 C 774.8 374.7 775.7 374.6 775.5 374.5 C 775.2 374.3 773.7 374.6 773.7 374.0 C 773.7 373.5 775.3 374.0 776.7 374.2 C 778.1 374.4 776.8 373.5 777.6 373.5 C 780.0 373.4 776.7 376.4 780.3 376.2 C 780.5 376.1 779.5 374.9 779.5 374.9 C 779.2 374.0 783.3 376.5 781.1 376.8 C 780.4 376.9 779.6 377.4 780.4 378.1 C 781.3 378.9 781.3 377.9 782.2 377.3 C 781.9 377.6 783.1 378.5 783.2 378.5 C 783.7 378.6 784.1 377.5 784.4 377.8 C 784.6 377.9 786.4 379.9 786.2 377.8 C 786.1 377.3 785.0 376.2 785.2 375.7 C 785.3 375.1 787.5 375.5 787.8 375.6 C 788.5 375.7 788.4 376.8 788.3 376.8 C 789.2 377.2 791.4 374.6 790.3 377.4 C 790.1 378.0 789.7 378.8 789.8 379.4 C 789.8 379.9 791.4 379.4 791.4 379.2 C 791.6 378.3 790.9 378.0 791.6 376.9 C 792.4 375.7 791.7 376.2 791.9 375.6 C 791.9 375.4 793.9 375.2 793.5 375.9 C 793.2 376.4 792.4 377.2 792.8 377.6 C 792.9 377.7 794.3 378.8 794.3 378.3 C 794.6 376.3 795.6 377.3 795.0 377.7 C 794.3 378.2 794.9 380.1 795.7 379.2 C 796.1 378.7 795.3 377.1 797.2 376.9 C 797.2 376.9 798.1 378.8 798.5 377.0 C 798.8 376.0 798.3 375.2 799.5 375.1 C 800.0 375.0 802.7 374.6 802.6 375.3 C 802.5 376.0 800.0 376.8 800.2 377.6 C 800.3 378.3 801.4 376.6 801.7 377.1 C 802.4 379.0 802.3 376.7 803.5 376.6 C 804.9 376.4 803.9 378.5 802.7 378.6 C 802.9 378.6 800.3 378.3 800.7 379.0 C 801.0 379.7 804.8 380.0 805.0 378.4 C 805.0 377.6 805.4 375.6 806.6 376.1 C 806.3 375.9 806.0 379.9 806.9 378.5 C 807.9 377.0 806.6 376.4 808.5 375.5 C 810.8 374.3 811.7 375.1 813.5 375.0 C 813.8 375.0 815.0 375.1 814.6 375.9 C 814.3 376.6 813.3 377.0 813.1 377.0 C 812.1 377.0 814.8 378.8 812.2 379.0 C 811.8 379.0 813.9 379.1 814.2 379.1 C 815.8 379.1 814.4 376.3 815.9 376.2 C 816.8 376.2 819.4 375.9 818.5 377.4 C 817.0 379.9 821.3 376.0 821.9 375.5 C 822.4 375.1 824.7 375.2 825.0 375.4 C 826.0 376.2 823.7 377.4 824.3 377.6 C 824.7 377.8 825.9 377.7 824.4 378.7 C 823.0 379.6 824.5 379.5 824.9 379.4 C 825.8 379.2 828.4 376.0 829.6 375.9 C 831.5 375.8 830.2 376.9 829.7 378.5 M 824.6 376.4 C 824.2 376.9 822.9 376.9 823.3 376.5 C 824.0 375.7 824.9 375.9 824.6 376.4 M 837.9 378.8 C 837.7 378.9 837.6 378.9 837.5 378.8 C 837.1 378.9 836.7 378.8 837.0 378.5 C 837.5 378.1 838.0 378.0 838.2 378.0 C 838.2 378.3 838.0 378.6 837.9 378.8 M 817.2 377.6 C 816.7 378.3 815.9 377.9 816.0 377.5 C 816.4 376.6 817.7 376.9 817.2 377.6 M 775.9 375.5 C 776.3 375.4 776.7 375.3 777.0 375.7 C 777.3 376.0 775.3 376.2 775.9 375.5 M 831.9 378.7 C 831.4 379.2 830.0 379.3 830.7 378.6 C 831.7 377.5 832.5 378.1 831.9 378.7 M 837.9 375.3 C 837.6 375.4 837.6 375.3 837.7 375.1 C 837.8 374.8 838.5 374.9 837.9 375.3 M 771.6 379.1 C 771.4 379.2 771.3 379.1 771.2 378.9 C 771.0 378.5 771.8 378.7 771.6 379.1 M 782.5 379.1 C 782.1 379.3 781.9 379.2 781.7 378.9 C 781.7 378.8 782.9 378.5 782.5 379.1 M 785.8 364.8 C 785.4 364.9 785.1 364.9 784.9 364.6 C 784.8 364.5 786.3 364.1 785.8 364.8 M 765.7 379.2 C 765.6 379.7 764.5 379.5 764.3 379.1 C 764.2 378.5 765.7 378.7 765.7 379.2 M 759.2 376.1 C 759.1 376.6 757.8 376.6 757.6 376.1 C 757.3 375.3 759.2 375.7 759.2 376.1 M 830.0 371.4 C 828.9 371.4 830.4 370.6 830.5 370.9 C 830.6 371.2 831.0 371.4 830.0 371.4 C 830.0 371.4 830.0 371.4 830.0 371.4 Z M 809.6 367.8 C 809.8 367.9 810.6 367.6 810.3 368.2 C 810.0 368.7 808.3 368.0 808.6 367.5 C 809.3 366.5 809.6 367.8 809.6 367.8 M 808.6 377.2 C 808.1 376.0 809.0 376.1 810.0 375.7 C 810.8 375.5 809.1 378.4 808.6 377.2 C 808.6 377.2 808.6 377.2 808.6 377.2 Z M 813.0 375.9 C 812.6 375.8 813.4 375.4 813.4 375.4 C 813.6 375.7 813.4 376.0 813.0 375.9 C 813.0 375.9 813.0 375.9 813.0 375.9 Z M 801.3 375.7 C 801.2 375.5 801.9 375.3 801.7 375.6 C 801.5 375.9 801.3 375.9 801.3 375.7 C 801.3 375.7 801.3 375.7 801.3 375.7 Z M 803.8 375.5 C 803.8 375.3 805.0 375.2 804.8 375.5 C 804.6 375.7 803.8 375.6 803.8 375.5 C 803.8 375.5 803.8 375.5 803.8 375.5 Z M 788.8 366.2 C 788.7 366.1 790.0 365.9 789.9 366.2 C 789.8 366.5 788.9 366.4 788.8 366.2 C 788.8 366.2 788.8 366.2 788.8 366.2 Z M 808.1 374.5 C 808.2 373.8 810.0 373.0 809.2 374.1 C 808.5 375.1 808.0 375.1 808.1 374.5 C 808.1 374.5 808.1 374.5 808.1 374.5 Z M 797.7 367.5 C 796.8 368.3 796.7 366.6 796.5 366.6 C 796.8 366.6 798.3 367.0 797.7 367.5 M 769.3 378.5 C 768.8 379.3 768.2 377.6 768.1 377.6 C 768.2 377.6 769.7 378.0 769.3 378.5 M 793.0 379.4 C 792.3 380.1 792.3 378.4 792.1 378.5 C 792.3 378.4 793.6 378.8 793.0 379.4 M 822.3 377.6 C 821.7 378.1 821.9 376.8 822.2 376.7 C 822.7 376.4 822.7 377.2 822.3 377.6 M 815.9 365.0 C 815.7 365.6 814.5 365.3 814.7 365.0 C 815.1 364.5 816.1 364.5 815.9 365.0 M 842.1 366.0 C 841.8 366.6 840.6 366.3 840.9 366.0 C 841.5 365.5 842.5 365.5 842.1 366.0 M 773.4 365.1 C 773.5 365.6 771.9 365.2 772.2 365.0 C 772.4 364.8 773.4 364.9 773.4 365.1 M 791.7 374.7 C 792.2 374.9 787.9 374.1 790.9 373.0 C 791.5 372.7 792.1 372.9 792.4 373.0 C 793.9 373.3 791.2 373.6 791.2 374.0 C 791.1 374.3 791.9 374.2 791.9 374.2 C 791.9 374.2 791.1 374.5 791.7 374.7 C 791.7 374.7 791.7 374.7 791.7 374.7 Z M 785.0 368.0 C 784.9 368.4 784.0 367.4 784.2 367.3 C 784.5 367.0 785.3 367.4 785.0 368.0 M 787.1 377.4 C 786.9 377.8 786.2 376.7 786.3 376.6 C 786.7 376.3 787.4 376.8 787.1 377.4 M 774.6 377.1 C 774.1 377.7 773.5 376.0 773.8 375.8 C 774.5 375.5 775.2 376.2 774.6 377.1 M 773.0 377.9 C 772.7 377.8 773.0 377.4 773.1 377.6 C 773.3 377.8 773.2 378.1 773.0 377.9 C 773.0 377.9 773.0 377.9 773.0 377.9 Z M 759.5 379.1 C 759.2 379.0 759.4 378.6 759.6 378.7 C 759.8 379.0 759.8 379.3 759.5 379.1 C 759.5 379.1 759.5 379.1 759.5 379.1 Z M 778.6 376.7 C 778.4 376.6 778.7 376.2 778.8 376.4 C 779.0 376.6 778.9 376.9 778.6 376.7 C 778.6 376.7 778.6 376.7 778.6 376.7 Z M 766.9 365.6 C 766.6 365.7 766.6 365.2 766.8 365.3 C 767.2 365.3 767.2 365.6 766.9 365.6 C 766.9 365.6 766.9 365.6 766.9 365.6 Z M 768.6 367.4 C 768.3 367.4 768.3 367.0 768.5 367.0 C 768.9 367.1 768.9 367.4 768.6 367.4 C 768.6 367.4 768.6 367.4 768.6 367.4 Z M 828.6 378.5 C 828.4 379.2 827.2 379.1 827.8 377.9 C 828.2 377.1 828.3 377.0 829.0 376.9 C 830.4 376.8 828.9 377.6 828.6 378.5 M 761.6 367.4 C 760.3 367.0 761.1 366.4 762.3 366.6 C 762.3 366.6 763.0 367.7 761.6 367.4 C 761.6 367.4 761.6 367.4 761.6 367.4 Z M 780.5 374.3 C 779.9 374.6 779.1 373.7 780.1 373.2 C 780.8 372.9 781.0 374.0 780.5 374.3 M 772.2 377.7 C 771.6 378.0 770.8 377.0 771.7 376.5 C 772.3 376.2 772.7 377.4 772.2 377.7 M 807.2 379.9 C 806.5 380.2 806.2 379.2 807.3 378.7 C 808.0 378.4 807.8 379.6 807.2 379.9 M 762.5 377.1 C 761.5 377.6 759.3 376.1 761.2 375.3 C 762.2 374.8 763.5 376.6 762.5 377.1 M 811.4 377.1 C 811.9 376.8 812.1 377.5 811.4 377.8 C 810.9 378.1 811.0 377.3 811.4 377.1 M 800.5 371.7 C 800.0 371.9 799.5 371.8 799.1 371.6 C 798.4 370.6 801.8 371.1 800.5 371.7 M 788.7 375.3 C 788.6 375.3 789.0 374.7 789.2 374.9 C 789.3 375.1 788.9 375.3 788.7 375.3 C 788.7 375.3 788.7 375.3 788.7 375.3 Z M 794.7 375.3 C 794.9 375.0 796.3 375.3 796.1 375.5 C 795.9 375.7 794.5 375.6 794.7 375.3 C 794.7 375.3 794.7 375.3 794.7 375.3 Z M 828.1 375.8 C 826.9 375.5 829.0 375.0 828.8 375.3 C 828.4 375.9 828.4 375.9 828.1 375.8 C 828.1 375.8 828.1 375.8 828.1 375.8 Z M 764.9 370.3 C 764.3 370.2 765.2 369.4 765.2 369.7 C 765.4 370.4 765.4 370.5 764.9 370.3 C 764.9 370.3 764.9 370.3 764.9 370.3 Z M 779.1 378.8 C 778.6 378.6 779.9 378.3 779.9 378.6 C 779.9 379.3 779.5 378.9 779.1 378.8 C 779.1 378.8 779.1 378.8 779.1 378.8 Z M 757.5 379.1 C 757.0 378.9 758.2 378.6 758.3 378.9 C 758.5 379.6 758.1 379.3 757.5 379.1 C 757.5 379.1 757.5 379.1 757.5 379.1 Z M 832.2 376.3 C 831.4 375.8 835.4 373.7 834.7 374.5 C 833.2 376.5 833.0 376.8 832.2 376.3 C 832.2 376.3 832.2 376.3 832.2 376.3 Z M 791.7 377.3 C 791.4 377.2 792.1 376.6 792.1 376.8 C 792.0 377.4 792.0 377.5 791.7 377.3 C 791.7 377.3 791.7 377.3 791.7 377.3 Z M 815.3 379.3 C 815.1 379.2 816.0 378.6 815.9 378.8 C 815.6 379.4 815.5 379.5 815.3 379.3 C 815.3 379.3 815.3 379.3 815.3 379.3 Z M 821.4 376.6 C 821.3 376.5 822.1 376.0 821.9 376.2 C 821.6 376.7 821.6 376.8 821.4 376.6 C 821.4 376.6 821.4 376.6 821.4 376.6 Z M 828.4 365.3 C 828.2 365.2 829.1 364.7 829.0 364.9 C 828.7 365.4 828.7 365.4 828.4 365.3 C 828.4 365.3 828.4 365.3 828.4 365.3 Z M 823.1 370.5 C 822.4 370.2 824.8 368.9 824.5 369.4 C 823.8 370.7 823.7 370.8 823.1 370.5 C 823.1 370.5 823.1 370.5 823.1 370.5 Z M 834.3 368.5 C 833.9 368.4 835.4 367.6 835.2 367.9 C 834.7 368.6 834.6 368.7 834.3 368.5 C 834.3 368.5 834.3 368.5 834.3 368.5 Z M 835.3 367.0 C 835.2 366.9 835.9 366.6 835.8 366.7 C 835.5 367.1 835.5 367.1 835.3 367.0 C 835.3 367.0 835.3 367.0 835.3 367.0 Z M 772.3 374.5 C 771.9 374.3 772.7 373.4 772.7 373.7 C 772.8 374.6 772.8 374.7 772.3 374.5 C 772.3 374.5 772.3 374.5 772.3 374.5 Z M 777.7 369.7 C 776.8 371.0 775.1 369.2 776.7 369.2 C 778.3 369.2 778.6 368.4 777.7 369.7 C 777.7 369.7 777.7 369.7 777.7 369.7 Z M 807.5 372.0 C 806.7 372.8 806.3 371.7 807.2 371.7 C 808.0 371.7 808.3 371.2 807.5 372.0 C 807.5 372.0 807.5 372.0 807.5 372.0 Z M 807.0 365.9 C 806.7 366.2 806.5 365.7 806.9 365.7 C 807.2 365.7 807.3 365.5 807.0 365.9 C 807.0 365.9 807.0 365.9 807.0 365.9 Z M 819.3 379.4 C 819.2 378.9 820.6 378.0 820.3 378.5 C 820.0 379.3 819.5 379.9 819.3 379.4 C 819.3 379.4 819.3 379.4 819.3 379.4 Z M 826.1 377.5 C 826.3 377.3 827.3 376.5 827.2 376.7 C 827.0 377.9 825.6 377.9 826.1 377.5 M 798.8 378.9 C 797.8 379.1 798.3 377.7 799.1 377.9 C 800.0 378.2 799.4 378.7 798.8 378.9 C 798.8 378.9 798.8 378.9 798.8 378.9 Z M 782.9 375.1 C 782.4 375.2 782.7 374.6 783.1 374.6 C 783.4 374.5 783.3 375.0 782.9 375.1 C 782.9 375.1 782.9 375.1 782.9 375.1 Z M 765.6 376.6 C 765.0 376.9 765.1 375.7 765.8 375.6 C 766.2 375.5 766.2 376.4 765.6 376.6 C 765.6 376.6 765.6 376.6 765.6 376.6 Z M 788.5 378.5 C 787.8 378.8 788.3 377.7 789.0 377.6 C 789.6 377.5 789.3 378.3 788.5 378.5 C 788.5 378.5 788.5 378.5 788.5 378.5 Z M 797.3 376.3 C 796.5 376.6 797.1 375.5 797.9 375.4 C 798.5 375.3 798.1 376.1 797.3 376.3 C 797.3 376.3 797.3 376.3 797.3 376.3 Z M 761.5 373.3 C 760.9 372.7 761.4 372.3 761.9 372.8 C 762.3 373.4 762.1 373.8 761.5 373.3 C 761.5 373.3 761.5 373.3 761.5 373.3 Z M 786.6 378.9 C 786.4 378.6 786.7 378.4 786.8 378.7 C 786.9 378.9 786.8 379.2 786.6 378.9 C 786.6 378.9 786.6 378.9 786.6 378.9 Z M 783.2 371.3 C 782.4 371.5 783.2 370.1 783.9 370.6 C 784.5 371.1 783.5 371.2 783.2 371.3 C 783.2 371.3 783.2 371.3 783.2 371.3 Z M 822.6 380.9 C 822.2 381.0 823.0 380.2 823.1 380.5 C 823.1 380.8 822.7 380.8 822.6 380.9 C 822.6 380.9 822.6 380.9 822.6 380.9 Z M 761.7 376.5 C 761.4 376.6 761.5 375.8 761.8 376.1 C 762.1 376.4 761.8 376.4 761.7 376.5 C 761.7 376.5 761.7 376.5 761.7 376.5 Z M 760.9 378.6 C 760.6 378.7 760.7 378.0 761.0 378.2 C 761.3 378.5 761.0 378.5 760.9 378.6 C 760.9 378.6 760.9 378.6 760.9 378.6 Z M 773.1 367.2 C 773.6 366.9 775.9 367.0 775.2 368.0 C 774.3 369.3 773.5 368.0 772.5 367.9 C 771.6 367.9 773.7 369.1 771.1 369.0 C 770.3 369.0 771.8 369.7 771.9 370.3 C 771.9 370.8 766.9 370.5 767.8 369.3 C 768.1 368.8 769.6 368.4 770.1 368.3 C 771.3 368.1 770.9 367.8 772.0 367.1 C 772.4 367.2 772.8 367.2 773.1 367.2 C 773.1 367.2 773.1 367.2 773.1 367.2 Z M 753.3 379.5 C 755.3 379.1 753.8 379.0 754.5 377.5 C 754.6 377.2 756.1 376.0 755.8 375.6 C 755.4 374.9 754.4 375.7 753.9 375.2 C 753.0 373.9 755.0 373.7 755.2 373.2 C 755.5 371.8 754.0 370.5 753.1 369.8 C 751.7 368.7 752.4 370.5 751.7 370.8 C 751.2 371.1 751.1 369.4 751.1 369.1 C 751.0 367.6 752.7 368.6 751.8 366.5 C 751.2 365.1 751.0 364.5 749.7 365.1 C 748.7 365.5 749.2 366.9 749.0 367.9 C 749.0 368.5 745.5 368.2 746.0 367.0 C 746.3 366.2 746.5 365.4 745.2 365.5 C 744.8 365.6 744.5 365.9 744.2 366.3 C 743.8 366.8 743.0 365.9 742.4 366.3 C 741.2 367.2 737.8 364.3 736.1 365.3 C 735.9 365.4 735.2 368.2 733.3 365.8 C 732.7 365.6 733.2 367.1 732.9 367.0 C 731.7 367.0 731.5 366.0 731.1 365.7 C 730.1 365.5 728.1 367.7 727.3 366.3 C 726.2 364.2 723.5 365.3 723.6 365.7 C 723.6 365.9 720.5 365.4 719.2 365.6 C 719.5 365.8 719.7 365.9 719.9 366.0 C 719.8 366.0 719.5 366.3 719.3 366.2 C 719.9 366.3 722.2 367.0 722.9 367.5 C 723.1 367.6 720.1 368.8 719.4 367.3 C 719.0 366.6 718.8 366.0 718.0 366.4 C 716.9 366.8 717.6 365.8 716.4 365.5 C 714.5 365.0 715.8 367.2 713.7 365.9 C 712.2 365.1 712.7 365.8 712.0 366.1 C 710.7 366.5 709.4 364.9 708.0 365.1 C 707.9 365.1 705.0 365.2 706.3 366.0 C 707.3 366.5 708.8 366.7 709.8 367.4 C 711.7 369.0 706.4 367.1 706.9 367.2 C 705.9 367.0 705.4 368.9 704.5 368.5 C 703.8 368.1 704.8 366.5 704.8 366.3 C 705.1 365.4 701.3 365.7 701.4 365.7 C 700.7 365.6 700.6 366.4 700.0 366.1 C 698.9 365.6 698.7 365.4 697.9 365.5 C 697.4 365.6 696.9 365.5 696.3 365.5 C 695.5 365.5 696.6 367.0 696.4 367.4 C 696.1 368.2 694.8 366.7 693.9 366.4 C 692.1 365.8 690.8 367.6 689.1 366.3 C 688.5 365.9 688.2 365.9 688.1 366.1 C 688.5 367.3 689.9 369.9 688.9 369.8 C 688.4 369.8 688.0 370.8 688.3 371.4 C 687.5 370.0 687.5 372.8 687.5 373.2 C 687.3 373.8 688.1 374.9 688.4 375.7 C 688.7 376.8 687.8 376.6 687.4 376.9 C 686.6 377.8 689.3 379.0 688.4 379.4 C 686.9 380.2 690.7 382.0 690.9 382.7 C 691.0 383.0 688.5 382.2 688.2 382.3 C 687.7 382.4 689.1 383.4 688.6 383.4 C 688.1 383.5 687.1 383.6 688.1 385.1 C 688.5 385.7 690.1 386.2 689.9 386.7 C 689.8 386.7 689.1 387.2 689.4 387.5 C 692.2 389.6 686.8 387.7 687.9 386.7 C 687.4 387.1 687.0 391.5 688.2 392.3 C 688.8 392.6 689.0 390.7 689.6 391.4 C 690.9 392.8 688.9 395.1 688.4 393.7 C 688.8 394.7 686.9 395.5 687.7 397.2 C 687.8 397.4 687.5 398.2 687.8 398.4 C 688.2 398.7 689.2 399.0 689.6 399.4 C 690.2 400.4 691.0 402.4 692.2 402.6 C 692.5 402.6 697.1 403.0 696.8 402.8 C 697.2 403.2 697.1 404.2 697.8 404.5 C 698.8 405.0 697.6 401.5 699.1 402.6 C 699.0 402.6 699.3 401.8 699.7 401.9 C 700.9 402.4 700.5 402.6 700.7 401.7 C 700.8 400.9 700.4 401.4 699.8 400.6 C 699.4 400.2 701.6 400.7 700.4 398.8 C 700.1 399.7 699.6 398.9 698.7 399.0 C 697.5 399.2 697.4 397.4 697.3 396.9 C 696.9 394.7 697.7 394.4 698.7 393.6 C 699.3 393.1 702.7 397.6 700.6 394.5 C 699.6 393.1 700.5 390.6 699.9 389.1 C 700.0 389.2 699.2 389.5 699.1 389.3 C 696.7 387.7 698.8 385.4 699.3 385.3 C 700.1 385.2 699.3 384.6 698.4 384.3 C 697.3 384.0 697.2 382.8 697.2 382.2 C 697.2 381.8 697.5 381.1 697.2 380.5 C 696.7 379.6 699.9 381.3 700.2 381.2 C 700.8 380.9 699.4 379.4 700.0 379.0 C 700.0 378.9 700.3 378.8 700.7 378.6 C 701.7 379.0 702.7 379.4 702.3 379.0 C 701.7 378.4 700.5 377.9 699.6 377.5 C 698.4 377.1 697.6 376.7 698.5 376.4 C 698.6 376.4 698.8 376.3 699.0 376.3 C 699.2 376.3 702.8 375.9 703.1 376.7 C 703.3 377.1 702.5 376.9 702.4 377.0 C 703.0 376.4 706.7 379.9 707.7 379.0 C 708.2 378.5 713.0 379.4 710.1 377.6 C 707.4 375.9 708.5 375.1 710.5 376.1 C 712.2 377.0 712.8 377.2 713.1 376.4 C 713.2 376.3 715.3 375.7 715.7 376.6 C 716.0 377.2 714.8 376.9 715.5 377.8 C 715.9 378.4 716.8 378.9 717.0 378.6 C 717.2 378.4 716.7 377.6 716.7 377.1 C 716.7 377.0 718.2 377.6 718.3 377.6 C 719.1 377.8 719.9 377.5 720.8 378.0 C 721.5 378.3 721.1 378.9 721.6 379.2 C 724.3 380.6 719.7 376.5 719.8 376.7 C 719.7 376.6 721.1 375.4 721.3 375.4 C 722.7 375.1 723.8 376.0 725.3 377.7 C 725.6 378.0 723.6 378.4 723.6 378.4 C 726.3 380.6 726.8 378.8 728.3 379.1 C 728.8 379.2 732.1 380.3 730.4 378.4 C 729.5 377.2 730.8 377.7 731.1 377.7 C 731.0 377.7 728.5 375.9 728.0 375.6 C 729.0 375.5 730.0 375.2 731.2 375.2 C 731.8 375.2 732.6 375.1 733.3 375.4 C 733.7 375.6 734.7 377.2 735.2 376.6 C 734.9 376.9 734.4 377.1 734.0 377.3 C 734.6 377.5 737.0 379.9 737.2 378.7 C 737.3 378.4 736.5 377.8 737.0 377.6 C 737.6 377.5 738.2 377.5 738.6 377.2 C 739.0 376.9 737.6 374.3 740.0 375.5 C 739.9 375.4 741.5 377.4 741.5 377.3 C 742.0 378.2 742.3 378.7 743.2 378.7 C 742.6 378.7 741.5 375.5 742.7 375.3 C 743.8 375.0 746.4 375.2 747.0 377.4 C 748.0 377.9 749.1 379.3 749.8 377.9 C 750.3 377.1 751.8 376.7 752.9 377.7 C 753.2 378.0 752.1 378.3 752.0 378.5 C 751.9 378.9 753.1 379.5 753.3 379.5 M 751.0 378.9 C 750.5 378.3 752.1 378.5 751.8 379.3 C 751.5 379.3 751.2 379.2 751.0 378.9 M 751.6 377.8 C 751.7 377.5 751.9 377.9 751.8 378.0 C 751.7 378.1 751.4 378.0 751.6 377.8 C 751.6 377.8 751.6 377.8 751.6 377.8 Z M 739.5 377.0 C 740.0 376.9 740.1 377.1 739.9 377.5 C 739.6 377.8 738.9 377.1 739.5 377.0 C 739.5 377.0 739.5 377.0 739.5 377.0 Z M 722.9 364.3 C 723.6 364.2 723.7 364.5 723.5 364.8 C 723.2 365.1 722.3 364.5 722.9 364.3 C 722.9 364.3 722.9 364.3 722.9 364.3 Z M 731.3 376.7 C 731.2 376.5 731.5 376.6 731.7 376.8 C 731.8 377.0 731.4 376.9 731.3 376.7 C 731.3 376.7 731.3 376.7 731.3 376.7 Z M 743.4 376.2 C 743.3 376.0 743.7 376.0 743.7 376.2 C 743.8 376.5 743.5 376.4 743.4 376.2 C 743.4 376.2 743.4 376.2 743.4 376.2 Z M 733.1 378.6 C 732.6 378.3 732.8 377.1 734.3 378.9 C 734.7 379.4 733.2 379.0 733.1 378.9 C 732.9 378.7 733.4 378.7 733.1 378.6 M 723.4 379.3 C 723.1 379.2 722.9 379.0 722.8 378.6 C 722.7 378.6 724.0 379.1 723.4 379.3 M 686.5 364.5 C 686.4 364.8 686.2 364.6 685.8 364.1 C 685.8 364.1 685.8 364.0 685.9 363.9 C 686.1 363.8 686.3 363.8 686.5 364.5 C 686.5 364.5 686.5 364.5 686.5 364.5 M 701.5 381.2 C 701.7 381.8 701.0 381.6 700.8 381.3 C 700.5 380.7 701.0 380.4 701.5 381.2 M 711.9 377.4 C 711.8 377.5 710.2 377.5 710.2 377.1 C 710.2 376.7 711.9 377.3 711.9 377.4 M 700.4 388.1 C 700.6 388.0 700.8 387.7 701.0 387.6 C 701.1 387.5 701.8 390.4 700.9 389.8 C 700.3 389.3 700.3 388.2 700.4 388.1 M 701.5 392.7 C 701.7 393.0 701.4 393.6 701.0 393.3 C 700.3 392.7 701.1 392.0 701.5 392.7 M 704.5 378.8 C 704.2 378.7 704.0 378.3 704.4 378.4 C 704.9 378.5 704.9 378.9 704.5 378.8 C 704.5 378.8 704.5 378.8 704.5 378.8 Z M 713.8 378.2 C 713.9 378.1 715.4 378.5 715.4 378.9 C 715.3 379.9 711.7 378.8 713.8 378.2 M 738.8 378.8 C 738.9 378.8 738.2 379.4 737.6 378.4 C 736.8 377.0 738.8 378.8 738.8 378.8 M 743.0 377.8 C 742.7 377.7 742.7 377.3 743.0 377.4 C 743.4 377.6 743.3 377.8 743.0 377.8 C 743.0 377.8 743.0 377.8 743.0 377.8 Z M 700.5 382.2 C 700.3 382.3 700.1 381.4 700.4 381.6 C 700.6 381.8 700.8 382.1 700.5 382.2 C 700.5 382.2 700.5 382.2 700.5 382.2 Z M 700.9 386.8 C 700.6 387.0 700.5 386.1 700.7 386.3 C 701.0 386.5 701.1 386.7 700.9 386.8 C 700.9 386.8 700.9 386.8 700.9 386.8 Z M 687.0 384.4 C 686.7 384.6 686.6 383.6 686.8 383.7 C 687.1 383.9 687.2 384.1 687.0 384.4 C 687.0 384.4 687.0 384.4 687.0 384.4 Z M 737.1 372.0 C 737.3 371.8 737.6 371.8 737.9 372.2 C 737.9 372.5 737.8 372.7 737.6 372.8 C 737.9 372.7 739.8 373.0 739.2 373.7 C 738.7 374.4 737.3 373.2 736.7 373.6 C 736.5 373.7 736.6 374.6 736.7 374.7 C 736.6 374.7 735.8 374.4 734.9 373.1 C 733.9 371.7 736.9 372.3 737.1 372.0 M 713.6 374.0 C 713.4 373.9 711.8 373.7 711.7 373.5 C 710.5 371.3 715.8 373.6 716.6 375.6 C 717.7 377.9 712.9 373.7 713.6 374.0 M 698.4 391.0 C 698.4 389.9 697.4 391.6 696.8 391.1 C 695.8 390.2 697.6 389.4 697.9 389.5 C 700.0 389.8 699.9 392.8 698.7 392.2 C 698.4 391.7 698.3 391.3 698.4 391.0 M 699.4 397.7 C 698.9 397.9 698.6 395.3 698.8 395.1 C 699.1 394.9 700.0 395.7 700.2 396.1 C 701.2 397.6 700.0 397.5 699.4 397.7 M 721.7 377.0 C 720.3 376.2 723.1 375.7 723.7 376.9 C 724.0 377.5 722.2 377.3 721.7 377.0 M 695.2 369.2 C 696.3 369.8 693.5 369.7 693.4 369.8 C 693.3 369.9 695.8 371.2 695.5 371.2 C 695.0 371.1 693.9 371.0 692.9 370.9 C 692.6 372.3 692.3 373.4 691.5 369.6 C 691.5 369.5 691.4 369.5 691.4 369.4 C 692.0 369.1 691.4 367.7 692.1 367.5 C 693.6 367.0 693.5 368.1 695.2 369.2 M 749.3 376.2 C 748.5 376.0 749.4 377.3 749.0 377.5 C 748.5 377.8 747.4 376.2 747.6 375.7 C 748.7 373.7 752.0 376.9 749.3 376.2 M 736.9 375.8 C 737.6 376.0 737.5 376.5 737.1 376.4 C 736.6 376.3 736.2 375.7 736.9 375.8 C 736.9 375.8 736.9 375.8 736.9 375.8 Z M 732.4 376.5 C 732.2 376.6 731.3 375.9 731.2 375.5 C 731.1 374.9 733.4 376.3 732.4 376.5 M 748.5 379.9 C 748.2 379.9 747.5 379.3 747.5 378.9 C 747.5 378.3 749.4 379.7 748.5 379.9 M 699.4 373.5 C 699.2 373.6 698.0 373.0 697.7 372.5 C 697.4 371.9 700.4 373.4 699.4 373.5 M 711.9 376.3 C 711.2 376.4 708.5 374.2 709.5 374.4 C 710.2 374.6 713.3 376.1 711.9 376.3 M 718.2 368.3 C 718.0 368.3 717.8 368.2 717.6 368.2 C 715.3 366.4 721.4 368.2 718.2 368.3 M 705.6 377.9 C 704.2 378.0 702.4 374.9 703.3 375.0 C 705.4 375.2 706.9 377.8 705.6 377.9 M 714.5 376.7 C 715.1 377.0 714.7 377.4 713.8 376.7 C 713.5 376.5 714.0 376.4 714.5 376.7 C 714.5 376.7 714.5 376.7 714.5 376.7 Z M 693.4 368.7 C 693.0 368.4 693.1 368.2 693.5 368.5 C 693.9 368.8 693.8 369.0 693.4 368.7 C 693.4 368.7 693.4 368.7 693.4 368.7 Z M 692.0 368.9 C 691.7 368.8 691.7 368.4 692.2 368.6 C 693.0 369.0 692.4 369.0 692.0 368.9 C 692.0 368.9 692.0 368.9 692.0 368.9 Z M 702.1 378.3 C 701.7 378.2 701.7 377.8 702.2 378.0 C 702.9 378.4 702.4 378.4 702.1 378.3 C 702.1 378.3 702.1 378.3 702.1 378.3 Z M 739.3 366.9 C 737.8 367.1 737.7 366.4 739.0 366.6 C 739.8 366.6 740.8 366.7 739.3 366.9 C 739.3 366.9 739.3 366.9 739.3 366.9 Z M 729.3 378.5 C 727.6 379.0 725.4 375.4 728.1 376.3 C 728.1 376.3 731.1 378.1 729.3 378.5 C 729.3 378.5 729.3 378.5 729.3 378.5 Z M 719.8 373.4 C 719.8 373.6 719.2 372.9 719.4 372.7 C 719.6 372.6 719.9 373.2 719.8 373.4 C 719.8 373.4 719.8 373.4 719.8 373.4 Z M 709.9 380.3 C 709.9 380.5 709.1 379.8 709.2 379.6 C 709.4 379.5 709.8 380.1 709.9 380.3 C 709.9 380.3 709.9 380.3 709.9 380.3 Z M 737.2 366.4 C 737.1 366.6 736.6 365.9 736.9 365.7 C 737.2 365.6 737.4 366.2 737.2 366.4 C 737.2 366.4 737.2 366.4 737.2 366.4 Z M 698.2 383.8 C 698.5 384.2 697.7 383.7 697.5 383.2 C 697.4 382.8 698.0 383.4 698.2 383.8 C 698.2 383.8 698.2 383.8 698.2 383.8 Z M 702.9 368.1 C 703.8 368.8 701.7 368.6 702.3 368.2 C 702.8 367.9 702.0 367.4 702.9 368.1 C 702.9 368.1 702.9 368.1 702.9 368.1 Z M 697.3 368.1 C 697.8 368.5 697.1 368.6 696.9 368.2 C 696.8 367.9 696.8 367.7 697.3 368.1 C 697.3 368.1 697.3 368.1 697.3 368.1 Z M 701.8 394.0 C 702.2 394.2 702.3 394.9 701.9 394.4 C 701.6 394.1 701.4 393.8 701.8 394.0 C 701.8 394.0 701.8 394.0 701.8 394.0 Z M 686.4 371.9 C 686.8 372.1 686.9 373.0 686.5 372.4 C 686.2 372.0 686.0 371.6 686.4 371.9 C 686.4 371.9 686.4 371.9 686.4 371.9 Z M 691.0 380.6 C 690.8 381.0 690.3 380.2 690.8 380.2 C 691.2 380.2 691.3 380.2 691.0 380.6 C 691.0 380.6 691.0 380.6 691.0 380.6 Z M 702.0 377.4 C 702.3 377.8 699.0 377.5 700.0 377.0 C 700.5 376.7 701.3 376.5 702.0 377.4 C 702.0 377.4 702.0 377.4 702.0 377.4 Z M 692.3 395.1 C 692.6 395.6 691.9 395.5 691.5 395.1 C 691.5 395.1 692.0 394.6 692.3 395.1 C 692.3 395.1 692.3 395.1 692.3 395.1 Z M 697.7 400.7 C 698.0 401.2 697.3 401.1 696.9 400.7 C 696.9 400.7 697.4 400.2 697.7 400.7 C 697.7 400.7 697.7 400.7 697.7 400.7 Z M 700.5 403.4 C 700.9 403.8 700.2 403.8 699.8 403.4 C 699.8 403.4 700.2 402.9 700.5 403.4 C 700.5 403.4 700.5 403.4 700.5 403.4 Z M 729.5 370.7 C 730.0 370.3 730.2 371.3 730.2 371.3 C 729.1 371.2 729.1 371.2 729.5 370.7 C 729.5 370.7 729.5 370.7 729.5 370.7 Z M 735.9 379.5 C 736.1 379.3 736.2 379.7 736.2 379.7 C 735.8 379.6 735.8 379.6 735.9 379.5 C 735.9 379.5 735.9 379.5 735.9 379.5 Z M 729.7 379.9 C 729.9 379.7 730.0 380.1 730.0 380.1 C 729.6 380.1 729.6 380.1 729.7 379.9 C 729.7 379.9 729.7 379.9 729.7 379.9 Z M 728.2 365.4 C 728.5 365.2 728.6 365.7 728.6 365.7 C 727.9 365.7 727.9 365.7 728.2 365.4 C 728.2 365.4 728.2 365.4 728.2 365.4 Z M 705.4 372.9 C 705.7 372.5 706.2 373.4 706.2 373.4 C 705.2 373.3 705.2 373.3 705.4 372.9 C 705.4 372.9 705.4 372.9 705.4 372.9 Z M 699.8 369.3 C 700.1 368.9 700.6 369.8 700.6 369.8 C 699.6 369.7 699.6 369.7 699.8 369.3 C 699.8 369.3 699.8 369.3 699.8 369.3 Z M 702.4 364.6 C 702.5 364.4 702.7 364.8 702.7 364.8 C 702.2 364.8 702.2 364.8 702.4 364.6 C 702.4 364.6 702.4 364.6 702.4 364.6 Z M 695.0 366.3 C 695.1 366.1 695.4 366.5 695.4 366.5 C 694.8 366.4 694.8 366.4 695.0 366.3 C 695.0 366.3 695.0 366.3 695.0 366.3 Z M 748.1 367.0 C 747.6 367.1 747.5 366.7 748.1 366.8 C 748.4 366.8 748.6 367.0 748.1 367.0 C 748.1 367.0 748.1 367.0 748.1 367.0 Z M 750.4 373.8 C 749.7 373.9 749.4 372.9 750.6 373.1 C 751.2 373.2 751.2 373.7 750.4 373.8 C 750.4 373.8 750.4 373.8 750.4 373.8 Z M 708.9 377.7 C 709.2 377.9 708.6 378.1 708.5 378.1 C 708.1 378.0 707.3 377.2 707.1 377.2 C 707.7 377.4 708.4 377.6 708.9 377.7 M 717.7 376.9 C 717.2 376.7 717.3 376.4 717.6 376.6 C 717.9 376.7 718.1 377.0 717.7 376.9 C 717.7 376.9 717.7 376.9 717.7 376.9 Z M 699.5 384.1 C 698.5 383.9 698.4 381.8 699.2 382.2 C 699.4 382.3 700.5 384.4 699.5 384.1 C 699.5 384.1 699.5 384.1 699.5 384.1 Z M 688.3 368.4 C 688.5 368.7 688.3 369.0 688.2 368.5 C 688.0 368.0 688.1 368.1 688.3 368.4 C 688.3 368.4 688.3 368.4 688.3 368.4 Z M 689.4 372.4 C 689.8 373.2 688.5 372.6 688.7 372.2 C 688.9 371.7 689.1 371.5 689.4 372.4 C 689.4 372.4 689.4 372.4 689.4 372.4 Z M 696.7 393.1 C 696.6 393.4 696.4 393.5 695.9 393.4 C 695.1 393.1 696.8 391.9 696.7 393.1 M 720.6 379.3 C 720.3 379.3 719.9 379.2 719.4 378.8 C 718.0 377.6 722.0 379.4 720.6 379.3 M 699.4 387.1 C 699.2 387.4 698.9 386.5 699.2 386.5 C 699.5 386.6 699.6 386.8 699.4 387.1 C 699.4 387.1 699.4 387.1 699.4 387.1 Z M 698.2 397.1 C 698.0 397.4 697.6 396.6 697.9 396.5 C 698.3 396.5 698.3 396.7 698.2 397.1 C 698.2 397.1 698.2 397.1 698.2 397.1 Z M 726.0 377.5 C 725.1 377.7 724.6 375.6 724.9 375.4 C 725.5 374.8 725.9 376.6 726.0 376.7 C 726.1 376.8 725.5 375.9 725.4 376.1 C 725.3 376.7 726.3 377.4 726.0 377.5 M 744.5 376.4 C 743.6 376.3 743.5 375.4 744.2 375.7 C 744.8 376.1 745.3 376.6 744.5 376.4 C 744.5 376.4 744.5 376.4 744.5 376.4 Z M 744.5 376.4 " fill="#C82505"></path></g></g></g></svg>