<?xml version="1.0" encoding="UTF-8" standalone="no"?><svg xmlns="http://www.w3.org/2000/svg" xmlns:xlink="http://www.w3.org/1999/xlink" clip-rule="evenodd" stroke-miterlimit="10" viewBox="0 0 1920 1080"><desc>SVG generated by Keynote</desc><defs></defs><g transform="matrix(1.00, 0.00, -0.00, -1.00, 0.0, 1080.0)"><path d="M 0.0 1080.0 L 1920.0 1080.0 L 1920.0 0.0 L 0.0 0.0 Z M 0.0 1080.0 " fill="#FEFFFF"></path><g><clipPath id="clip0x7fdfb156b530"><path d="M 979.7 569.6 L 1206.5 569.6 L 1206.5 796.4 L 979.7 796.4 Z M 979.7 569.6 "></path></clipPath><g clip-path="url(#clip0x7fdfb156b530)"><image xlink:href="C69BDFBE89365B81F813AD49589C65A8.png" width="300.00" height="300.00" transform="matrix(0.76, 0.00, -0.00, -0.76, 979.7, 796.4)"></image></g></g><g><clipPath id="clip0x7fdfd0479440"><path d="M 1262.9 569.6 L 1489.7 569.6 L 1489.7 796.4 L 1262.9 796.4 Z M 1262.9 569.6 "></path></clipPath><g clip-path="url(#clip0x7fdfd0479440)"><image xlink:href="94936052348FABDA572CF3548F33D588.jpeg" width="225.00" height="225.00" transform="matrix(1.01, 0.00, -0.00, -1.01, 1262.9, 796.4)"></image></g></g><g><clipPath id="clip0x7fdfd05cf5b0"><path d="M 164.0 569.6 L 390.8 569.6 L 390.8 796.4 L 164.0 796.4 Z M 164.0 569.6 "></path></clipPath><g clip-path="url(#clip0x7fdfd05cf5b0)"><image xlink:href="2C9F76BB027809D38EDF195FC6D9C3C3.jpeg" width="225.00" height="225.00" transform="matrix(1.01, 0.00, -0.00, -1.01, 164.0, 796.4)"></image></g></g><g><clipPath id="clip0x7fdfb156c610"><path d="M 696.5 569.6 L 923.3 569.6 L 923.3 796.4 L 696.5 796.4 Z M 696.5 569.6 "></path></clipPath><g clip-path="url(#clip0x7fdfb156c610)"><image xlink:href="8667BFBBB72AD231E6A9A640762C4FF7.jpeg" width="275.00" height="275.00" transform="matrix(0.82, 0.00, -0.00, -0.82, 696.5, 796.4)"></image></g></g><g><clipPath id="clip0x7fdfb156dc20"><path d="M 430.3 569.6 L 657.1 569.6 L 657.1 796.4 L 430.3 796.4 Z M 430.3 569.6 "></path></clipPath><g clip-path="url(#clip0x7fdfb156dc20)"><image xlink:href="9A17D61EBB81678A9DC9F738289AE96D.png" width="325.00" height="325.00" transform="matrix(0.70, 0.00, -0.00, -0.70, 430.3, 796.4)"></image></g></g><g><clipPath id="clip0x7fdfb156ef00"><path d="M 1529.2 569.6 L 1756.0 569.6 L 1756.0 796.4 L 1529.2 796.4 Z M 1529.2 569.6 "></path></clipPath><g clip-path="url(#clip0x7fdfb156ef00)"><image xlink:href="F6F83183C5583851D683C7CC450E3556.jpeg" width="140.00" height="140.00" transform="matrix(1.62, 0.00, -0.00, -1.62, 1529.2, 796.4)"></image></g></g><text xml:space="preserve" font-family="Helvetica-Light,Helvetica" font-size="100.8" fill="#000000" transform="matrix(1.00, 0.00, -0.00, -1.00, 54.0, 205.2)">L</text><text xml:space="preserve" font-family="Helvetica-Light,Helvetica" font-size="100.8" fill="#000000" transform="matrix(1.00, 0.00, -0.00, -1.00, 110.0, 205.2)">o</text><text xml:space="preserve" font-family="Helvetica-Light,Helvetica" font-size="100.8" fill="#000000" transform="matrix(1.00, 0.00, -0.00, -1.00, 166.1, 205.2)">c</text><text xml:space="preserve" font-family="Helvetica-Light,Helvetica" font-size="100.8" fill="#000000" transform="matrix(1.00, 0.00, -0.00, -1.00, 222.1, 205.2)">a</text><text xml:space="preserve" font-family="Helvetica-Light,Helvetica" font-size="100.8" fill="#000000" transform="matrix(1.00, 0.00, -0.00, -1.00, 278.2, 205.2)">t</text><text xml:space="preserve" font-family="Helvetica-Light,Helvetica" font-size="100.8" fill="#000000" transform="matrix(1.00, 0.00, -0.00, -1.00, 306.2, 205.2)">i</text><text xml:space="preserve" font-family="Helvetica-Light,Helvetica" font-size="100.8" fill="#000000" transform="matrix(1.00, 0.00, -0.00, -1.00, 328.6, 205.2)">o</text><text xml:space="preserve" font-family="Helvetica-Light,Helvetica" font-size="100.8" fill="#000000" transform="matrix(1.00, 0.00, -0.00, -1.00, 384.6, 205.2)">n</text><text xml:space="preserve" font-family="Helvetica-Light,Helvetica" font-size="100.8" fill="#000000" transform="matrix(1.00, 0.00, -0.00, -1.00, 440.7, 205.2)"> </text><text xml:space="preserve" font-family="Helvetica-Light,Helvetica" font-size="100.8" fill="#000000" transform="matrix(1.00, 0.00, -0.00, -1.00, 465.1, 205.2)">b</text><text xml:space="preserve" font-family="Helvetica-Light,Helvetica" font-size="100.8" fill="#000000" transform="matrix(1.00, 0.00, -0.00, -1.00, 526.7, 205.2)">a</text><text xml:space="preserve" font-family="Helvetica-Light,Helvetica" font-size="100.8" fill="#000000" transform="matrix(1.00, 0.00, -0.00, -1.00, 582.8, 205.2)">s</text><text xml:space="preserve" font-family="Helvetica-Light,Helvetica" font-size="100.8" fill="#000000" transform="matrix(1.00, 0.00, -0.00, -1.00, 633.2, 205.2)">e</text><text xml:space="preserve" font-family="Helvetica-Light,Helvetica" font-size="100.8" fill="#000000" transform="matrix(1.00, 0.00, -0.00, -1.00, 689.2, 205.2)">d</text><text xml:space="preserve" font-family="Helvetica-Light,Helvetica" font-size="100.8" fill="#000000" transform="matrix(1.00, 0.00, -0.00, -1.00, 750.8, 205.2)"> </text><text xml:space="preserve" font-family="Helvetica-Light,Helvetica" font-size="100.8" fill="#000000" transform="matrix(1.00, 0.00, -0.00, -1.00, 775.3, 205.2)">s</text><text xml:space="preserve" font-family="Helvetica-Light,Helvetica" font-size="100.8" fill="#000000" transform="matrix(1.00, 0.00, -0.00, -1.00, 825.7, 205.2)">o</text><text xml:space="preserve" font-family="Helvetica-Light,Helvetica" font-size="100.8" fill="#000000" transform="matrix(1.00, 0.00, -0.00, -1.00, 881.7, 205.2)">c</text><text xml:space="preserve" font-family="Helvetica-Light,Helvetica" font-size="100.8" fill="#000000" transform="matrix(1.00, 0.00, -0.00, -1.00, 937.8, 205.2)">i</text><text xml:space="preserve" font-family="Helvetica-Light,Helvetica" font-size="100.8" fill="#000000" transform="matrix(1.00, 0.00, -0.00, -1.00, 960.2, 205.2)">a</text><text xml:space="preserve" font-family="Helvetica-Light,Helvetica" font-size="100.8" fill="#000000" transform="matrix(1.00, 0.00, -0.00, -1.00, 1016.2, 205.2)">l</text><text xml:space="preserve" font-family="Helvetica-Light,Helvetica" font-size="100.8" fill="#000000" transform="matrix(1.00, 0.00, -0.00, -1.00, 1038.6, 205.2)"> </text><text xml:space="preserve" font-family="Helvetica-Light,Helvetica" font-size="100.8" fill="#000000" transform="matrix(1.00, 0.00, -0.00, -1.00, 1063.0, 205.2)">n</text><text xml:space="preserve" font-family="Helvetica-Light,Helvetica" font-size="100.8" fill="#000000" transform="matrix(1.00, 0.00, -0.00, -1.00, 1119.1, 205.2)">e</text><text xml:space="preserve" font-family="Helvetica-Light,Helvetica" font-size="100.8" fill="#000000" transform="matrix(1.00, 0.00, -0.00, -1.00, 1175.1, 205.2)">t</text><text xml:space="preserve" font-family="Helvetica-Light,Helvetica" font-size="100.8" fill="#000000" transform="matrix(1.00, 0.00, -0.00, -1.00, 1203.2, 205.2)">w</text><text xml:space="preserve" font-family="Helvetica-Light,Helvetica" font-size="100.8" fill="#000000" transform="matrix(1.00, 0.00, -0.00, -1.00, 1275.9, 205.2)">o</text><text xml:space="preserve" font-family="Helvetica-Light,Helvetica" font-size="100.8" fill="#000000" transform="matrix(1.00, 0.00, -0.00, -1.00, 1332.0, 205.2)">r</text><text xml:space="preserve" font-family="Helvetica-Light,Helvetica" font-size="100.8" fill="#000000" transform="matrix(1.00, 0.00, -0.00, -1.00, 1365.5, 205.2)">k</text><text xml:space="preserve" font-family="Helvetica-Light,Helvetica" font-size="100.8" fill="#000000" transform="matrix(1.00, 0.00, -0.00, -1.00, 1415.9, 205.2)">s</text><text xml:space="preserve" font-family="Helvetica-Light,Helvetica" font-size="100.8" fill="#000000" transform="matrix(1.00, 0.00, -0.00, -1.00, 1466.3, 205.2)"> </text><text xml:space="preserve" font-family="Helvetica-Light,Helvetica" font-size="100.8" fill="#000000" transform="matrix(1.00, 0.00, -0.00, -1.00, 1490.8, 205.2)">(</text><text xml:space="preserve" font-family="Helvetica-Light,Helvetica" font-size="100.8" fill="#000000" transform="matrix(1.00, 0.00, -0.00, -1.00, 1524.4, 205.2)">L</text><text xml:space="preserve" font-family="Helvetica-Light,Helvetica" font-size="100.8" fill="#000000" transform="matrix(1.00, 0.00, -0.00, -1.00, 1580.4, 205.2)">B</text><text xml:space="preserve" font-family="Helvetica-Light,Helvetica" font-size="100.8" fill="#000000" transform="matrix(1.00, 0.00, -0.00, -1.00, 1647.7, 205.2)">S</text><text xml:space="preserve" font-family="Helvetica-Light,Helvetica" font-size="100.8" fill="#000000" transform="matrix(1.00, 0.00, -0.00, -1.00, 1709.3, 205.2)">N</text><text xml:space="preserve" font-family="Helvetica-Light,Helvetica" font-size="100.8" fill="#000000" transform="matrix(1.00, 0.00, -0.00, -1.00, 1782.0, 205.2)">s</text><text xml:space="preserve" font-family="Helvetica-Light,Helvetica" font-size="100.8" fill="#000000" transform="matrix(1.00, 0.00, -0.00, -1.00, 1832.4, 205.2)">)</text></g></svg>