<?xml version="1.0" encoding="UTF-8" standalone="no"?><svg xmlns="http://www.w3.org/2000/svg" xmlns:xlink="http://www.w3.org/1999/xlink" clip-rule="evenodd" stroke-miterlimit="10" viewBox="0 0 1637 93"><desc>SVG generated by Keynote</desc><defs></defs><g transform="matrix(1.00, 0.00, -0.00, -1.00, 0.0, 93.0)"><text xml:space="preserve" font-family="Helvetica-Light,Helvetica" font-size="95.2" fill="#000000" transform="matrix(1.00, 0.00, -0.00, -1.00, -4.0, 20.9)">G</text><text xml:space="preserve" font-family="Helvetica-Light,Helvetica" font-size="95.2" fill="#000000" transform="matrix(1.00, 0.00, -0.00, -1.00, 69.4, 20.9)">e</text><text xml:space="preserve" font-family="Helvetica-Light,Helvetica" font-size="95.2" fill="#000000" transform="matrix(1.00, 0.00, -0.00, -1.00, 121.6, 20.9)">n</text><text xml:space="preserve" font-family="Helvetica-Light,Helvetica" font-size="95.2" fill="#000000" transform="matrix(1.00, 0.00, -0.00, -1.00, 173.9, 20.9)">e</text><text xml:space="preserve" font-family="Helvetica-Light,Helvetica" font-size="95.2" fill="#000000" transform="matrix(1.00, 0.00, -0.00, -1.00, 226.1, 20.9)">r</text><text xml:space="preserve" font-family="Helvetica-Light,Helvetica" font-size="95.2" fill="#000000" transform="matrix(1.00, 0.00, -0.00, -1.00, 257.1, 20.9)">a</text><text xml:space="preserve" font-family="Helvetica-Light,Helvetica" font-size="95.2" fill="#000000" transform="matrix(1.00, 0.00, -0.00, -1.00, 309.4, 20.9)">t</text><text xml:space="preserve" font-family="Helvetica-Light,Helvetica" font-size="95.2" fill="#000000" transform="matrix(1.00, 0.00, -0.00, -1.00, 335.2, 20.9)">i</text><text xml:space="preserve" font-family="Helvetica-Light,Helvetica" font-size="95.2" fill="#000000" transform="matrix(1.00, 0.00, -0.00, -1.00, 355.6, 20.9)">o</text><text xml:space="preserve" font-family="Helvetica-Light,Helvetica" font-size="95.2" fill="#000000" transform="matrix(1.00, 0.00, -0.00, -1.00, 407.9, 20.9)">n</text><text xml:space="preserve" font-family="Helvetica-Light,Helvetica" font-size="95.2" fill="#000000" transform="matrix(1.00, 0.00, -0.00, -1.00, 460.8, 20.9)"> </text><text xml:space="preserve" font-family="Helvetica-Light,Helvetica" font-size="95.2" fill="#000000" transform="matrix(1.00, 0.00, -0.00, -1.00, 482.8, 20.9)">o</text><text xml:space="preserve" font-family="Helvetica-Light,Helvetica" font-size="95.2" fill="#000000" transform="matrix(1.00, 0.00, -0.00, -1.00, 535.1, 20.9)">f</text><text xml:space="preserve" font-family="Helvetica-Light,Helvetica" font-size="95.2" fill="#000000" transform="matrix(1.00, 0.00, -0.00, -1.00, 561.5, 20.9)"> </text><text xml:space="preserve" font-family="Helvetica-Light,Helvetica" font-size="95.2" fill="#000000" transform="matrix(1.00, 0.00, -0.00, -1.00, 583.6, 20.9)">t</text><text xml:space="preserve" font-family="Helvetica-Light,Helvetica" font-size="95.2" fill="#000000" transform="matrix(1.00, 0.00, -0.00, -1.00, 609.3, 20.9)">e</text><text xml:space="preserve" font-family="Helvetica-Light,Helvetica" font-size="95.2" fill="#000000" transform="matrix(1.00, 0.00, -0.00, -1.00, 661.6, 20.9)">s</text><text xml:space="preserve" font-family="Helvetica-Light,Helvetica" font-size="95.2" fill="#000000" transform="matrix(1.00, 0.00, -0.00, -1.00, 708.5, 20.9)">t</text><text xml:space="preserve" font-family="Helvetica-Light,Helvetica" font-size="95.2" fill="#000000" transform="matrix(1.00, 0.00, -0.00, -1.00, 735.0, 20.9)"> </text><text xml:space="preserve" font-family="Helvetica-Light,Helvetica" font-size="95.2" fill="#000000" transform="matrix(1.00, 0.00, -0.00, -1.00, 757.0, 20.9)">p</text><text xml:space="preserve" font-family="Helvetica-Light,Helvetica" font-size="95.2" fill="#000000" transform="matrix(1.00, 0.00, -0.00, -1.00, 814.5, 20.9)">o</text><text xml:space="preserve" font-family="Helvetica-Light,Helvetica" font-size="95.2" fill="#000000" transform="matrix(1.00, 0.00, -0.00, -1.00, 866.7, 20.9)">i</text><text xml:space="preserve" font-family="Helvetica-Light,Helvetica" font-size="95.2" fill="#000000" transform="matrix(1.00, 0.00, -0.00, -1.00, 887.2, 20.9)">n</text><text xml:space="preserve" font-family="Helvetica-Light,Helvetica" font-size="95.2" fill="#000000" transform="matrix(1.00, 0.00, -0.00, -1.00, 939.4, 20.9)">t</text><text xml:space="preserve" font-family="Helvetica-Light,Helvetica" font-size="95.2" fill="#000000" transform="matrix(1.00, 0.00, -0.00, -1.00, 965.2, 20.9)">s</text><text xml:space="preserve" font-family="Helvetica-Light,Helvetica" font-size="95.2" fill="#000000" transform="matrix(1.00, 0.00, -0.00, -1.00, 1012.1, 20.9)">:</text><text xml:space="preserve" font-family="Helvetica-Light,Helvetica" font-size="95.2" fill="#000000" transform="matrix(1.00, 0.00, -0.00, -1.00, 1038.6, 20.9)"> </text><text xml:space="preserve" font-family="Helvetica-Light,Helvetica" font-size="95.2" fill="#000000" transform="matrix(1.00, 0.00, -0.00, -1.00, 1060.6, 20.9)">M</text><text xml:space="preserve" font-family="Helvetica-Light,Helvetica" font-size="95.2" fill="#000000" transform="matrix(1.00, 0.00, -0.00, -1.00, 1139.2, 20.9)">o</text><text xml:space="preserve" font-family="Helvetica-Light,Helvetica" font-size="95.2" fill="#000000" transform="matrix(1.00, 0.00, -0.00, -1.00, 1191.5, 20.9)">c</text><text xml:space="preserve" font-family="Helvetica-Light,Helvetica" font-size="95.2" fill="#000000" transform="matrix(1.00, 0.00, -0.00, -1.00, 1243.7, 20.9)">k</text><text xml:space="preserve" font-family="Helvetica-Light,Helvetica" font-size="95.2" fill="#000000" transform="matrix(1.00, 0.00, -0.00, -1.00, 1291.3, 20.9)"> </text><text xml:space="preserve" font-family="Helvetica-Light,Helvetica" font-size="95.2" fill="#000000" transform="matrix(1.00, 0.00, -0.00, -1.00, 1313.3, 20.9)">l</text><text xml:space="preserve" font-family="Helvetica-Light,Helvetica" font-size="95.2" fill="#000000" transform="matrix(1.00, 0.00, -0.00, -1.00, 1333.8, 20.9)">o</text><text xml:space="preserve" font-family="Helvetica-Light,Helvetica" font-size="95.2" fill="#000000" transform="matrix(1.00, 0.00, -0.00, -1.00, 1386.0, 20.9)">c</text><text xml:space="preserve" font-family="Helvetica-Light,Helvetica" font-size="95.2" fill="#000000" transform="matrix(1.00, 0.00, -0.00, -1.00, 1438.3, 20.9)">a</text><text xml:space="preserve" font-family="Helvetica-Light,Helvetica" font-size="95.2" fill="#000000" transform="matrix(1.00, 0.00, -0.00, -1.00, 1490.5, 20.9)">t</text><text xml:space="preserve" font-family="Helvetica-Light,Helvetica" font-size="95.2" fill="#000000" transform="matrix(1.00, 0.00, -0.00, -1.00, 1516.3, 20.9)">i</text><text xml:space="preserve" font-family="Helvetica-Light,Helvetica" font-size="95.2" fill="#000000" transform="matrix(1.00, 0.00, -0.00, -1.00, 1536.8, 20.9)">o</text><text xml:space="preserve" font-family="Helvetica-Light,Helvetica" font-size="95.2" fill="#000000" transform="matrix(1.00, 0.00, -0.00, -1.00, 1589.0, 20.9)">n</text></g></svg>