<?xml version="1.0" encoding="UTF-8" standalone="no"?><svg xmlns="http://www.w3.org/2000/svg" xmlns:xlink="http://www.w3.org/1999/xlink" clip-rule="evenodd" stroke-miterlimit="10" viewBox="0 0 1920 1080"><desc>SVG generated by Keynote</desc><defs></defs><g transform="matrix(1.00, 0.00, -0.00, -1.00, 0.0, 1080.0)"><path d="M 0.0 1080.0 L 1920.0 1080.0 L 1920.0 0.0 L 0.0 0.0 Z M 0.0 1080.0 " fill="#FEFFFF"></path><text xml:space="preserve" font-family="Helvetica-Light,Helvetica" font-size="71.7" fill="#000000" transform="matrix(1.00, 0.00, -0.00, -1.00, 137.0, 888.5)">G</text><text xml:space="preserve" font-family="Helvetica-Light,Helvetica" font-size="71.7" fill="#000000" transform="matrix(1.00, 0.00, -0.00, -1.00, 192.4, 888.5)">e</text><text xml:space="preserve" font-family="Helvetica-Light,Helvetica" font-size="71.7" fill="#000000" transform="matrix(1.00, 0.00, -0.00, -1.00, 232.0, 888.5)">n</text><text xml:space="preserve" font-family="Helvetica-Light,Helvetica" font-size="71.7" fill="#000000" transform="matrix(1.00, 0.00, -0.00, -1.00, 271.5, 888.5)">e</text><text xml:space="preserve" font-family="Helvetica-Light,Helvetica" font-size="71.7" fill="#000000" transform="matrix(1.00, 0.00, -0.00, -1.00, 311.0, 888.5)">r</text><text xml:space="preserve" font-family="Helvetica-Light,Helvetica" font-size="71.7" fill="#000000" transform="matrix(1.00, 0.00, -0.00, -1.00, 334.6, 888.5)">a</text><text xml:space="preserve" font-family="Helvetica-Light,Helvetica" font-size="71.7" fill="#000000" transform="matrix(1.00, 0.00, -0.00, -1.00, 374.1, 888.5)">t</text><text xml:space="preserve" font-family="Helvetica-Light,Helvetica" font-size="71.7" fill="#000000" transform="matrix(1.00, 0.00, -0.00, -1.00, 393.7, 888.5)">i</text><text xml:space="preserve" font-family="Helvetica-Light,Helvetica" font-size="71.7" fill="#000000" transform="matrix(1.00, 0.00, -0.00, -1.00, 409.3, 888.5)">o</text><text xml:space="preserve" font-family="Helvetica-Light,Helvetica" font-size="71.7" fill="#000000" transform="matrix(1.00, 0.00, -0.00, -1.00, 448.8, 888.5)">n</text><text xml:space="preserve" font-family="Helvetica-Light,Helvetica" font-size="71.7" fill="#000000" transform="matrix(1.00, 0.00, -0.00, -1.00, 488.7, 888.5)"> </text><text xml:space="preserve" font-family="Helvetica-Light,Helvetica" font-size="71.7" fill="#000000" transform="matrix(1.00, 0.00, -0.00, -1.00, 505.4, 888.5)">o</text><text xml:space="preserve" font-family="Helvetica-Light,Helvetica" font-size="71.7" fill="#000000" transform="matrix(1.00, 0.00, -0.00, -1.00, 544.9, 888.5)">f</text><text xml:space="preserve" font-family="Helvetica-Light,Helvetica" font-size="71.7" fill="#000000" transform="matrix(1.00, 0.00, -0.00, -1.00, 564.8, 888.5)"> </text><text xml:space="preserve" font-family="Helvetica-Light,Helvetica" font-size="71.7" fill="#000000" transform="matrix(1.00, 0.00, -0.00, -1.00, 581.5, 888.5)">t</text><text xml:space="preserve" font-family="Helvetica-Light,Helvetica" font-size="71.7" fill="#000000" transform="matrix(1.00, 0.00, -0.00, -1.00, 601.1, 888.5)">e</text><text xml:space="preserve" font-family="Helvetica-Light,Helvetica" font-size="71.7" fill="#000000" transform="matrix(1.00, 0.00, -0.00, -1.00, 640.7, 888.5)">s</text><text xml:space="preserve" font-family="Helvetica-Light,Helvetica" font-size="71.7" fill="#000000" transform="matrix(1.00, 0.00, -0.00, -1.00, 676.2, 888.5)">t</text><text xml:space="preserve" font-family="Helvetica-Light,Helvetica" font-size="71.7" fill="#000000" transform="matrix(1.00, 0.00, -0.00, -1.00, 696.1, 888.5)"> </text><text xml:space="preserve" font-family="Helvetica-Light,Helvetica" font-size="71.7" fill="#000000" transform="matrix(1.00, 0.00, -0.00, -1.00, 712.8, 888.5)">p</text><text xml:space="preserve" font-family="Helvetica-Light,Helvetica" font-size="71.7" fill="#000000" transform="matrix(1.00, 0.00, -0.00, -1.00, 756.3, 888.5)">o</text><text xml:space="preserve" font-family="Helvetica-Light,Helvetica" font-size="71.7" fill="#000000" transform="matrix(1.00, 0.00, -0.00, -1.00, 795.8, 888.5)">i</text><text xml:space="preserve" font-family="Helvetica-Light,Helvetica" font-size="71.7" fill="#000000" transform="matrix(1.00, 0.00, -0.00, -1.00, 811.4, 888.5)">n</text><text xml:space="preserve" font-family="Helvetica-Light,Helvetica" font-size="71.7" fill="#000000" transform="matrix(1.00, 0.00, -0.00, -1.00, 850.9, 888.5)">t</text><text xml:space="preserve" font-family="Helvetica-Light,Helvetica" font-size="71.7" fill="#000000" transform="matrix(1.00, 0.00, -0.00, -1.00, 870.5, 888.5)">s</text><text xml:space="preserve" font-family="Helvetica-Light,Helvetica" font-size="71.7" fill="#000000" transform="matrix(1.00, 0.00, -0.00, -1.00, 906.0, 888.5)">:</text><text xml:space="preserve" font-family="Helvetica-Light,Helvetica" font-size="71.7" fill="#000000" transform="matrix(1.00, 0.00, -0.00, -1.00, 926.0, 888.5)"> </text><text xml:space="preserve" font-family="Helvetica-Light,Helvetica" font-size="71.7" fill="#000000" transform="matrix(1.00, 0.00, -0.00, -1.00, 942.7, 888.5)">I</text><text xml:space="preserve" font-family="Helvetica-Light,Helvetica" font-size="71.7" fill="#000000" transform="matrix(1.00, 0.00, -0.00, -1.00, 962.3, 888.5)">n</text><text xml:space="preserve" font-family="Helvetica-Light,Helvetica" font-size="71.7" fill="#000000" transform="matrix(1.00, 0.00, -0.00, -1.00, 1001.8, 888.5)">t</text><text xml:space="preserve" font-family="Helvetica-Light,Helvetica" font-size="71.7" fill="#000000" transform="matrix(1.00, 0.00, -0.00, -1.00, 1021.4, 888.5)">e</text><text xml:space="preserve" font-family="Helvetica-Light,Helvetica" font-size="71.7" fill="#000000" transform="matrix(1.00, 0.00, -0.00, -1.00, 1060.9, 888.5)">r</text><text xml:space="preserve" font-family="Helvetica-Light,Helvetica" font-size="71.7" fill="#000000" transform="matrix(1.00, 0.00, -0.00, -1.00, 1083.2, 888.5)">c</text><text xml:space="preserve" font-family="Helvetica-Light,Helvetica" font-size="71.7" fill="#000000" transform="matrix(1.00, 0.00, -0.00, -1.00, 1122.7, 888.5)">e</text><text xml:space="preserve" font-family="Helvetica-Light,Helvetica" font-size="71.7" fill="#000000" transform="matrix(1.00, 0.00, -0.00, -1.00, 1162.3, 888.5)">p</text><text xml:space="preserve" font-family="Helvetica-Light,Helvetica" font-size="71.7" fill="#000000" transform="matrix(1.00, 0.00, -0.00, -1.00, 1205.7, 888.5)">t</text><text xml:space="preserve" font-family="Helvetica-Light,Helvetica" font-size="71.7" fill="#000000" transform="matrix(1.00, 0.00, -0.00, -1.00, 1225.3, 888.5)">i</text><text xml:space="preserve" font-family="Helvetica-Light,Helvetica" font-size="71.7" fill="#000000" transform="matrix(1.00, 0.00, -0.00, -1.00, 1240.9, 888.5)">n</text><text xml:space="preserve" font-family="Helvetica-Light,Helvetica" font-size="71.7" fill="#000000" transform="matrix(1.00, 0.00, -0.00, -1.00, 1280.5, 888.5)">g</text><text xml:space="preserve" font-family="Helvetica-Light,Helvetica" font-size="71.7" fill="#000000" transform="matrix(1.00, 0.00, -0.00, -1.00, 1324.3, 888.5)"> </text><text xml:space="preserve" font-family="Helvetica-Light,Helvetica" font-size="71.7" fill="#000000" transform="matrix(1.00, 0.00, -0.00, -1.00, 1340.9, 888.5)">n</text><text xml:space="preserve" font-family="Helvetica-Light,Helvetica" font-size="71.7" fill="#000000" transform="matrix(1.00, 0.00, -0.00, -1.00, 1380.5, 888.5)">e</text><text xml:space="preserve" font-family="Helvetica-Light,Helvetica" font-size="71.7" fill="#000000" transform="matrix(1.00, 0.00, -0.00, -1.00, 1420.0, 888.5)">t</text><text xml:space="preserve" font-family="Helvetica-Light,Helvetica" font-size="71.7" fill="#000000" transform="matrix(1.00, 0.00, -0.00, -1.00, 1439.6, 888.5)">w</text><text xml:space="preserve" font-family="Helvetica-Light,Helvetica" font-size="71.7" fill="#000000" transform="matrix(1.00, 0.00, -0.00, -1.00, 1491.0, 888.5)">o</text><text xml:space="preserve" font-family="Helvetica-Light,Helvetica" font-size="71.7" fill="#000000" transform="matrix(1.00, 0.00, -0.00, -1.00, 1530.6, 888.5)">r</text><text xml:space="preserve" font-family="Helvetica-Light,Helvetica" font-size="71.7" fill="#000000" transform="matrix(1.00, 0.00, -0.00, -1.00, 1554.1, 888.5)">k</text><text xml:space="preserve" font-family="Helvetica-Light,Helvetica" font-size="71.7" fill="#000000" transform="matrix(1.00, 0.00, -0.00, -1.00, 1590.0, 888.5)"> </text><text xml:space="preserve" font-family="Helvetica-Light,Helvetica" font-size="71.7" fill="#000000" transform="matrix(1.00, 0.00, -0.00, -1.00, 1606.6, 888.5)">t</text><text xml:space="preserve" font-family="Helvetica-Light,Helvetica" font-size="71.7" fill="#000000" transform="matrix(1.00, 0.00, -0.00, -1.00, 1626.2, 888.5)">r</text><text xml:space="preserve" font-family="Helvetica-Light,Helvetica" font-size="71.7" fill="#000000" transform="matrix(1.00, 0.00, -0.00, -1.00, 1649.8, 888.5)">a</text><text xml:space="preserve" font-family="Helvetica-Light,Helvetica" font-size="71.7" fill="#000000" transform="matrix(1.00, 0.00, -0.00, -1.00, 1689.3, 888.5)">f</text><text xml:space="preserve" font-family="Helvetica-Light,Helvetica" font-size="71.7" fill="#000000" transform="matrix(1.00, 0.00, -0.00, -1.00, 1707.6, 888.5)">ï¬</text><text xml:space="preserve" font-family="Helvetica-Light,Helvetica" font-size="71.7" fill="#000000" transform="matrix(1.00, 0.00, -0.00, -1.00, 1743.2, 888.5)">c</text><g><clipPath id="clip0x7fdf939f2dc0"><path d="M 1273.1 323.9 L 1665.4 323.9 L 1665.4 431.9 L 1273.1 431.9 Z M 1273.1 323.9 "></path></clipPath><g clip-path="url(#clip0x7fdf939f2dc0)"><image xlink:href="DA06AA3DC71A1FE76BC2E4F9D63B1689.png" width="390.00" height="106.00" transform="matrix(1.00, 0.00, -0.00, -1.00, 1274.1, 430.9)" opacity="0.50"></image><path d="M 1277.0 430.0 L 1661.0 430.0 L 1661.0 330.0 L 1277.0 330.0 Z M 1277.1 429.9 " fill="#51A7F9"></path></g></g><g><clipPath id="clip0x7fdf93d0ee10"><path d="M 1273.1 329.9 L 1665.4 329.9 L 1665.4 429.9 L 1273.1 429.9 Z M 1273.1 329.9 "></path></clipPath><g clip-path="url(#clip0x7fdf93d0ee10)"><text xml:space="preserve" font-family="Helvetica-Bold,Helvetica" font-weight="bold" font-size="32.0" fill="#FEFFFE" transform="matrix(1.00, 0.00, -0.00, -1.00, 1359.9, 368.3)">L</text><text xml:space="preserve" font-family="Helvetica-Bold,Helvetica" font-weight="bold" font-size="32.0" fill="#FEFFFE" transform="matrix(1.00, 0.00, -0.00, -1.00, 1379.5, 368.3)">o</text><text xml:space="preserve" font-family="Helvetica-Bold,Helvetica" font-weight="bold" font-size="32.0" fill="#FEFFFE" transform="matrix(1.00, 0.00, -0.00, -1.00, 1399.0, 368.3)">c</text><text xml:space="preserve" font-family="Helvetica-Bold,Helvetica" font-weight="bold" font-size="32.0" fill="#FEFFFE" transform="matrix(1.00, 0.00, -0.00, -1.00, 1416.8, 368.3)">a</text><text xml:space="preserve" font-family="Helvetica-Bold,Helvetica" font-weight="bold" font-size="32.0" fill="#FEFFFE" transform="matrix(1.00, 0.00, -0.00, -1.00, 1434.6, 368.3)">t</text><text xml:space="preserve" font-family="Helvetica-Bold,Helvetica" font-weight="bold" font-size="32.0" fill="#FEFFFE" transform="matrix(1.00, 0.00, -0.00, -1.00, 1445.3, 368.3)">i</text><text xml:space="preserve" font-family="Helvetica-Bold,Helvetica" font-weight="bold" font-size="32.0" fill="#FEFFFE" transform="matrix(1.00, 0.00, -0.00, -1.00, 1454.1, 368.3)">o</text><text xml:space="preserve" font-family="Helvetica-Bold,Helvetica" font-weight="bold" font-size="32.0" fill="#FEFFFE" transform="matrix(1.00, 0.00, -0.00, -1.00, 1473.7, 368.3)">n</text><text xml:space="preserve" font-family="Helvetica-Bold,Helvetica" font-weight="bold" font-size="32.0" fill="#FEFFFE" transform="matrix(1.00, 0.00, -0.00, -1.00, 1493.2, 368.3)"> </text><text xml:space="preserve" font-family="Helvetica-Bold,Helvetica" font-weight="bold" font-size="32.0" fill="#FEFFFE" transform="matrix(1.00, 0.00, -0.00, -1.00, 1502.1, 368.3)">f</text><text xml:space="preserve" font-family="Helvetica-Bold,Helvetica" font-weight="bold" font-size="32.0" fill="#FEFFFE" transform="matrix(1.00, 0.00, -0.00, -1.00, 1512.8, 368.3)">a</text><text xml:space="preserve" font-family="Helvetica-Bold,Helvetica" font-weight="bold" font-size="32.0" fill="#FEFFFE" transform="matrix(1.00, 0.00, -0.00, -1.00, 1530.6, 368.3)">k</text><text xml:space="preserve" font-family="Helvetica-Bold,Helvetica" font-weight="bold" font-size="32.0" fill="#FEFFFE" transform="matrix(1.00, 0.00, -0.00, -1.00, 1548.4, 368.3)">e</text><text xml:space="preserve" font-family="Helvetica-Bold,Helvetica" font-weight="bold" font-size="32.0" fill="#FEFFFE" transform="matrix(1.00, 0.00, -0.00, -1.00, 1566.2, 368.3)">r</text></g></g><g><clipPath id="clip0x7fdf93d10690"><path d="M 1040.0 13.8 L 1260.0 13.8 L 1260.0 233.8 L 1040.0 233.8 Z M 1040.0 13.8 "></path></clipPath><g clip-path="url(#clip0x7fdf93d10690)"><image xlink:href="EE8F5066B79CB082C1ECDA638F874A27.png" width="220.00" height="220.00" transform="matrix(1.00, 0.00, -0.00, -1.00, 1040.0, 233.8)"></image></g></g><g><clipPath id="clip0x7fdf93d17e40"><path d="M 1726.1 64.1 L 1845.4 64.1 L 1845.4 183.5 L 1726.1 183.5 Z M 1726.1 64.1 "></path></clipPath><g clip-path="url(#clip0x7fdf93d17e40)"><image xlink:href="../../6A12BC9C-E9DA-4DCC-A761-1BCB53000357/assets/94936052348FABDA572CF3548F33D588.jpeg" width="225.00" height="225.00" transform="matrix(0.53, 0.00, -0.00, -0.53, 1726.1, 183.5)"></image></g></g></g></svg>