<?xml version="1.0" encoding="UTF-8" standalone="no"?><svg xmlns="http://www.w3.org/2000/svg" xmlns:xlink="http://www.w3.org/1999/xlink" clip-rule="evenodd" stroke-miterlimit="10" viewBox="0 0 697 308"><desc>SVG generated by Keynote</desc><defs></defs><g transform="matrix(1.00, 0.00, -0.00, -1.00, 0.0, 308.0)"><g><clipPath id="clip0x7fdf916c15b0"><path d="M 304.2 199.0 L 696.5 199.0 L 696.5 307.0 L 304.2 307.0 Z M 304.2 199.0 "></path></clipPath><g clip-path="url(#clip0x7fdf916c15b0)"><image xlink:href="9D84A0C8F3F3BC499444D32E9783ADEF.png" width="390.00" height="106.00" transform="matrix(1.00, 0.00, -0.00, -1.00, 305.2, 306.0)" opacity="0.50"></image><path d="M 308.0 305.0 L 693.0 305.0 L 693.0 205.0 L 308.0 205.0 Z M 308.2 305.0 " fill="#51A7F9"></path></g></g><g><clipPath id="clip0x7fdf9176f970"><path d="M 304.2 205.0 L 696.5 205.0 L 696.5 305.0 L 304.2 305.0 Z M 304.2 205.0 "></path></clipPath><g clip-path="url(#clip0x7fdf9176f970)"><text xml:space="preserve" font-family="Helvetica-Bold,Helvetica" font-weight="bold" font-size="32.0" fill="#FEFFFE" transform="matrix(1.00, 0.00, -0.00, -1.00, 391.0, 243.4)">L</text><text xml:space="preserve" font-family="Helvetica-Bold,Helvetica" font-weight="bold" font-size="32.0" fill="#FEFFFE" transform="matrix(1.00, 0.00, -0.00, -1.00, 410.5, 243.4)">o</text><text xml:space="preserve" font-family="Helvetica-Bold,Helvetica" font-weight="bold" font-size="32.0" fill="#FEFFFE" transform="matrix(1.00, 0.00, -0.00, -1.00, 430.1, 243.4)">c</text><text xml:space="preserve" font-family="Helvetica-Bold,Helvetica" font-weight="bold" font-size="32.0" fill="#FEFFFE" transform="matrix(1.00, 0.00, -0.00, -1.00, 447.9, 243.4)">a</text><text xml:space="preserve" font-family="Helvetica-Bold,Helvetica" font-weight="bold" font-size="32.0" fill="#FEFFFE" transform="matrix(1.00, 0.00, -0.00, -1.00, 465.7, 243.4)">t</text><text xml:space="preserve" font-family="Helvetica-Bold,Helvetica" font-weight="bold" font-size="32.0" fill="#FEFFFE" transform="matrix(1.00, 0.00, -0.00, -1.00, 476.3, 243.4)">i</text><text xml:space="preserve" font-family="Helvetica-Bold,Helvetica" font-weight="bold" font-size="32.0" fill="#FEFFFE" transform="matrix(1.00, 0.00, -0.00, -1.00, 485.2, 243.4)">o</text><text xml:space="preserve" font-family="Helvetica-Bold,Helvetica" font-weight="bold" font-size="32.0" fill="#FEFFFE" transform="matrix(1.00, 0.00, -0.00, -1.00, 504.8, 243.4)">n</text><text xml:space="preserve" font-family="Helvetica-Bold,Helvetica" font-weight="bold" font-size="32.0" fill="#FEFFFE" transform="matrix(1.00, 0.00, -0.00, -1.00, 524.3, 243.4)"> </text><text xml:space="preserve" font-family="Helvetica-Bold,Helvetica" font-weight="bold" font-size="32.0" fill="#FEFFFE" transform="matrix(1.00, 0.00, -0.00, -1.00, 533.2, 243.4)">f</text><text xml:space="preserve" font-family="Helvetica-Bold,Helvetica" font-weight="bold" font-size="32.0" fill="#FEFFFE" transform="matrix(1.00, 0.00, -0.00, -1.00, 543.8, 243.4)">a</text><text xml:space="preserve" font-family="Helvetica-Bold,Helvetica" font-weight="bold" font-size="32.0" fill="#FEFFFE" transform="matrix(1.00, 0.00, -0.00, -1.00, 561.6, 243.4)">k</text><text xml:space="preserve" font-family="Helvetica-Bold,Helvetica" font-weight="bold" font-size="32.0" fill="#FEFFFE" transform="matrix(1.00, 0.00, -0.00, -1.00, 579.4, 243.4)">e</text><text xml:space="preserve" font-family="Helvetica-Bold,Helvetica" font-weight="bold" font-size="32.0" fill="#FEFFFE" transform="matrix(1.00, 0.00, -0.00, -1.00, 597.3, 243.4)">r</text></g></g><g><clipPath id="clip0x7fdf91774ff0"><path d="M 147.3 269.8 L 281.1 269.8 L 281.1 240.2 L 147.3 240.2 Z M 147.3 269.8 "></path></clipPath><g clip-path="url(#clip0x7fdf91774ff0)"><path d="M -0.3 0.5 L 104.3 0.5 L 107.7 0.5 " fill="none" stroke="#000000" stroke-width="7.00" transform="matrix(1.00, 0.00, 0.00, -1.00, 148.3, 255.0)"></path><path d="M 252.5 240.7 L 280.1 254.5 L 252.5 268.3 Z M 252.5 240.7 " fill="#000000"></path></g></g><g><clipPath id="clip0x7fdf9177c9c0"><path d="M 515.2 193.6 L 515.2 117.9 L 485.6 117.9 L 485.6 193.6 Z M 515.2 193.6 "></path></clipPath><g clip-path="url(#clip0x7fdf9177c9c0)"><path d="M -0.4 -0.1 L 46.2 -0.1 L 49.6 -0.1 " fill="none" stroke="#000000" stroke-width="7.00" transform="matrix(0.00, -1.00, -1.00, 0.00, 500.4, 192.6)"></path><path d="M 486.7 146.5 L 500.5 118.9 L 514.3 146.5 Z M 486.7 146.5 " fill="#000000"></path></g></g><g><clipPath id="clip0x7fdf9177e030"><path d="M 308.9 0.5 L 691.8 0.5 L 691.8 108.5 L 308.9 108.5 Z M 308.9 0.5 "></path></clipPath><g clip-path="url(#clip0x7fdf9177e030)"><image xlink:href="3064469CF63872406D0D64D056742E69.png" width="381.00" height="106.00" transform="matrix(1.00, 0.00, -0.00, -1.00, 309.9, 107.5)" opacity="0.50"></image><path d="M 313.0 106.0 L 688.0 106.0 L 688.0 6.0 L 313.0 6.0 Z M 312.9 106.5 " fill="#FF7E00"></path></g></g><g><clipPath id="clip0x7fdf916c2f90"><path d="M 308.9 6.5 L 691.8 6.5 L 691.8 106.5 L 308.9 106.5 Z M 308.9 6.5 "></path></clipPath><g clip-path="url(#clip0x7fdf916c2f90)"><text xml:space="preserve" font-family="Helvetica-Bold,Helvetica" font-weight="bold" font-size="32.0" fill="#FEFFFE" transform="matrix(1.00, 0.00, -0.00, -1.00, 393.7, 44.9)">M</text><text xml:space="preserve" font-family="Helvetica-Bold,Helvetica" font-weight="bold" font-size="32.0" fill="#FEFFFE" transform="matrix(1.00, 0.00, -0.00, -1.00, 420.3, 44.9)">o</text><text xml:space="preserve" font-family="Helvetica-Bold,Helvetica" font-weight="bold" font-size="32.0" fill="#FEFFFE" transform="matrix(1.00, 0.00, -0.00, -1.00, 439.9, 44.9)">c</text><text xml:space="preserve" font-family="Helvetica-Bold,Helvetica" font-weight="bold" font-size="32.0" fill="#FEFFFE" transform="matrix(1.00, 0.00, -0.00, -1.00, 457.7, 44.9)">k</text><text xml:space="preserve" font-family="Helvetica-Bold,Helvetica" font-weight="bold" font-size="32.0" fill="#FEFFFE" transform="matrix(1.00, 0.00, -0.00, -1.00, 475.5, 44.9)"> </text><text xml:space="preserve" font-family="Helvetica-Bold,Helvetica" font-weight="bold" font-size="32.0" fill="#FEFFFE" transform="matrix(1.00, 0.00, -0.00, -1.00, 484.4, 44.9)">l</text><text xml:space="preserve" font-family="Helvetica-Bold,Helvetica" font-weight="bold" font-size="32.0" fill="#FEFFFE" transform="matrix(1.00, 0.00, -0.00, -1.00, 493.2, 44.9)">o</text><text xml:space="preserve" font-family="Helvetica-Bold,Helvetica" font-weight="bold" font-size="32.0" fill="#FEFFFE" transform="matrix(1.00, 0.00, -0.00, -1.00, 512.8, 44.9)">c</text><text xml:space="preserve" font-family="Helvetica-Bold,Helvetica" font-weight="bold" font-size="32.0" fill="#FEFFFE" transform="matrix(1.00, 0.00, -0.00, -1.00, 530.6, 44.9)">a</text><text xml:space="preserve" font-family="Helvetica-Bold,Helvetica" font-weight="bold" font-size="32.0" fill="#FEFFFE" transform="matrix(1.00, 0.00, -0.00, -1.00, 548.4, 44.9)">t</text><text xml:space="preserve" font-family="Helvetica-Bold,Helvetica" font-weight="bold" font-size="32.0" fill="#FEFFFE" transform="matrix(1.00, 0.00, -0.00, -1.00, 559.0, 44.9)">i</text><text xml:space="preserve" font-family="Helvetica-Bold,Helvetica" font-weight="bold" font-size="32.0" fill="#FEFFFE" transform="matrix(1.00, 0.00, -0.00, -1.00, 567.9, 44.9)">o</text><text xml:space="preserve" font-family="Helvetica-Bold,Helvetica" font-weight="bold" font-size="32.0" fill="#FEFFFE" transform="matrix(1.00, 0.00, -0.00, -1.00, 587.5, 44.9)">n</text></g></g><g><clipPath id="clip0x7fdf916c9af0"><path d="M -7.0 212.5 L 149.5 212.5 L 149.5 297.5 L -7.0 297.5 Z M -7.0 212.5 "></path></clipPath><g clip-path="url(#clip0x7fdf916c9af0)"><text xml:space="preserve" font-family="Helvetica-Bold,Helvetica" font-weight="bold" font-size="50.0" fill="#000000" transform="matrix(1.00, 0.00, -0.00, -1.00, 6.0, 236.5)">H</text><text xml:space="preserve" font-family="Helvetica-Bold,Helvetica" font-weight="bold" font-size="50.0" fill="#000000" transform="matrix(1.00, 0.00, -0.00, -1.00, 42.1, 236.5)">T</text><text xml:space="preserve" font-family="Helvetica-Bold,Helvetica" font-weight="bold" font-size="50.0" fill="#000000" transform="matrix(1.00, 0.00, -0.00, -1.00, 72.6, 236.5)">T</text><text xml:space="preserve" font-family="Helvetica-Bold,Helvetica" font-weight="bold" font-size="50.0" fill="#000000" transform="matrix(1.00, 0.00, -0.00, -1.00, 103.2, 236.5)">P</text></g></g></g></svg>