<?xml version="1.0" encoding="UTF-8" standalone="no"?><svg xmlns="http://www.w3.org/2000/svg" xmlns:xlink="http://www.w3.org/1999/xlink" clip-rule="evenodd" stroke-miterlimit="10" viewBox="0 0 807 419"><desc>SVG generated by Keynote</desc><defs></defs><g transform="matrix(1.00, 0.00, -0.00, -1.00, 0.0, 419.0)"><g><clipPath id="clip0x7fdf93cc8e70"><path d="M 234.1 310.9 L 626.4 310.9 L 626.4 418.9 L 234.1 418.9 Z M 234.1 310.9 "></path></clipPath><g clip-path="url(#clip0x7fdf93cc8e70)"><image xlink:href="../../03941B2E-9493-4255-82A0-C0448479B06C/assets/DA06AA3DC71A1FE76BC2E4F9D63B1689.png" width="390.00" height="106.00" transform="matrix(1.00, 0.00, -0.00, -1.00, 235.1, 417.9)" opacity="0.50"></image><path d="M 238.0 417.0 L 622.0 417.0 L 622.0 317.0 L 238.0 317.0 Z M 238.1 416.9 " fill="#51A7F9"></path></g></g><g><clipPath id="clip0x7fdf940b77b0"><path d="M 234.1 316.9 L 626.4 316.9 L 626.4 416.9 L 234.1 416.9 Z M 234.1 316.9 "></path></clipPath><g clip-path="url(#clip0x7fdf940b77b0)"><text xml:space="preserve" font-family="Helvetica-Bold,Helvetica" font-weight="bold" font-size="32.0" fill="#FEFFFE" transform="matrix(1.00, 0.00, -0.00, -1.00, 320.9, 355.3)">L</text><text xml:space="preserve" font-family="Helvetica-Bold,Helvetica" font-weight="bold" font-size="32.0" fill="#FEFFFE" transform="matrix(1.00, 0.00, -0.00, -1.00, 340.5, 355.3)">o</text><text xml:space="preserve" font-family="Helvetica-Bold,Helvetica" font-weight="bold" font-size="32.0" fill="#FEFFFE" transform="matrix(1.00, 0.00, -0.00, -1.00, 360.0, 355.3)">c</text><text xml:space="preserve" font-family="Helvetica-Bold,Helvetica" font-weight="bold" font-size="32.0" fill="#FEFFFE" transform="matrix(1.00, 0.00, -0.00, -1.00, 377.8, 355.3)">a</text><text xml:space="preserve" font-family="Helvetica-Bold,Helvetica" font-weight="bold" font-size="32.0" fill="#FEFFFE" transform="matrix(1.00, 0.00, -0.00, -1.00, 395.6, 355.3)">t</text><text xml:space="preserve" font-family="Helvetica-Bold,Helvetica" font-weight="bold" font-size="32.0" fill="#FEFFFE" transform="matrix(1.00, 0.00, -0.00, -1.00, 406.3, 355.3)">i</text><text xml:space="preserve" font-family="Helvetica-Bold,Helvetica" font-weight="bold" font-size="32.0" fill="#FEFFFE" transform="matrix(1.00, 0.00, -0.00, -1.00, 415.1, 355.3)">o</text><text xml:space="preserve" font-family="Helvetica-Bold,Helvetica" font-weight="bold" font-size="32.0" fill="#FEFFFE" transform="matrix(1.00, 0.00, -0.00, -1.00, 434.7, 355.3)">n</text><text xml:space="preserve" font-family="Helvetica-Bold,Helvetica" font-weight="bold" font-size="32.0" fill="#FEFFFE" transform="matrix(1.00, 0.00, -0.00, -1.00, 454.2, 355.3)"> </text><text xml:space="preserve" font-family="Helvetica-Bold,Helvetica" font-weight="bold" font-size="32.0" fill="#FEFFFE" transform="matrix(1.00, 0.00, -0.00, -1.00, 463.1, 355.3)">f</text><text xml:space="preserve" font-family="Helvetica-Bold,Helvetica" font-weight="bold" font-size="32.0" fill="#FEFFFE" transform="matrix(1.00, 0.00, -0.00, -1.00, 473.8, 355.3)">a</text><text xml:space="preserve" font-family="Helvetica-Bold,Helvetica" font-weight="bold" font-size="32.0" fill="#FEFFFE" transform="matrix(1.00, 0.00, -0.00, -1.00, 491.6, 355.3)">k</text><text xml:space="preserve" font-family="Helvetica-Bold,Helvetica" font-weight="bold" font-size="32.0" fill="#FEFFFE" transform="matrix(1.00, 0.00, -0.00, -1.00, 509.4, 355.3)">e</text><text xml:space="preserve" font-family="Helvetica-Bold,Helvetica" font-weight="bold" font-size="32.0" fill="#FEFFFE" transform="matrix(1.00, 0.00, -0.00, -1.00, 527.2, 355.3)">r</text></g></g><g><clipPath id="clip0x7fdf940cf530"><path d="M 1.0 0.8 L 221.0 0.8 L 221.0 220.8 L 1.0 220.8 Z M 1.0 0.8 "></path></clipPath><g clip-path="url(#clip0x7fdf940cf530)"><image xlink:href="../../03941B2E-9493-4255-82A0-C0448479B06C/assets/EE8F5066B79CB082C1ECDA638F874A27.png" width="220.00" height="220.00" transform="matrix(1.00, 0.00, -0.00, -1.00, 1.0, 220.8)"></image></g></g><g><clipPath id="clip0x7fdf9422ae30"><path d="M 687.1 51.1 L 806.4 51.1 L 806.4 170.5 L 687.1 170.5 Z M 687.1 51.1 "></path></clipPath><g clip-path="url(#clip0x7fdf9422ae30)"><image xlink:href="../../6A12BC9C-E9DA-4DCC-A761-1BCB53000357/assets/94936052348FABDA572CF3548F33D588.jpeg" width="225.00" height="225.00" transform="matrix(0.53, 0.00, -0.00, -0.53, 687.1, 170.5)"></image></g></g></g></svg>