<?xml version="1.0" encoding="UTF-8" standalone="no"?><svg xmlns="http://www.w3.org/2000/svg" xmlns:xlink="http://www.w3.org/1999/xlink" clip-rule="evenodd" stroke-miterlimit="10" viewBox="0 0 1920 1080"><desc>SVG generated by Keynote</desc><defs></defs><g transform="matrix(1.00, 0.00, -0.00, -1.00, 0.0, 1080.0)"><path d="M 0.0 1080.0 L 1920.0 1080.0 L 1920.0 0.0 L 0.0 0.0 Z M 0.0 1080.0 " fill="#FEFFFE"></path><text xml:space="preserve" font-family="Helvetica-Light,Helvetica" font-size="106.4" fill="#000000" transform="matrix(1.00, 0.00, -0.00, -1.00, 137.0, 875.5)">S</text><text xml:space="preserve" font-family="Helvetica-Light,Helvetica" font-size="106.4" fill="#000000" transform="matrix(1.00, 0.00, -0.00, -1.00, 201.9, 875.5)">t</text><text xml:space="preserve" font-family="Helvetica-Light,Helvetica" font-size="106.4" fill="#000000" transform="matrix(1.00, 0.00, -0.00, -1.00, 231.4, 875.5)">r</text><text xml:space="preserve" font-family="Helvetica-Light,Helvetica" font-size="106.4" fill="#000000" transform="matrix(1.00, 0.00, -0.00, -1.00, 266.7, 875.5)">a</text><text xml:space="preserve" font-family="Helvetica-Light,Helvetica" font-size="106.4" fill="#000000" transform="matrix(1.00, 0.00, -0.00, -1.00, 325.8, 875.5)">t</text><text xml:space="preserve" font-family="Helvetica-Light,Helvetica" font-size="106.4" fill="#000000" transform="matrix(1.00, 0.00, -0.00, -1.00, 355.2, 875.5)">e</text><text xml:space="preserve" font-family="Helvetica-Light,Helvetica" font-size="106.4" fill="#000000" transform="matrix(1.00, 0.00, -0.00, -1.00, 414.3, 875.5)">g</text><text xml:space="preserve" font-family="Helvetica-Light,Helvetica" font-size="106.4" fill="#000000" transform="matrix(1.00, 0.00, -0.00, -1.00, 479.2, 875.5)">y</text><text xml:space="preserve" font-family="Helvetica-Light,Helvetica" font-size="106.4" fill="#000000" transform="matrix(1.00, 0.00, -0.00, -1.00, 532.4, 875.5)"> </text><text xml:space="preserve" font-family="Helvetica-Light,Helvetica" font-size="106.4" fill="#000000" transform="matrix(1.00, 0.00, -0.00, -1.00, 557.3, 875.5)">2</text><text xml:space="preserve" font-family="Helvetica-Light,Helvetica" font-size="106.4" fill="#000000" transform="matrix(1.00, 0.00, -0.00, -1.00, 616.4, 875.5)">:</text><text xml:space="preserve" font-family="Helvetica-Light,Helvetica" font-size="106.4" fill="#000000" transform="matrix(1.00, 0.00, -0.00, -1.00, 646.0, 875.5)"> </text><text xml:space="preserve" font-family="Helvetica-Light,Helvetica" font-size="106.4" fill="#000000" transform="matrix(1.00, 0.00, -0.00, -1.00, 670.9, 875.5)">M</text><text xml:space="preserve" font-family="Helvetica-Light,Helvetica" font-size="106.4" fill="#000000" transform="matrix(1.00, 0.00, -0.00, -1.00, 759.4, 875.5)">i</text><text xml:space="preserve" font-family="Helvetica-Light,Helvetica" font-size="106.4" fill="#000000" transform="matrix(1.00, 0.00, -0.00, -1.00, 783.0, 875.5)">n</text><text xml:space="preserve" font-family="Helvetica-Light,Helvetica" font-size="106.4" fill="#000000" transform="matrix(1.00, 0.00, -0.00, -1.00, 842.0, 875.5)">i</text><text xml:space="preserve" font-family="Helvetica-Light,Helvetica" font-size="106.4" fill="#000000" transform="matrix(1.00, 0.00, -0.00, -1.00, 865.5, 875.5)">m</text><text xml:space="preserve" font-family="Helvetica-Light,Helvetica" font-size="106.4" fill="#000000" transform="matrix(1.00, 0.00, -0.00, -1.00, 954.0, 875.5)">u</text><text xml:space="preserve" font-family="Helvetica-Light,Helvetica" font-size="106.4" fill="#000000" transform="matrix(1.00, 0.00, -0.00, -1.00, 1013.1, 875.5)">m</text><text xml:space="preserve" font-family="Helvetica-Light,Helvetica" font-size="106.4" fill="#000000" transform="matrix(1.00, 0.00, -0.00, -1.00, 1101.7, 875.5)"> </text><text xml:space="preserve" font-family="Helvetica-Light,Helvetica" font-size="106.4" fill="#000000" transform="matrix(1.00, 0.00, -0.00, -1.00, 1126.7, 875.5)">a</text><text xml:space="preserve" font-family="Helvetica-Light,Helvetica" font-size="106.4" fill="#000000" transform="matrix(1.00, 0.00, -0.00, -1.00, 1185.7, 875.5)">c</text><text xml:space="preserve" font-family="Helvetica-Light,Helvetica" font-size="106.4" fill="#000000" transform="matrix(1.00, 0.00, -0.00, -1.00, 1244.8, 875.5)">c</text><text xml:space="preserve" font-family="Helvetica-Light,Helvetica" font-size="106.4" fill="#000000" transform="matrix(1.00, 0.00, -0.00, -1.00, 1303.8, 875.5)">u</text><text xml:space="preserve" font-family="Helvetica-Light,Helvetica" font-size="106.4" fill="#000000" transform="matrix(1.00, 0.00, -0.00, -1.00, 1362.9, 875.5)">r</text><text xml:space="preserve" font-family="Helvetica-Light,Helvetica" font-size="106.4" fill="#000000" transform="matrix(1.00, 0.00, -0.00, -1.00, 1398.2, 875.5)">a</text><text xml:space="preserve" font-family="Helvetica-Light,Helvetica" font-size="106.4" fill="#000000" transform="matrix(1.00, 0.00, -0.00, -1.00, 1457.3, 875.5)">c</text><text xml:space="preserve" font-family="Helvetica-Light,Helvetica" font-size="106.4" fill="#000000" transform="matrix(1.00, 0.00, -0.00, -1.00, 1516.3, 875.5)">y</text><text xml:space="preserve" font-family="Helvetica-Light,Helvetica" font-size="106.4" fill="#000000" transform="matrix(1.00, 0.00, -0.00, -1.00, 1569.5, 875.5)"> </text><text xml:space="preserve" font-family="Helvetica-Light,Helvetica" font-size="106.4" fill="#000000" transform="matrix(1.00, 0.00, -0.00, -1.00, 1594.5, 875.5)">l</text><text xml:space="preserve" font-family="Helvetica-Light,Helvetica" font-size="106.4" fill="#000000" transform="matrix(1.00, 0.00, -0.00, -1.00, 1618.0, 875.5)">i</text><text xml:space="preserve" font-family="Helvetica-Light,Helvetica" font-size="106.4" fill="#000000" transform="matrix(1.00, 0.00, -0.00, -1.00, 1641.5, 875.5)">m</text><text xml:space="preserve" font-family="Helvetica-Light,Helvetica" font-size="106.4" fill="#000000" transform="matrix(1.00, 0.00, -0.00, -1.00, 1730.0, 875.5)">i</text><text xml:space="preserve" font-family="Helvetica-Light,Helvetica" font-size="106.4" fill="#000000" transform="matrix(1.00, 0.00, -0.00, -1.00, 1753.5, 875.5)">t</text></g></svg>