<?xml version="1.0" encoding="UTF-8" standalone="no"?><svg xmlns="http://www.w3.org/2000/svg" xmlns:xlink="http://www.w3.org/1999/xlink" clip-rule="evenodd" stroke-miterlimit="10" viewBox="0 0 1798 104"><desc>SVG generated by Keynote</desc><defs></defs><g transform="matrix(1.00, 0.00, -0.00, -1.00, 0.0, 104.0)"><text xml:space="preserve" font-family="Helvetica-Light,Helvetica" font-size="105.3" fill="#000000" transform="matrix(1.00, 0.00, -0.00, -1.00, -0.0, 24.2)">A</text><text xml:space="preserve" font-family="Helvetica-Light,Helvetica" font-size="105.3" fill="#000000" transform="matrix(1.00, 0.00, -0.00, -1.00, 70.2, 24.2)">t</text><text xml:space="preserve" font-family="Helvetica-Light,Helvetica" font-size="105.3" fill="#000000" transform="matrix(1.00, 0.00, -0.00, -1.00, 99.5, 24.2)">t</text><text xml:space="preserve" font-family="Helvetica-Light,Helvetica" font-size="105.3" fill="#000000" transform="matrix(1.00, 0.00, -0.00, -1.00, 128.7, 24.2)">a</text><text xml:space="preserve" font-family="Helvetica-Light,Helvetica" font-size="105.3" fill="#000000" transform="matrix(1.00, 0.00, -0.00, -1.00, 187.3, 24.2)">c</text><text xml:space="preserve" font-family="Helvetica-Light,Helvetica" font-size="105.3" fill="#000000" transform="matrix(1.00, 0.00, -0.00, -1.00, 245.8, 24.2)">k</text><text xml:space="preserve" font-family="Helvetica-Light,Helvetica" font-size="105.3" fill="#000000" transform="matrix(1.00, 0.00, -0.00, -1.00, 298.4, 24.2)"> </text><text xml:space="preserve" font-family="Helvetica-Light,Helvetica" font-size="105.3" fill="#000000" transform="matrix(1.00, 0.00, -0.00, -1.00, 327.7, 24.2)">M</text><text xml:space="preserve" font-family="Helvetica-Light,Helvetica" font-size="105.3" fill="#000000" transform="matrix(1.00, 0.00, -0.00, -1.00, 415.4, 24.2)">e</text><text xml:space="preserve" font-family="Helvetica-Light,Helvetica" font-size="105.3" fill="#000000" transform="matrix(1.00, 0.00, -0.00, -1.00, 473.9, 24.2)">t</text><text xml:space="preserve" font-family="Helvetica-Light,Helvetica" font-size="105.3" fill="#000000" transform="matrix(1.00, 0.00, -0.00, -1.00, 503.2, 24.2)">h</text><text xml:space="preserve" font-family="Helvetica-Light,Helvetica" font-size="105.3" fill="#000000" transform="matrix(1.00, 0.00, -0.00, -1.00, 561.7, 24.2)">o</text><text xml:space="preserve" font-family="Helvetica-Light,Helvetica" font-size="105.3" fill="#000000" transform="matrix(1.00, 0.00, -0.00, -1.00, 620.3, 24.2)">d</text><text xml:space="preserve" font-family="Helvetica-Light,Helvetica" font-size="105.3" fill="#000000" transform="matrix(1.00, 0.00, -0.00, -1.00, 684.6, 24.2)">o</text><text xml:space="preserve" font-family="Helvetica-Light,Helvetica" font-size="105.3" fill="#000000" transform="matrix(1.00, 0.00, -0.00, -1.00, 743.1, 24.2)">l</text><text xml:space="preserve" font-family="Helvetica-Light,Helvetica" font-size="105.3" fill="#000000" transform="matrix(1.00, 0.00, -0.00, -1.00, 766.5, 24.2)">o</text><text xml:space="preserve" font-family="Helvetica-Light,Helvetica" font-size="105.3" fill="#000000" transform="matrix(1.00, 0.00, -0.00, -1.00, 825.0, 24.2)">g</text><text xml:space="preserve" font-family="Helvetica-Light,Helvetica" font-size="105.3" fill="#000000" transform="matrix(1.00, 0.00, -0.00, -1.00, 889.4, 24.2)">y</text><text xml:space="preserve" font-family="Helvetica-Light,Helvetica" font-size="105.3" fill="#000000" transform="matrix(1.00, 0.00, -0.00, -1.00, 942.0, 24.2)"> </text><text xml:space="preserve" font-family="Helvetica-Light,Helvetica" font-size="105.3" fill="#000000" transform="matrix(1.00, 0.00, -0.00, -1.00, 971.3, 24.2)">2</text><text xml:space="preserve" font-family="Helvetica-Light,Helvetica" font-size="105.3" fill="#000000" transform="matrix(1.00, 0.00, -0.00, -1.00, 1029.8, 24.2)">:</text><text xml:space="preserve" font-family="Helvetica-Light,Helvetica" font-size="105.3" fill="#000000" transform="matrix(1.00, 0.00, -0.00, -1.00, 1059.1, 24.2)"> </text><text xml:space="preserve" font-family="Helvetica-Light,Helvetica" font-size="105.3" fill="#000000" transform="matrix(1.00, 0.00, -0.00, -1.00, 1088.3, 24.2)">S</text><text xml:space="preserve" font-family="Helvetica-Light,Helvetica" font-size="105.3" fill="#000000" transform="matrix(1.00, 0.00, -0.00, -1.00, 1152.7, 24.2)">p</text><text xml:space="preserve" font-family="Helvetica-Light,Helvetica" font-size="105.3" fill="#000000" transform="matrix(1.00, 0.00, -0.00, -1.00, 1217.0, 24.2)">a</text><text xml:space="preserve" font-family="Helvetica-Light,Helvetica" font-size="105.3" fill="#000000" transform="matrix(1.00, 0.00, -0.00, -1.00, 1275.5, 24.2)">c</text><text xml:space="preserve" font-family="Helvetica-Light,Helvetica" font-size="105.3" fill="#000000" transform="matrix(1.00, 0.00, -0.00, -1.00, 1334.1, 24.2)">e</text><text xml:space="preserve" font-family="Helvetica-Light,Helvetica" font-size="105.3" fill="#000000" transform="matrix(1.00, 0.00, -0.00, -1.00, 1392.6, 24.2)"> </text><text xml:space="preserve" font-family="Helvetica-Light,Helvetica" font-size="105.3" fill="#000000" transform="matrix(1.00, 0.00, -0.00, -1.00, 1421.9, 24.2)">p</text><text xml:space="preserve" font-family="Helvetica-Light,Helvetica" font-size="105.3" fill="#000000" transform="matrix(1.00, 0.00, -0.00, -1.00, 1486.2, 24.2)">a</text><text xml:space="preserve" font-family="Helvetica-Light,Helvetica" font-size="105.3" fill="#000000" transform="matrix(1.00, 0.00, -0.00, -1.00, 1544.7, 24.2)">r</text><text xml:space="preserve" font-family="Helvetica-Light,Helvetica" font-size="105.3" fill="#000000" transform="matrix(1.00, 0.00, -0.00, -1.00, 1581.7, 24.2)">t</text><text xml:space="preserve" font-family="Helvetica-Light,Helvetica" font-size="105.3" fill="#000000" transform="matrix(1.00, 0.00, -0.00, -1.00, 1611.0, 24.2)">i</text><text xml:space="preserve" font-family="Helvetica-Light,Helvetica" font-size="105.3" fill="#000000" transform="matrix(1.00, 0.00, -0.00, -1.00, 1634.3, 24.2)">t</text><text xml:space="preserve" font-family="Helvetica-Light,Helvetica" font-size="105.3" fill="#000000" transform="matrix(1.00, 0.00, -0.00, -1.00, 1663.6, 24.2)">i</text><text xml:space="preserve" font-family="Helvetica-Light,Helvetica" font-size="105.3" fill="#000000" transform="matrix(1.00, 0.00, -0.00, -1.00, 1687.0, 24.2)">o</text><text xml:space="preserve" font-family="Helvetica-Light,Helvetica" font-size="105.3" fill="#000000" transform="matrix(1.00, 0.00, -0.00, -1.00, 1745.5, 24.2)">n</text></g></svg>