<?xml version="1.0" encoding="UTF-8" standalone="no"?><svg xmlns="http://www.w3.org/2000/svg" xmlns:xlink="http://www.w3.org/1999/xlink" clip-rule="evenodd" stroke-miterlimit="10" viewBox="0 0 1920 1080"><desc>SVG generated by Keynote</desc><defs></defs><g transform="matrix(1.00, 0.00, -0.00, -1.00, 0.0, 1080.0)"><path d="M 0.0 1080.0 L 1920.0 1080.0 L 1920.0 0.0 L 0.0 0.0 Z M 0.0 1080.0 " fill="#FEFFFF"></path><text xml:space="preserve" font-family="Helvetica-Light,Helvetica" font-size="112.0" fill="#000000" transform="matrix(1.00, 0.00, -0.00, -1.00, 137.0, 873.8)">A</text><text xml:space="preserve" font-family="Helvetica-Light,Helvetica" font-size="112.0" fill="#000000" transform="matrix(1.00, 0.00, -0.00, -1.00, 210.9, 873.8)">s</text><text xml:space="preserve" font-family="Helvetica-Light,Helvetica" font-size="112.0" fill="#000000" transform="matrix(1.00, 0.00, -0.00, -1.00, 266.0, 873.8)">y</text><text xml:space="preserve" font-family="Helvetica-Light,Helvetica" font-size="112.0" fill="#000000" transform="matrix(1.00, 0.00, -0.00, -1.00, 321.2, 873.8)">n</text><text xml:space="preserve" font-family="Helvetica-Light,Helvetica" font-size="112.0" fill="#000000" transform="matrix(1.00, 0.00, -0.00, -1.00, 382.7, 873.8)">c</text><text xml:space="preserve" font-family="Helvetica-Light,Helvetica" font-size="112.0" fill="#000000" transform="matrix(1.00, 0.00, -0.00, -1.00, 444.1, 873.8)">h</text><text xml:space="preserve" font-family="Helvetica-Light,Helvetica" font-size="112.0" fill="#000000" transform="matrix(1.00, 0.00, -0.00, -1.00, 505.5, 873.8)">r</text><text xml:space="preserve" font-family="Helvetica-Light,Helvetica" font-size="112.0" fill="#000000" transform="matrix(1.00, 0.00, -0.00, -1.00, 540.0, 873.8)">o</text><text xml:space="preserve" font-family="Helvetica-Light,Helvetica" font-size="112.0" fill="#000000" transform="matrix(1.00, 0.00, -0.00, -1.00, 601.4, 873.8)">n</text><text xml:space="preserve" font-family="Helvetica-Light,Helvetica" font-size="112.0" fill="#000000" transform="matrix(1.00, 0.00, -0.00, -1.00, 662.9, 873.8)">o</text><text xml:space="preserve" font-family="Helvetica-Light,Helvetica" font-size="112.0" fill="#000000" transform="matrix(1.00, 0.00, -0.00, -1.00, 724.3, 873.8)">u</text><text xml:space="preserve" font-family="Helvetica-Light,Helvetica" font-size="112.0" fill="#000000" transform="matrix(1.00, 0.00, -0.00, -1.00, 785.8, 873.8)">s</text><text xml:space="preserve" font-family="Helvetica-Light,Helvetica" font-size="112.0" fill="#000000" transform="matrix(1.00, 0.00, -0.00, -1.00, 841.8, 873.8)"> </text><text xml:space="preserve" font-family="Helvetica-Light,Helvetica" font-size="112.0" fill="#000000" transform="matrix(1.00, 0.00, -0.00, -1.00, 867.7, 873.8)">t</text><text xml:space="preserve" font-family="Helvetica-Light,Helvetica" font-size="112.0" fill="#000000" transform="matrix(1.00, 0.00, -0.00, -1.00, 898.0, 873.8)">r</text><text xml:space="preserve" font-family="Helvetica-Light,Helvetica" font-size="112.0" fill="#000000" transform="matrix(1.00, 0.00, -0.00, -1.00, 934.5, 873.8)">a</text><text xml:space="preserve" font-family="Helvetica-Light,Helvetica" font-size="112.0" fill="#000000" transform="matrix(1.00, 0.00, -0.00, -1.00, 995.9, 873.8)">c</text><text xml:space="preserve" font-family="Helvetica-Light,Helvetica" font-size="112.0" fill="#000000" transform="matrix(1.00, 0.00, -0.00, -1.00, 1057.3, 873.8)">k</text><text xml:space="preserve" font-family="Helvetica-Light,Helvetica" font-size="112.0" fill="#000000" transform="matrix(1.00, 0.00, -0.00, -1.00, 1112.5, 873.8)">i</text><text xml:space="preserve" font-family="Helvetica-Light,Helvetica" font-size="112.0" fill="#000000" transform="matrix(1.00, 0.00, -0.00, -1.00, 1136.5, 873.8)">n</text><text xml:space="preserve" font-family="Helvetica-Light,Helvetica" font-size="112.0" fill="#000000" transform="matrix(1.00, 0.00, -0.00, -1.00, 1198.0, 873.8)">g</text><text xml:space="preserve" font-family="Helvetica-Light,Helvetica" font-size="112.0" fill="#000000" transform="matrix(1.00, 0.00, -0.00, -1.00, 1265.6, 873.8)">:</text><text xml:space="preserve" font-family="Helvetica-Light,Helvetica" font-size="112.0" fill="#000000" transform="matrix(1.00, 0.00, -0.00, -1.00, 1296.7, 873.8)"> </text><text xml:space="preserve" font-family="Helvetica-Light,Helvetica" font-size="112.0" fill="#000000" transform="matrix(1.00, 0.00, -0.00, -1.00, 1322.6, 873.8)">R</text><text xml:space="preserve" font-family="Helvetica-Light,Helvetica" font-size="112.0" fill="#000000" transform="matrix(1.00, 0.00, -0.00, -1.00, 1396.5, 873.8)">a</text><text xml:space="preserve" font-family="Helvetica-Light,Helvetica" font-size="112.0" fill="#000000" transform="matrix(1.00, 0.00, -0.00, -1.00, 1458.0, 873.8)">t</text><text xml:space="preserve" font-family="Helvetica-Light,Helvetica" font-size="112.0" fill="#000000" transform="matrix(1.00, 0.00, -0.00, -1.00, 1488.3, 873.8)">i</text><text xml:space="preserve" font-family="Helvetica-Light,Helvetica" font-size="112.0" fill="#000000" transform="matrix(1.00, 0.00, -0.00, -1.00, 1512.3, 873.8)">o</text><text xml:space="preserve" font-family="Helvetica-Light,Helvetica" font-size="112.0" fill="#000000" transform="matrix(1.00, 0.00, -0.00, -1.00, 1573.7, 873.8)">n</text><text xml:space="preserve" font-family="Helvetica-Light,Helvetica" font-size="112.0" fill="#000000" transform="matrix(1.00, 0.00, -0.00, -1.00, 1635.2, 873.8)">a</text><text xml:space="preserve" font-family="Helvetica-Light,Helvetica" font-size="112.0" fill="#000000" transform="matrix(1.00, 0.00, -0.00, -1.00, 1696.6, 873.8)">l</text><text xml:space="preserve" font-family="Helvetica-Light,Helvetica" font-size="112.0" fill="#000000" transform="matrix(1.00, 0.00, -0.00, -1.00, 1720.7, 873.8)">e</text></g></svg>