<?xml version="1.0" encoding="UTF-8" standalone="no"?><svg xmlns="http://www.w3.org/2000/svg" xmlns:xlink="http://www.w3.org/1999/xlink" clip-rule="evenodd" stroke-miterlimit="10" viewBox="0 0 1920 1080"><desc>SVG generated by Keynote</desc><defs></defs><g transform="matrix(1.00, 0.00, -0.00, -1.00, 0.0, 1080.0)"><path d="M 0.0 1080.0 L 1920.0 1080.0 L 1920.0 0.0 L 0.0 0.0 Z M 0.0 1080.0 " fill="#FEFFFF"></path><text xml:space="preserve" font-family="Helvetica-Light,Helvetica" font-size="112.0" fill="#000000" transform="matrix(1.00, 0.00, -0.00, -1.00, 236.9, 873.8)">S</text><text xml:space="preserve" font-family="Helvetica-Light,Helvetica" font-size="112.0" fill="#000000" transform="matrix(1.00, 0.00, -0.00, -1.00, 305.3, 873.8)">y</text><text xml:space="preserve" font-family="Helvetica-Light,Helvetica" font-size="112.0" fill="#000000" transform="matrix(1.00, 0.00, -0.00, -1.00, 361.3, 873.8)">n</text><text xml:space="preserve" font-family="Helvetica-Light,Helvetica" font-size="112.0" fill="#000000" transform="matrix(1.00, 0.00, -0.00, -1.00, 423.6, 873.8)">c</text><text xml:space="preserve" font-family="Helvetica-Light,Helvetica" font-size="112.0" fill="#000000" transform="matrix(1.00, 0.00, -0.00, -1.00, 485.8, 873.8)">h</text><text xml:space="preserve" font-family="Helvetica-Light,Helvetica" font-size="112.0" fill="#000000" transform="matrix(1.00, 0.00, -0.00, -1.00, 548.1, 873.8)">r</text><text xml:space="preserve" font-family="Helvetica-Light,Helvetica" font-size="112.0" fill="#000000" transform="matrix(1.00, 0.00, -0.00, -1.00, 583.4, 873.8)">o</text><text xml:space="preserve" font-family="Helvetica-Light,Helvetica" font-size="112.0" fill="#000000" transform="matrix(1.00, 0.00, -0.00, -1.00, 645.7, 873.8)">n</text><text xml:space="preserve" font-family="Helvetica-Light,Helvetica" font-size="112.0" fill="#000000" transform="matrix(1.00, 0.00, -0.00, -1.00, 707.9, 873.8)">o</text><text xml:space="preserve" font-family="Helvetica-Light,Helvetica" font-size="112.0" fill="#000000" transform="matrix(1.00, 0.00, -0.00, -1.00, 770.2, 873.8)">u</text><text xml:space="preserve" font-family="Helvetica-Light,Helvetica" font-size="112.0" fill="#000000" transform="matrix(1.00, 0.00, -0.00, -1.00, 832.5, 873.8)">s</text><text xml:space="preserve" font-family="Helvetica-Light,Helvetica" font-size="112.0" fill="#000000" transform="matrix(1.00, 0.00, -0.00, -1.00, 888.5, 873.8)"> </text><text xml:space="preserve" font-family="Helvetica-Light,Helvetica" font-size="112.0" fill="#000000" transform="matrix(1.00, 0.00, -0.00, -1.00, 919.6, 873.8)">t</text><text xml:space="preserve" font-family="Helvetica-Light,Helvetica" font-size="112.0" fill="#000000" transform="matrix(1.00, 0.00, -0.00, -1.00, 950.8, 873.8)">r</text><text xml:space="preserve" font-family="Helvetica-Light,Helvetica" font-size="112.0" fill="#000000" transform="matrix(1.00, 0.00, -0.00, -1.00, 988.1, 873.8)">a</text><text xml:space="preserve" font-family="Helvetica-Light,Helvetica" font-size="112.0" fill="#000000" transform="matrix(1.00, 0.00, -0.00, -1.00, 1050.3, 873.8)">c</text><text xml:space="preserve" font-family="Helvetica-Light,Helvetica" font-size="112.0" fill="#000000" transform="matrix(1.00, 0.00, -0.00, -1.00, 1112.6, 873.8)">k</text><text xml:space="preserve" font-family="Helvetica-Light,Helvetica" font-size="112.0" fill="#000000" transform="matrix(1.00, 0.00, -0.00, -1.00, 1168.6, 873.8)">i</text><text xml:space="preserve" font-family="Helvetica-Light,Helvetica" font-size="112.0" fill="#000000" transform="matrix(1.00, 0.00, -0.00, -1.00, 1193.5, 873.8)">n</text><text xml:space="preserve" font-family="Helvetica-Light,Helvetica" font-size="112.0" fill="#000000" transform="matrix(1.00, 0.00, -0.00, -1.00, 1255.7, 873.8)">g</text><text xml:space="preserve" font-family="Helvetica-Light,Helvetica" font-size="112.0" fill="#000000" transform="matrix(1.00, 0.00, -0.00, -1.00, 1324.2, 873.8)"> </text><text xml:space="preserve" font-family="Helvetica-Light,Helvetica" font-size="112.0" fill="#000000" transform="matrix(1.00, 0.00, -0.00, -1.00, 1355.3, 873.8)">r</text><text xml:space="preserve" font-family="Helvetica-Light,Helvetica" font-size="112.0" fill="#000000" transform="matrix(1.00, 0.00, -0.00, -1.00, 1390.6, 873.8)">e</text><text xml:space="preserve" font-family="Helvetica-Light,Helvetica" font-size="112.0" fill="#000000" transform="matrix(1.00, 0.00, -0.00, -1.00, 1452.9, 873.8)">s</text><text xml:space="preserve" font-family="Helvetica-Light,Helvetica" font-size="112.0" fill="#000000" transform="matrix(1.00, 0.00, -0.00, -1.00, 1508.9, 873.8)">u</text><text xml:space="preserve" font-family="Helvetica-Light,Helvetica" font-size="112.0" fill="#000000" transform="matrix(1.00, 0.00, -0.00, -1.00, 1571.1, 873.8)">l</text><text xml:space="preserve" font-family="Helvetica-Light,Helvetica" font-size="112.0" fill="#000000" transform="matrix(1.00, 0.00, -0.00, -1.00, 1596.0, 873.8)">t</text><text xml:space="preserve" font-family="Helvetica-Light,Helvetica" font-size="112.0" fill="#000000" transform="matrix(1.00, 0.00, -0.00, -1.00, 1627.1, 873.8)">s</text><g><clipPath id="clip0x7fdf9b4db390"><path d="M 1.5 335.0 L 624.3 335.0 L 624.3 790.4 L 1.5 790.4 Z M 1.5 335.0 "></path></clipPath><g clip-path="url(#clip0x7fdf9b4db390)"><image xlink:href="../../6BDA7ABC-89FC-43A7-B98B-1205E86E0DB8/assets/739799203AC02C2C02890AD241BD734B.png" width="623.00" height="455.00" transform="matrix(1.00, 0.00, -0.00, -1.00, 1.5, 790.4)" opacity="0.70"></image><image xlink:href="../../6BDA7ABC-89FC-43A7-B98B-1205E86E0DB8/assets/537BDF059AEE71639DD98BF711B2BA12.png" width="536.00" height="382.00" transform="matrix(1.09, 0.00, -0.00, -1.09, 21.5, 780.4)"></image></g></g><g><clipPath id="clip0x7fdf9b63f4b0"><path d="M 230.4 271.4 L 395.3 271.4 L 395.3 356.4 L 230.4 356.4 Z M 230.4 271.4 "></path></clipPath><g clip-path="url(#clip0x7fdf9b63f4b0)"><text xml:space="preserve" font-family="Helvetica-Light,Helvetica" font-size="50.0" fill="#000000" transform="matrix(1.00, 0.00, -0.00, -1.00, 243.4, 295.4)">M</text><text xml:space="preserve" font-family="Helvetica-Light,Helvetica" font-size="50.0" fill="#000000" transform="matrix(1.00, 0.00, -0.00, -1.00, 285.1, 295.4)">o</text><text xml:space="preserve" font-family="Helvetica-Light,Helvetica" font-size="50.0" fill="#000000" transform="matrix(1.00, 0.00, -0.00, -1.00, 312.9, 295.4)">m</text><text xml:space="preserve" font-family="Helvetica-Light,Helvetica" font-size="50.0" fill="#000000" transform="matrix(1.00, 0.00, -0.00, -1.00, 354.5, 295.4)">o</text></g></g><g><clipPath id="clip0x7fdf9b63e3d0"><path d="M 624.5 323.3 L 1277.7 323.3 L 1277.7 794.3 L 624.5 794.3 Z M 624.5 323.3 "></path></clipPath><g clip-path="url(#clip0x7fdf9b63e3d0)"><image xlink:href="../../6BDA7ABC-89FC-43A7-B98B-1205E86E0DB8/assets/3A254D6ADFC6126AAB6FEF21C2F0A5C8.png" width="653.00" height="471.00" transform="matrix(1.00, 0.00, -0.00, -1.00, 624.5, 794.3)" opacity="0.70"></image><image xlink:href="../../6BDA7ABC-89FC-43A7-B98B-1205E86E0DB8/assets/66AFB788F297E0166AEB22128303EDD7.png" width="545.00" height="383.00" transform="matrix(1.13, 0.00, -0.00, -1.13, 644.5, 784.3)"></image></g></g><g><clipPath id="clip0x7fdf9b5e7c70"><path d="M 875.6 267.5 L 1026.6 267.5 L 1026.6 352.5 L 875.6 352.5 Z M 875.6 267.5 "></path></clipPath><g clip-path="url(#clip0x7fdf9b5e7c70)"><text xml:space="preserve" font-family="Helvetica-Light,Helvetica" font-size="50.0" fill="#000000" transform="matrix(1.00, 0.00, -0.00, -1.00, 888.6, 291.5)">S</text><text xml:space="preserve" font-family="Helvetica-Light,Helvetica" font-size="50.0" fill="#000000" transform="matrix(1.00, 0.00, -0.00, -1.00, 919.1, 291.5)">k</text><text xml:space="preserve" font-family="Helvetica-Light,Helvetica" font-size="50.0" fill="#000000" transform="matrix(1.00, 0.00, -0.00, -1.00, 944.1, 291.5)">o</text><text xml:space="preserve" font-family="Helvetica-Light,Helvetica" font-size="50.0" fill="#000000" transform="matrix(1.00, 0.00, -0.00, -1.00, 971.9, 291.5)">u</text><text xml:space="preserve" font-family="Helvetica-Light,Helvetica" font-size="50.0" fill="#000000" transform="matrix(1.00, 0.00, -0.00, -1.00, 999.7, 291.5)">t</text></g></g><g><clipPath id="clip0x7fdf9b606cb0"><path d="M 1277.9 325.8 L 1922.5 325.8 L 1922.5 799.6 L 1277.9 799.6 Z M 1277.9 325.8 "></path></clipPath><g clip-path="url(#clip0x7fdf9b606cb0)"><image xlink:href="../../6BDA7ABC-89FC-43A7-B98B-1205E86E0DB8/assets/B51E586D6F7C460AE37340C73A728FFB.png" width="645.00" height="474.00" transform="matrix(1.00, 0.00, -0.00, -1.00, 1277.9, 799.6)" opacity="0.70"></image><image xlink:href="../../6BDA7ABC-89FC-43A7-B98B-1205E86E0DB8/assets/20A05B273F39FB252A3A098747354A2F.png" width="538.00" height="386.00" transform="matrix(1.12, 0.00, -0.00, -1.12, 1297.9, 789.6)"></image></g></g><g><clipPath id="clip0x7fdf9b5edc00"><path d="M 1502.9 271.4 L 1697.5 271.4 L 1697.5 356.4 L 1502.9 356.4 Z M 1502.9 271.4 "></path></clipPath><g clip-path="url(#clip0x7fdf9b5edc00)"><text xml:space="preserve" font-family="Helvetica-Light,Helvetica" font-size="50.0" fill="#000000" transform="matrix(1.00, 0.00, -0.00, -1.00, 1515.9, 295.4)">W</text><text xml:space="preserve" font-family="Helvetica-Light,Helvetica" font-size="50.0" fill="#000000" transform="matrix(1.00, 0.00, -0.00, -1.00, 1559.4, 295.4)">e</text><text xml:space="preserve" font-family="Helvetica-Light,Helvetica" font-size="50.0" fill="#000000" transform="matrix(1.00, 0.00, -0.00, -1.00, 1587.2, 295.4)">c</text><text xml:space="preserve" font-family="Helvetica-Light,Helvetica" font-size="50.0" fill="#000000" transform="matrix(1.00, 0.00, -0.00, -1.00, 1615.0, 295.4)">h</text><text xml:space="preserve" font-family="Helvetica-Light,Helvetica" font-size="50.0" fill="#000000" transform="matrix(1.00, 0.00, -0.00, -1.00, 1642.8, 295.4)">a</text><text xml:space="preserve" font-family="Helvetica-Light,Helvetica" font-size="50.0" fill="#000000" transform="matrix(1.00, 0.00, -0.00, -1.00, 1670.6, 295.4)">t</text></g></g><text xml:space="preserve" font-family="Helvetica-Bold,Helvetica" font-weight="bold" font-size="50.0" fill="#C82505" transform="matrix(1.00, 0.00, -0.00, -1.00, 367.6, 182.7)">S</text><text xml:space="preserve" font-family="Helvetica-Bold,Helvetica" font-weight="bold" font-size="50.0" fill="#C82505" transform="matrix(1.00, 0.00, -0.00, -1.00, 401.0, 182.7)">u</text><text xml:space="preserve" font-family="Helvetica-Bold,Helvetica" font-weight="bold" font-size="50.0" fill="#C82505" transform="matrix(1.00, 0.00, -0.00, -1.00, 431.5, 182.7)">c</text><text xml:space="preserve" font-family="Helvetica-Bold,Helvetica" font-weight="bold" font-size="50.0" fill="#C82505" transform="matrix(1.00, 0.00, -0.00, -1.00, 459.3, 182.7)">c</text><text xml:space="preserve" font-family="Helvetica-Bold,Helvetica" font-weight="bold" font-size="50.0" fill="#C82505" transform="matrix(1.00, 0.00, -0.00, -1.00, 487.1, 182.7)">e</text><text xml:space="preserve" font-family="Helvetica-Bold,Helvetica" font-weight="bold" font-size="50.0" fill="#C82505" transform="matrix(1.00, 0.00, -0.00, -1.00, 514.9, 182.7)">s</text><text xml:space="preserve" font-family="Helvetica-Bold,Helvetica" font-weight="bold" font-size="50.0" fill="#C82505" transform="matrix(1.00, 0.00, -0.00, -1.00, 542.7, 182.7)">s</text><text xml:space="preserve" font-family="Helvetica-Bold,Helvetica" font-weight="bold" font-size="50.0" fill="#C82505" transform="matrix(1.00, 0.00, -0.00, -1.00, 570.5, 182.7)">f</text><text xml:space="preserve" font-family="Helvetica-Bold,Helvetica" font-weight="bold" font-size="50.0" fill="#C82505" transform="matrix(1.00, 0.00, -0.00, -1.00, 587.2, 182.7)">u</text><text xml:space="preserve" font-family="Helvetica-Bold,Helvetica" font-weight="bold" font-size="50.0" fill="#C82505" transform="matrix(1.00, 0.00, -0.00, -1.00, 617.7, 182.7)">l</text><text xml:space="preserve" font-family="Helvetica-Bold,Helvetica" font-weight="bold" font-size="50.0" fill="#C82505" transform="matrix(1.00, 0.00, -0.00, -1.00, 631.6, 182.7)">l</text><text xml:space="preserve" font-family="Helvetica-Bold,Helvetica" font-weight="bold" font-size="50.0" fill="#C82505" transform="matrix(1.00, 0.00, -0.00, -1.00, 645.5, 182.7)">y</text><text xml:space="preserve" font-family="Helvetica-Bold,Helvetica" font-weight="bold" font-size="50.0" fill="#C82505" transform="matrix(1.00, 0.00, -0.00, -1.00, 687.2, 182.7)">b</text><text xml:space="preserve" font-family="Helvetica-Bold,Helvetica" font-weight="bold" font-size="50.0" fill="#C82505" transform="matrix(1.00, 0.00, -0.00, -1.00, 717.8, 182.7)">r</text><text xml:space="preserve" font-family="Helvetica-Bold,Helvetica" font-weight="bold" font-size="50.0" fill="#C82505" transform="matrix(1.00, 0.00, -0.00, -1.00, 737.2, 182.7)">e</text><text xml:space="preserve" font-family="Helvetica-Bold,Helvetica" font-weight="bold" font-size="50.0" fill="#C82505" transform="matrix(1.00, 0.00, -0.00, -1.00, 765.0, 182.7)">a</text><text xml:space="preserve" font-family="Helvetica-Bold,Helvetica" font-weight="bold" font-size="50.0" fill="#C82505" transform="matrix(1.00, 0.00, -0.00, -1.00, 792.8, 182.7)">c</text><text xml:space="preserve" font-family="Helvetica-Bold,Helvetica" font-weight="bold" font-size="50.0" fill="#C82505" transform="matrix(1.00, 0.00, -0.00, -1.00, 820.6, 182.7)">h</text><text xml:space="preserve" font-family="Helvetica-Bold,Helvetica" font-weight="bold" font-size="50.0" fill="#C82505" transform="matrix(1.00, 0.00, -0.00, -1.00, 851.2, 182.7)">e</text><text xml:space="preserve" font-family="Helvetica-Bold,Helvetica" font-weight="bold" font-size="50.0" fill="#C82505" transform="matrix(1.00, 0.00, -0.00, -1.00, 879.0, 182.7)">d</text><text xml:space="preserve" font-family="Helvetica-Bold,Helvetica" font-weight="bold" font-size="50.0" fill="#C82505" transform="matrix(1.00, 0.00, -0.00, -1.00, 923.4, 182.7)">t</text><text xml:space="preserve" font-family="Helvetica-Bold,Helvetica" font-weight="bold" font-size="50.0" fill="#C82505" transform="matrix(1.00, 0.00, -0.00, -1.00, 940.1, 182.7)">h</text><text xml:space="preserve" font-family="Helvetica-Bold,Helvetica" font-weight="bold" font-size="50.0" fill="#C82505" transform="matrix(1.00, 0.00, -0.00, -1.00, 970.6, 182.7)">e</text><text xml:space="preserve" font-family="Helvetica-Bold,Helvetica" font-weight="bold" font-size="50.0" fill="#C82505" transform="matrix(1.00, 0.00, -0.00, -1.00, 1012.3, 182.7)">p</text><text xml:space="preserve" font-family="Helvetica-Bold,Helvetica" font-weight="bold" font-size="50.0" fill="#C82505" transform="matrix(1.00, 0.00, -0.00, -1.00, 1042.9, 182.7)">r</text><text xml:space="preserve" font-family="Helvetica-Bold,Helvetica" font-weight="bold" font-size="50.0" fill="#C82505" transform="matrix(1.00, 0.00, -0.00, -1.00, 1062.3, 182.7)">o</text><text xml:space="preserve" font-family="Helvetica-Bold,Helvetica" font-weight="bold" font-size="50.0" fill="#C82505" transform="matrix(1.00, 0.00, -0.00, -1.00, 1092.9, 182.7)">t</text><text xml:space="preserve" font-family="Helvetica-Bold,Helvetica" font-weight="bold" font-size="50.0" fill="#C82505" transform="matrix(1.00, 0.00, -0.00, -1.00, 1109.5, 182.7)">e</text><text xml:space="preserve" font-family="Helvetica-Bold,Helvetica" font-weight="bold" font-size="50.0" fill="#C82505" transform="matrix(1.00, 0.00, -0.00, -1.00, 1137.3, 182.7)">c</text><text xml:space="preserve" font-family="Helvetica-Bold,Helvetica" font-weight="bold" font-size="50.0" fill="#C82505" transform="matrix(1.00, 0.00, -0.00, -1.00, 1165.1, 182.7)">t</text><text xml:space="preserve" font-family="Helvetica-Bold,Helvetica" font-weight="bold" font-size="50.0" fill="#C82505" transform="matrix(1.00, 0.00, -0.00, -1.00, 1181.8, 182.7)">i</text><text xml:space="preserve" font-family="Helvetica-Bold,Helvetica" font-weight="bold" font-size="50.0" fill="#C82505" transform="matrix(1.00, 0.00, -0.00, -1.00, 1195.7, 182.7)">o</text><text xml:space="preserve" font-family="Helvetica-Bold,Helvetica" font-weight="bold" font-size="50.0" fill="#C82505" transform="matrix(1.00, 0.00, -0.00, -1.00, 1226.2, 182.7)">n</text><text xml:space="preserve" font-family="Helvetica-Bold,Helvetica" font-weight="bold" font-size="50.0" fill="#C82505" transform="matrix(1.00, 0.00, -0.00, -1.00, 1270.6, 182.7)">t</text><text xml:space="preserve" font-family="Helvetica-Bold,Helvetica" font-weight="bold" font-size="50.0" fill="#C82505" transform="matrix(1.00, 0.00, -0.00, -1.00, 1287.3, 182.7)">e</text><text xml:space="preserve" font-family="Helvetica-Bold,Helvetica" font-weight="bold" font-size="50.0" fill="#C82505" transform="matrix(1.00, 0.00, -0.00, -1.00, 1315.1, 182.7)">c</text><text xml:space="preserve" font-family="Helvetica-Bold,Helvetica" font-weight="bold" font-size="50.0" fill="#C82505" transform="matrix(1.00, 0.00, -0.00, -1.00, 1342.9, 182.7)">h</text><text xml:space="preserve" font-family="Helvetica-Bold,Helvetica" font-weight="bold" font-size="50.0" fill="#C82505" transform="matrix(1.00, 0.00, -0.00, -1.00, 1373.5, 182.7)">n</text><text xml:space="preserve" font-family="Helvetica-Bold,Helvetica" font-weight="bold" font-size="50.0" fill="#C82505" transform="matrix(1.00, 0.00, -0.00, -1.00, 1404.0, 182.7)">i</text><text xml:space="preserve" font-family="Helvetica-Bold,Helvetica" font-weight="bold" font-size="50.0" fill="#C82505" transform="matrix(1.00, 0.00, -0.00, -1.00, 1417.9, 182.7)">q</text><text xml:space="preserve" font-family="Helvetica-Bold,Helvetica" font-weight="bold" font-size="50.0" fill="#C82505" transform="matrix(1.00, 0.00, -0.00, -1.00, 1448.4, 182.7)">u</text><text xml:space="preserve" font-family="Helvetica-Bold,Helvetica" font-weight="bold" font-size="50.0" fill="#C82505" transform="matrix(1.00, 0.00, -0.00, -1.00, 1479.0, 182.7)">e</text><text xml:space="preserve" font-family="Helvetica-Bold,Helvetica" font-weight="bold" font-size="50.0" fill="#C82505" transform="matrix(1.00, 0.00, -0.00, -1.00, 1506.8, 182.7)">s</text></g></svg>