<?xml version="1.0" encoding="UTF-8" standalone="no"?><svg xmlns="http://www.w3.org/2000/svg" xmlns:xlink="http://www.w3.org/1999/xlink" clip-rule="evenodd" stroke-miterlimit="10" viewBox="0 0 624 513"><desc>SVG generated by Keynote</desc><defs></defs><g transform="matrix(1.00, 0.00, -0.00, -1.00, 0.0, 513.0)"><g><clipPath id="clip0x7fdf9b430e10"><path d="M 0.5 57.0 L 623.3 57.0 L 623.3 512.4 L 0.5 512.4 Z M 0.5 57.0 "></path></clipPath><g clip-path="url(#clip0x7fdf9b430e10)"><image xlink:href="739799203AC02C2C02890AD241BD734B.png" width="623.00" height="455.00" transform="matrix(1.00, 0.00, -0.00, -1.00, 0.5, 512.4)" opacity="0.70"></image><image xlink:href="537BDF059AEE71639DD98BF711B2BA12.png" width="536.00" height="382.00" transform="matrix(1.09, 0.00, -0.00, -1.09, 20.5, 502.4)"></image></g></g><g><clipPath id="clip0x7fdf9ae84c60"><path d="M 229.4 -6.6 L 394.3 -6.6 L 394.3 78.4 L 229.4 78.4 Z M 229.4 -6.6 "></path></clipPath><g clip-path="url(#clip0x7fdf9ae84c60)"><text xml:space="preserve" font-family="Helvetica-Light,Helvetica" font-size="50.0" fill="#000000" transform="matrix(1.00, 0.00, -0.00, -1.00, 242.4, 17.4)">M</text><text xml:space="preserve" font-family="Helvetica-Light,Helvetica" font-size="50.0" fill="#000000" transform="matrix(1.00, 0.00, -0.00, -1.00, 284.1, 17.4)">o</text><text xml:space="preserve" font-family="Helvetica-Light,Helvetica" font-size="50.0" fill="#000000" transform="matrix(1.00, 0.00, -0.00, -1.00, 311.9, 17.4)">m</text><text xml:space="preserve" font-family="Helvetica-Light,Helvetica" font-size="50.0" fill="#000000" transform="matrix(1.00, 0.00, -0.00, -1.00, 353.5, 17.4)">o</text></g></g></g></svg>