<?xml version="1.0" encoding="UTF-8" standalone="no"?><svg xmlns="http://www.w3.org/2000/svg" xmlns:xlink="http://www.w3.org/1999/xlink" clip-rule="evenodd" stroke-miterlimit="10" viewBox="0 0 880 319"><desc>SVG generated by Keynote</desc><defs></defs><g transform="matrix(1.00, 0.00, -0.00, -1.00, 0.0, 319.0)"><g><clipPath id="clip0x7fdf9cdda420"><path d="M 1.4 1.0 L 878.6 1.0 L 878.6 318.0 L 1.4 318.0 Z M 1.4 1.0 "></path></clipPath><g clip-path="url(#clip0x7fdf9cdda420)"><g><g><clipPath id="clip0x7fdf9cdd8940"><path d="M 1.0 1.0 L 879.0 1.0 L 879.0 318.0 L 1.0 318.0 Z M 1.0 1.0 "></path></clipPath><g clip-path="url(#clip0x7fdf9cdd8940)"><path d="M -103.7 330.9 L 993.2 330.9 L 993.2 -86.9 L -103.7 -86.9 L -103.7 330.9 Z M -103.7 330.9 " fill="#FFFFFF"></path><path d="M 116.2 112.4 L 514.2 112.4 " fill="none" stroke="#22B7DB" stroke-width="2.80" transform="matrix(1.84, 0.00, 0.00, 1.84, -103.7, -87.4)"></path><path d="M 877.7 119.7 L 842.5 131.5 L 842.5 107.9 L 877.7 119.7 Z M 877.7 119.7 " fill="#22B7DB"></path><path d="M 116.2 56.9 L 513.6 56.9 " fill="none" stroke="#22B7DB" stroke-width="2.80" transform="matrix(1.84, 0.00, 0.00, 1.84, -103.7, -87.4)"></path><path d="M 876.6 17.4 L 841.4 29.2 L 841.4 5.6 L 876.6 17.4 Z M 876.6 17.4 " fill="#22B7DB"></path><path d="M 116.2 68.3 L 116.2 48.4 " fill="none" stroke="#00B7FF" stroke-width="2.83" stroke-linejoin="round" transform="matrix(1.84, 0.00, 0.00, 1.84, -103.7, -87.4)"></path><path d="M 144.6 68.3 L 144.6 48.4 " fill="none" stroke="#00B7FF" stroke-width="2.83" stroke-linejoin="round" transform="matrix(1.84, 0.00, 0.00, 1.84, -103.7, -87.4)"></path><path d="M 172.8 68.3 L 172.8 48.4 " fill="none" stroke="#00B7FF" stroke-width="2.83" stroke-linejoin="round" transform="matrix(1.84, 0.00, 0.00, 1.84, -103.7, -87.4)"></path><path d="M 201.6 68.3 L 201.6 48.4 " fill="none" stroke="#00B7FF" stroke-width="2.83" stroke-linejoin="round" transform="matrix(1.84, 0.00, 0.00, 1.84, -103.7, -87.4)"></path><path d="M 229.9 68.3 L 229.9 48.4 " fill="none" stroke="#00B7FF" stroke-width="2.83" stroke-linejoin="round" transform="matrix(1.84, 0.00, 0.00, 1.84, -103.7, -87.4)"></path><path d="M 258.2 68.3 L 258.2 48.4 " fill="none" stroke="#00B7FF" stroke-width="2.83" stroke-linejoin="round" transform="matrix(1.84, 0.00, 0.00, 1.84, -103.7, -87.4)"></path><path d="M 287.0 68.3 L 287.0 48.4 " fill="none" stroke="#00B7FF" stroke-width="2.83" stroke-linejoin="round" transform="matrix(1.84, 0.00, 0.00, 1.84, -103.7, -87.4)"></path><path d="M 314.4 68.3 L 314.4 48.4 " fill="none" stroke="#00B7FF" stroke-width="2.83" stroke-linejoin="round" transform="matrix(1.84, 0.00, 0.00, 1.84, -103.7, -87.4)"></path><path d="M 343.2 68.3 L 343.2 48.4 " fill="none" stroke="#00B7FF" stroke-width="2.83" stroke-linejoin="round" transform="matrix(1.84, 0.00, 0.00, 1.84, -103.7, -87.4)"></path><text xml:space="preserve" font-family="ArialMT,Arial" font-size="18.0" fill="#000000" transform="matrix(1.84, 0.00, -0.00, -1.84, 1.4, 11.7)">T</text><text xml:space="preserve" font-family="ArialMT,Arial" font-size="18.0" fill="#000000" transform="matrix(1.84, 0.00, -0.00, -1.84, 20.6, 11.7)">i</text><text xml:space="preserve" font-family="ArialMT,Arial" font-size="18.0" fill="#000000" transform="matrix(1.84, 0.00, -0.00, -1.84, 27.9, 11.7)">m</text><text xml:space="preserve" font-family="ArialMT,Arial" font-size="18.0" fill="#000000" transform="matrix(1.84, 0.00, -0.00, -1.84, 55.6, 11.7)">e</text><text xml:space="preserve" font-family="ArialMT,Arial" font-size="18.0" fill="#000000" transform="matrix(1.84, 0.00, -0.00, -1.84, 3.8, 283.5)">U</text><text xml:space="preserve" font-family="ArialMT,Arial" font-size="18.0" fill="#000000" transform="matrix(1.84, 0.00, -0.00, -1.84, 27.6, 283.5)">s</text><text xml:space="preserve" font-family="ArialMT,Arial" font-size="18.0" fill="#000000" transform="matrix(1.84, 0.00, -0.00, -1.84, 44.2, 283.5)">e</text><text xml:space="preserve" font-family="ArialMT,Arial" font-size="18.0" fill="#000000" transform="matrix(1.84, 0.00, -0.00, -1.84, 62.6, 283.5)">r</text><text xml:space="preserve" font-family="ArialMT,Arial" font-size="18.0" fill="#000000" transform="matrix(1.84, 0.00, -0.00, -1.84, 3.0, 112.7)">N</text><text xml:space="preserve" font-family="ArialMT,Arial" font-size="18.0" fill="#000000" transform="matrix(1.84, 0.00, -0.00, -1.84, 26.8, 112.7)">o</text><text xml:space="preserve" font-family="ArialMT,Arial" font-size="18.0" fill="#000000" transform="matrix(1.84, 0.00, -0.00, -1.84, 45.3, 112.7)">d</text><text xml:space="preserve" font-family="ArialMT,Arial" font-size="18.0" fill="#000000" transform="matrix(1.84, 0.00, -0.00, -1.84, 63.5, 112.7)">e</text><path d="M 173.1 207.0 L 173.5 174.7 " fill="none" stroke="#FF3366" stroke-width="2.80" transform="matrix(1.84, 0.00, 0.00, 1.84, -103.7, -87.4)"></path><path d="M 216.6 200.8 L 227.9 236.2 L 204.5 235.8 L 216.6 200.8 Z M 216.6 200.8 " fill="#FF3366"></path><text xml:space="preserve" font-family="Arial-Black,Arial Black" font-weight="bold" font-size="10.5" fill="#000000" transform="matrix(1.84, 0.00, -0.00, -1.84, 181.8, 303.1)">R</text><text xml:space="preserve" font-family="Arial-Black,Arial Black" font-weight="bold" font-size="10.5" fill="#000000" transform="matrix(1.84, 0.00, -0.00, -1.84, 196.4, 303.1)">e</text><text xml:space="preserve" font-family="Arial-Black,Arial Black" font-weight="bold" font-size="10.5" fill="#000000" transform="matrix(1.84, 0.00, -0.00, -1.84, 209.2, 303.1)">p</text><text xml:space="preserve" font-family="Arial-Black,Arial Black" font-weight="bold" font-size="10.5" fill="#000000" transform="matrix(1.84, 0.00, -0.00, -1.84, 222.0, 303.1)">o</text><text xml:space="preserve" font-family="Arial-Black,Arial Black" font-weight="bold" font-size="10.5" fill="#000000" transform="matrix(1.84, 0.00, -0.00, -1.84, 234.8, 303.1)">r</text><text xml:space="preserve" font-family="Arial-Black,Arial Black" font-weight="bold" font-size="10.5" fill="#000000" transform="matrix(1.84, 0.00, -0.00, -1.84, 244.2, 303.1)">t</text><text xml:space="preserve" font-family="Arial-Black,Arial Black" font-weight="bold" font-size="10.5" fill="#000000" transform="matrix(1.84, 0.00, -0.00, -1.84, 252.9, 303.1)"> </text><path d="M 147.0 131.7 C 145.1 131.7 143.5 129.8 143.5 128.0 L 143.5 113.4 C 143.5 111.6 145.1 109.7 147.0 109.7 L 252.0 109.7 C 253.9 109.7 255.7 111.6 255.7 113.4 L 255.7 128.0 C 255.7 129.8 253.9 131.7 252.0 131.7 L 147.0 131.7 Z M 147.0 131.7 " fill="#E5FF00"></path><path d="M 136.0 118.9 C 135.0 118.9 134.1 117.9 134.1 116.9 L 134.1 109.0 C 134.1 108.0 135.0 107.0 136.0 107.0 L 193.0 107.0 C 194.0 107.0 195.0 108.0 195.0 109.0 L 195.0 116.9 C 195.0 117.9 194.0 118.9 193.0 118.9 L 136.0 118.9 Z M 136.0 118.9 " fill="none" stroke="#7F7F7F" stroke-width="0.00" stroke-linejoin="round" transform="matrix(1.84, 0.00, 0.00, 1.84, -103.7, -87.4)"></path><path d="M 134.1 118.9 L 134.1 118.9 Z M 134.1 118.9 " fill="none" stroke="#7F7F7F" stroke-width="0.00" stroke-linejoin="round" transform="matrix(1.84, 0.00, 0.00, 1.84, -103.7, -87.4)"></path><path d="M 195.0 107.0 L 195.0 107.0 Z M 195.0 107.0 " fill="none" stroke="#7F7F7F" stroke-width="0.00" stroke-linejoin="round" transform="matrix(1.84, 0.00, 0.00, 1.84, -103.7, -87.4)"></path><text xml:space="preserve" font-family="Arial-Black,Arial Black" font-weight="bold" font-size="10.5" fill="#000000" transform="matrix(1.84, 0.00, -0.00, -1.84, 165.0, 115.8)">A</text><text xml:space="preserve" font-family="Arial-Black,Arial Black" font-weight="bold" font-size="10.5" fill="#000000" transform="matrix(1.84, 0.00, -0.00, -1.84, 180.0, 115.8)">t</text><text xml:space="preserve" font-family="Arial-Black,Arial Black" font-weight="bold" font-size="10.5" fill="#000000" transform="matrix(1.84, 0.00, -0.00, -1.84, 188.6, 115.8)">t</text><text xml:space="preserve" font-family="Arial-Black,Arial Black" font-weight="bold" font-size="10.5" fill="#000000" transform="matrix(1.84, 0.00, -0.00, -1.84, 197.2, 115.8)">a</text><text xml:space="preserve" font-family="Arial-Black,Arial Black" font-weight="bold" font-size="10.5" fill="#000000" transform="matrix(1.84, 0.00, -0.00, -1.84, 210.0, 115.8)">c</text><text xml:space="preserve" font-family="Arial-Black,Arial Black" font-weight="bold" font-size="10.5" fill="#000000" transform="matrix(1.84, 0.00, -0.00, -1.84, 222.7, 115.8)">k</text><text xml:space="preserve" font-family="ArialMT,Arial" font-size="18.0" fill="#000000" transform="matrix(1.84, 0.00, -0.00, -1.84, 3.0, 196.7)">S</text><text xml:space="preserve" font-family="ArialMT,Arial" font-size="18.0" fill="#000000" transform="matrix(1.84, 0.00, -0.00, -1.84, 25.0, 196.7)">e</text><text xml:space="preserve" font-family="ArialMT,Arial" font-size="18.0" fill="#000000" transform="matrix(1.84, 0.00, -0.00, -1.84, 43.4, 196.7)">r</text><text xml:space="preserve" font-family="ArialMT,Arial" font-size="18.0" fill="#000000" transform="matrix(1.84, 0.00, -0.00, -1.84, 54.5, 196.7)">v</text><text xml:space="preserve" font-family="ArialMT,Arial" font-size="18.0" fill="#000000" transform="matrix(1.84, 0.00, -0.00, -1.84, 71.1, 196.7)">e</text><text xml:space="preserve" font-family="ArialMT,Arial" font-size="18.0" fill="#000000" transform="matrix(1.84, 0.00, -0.00, -1.84, 89.5, 196.7)">r</text><path d="M 195.4 117.6 L 195.2 136.2 " fill="none" stroke="#5D10A5" stroke-width="2.80" transform="matrix(1.84, 0.00, 0.00, 1.84, -103.7, -87.4)"></path><path d="M 255.7 197.3 L 244.3 161.9 L 267.9 162.3 L 255.7 197.3 Z M 255.7 197.3 " fill="#5D10A5"></path><path d="M 116.2 156.7 L 514.2 156.7 " fill="none" stroke="#22B7DB" stroke-width="2.80" transform="matrix(1.84, 0.00, 0.00, 1.84, -103.7, -87.4)"></path><path d="M 877.7 201.3 L 842.5 213.1 L 842.5 189.7 L 877.7 201.3 Z M 877.7 201.3 " fill="#22B7DB"></path><path d="M 136.3 154.5 L 136.3 136.5 " fill="none" stroke="#6A0093" stroke-width="2.80" transform="matrix(1.84, 0.00, 0.00, 1.84, -103.7, -87.4)"></path><path d="M 147.5 130.6 L 159.3 165.8 L 135.7 165.8 L 147.5 130.6 Z M 147.5 130.6 " fill="#6A0093"></path><text xml:space="preserve" font-family="Arial-Black,Arial Black" font-weight="bold" font-size="10.5" fill="#000000" transform="matrix(1.84, 0.00, -0.00, -1.84, 157.1, 170.4)">A</text><text xml:space="preserve" font-family="Arial-Black,Arial Black" font-weight="bold" font-size="10.5" fill="#000000" transform="matrix(1.84, 0.00, -0.00, -1.84, 172.0, 170.4)">t</text><text xml:space="preserve" font-family="Arial-Black,Arial Black" font-weight="bold" font-size="10.5" fill="#000000" transform="matrix(1.84, 0.00, -0.00, -1.84, 180.7, 170.4)">t</text><text xml:space="preserve" font-family="Arial-Black,Arial Black" font-weight="bold" font-size="10.5" fill="#000000" transform="matrix(1.84, 0.00, -0.00, -1.84, 189.3, 170.4)">a</text><text xml:space="preserve" font-family="Arial-Black,Arial Black" font-weight="bold" font-size="10.5" fill="#000000" transform="matrix(1.84, 0.00, -0.00, -1.84, 202.2, 170.4)">c</text><text xml:space="preserve" font-family="Arial-Black,Arial Black" font-weight="bold" font-size="10.5" fill="#000000" transform="matrix(1.84, 0.00, -0.00, -1.84, 214.8, 170.4)">k</text><text xml:space="preserve" font-family="Arial-Black,Arial Black" font-weight="bold" font-size="10.5" fill="#000000" transform="matrix(1.84, 0.00, -0.00, -1.84, 271.7, 149.9)">C</text><text xml:space="preserve" font-family="Arial-Black,Arial Black" font-weight="bold" font-size="10.5" fill="#000000" transform="matrix(1.84, 0.00, -0.00, -1.84, 286.7, 149.9)">o</text><text xml:space="preserve" font-family="Arial-Black,Arial Black" font-weight="bold" font-size="10.5" fill="#000000" transform="matrix(1.84, 0.00, -0.00, -1.84, 299.5, 149.9)">m</text><text xml:space="preserve" font-family="Arial-Black,Arial Black" font-weight="bold" font-size="10.5" fill="#000000" transform="matrix(1.84, 0.00, -0.00, -1.84, 318.7, 149.9)">m</text><text xml:space="preserve" font-family="Arial-Black,Arial Black" font-weight="bold" font-size="10.5" fill="#000000" transform="matrix(1.84, 0.00, -0.00, -1.84, 338.1, 149.9)">i</text><text xml:space="preserve" font-family="Arial-Black,Arial Black" font-weight="bold" font-size="10.5" fill="#000000" transform="matrix(1.84, 0.00, -0.00, -1.84, 344.5, 149.9)">t</text><path d="M 370.2 68.3 L 370.2 48.4 " fill="none" stroke="#00B7FF" stroke-width="2.83" stroke-linejoin="round" transform="matrix(1.84, 0.00, 0.00, 1.84, -103.7, -87.4)"></path><path d="M 399.0 68.3 L 399.0 48.4 " fill="none" stroke="#00B7FF" stroke-width="2.83" stroke-linejoin="round" transform="matrix(1.84, 0.00, 0.00, 1.84, -103.7, -87.4)"></path><path d="M 426.4 68.3 L 426.4 48.4 " fill="none" stroke="#00B7FF" stroke-width="2.83" stroke-linejoin="round" transform="matrix(1.84, 0.00, 0.00, 1.84, -103.7, -87.4)"></path><path d="M 455.2 68.3 L 455.2 48.4 " fill="none" stroke="#00B7FF" stroke-width="2.83" stroke-linejoin="round" transform="matrix(1.84, 0.00, 0.00, 1.84, -103.7, -87.4)"></path><path d="M 482.0 68.3 L 482.0 48.4 " fill="none" stroke="#00B7FF" stroke-width="2.83" stroke-linejoin="round" transform="matrix(1.84, 0.00, 0.00, 1.84, -103.7, -87.4)"></path><path d="M 230.9 206.7 L 231.3 174.4 " fill="none" stroke="#FF3366" stroke-width="2.80" transform="matrix(1.84, 0.00, 0.00, 1.84, -103.7, -87.4)"></path><path d="M 323.0 200.2 L 334.4 235.6 L 310.8 235.4 L 323.0 200.2 Z M 323.0 200.2 " fill="#FF3366"></path><text xml:space="preserve" font-family="Arial-Black,Arial Black" font-weight="bold" font-size="10.5" fill="#000000" transform="matrix(1.84, 0.00, -0.00, -1.84, 293.5, 303.1)">R</text><text xml:space="preserve" font-family="Arial-Black,Arial Black" font-weight="bold" font-size="10.5" fill="#000000" transform="matrix(1.84, 0.00, -0.00, -1.84, 308.0, 303.1)">e</text><text xml:space="preserve" font-family="Arial-Black,Arial Black" font-weight="bold" font-size="10.5" fill="#000000" transform="matrix(1.84, 0.00, -0.00, -1.84, 320.9, 303.1)">p</text><text xml:space="preserve" font-family="Arial-Black,Arial Black" font-weight="bold" font-size="10.5" fill="#000000" transform="matrix(1.84, 0.00, -0.00, -1.84, 333.6, 303.1)">o</text><text xml:space="preserve" font-family="Arial-Black,Arial Black" font-weight="bold" font-size="10.5" fill="#000000" transform="matrix(1.84, 0.00, -0.00, -1.84, 346.5, 303.1)">r</text><text xml:space="preserve" font-family="Arial-Black,Arial Black" font-weight="bold" font-size="10.5" fill="#000000" transform="matrix(1.84, 0.00, -0.00, -1.84, 356.1, 303.1)">t</text><text xml:space="preserve" font-family="Arial-Black,Arial Black" font-weight="bold" font-size="10.5" fill="#000000" transform="matrix(1.84, 0.00, -0.00, -1.84, 364.7, 303.1)"> </text><path d="M 287.5 207.7 L 287.9 175.4 " fill="none" stroke="#FF3366" stroke-width="2.80" transform="matrix(1.84, 0.00, 0.00, 1.84, -103.7, -87.4)"></path><path d="M 427.3 202.1 L 438.7 237.5 L 415.1 237.1 L 427.3 202.1 Z M 427.3 202.1 " fill="#FF3366"></path><path d="M 116.2 207.2 L 514.2 207.2 " fill="none" stroke="#22B7DB" stroke-width="2.80" transform="matrix(1.84, 0.00, 0.00, 1.84, -103.7, -87.4)"></path><path d="M 877.7 294.4 L 842.5 306.0 L 842.5 282.6 L 877.7 294.4 Z M 877.7 294.4 " fill="#22B7DB"></path><path d="M 343.7 207.7 L 344.1 175.4 " fill="none" stroke="#FF3366" stroke-width="2.80" transform="matrix(1.84, 0.00, 0.00, 1.84, -103.7, -87.4)"></path><path d="M 531.0 202.1 L 542.3 237.5 L 518.7 237.1 L 531.0 202.1 Z M 531.0 202.1 " fill="#FF3366"></path><path d="M 399.3 206.4 L 399.7 174.1 " fill="none" stroke="#FF3366" stroke-width="2.80" transform="matrix(1.84, 0.00, 0.00, 1.84, -103.7, -87.4)"></path><path d="M 633.5 199.7 L 644.7 235.1 L 621.3 234.9 L 633.5 199.7 Z M 633.5 199.7 " fill="#FF3366"></path><path d="M 455.6 205.2 L 456.0 172.9 " fill="none" stroke="#FF3366" stroke-width="2.80" transform="matrix(1.84, 0.00, 0.00, 1.84, -103.7, -87.4)"></path><path d="M 737.1 197.5 L 748.5 232.8 L 724.9 232.5 L 737.1 197.5 Z M 737.1 197.5 " fill="#FF3366"></path><text xml:space="preserve" font-family="Arial-Black,Arial Black" font-weight="bold" font-size="10.5" fill="#000000" transform="matrix(1.84, 0.00, -0.00, -1.84, 392.6, 303.1)">R</text><text xml:space="preserve" font-family="Arial-Black,Arial Black" font-weight="bold" font-size="10.5" fill="#000000" transform="matrix(1.84, 0.00, -0.00, -1.84, 407.2, 303.1)">e</text><text xml:space="preserve" font-family="Arial-Black,Arial Black" font-weight="bold" font-size="10.5" fill="#000000" transform="matrix(1.84, 0.00, -0.00, -1.84, 419.9, 303.1)">p</text><text xml:space="preserve" font-family="Arial-Black,Arial Black" font-weight="bold" font-size="10.5" fill="#000000" transform="matrix(1.84, 0.00, -0.00, -1.84, 432.8, 303.1)">o</text><text xml:space="preserve" font-family="Arial-Black,Arial Black" font-weight="bold" font-size="10.5" fill="#000000" transform="matrix(1.84, 0.00, -0.00, -1.84, 445.7, 303.1)">r</text><text xml:space="preserve" font-family="Arial-Black,Arial Black" font-weight="bold" font-size="10.5" fill="#000000" transform="matrix(1.84, 0.00, -0.00, -1.84, 455.1, 303.1)">t</text><text xml:space="preserve" font-family="Arial-Black,Arial Black" font-weight="bold" font-size="10.5" fill="#000000" transform="matrix(1.84, 0.00, -0.00, -1.84, 463.7, 303.1)"> </text><text xml:space="preserve" font-family="Arial-Black,Arial Black" font-weight="bold" font-size="10.5" fill="#000000" transform="matrix(1.84, 0.00, -0.00, -1.84, 494.0, 303.1)">R</text><text xml:space="preserve" font-family="Arial-Black,Arial Black" font-weight="bold" font-size="10.5" fill="#000000" transform="matrix(1.84, 0.00, -0.00, -1.84, 508.5, 303.1)">e</text><text xml:space="preserve" font-family="Arial-Black,Arial Black" font-weight="bold" font-size="10.5" fill="#000000" transform="matrix(1.84, 0.00, -0.00, -1.84, 521.3, 303.1)">p</text><text xml:space="preserve" font-family="Arial-Black,Arial Black" font-weight="bold" font-size="10.5" fill="#000000" transform="matrix(1.84, 0.00, -0.00, -1.84, 534.1, 303.1)">o</text><text xml:space="preserve" font-family="Arial-Black,Arial Black" font-weight="bold" font-size="10.5" fill="#000000" transform="matrix(1.84, 0.00, -0.00, -1.84, 547.0, 303.1)">r</text><text xml:space="preserve" font-family="Arial-Black,Arial Black" font-weight="bold" font-size="10.5" fill="#000000" transform="matrix(1.84, 0.00, -0.00, -1.84, 556.4, 303.1)">t</text><text xml:space="preserve" font-family="Arial-Black,Arial Black" font-weight="bold" font-size="10.5" fill="#000000" transform="matrix(1.84, 0.00, -0.00, -1.84, 565.1, 303.1)"> </text><text xml:space="preserve" font-family="Arial-Black,Arial Black" font-weight="bold" font-size="10.5" fill="#000000" transform="matrix(1.84, 0.00, -0.00, -1.84, 588.4, 303.1)">R</text><text xml:space="preserve" font-family="Arial-Black,Arial Black" font-weight="bold" font-size="10.5" fill="#000000" transform="matrix(1.84, 0.00, -0.00, -1.84, 602.9, 303.1)">e</text><text xml:space="preserve" font-family="Arial-Black,Arial Black" font-weight="bold" font-size="10.5" fill="#000000" transform="matrix(1.84, 0.00, -0.00, -1.84, 615.8, 303.1)">p</text><text xml:space="preserve" font-family="Arial-Black,Arial Black" font-weight="bold" font-size="10.5" fill="#000000" transform="matrix(1.84, 0.00, -0.00, -1.84, 628.5, 303.1)">o</text><text xml:space="preserve" font-family="Arial-Black,Arial Black" font-weight="bold" font-size="10.5" fill="#000000" transform="matrix(1.84, 0.00, -0.00, -1.84, 641.4, 303.1)">r</text><text xml:space="preserve" font-family="Arial-Black,Arial Black" font-weight="bold" font-size="10.5" fill="#000000" transform="matrix(1.84, 0.00, -0.00, -1.84, 650.9, 303.1)">t</text><text xml:space="preserve" font-family="Arial-Black,Arial Black" font-weight="bold" font-size="10.5" fill="#000000" transform="matrix(1.84, 0.00, -0.00, -1.84, 659.4, 303.1)"> </text><text xml:space="preserve" font-family="Arial-Black,Arial Black" font-weight="bold" font-size="10.5" fill="#000000" transform="matrix(1.84, 0.00, -0.00, -1.84, 693.2, 303.1)">R</text><text xml:space="preserve" font-family="Arial-Black,Arial Black" font-weight="bold" font-size="10.5" fill="#000000" transform="matrix(1.84, 0.00, -0.00, -1.84, 707.8, 303.1)">e</text><text xml:space="preserve" font-family="Arial-Black,Arial Black" font-weight="bold" font-size="10.5" fill="#000000" transform="matrix(1.84, 0.00, -0.00, -1.84, 720.6, 303.1)">p</text><text xml:space="preserve" font-family="Arial-Black,Arial Black" font-weight="bold" font-size="10.5" fill="#000000" transform="matrix(1.84, 0.00, -0.00, -1.84, 733.4, 303.1)">o</text><text xml:space="preserve" font-family="Arial-Black,Arial Black" font-weight="bold" font-size="10.5" fill="#000000" transform="matrix(1.84, 0.00, -0.00, -1.84, 746.3, 303.1)">r</text><text xml:space="preserve" font-family="Arial-Black,Arial Black" font-weight="bold" font-size="10.5" fill="#000000" transform="matrix(1.84, 0.00, -0.00, -1.84, 755.6, 303.1)">t</text><text xml:space="preserve" font-family="Arial-Black,Arial Black" font-weight="bold" font-size="10.5" fill="#000000" transform="matrix(1.84, 0.00, -0.00, -1.84, 764.3, 303.1)"> </text><path d="M 488.7 134.1 C 487.0 134.1 485.2 132.2 485.2 130.4 L 485.2 115.6 C 485.2 113.8 487.0 112.1 488.7 112.1 L 593.7 112.1 C 595.5 112.1 597.4 113.8 597.4 115.6 L 597.4 130.4 C 597.4 132.2 595.5 134.1 593.7 134.1 L 488.7 134.1 Z M 488.7 134.1 " fill="#E5FF00"></path><path d="M 321.4 120.2 C 320.5 120.2 319.5 119.2 319.5 118.2 L 319.5 110.2 C 319.5 109.2 320.5 108.3 321.4 108.3 L 378.4 108.3 C 379.4 108.3 380.4 109.2 380.4 110.2 L 380.4 118.2 C 380.4 119.2 379.4 120.2 378.4 120.2 L 321.4 120.2 Z M 321.4 120.2 " fill="none" stroke="#7F7F7F" stroke-width="0.00" stroke-linejoin="round" transform="matrix(1.84, 0.00, 0.00, 1.84, -103.7, -87.4)"></path><path d="M 319.5 120.2 L 319.5 120.2 Z M 319.5 120.2 " fill="none" stroke="#7F7F7F" stroke-width="0.00" stroke-linejoin="round" transform="matrix(1.84, 0.00, 0.00, 1.84, -103.7, -87.4)"></path><path d="M 380.4 108.3 L 380.4 108.3 Z M 380.4 108.3 " fill="none" stroke="#7F7F7F" stroke-width="0.00" stroke-linejoin="round" transform="matrix(1.84, 0.00, 0.00, 1.84, -103.7, -87.4)"></path><text xml:space="preserve" font-family="Arial-Black,Arial Black" font-weight="bold" font-size="10.5" fill="#000000" transform="matrix(1.84, 0.00, -0.00, -1.84, 506.7, 118.0)">A</text><text xml:space="preserve" font-family="Arial-Black,Arial Black" font-weight="bold" font-size="10.5" fill="#000000" transform="matrix(1.84, 0.00, -0.00, -1.84, 521.6, 118.0)">t</text><text xml:space="preserve" font-family="Arial-Black,Arial Black" font-weight="bold" font-size="10.5" fill="#000000" transform="matrix(1.84, 0.00, -0.00, -1.84, 530.3, 118.0)">t</text><text xml:space="preserve" font-family="Arial-Black,Arial Black" font-weight="bold" font-size="10.5" fill="#000000" transform="matrix(1.84, 0.00, -0.00, -1.84, 538.9, 118.0)">a</text><text xml:space="preserve" font-family="Arial-Black,Arial Black" font-weight="bold" font-size="10.5" fill="#000000" transform="matrix(1.84, 0.00, -0.00, -1.84, 551.8, 118.0)">c</text><text xml:space="preserve" font-family="Arial-Black,Arial Black" font-weight="bold" font-size="10.5" fill="#000000" transform="matrix(1.84, 0.00, -0.00, -1.84, 564.3, 118.0)">k</text><path d="M 380.8 118.9 L 380.6 137.5 " fill="none" stroke="#5D10A5" stroke-width="2.80" transform="matrix(1.84, 0.00, 0.00, 1.84, -103.7, -87.4)"></path><path d="M 597.4 199.7 L 586.0 164.1 L 609.5 164.5 L 597.4 199.7 Z M 597.4 199.7 " fill="#5D10A5"></path><path d="M 321.7 155.8 L 321.7 137.8 " fill="none" stroke="#6A0093" stroke-width="2.80" transform="matrix(1.84, 0.00, 0.00, 1.84, -103.7, -87.4)"></path><path d="M 489.2 132.8 L 501.0 168.0 L 477.4 168.0 L 489.2 132.8 Z M 489.2 132.8 " fill="#6A0093"></path><text xml:space="preserve" font-family="Arial-Black,Arial Black" font-weight="bold" font-size="10.5" fill="#000000" transform="matrix(1.84, 0.00, -0.00, -1.84, 498.8, 172.6)">A</text><text xml:space="preserve" font-family="Arial-Black,Arial Black" font-weight="bold" font-size="10.5" fill="#000000" transform="matrix(1.84, 0.00, -0.00, -1.84, 513.9, 172.6)">t</text><text xml:space="preserve" font-family="Arial-Black,Arial Black" font-weight="bold" font-size="10.5" fill="#000000" transform="matrix(1.84, 0.00, -0.00, -1.84, 522.4, 172.6)">t</text><text xml:space="preserve" font-family="Arial-Black,Arial Black" font-weight="bold" font-size="10.5" fill="#000000" transform="matrix(1.84, 0.00, -0.00, -1.84, 531.0, 172.6)">a</text><text xml:space="preserve" font-family="Arial-Black,Arial Black" font-weight="bold" font-size="10.5" fill="#000000" transform="matrix(1.84, 0.00, -0.00, -1.84, 543.9, 172.6)">c</text><text xml:space="preserve" font-family="Arial-Black,Arial Black" font-weight="bold" font-size="10.5" fill="#000000" transform="matrix(1.84, 0.00, -0.00, -1.84, 556.4, 172.6)">k</text><text xml:space="preserve" font-family="Arial-Black,Arial Black" font-weight="bold" font-size="10.5" fill="#000000" transform="matrix(1.84, 0.00, -0.00, -1.84, 612.3, 151.8)">C</text><text xml:space="preserve" font-family="Arial-Black,Arial Black" font-weight="bold" font-size="10.5" fill="#000000" transform="matrix(1.84, 0.00, -0.00, -1.84, 627.4, 151.8)">o</text><text xml:space="preserve" font-family="Arial-Black,Arial Black" font-weight="bold" font-size="10.5" fill="#000000" transform="matrix(1.84, 0.00, -0.00, -1.84, 640.1, 151.8)">m</text><text xml:space="preserve" font-family="Arial-Black,Arial Black" font-weight="bold" font-size="10.5" fill="#000000" transform="matrix(1.84, 0.00, -0.00, -1.84, 659.5, 151.8)">m</text><text xml:space="preserve" font-family="Arial-Black,Arial Black" font-weight="bold" font-size="10.5" fill="#000000" transform="matrix(1.84, 0.00, -0.00, -1.84, 678.6, 151.8)">i</text><text xml:space="preserve" font-family="Arial-Black,Arial Black" font-weight="bold" font-size="10.5" fill="#000000" transform="matrix(1.84, 0.00, -0.00, -1.84, 685.1, 151.8)">t</text><path d="M 262.2 132.4 C 260.3 132.4 258.5 130.6 258.5 128.7 L 258.5 114.0 C 258.5 112.1 260.3 110.3 262.2 110.3 L 481.3 110.3 C 483.1 110.3 485.0 112.1 485.0 114.0 L 485.0 128.7 C 485.0 130.6 483.1 132.4 481.3 132.4 L 262.2 132.4 Z M 262.2 132.4 " fill="#E5E5FF"></path><path d="M 198.5 119.3 C 197.5 119.3 196.5 118.3 196.5 117.3 L 196.5 109.3 C 196.5 108.3 197.5 107.3 198.5 107.3 L 317.4 107.3 C 318.4 107.3 319.4 108.3 319.4 109.3 L 319.4 117.3 C 319.4 118.3 318.4 119.3 317.4 119.3 L 198.5 119.3 Z M 198.5 119.3 " fill="none" stroke="#7F7F7F" stroke-width="0.00" stroke-linejoin="round" transform="matrix(1.84, 0.00, 0.00, 1.84, -103.7, -87.4)"></path><path d="M 196.5 119.3 L 196.5 119.3 Z M 196.5 119.3 " fill="none" stroke="#7F7F7F" stroke-width="0.00" stroke-linejoin="round" transform="matrix(1.84, 0.00, 0.00, 1.84, -103.7, -87.4)"></path><path d="M 319.4 107.3 L 319.4 107.3 Z M 319.4 107.3 " fill="none" stroke="#7F7F7F" stroke-width="0.00" stroke-linejoin="round" transform="matrix(1.84, 0.00, 0.00, 1.84, -103.7, -87.4)"></path><text xml:space="preserve" font-family="Arial-Black,Arial Black" font-weight="bold" font-size="10.5" fill="#000000" transform="matrix(1.84, 0.00, -0.00, -1.84, 352.5, 114.0)">I</text><text xml:space="preserve" font-family="Arial-Black,Arial Black" font-weight="bold" font-size="10.5" fill="#000000" transform="matrix(1.84, 0.00, -0.00, -1.84, 359.8, 114.0)">d</text><text xml:space="preserve" font-family="Arial-Black,Arial Black" font-weight="bold" font-size="10.5" fill="#000000" transform="matrix(1.84, 0.00, -0.00, -1.84, 372.7, 114.0)">l</text><text xml:space="preserve" font-family="Arial-Black,Arial Black" font-weight="bold" font-size="10.5" fill="#000000" transform="matrix(1.84, 0.00, -0.00, -1.84, 379.2, 114.0)">e</text><path d="M 603.1 132.4 C 601.3 132.4 599.4 130.6 599.4 128.7 L 599.4 114.0 C 599.4 112.1 601.3 110.3 603.1 110.3 L 822.2 110.3 C 824.1 110.3 825.9 112.1 825.9 114.0 L 825.9 128.7 C 825.9 130.6 824.1 132.4 822.2 132.4 L 603.1 132.4 Z M 603.1 132.4 " fill="#E5E5FF"></path><path d="M 383.5 119.3 C 382.5 119.3 381.5 118.3 381.5 117.3 L 381.5 109.3 C 381.5 108.3 382.5 107.3 383.5 107.3 L 502.4 107.3 C 503.4 107.3 504.4 108.3 504.4 109.3 L 504.4 117.3 C 504.4 118.3 503.4 119.3 502.4 119.3 L 383.5 119.3 Z M 383.5 119.3 " fill="none" stroke="#7F7F7F" stroke-width="0.00" stroke-linejoin="round" transform="matrix(1.84, 0.00, 0.00, 1.84, -103.7, -87.4)"></path><path d="M 381.5 119.3 L 381.5 119.3 Z M 381.5 119.3 " fill="none" stroke="#7F7F7F" stroke-width="0.00" stroke-linejoin="round" transform="matrix(1.84, 0.00, 0.00, 1.84, -103.7, -87.4)"></path><path d="M 504.4 107.3 L 504.4 107.3 Z M 504.4 107.3 " fill="none" stroke="#7F7F7F" stroke-width="0.00" stroke-linejoin="round" transform="matrix(1.84, 0.00, 0.00, 1.84, -103.7, -87.4)"></path><text xml:space="preserve" font-family="Arial-Black,Arial Black" font-weight="bold" font-size="10.5" fill="#000000" transform="matrix(1.84, 0.00, -0.00, -1.84, 685.3, 117.5)">I</text><text xml:space="preserve" font-family="Arial-Black,Arial Black" font-weight="bold" font-size="10.5" fill="#000000" transform="matrix(1.84, 0.00, -0.00, -1.84, 692.8, 117.5)">d</text><text xml:space="preserve" font-family="Arial-Black,Arial Black" font-weight="bold" font-size="10.5" fill="#000000" transform="matrix(1.84, 0.00, -0.00, -1.84, 705.5, 117.5)">l</text><text xml:space="preserve" font-family="Arial-Black,Arial Black" font-weight="bold" font-size="10.5" fill="#000000" transform="matrix(1.84, 0.00, -0.00, -1.84, 712.0, 117.5)">e</text><path d="M 215.4 213.5 C 221.2 213.5 225.9 208.9 225.9 203.2 C 225.9 197.3 221.2 192.9 215.4 192.9 C 209.6 192.9 205.0 197.3 205.0 203.2 C 205.0 208.9 209.6 213.5 215.4 213.5 Z M 215.4 213.5 " fill="#22FF22"></path><path d="M 173.1 163.3 C 176.3 163.3 178.8 160.8 178.8 157.7 C 178.8 154.5 176.3 152.1 173.1 152.1 C 170.0 152.1 167.5 154.5 167.5 157.7 C 167.5 160.8 170.0 163.3 173.1 163.3 Z M 173.1 163.3 " fill="none" stroke="#7F7F7F" stroke-width="0.00" stroke-linejoin="round" transform="matrix(1.84, 0.00, 0.00, 1.84, -103.7, -87.4)"></path><path d="M 167.5 163.3 L 167.5 163.3 Z M 167.5 163.3 " fill="none" stroke="#7F7F7F" stroke-width="0.00" stroke-linejoin="round" transform="matrix(1.84, 0.00, 0.00, 1.84, -103.7, -87.4)"></path><path d="M 178.8 152.0 L 178.8 152.0 Z M 178.8 152.0 " fill="none" stroke="#7F7F7F" stroke-width="0.00" stroke-linejoin="round" transform="matrix(1.84, 0.00, 0.00, 1.84, -103.7, -87.4)"></path><path d="M 254.6 213.5 C 260.3 213.5 264.9 208.9 264.9 203.2 C 264.9 197.3 260.3 192.9 254.6 192.9 C 248.7 192.9 244.3 197.3 244.3 203.2 C 244.3 208.9 248.7 213.5 254.6 213.5 Z M 254.6 213.5 " fill="#22FF22"></path><path d="M 194.4 163.3 C 197.5 163.3 200.0 160.8 200.0 157.7 C 200.0 154.5 197.5 152.1 194.4 152.1 C 191.2 152.1 188.8 154.5 188.8 157.7 C 188.8 160.8 191.2 163.3 194.4 163.3 Z M 194.4 163.3 " fill="none" stroke="#7F7F7F" stroke-width="0.00" stroke-linejoin="round" transform="matrix(1.84, 0.00, 0.00, 1.84, -103.7, -87.4)"></path><path d="M 188.8 163.3 L 188.8 163.3 Z M 188.8 163.3 " fill="none" stroke="#7F7F7F" stroke-width="0.00" stroke-linejoin="round" transform="matrix(1.84, 0.00, 0.00, 1.84, -103.7, -87.4)"></path><path d="M 200.0 152.0 L 200.0 152.0 Z M 200.0 152.0 " fill="none" stroke="#7F7F7F" stroke-width="0.00" stroke-linejoin="round" transform="matrix(1.84, 0.00, 0.00, 1.84, -103.7, -87.4)"></path><path d="M 595.5 213.5 C 601.4 213.5 605.9 208.9 605.9 203.2 C 605.9 197.3 601.4 192.9 595.5 192.9 C 589.6 192.9 585.2 197.3 585.2 203.2 C 585.2 208.9 589.6 213.5 595.5 213.5 Z M 595.5 213.5 " fill="#FFFF00"></path><path d="M 379.4 163.3 C 382.6 163.3 385.0 160.8 385.0 157.7 C 385.0 154.5 382.6 152.1 379.4 152.1 C 376.2 152.1 373.8 154.5 373.8 157.7 C 373.8 160.8 376.2 163.3 379.4 163.3 Z M 379.4 163.3 " fill="none" stroke="#7F7F7F" stroke-width="0.00" stroke-linejoin="round" transform="matrix(1.84, 0.00, 0.00, 1.84, -103.7, -87.4)"></path><path d="M 373.8 163.3 L 373.8 163.3 Z M 373.8 163.3 " fill="none" stroke="#7F7F7F" stroke-width="0.00" stroke-linejoin="round" transform="matrix(1.84, 0.00, 0.00, 1.84, -103.7, -87.4)"></path><path d="M 385.0 152.0 L 385.0 152.0 Z M 385.0 152.0 " fill="none" stroke="#7F7F7F" stroke-width="0.00" stroke-linejoin="round" transform="matrix(1.84, 0.00, 0.00, 1.84, -103.7, -87.4)"></path><path d="M 631.1 213.5 C 637.0 213.5 641.6 208.9 641.6 203.2 C 641.6 197.3 637.0 192.9 631.1 192.9 C 625.4 192.9 620.8 197.3 620.8 203.2 C 620.8 208.9 625.4 213.5 631.1 213.5 Z M 631.1 213.5 " fill="#E5FF00"></path><path d="M 398.7 163.3 C 401.9 163.3 404.4 160.8 404.4 157.7 C 404.4 154.5 401.9 152.1 398.7 152.1 C 395.6 152.1 393.1 154.5 393.1 157.7 C 393.1 160.8 395.6 163.3 398.7 163.3 Z M 398.7 163.3 " fill="none" stroke="#7F7F7F" stroke-width="0.00" stroke-linejoin="round" transform="matrix(1.84, 0.00, 0.00, 1.84, -103.7, -87.4)"></path><path d="M 393.1 163.3 L 393.1 163.3 Z M 393.1 163.3 " fill="none" stroke="#7F7F7F" stroke-width="0.00" stroke-linejoin="round" transform="matrix(1.84, 0.00, 0.00, 1.84, -103.7, -87.4)"></path><path d="M 404.4 152.0 L 404.4 152.0 Z M 404.4 152.0 " fill="none" stroke="#7F7F7F" stroke-width="0.00" stroke-linejoin="round" transform="matrix(1.84, 0.00, 0.00, 1.84, -103.7, -87.4)"></path></g></g></g></g></g></g></svg>