<?xml version="1.0" encoding="UTF-8" standalone="no"?><svg xmlns="http://www.w3.org/2000/svg" xmlns:xlink="http://www.w3.org/1999/xlink" clip-rule="evenodd" stroke-miterlimit="10" viewBox="0 0 1643 96"><desc>SVG generated by Keynote</desc><defs></defs><g transform="matrix(1.00, 0.00, -0.00, -1.00, 0.0, 96.0)"><text xml:space="preserve" font-family="Helvetica-Light,Helvetica" font-size="97.4" fill="#000000" transform="matrix(1.00, 0.00, -0.00, -1.00, -3.0, 22.4)">S</text><text xml:space="preserve" font-family="Helvetica-Light,Helvetica" font-size="97.4" fill="#000000" transform="matrix(1.00, 0.00, -0.00, -1.00, 56.5, 22.4)">t</text><text xml:space="preserve" font-family="Helvetica-Light,Helvetica" font-size="97.4" fill="#000000" transform="matrix(1.00, 0.00, -0.00, -1.00, 83.6, 22.4)">r</text><text xml:space="preserve" font-family="Helvetica-Light,Helvetica" font-size="97.4" fill="#000000" transform="matrix(1.00, 0.00, -0.00, -1.00, 116.1, 22.4)">a</text><text xml:space="preserve" font-family="Helvetica-Light,Helvetica" font-size="97.4" fill="#000000" transform="matrix(1.00, 0.00, -0.00, -1.00, 170.2, 22.4)">t</text><text xml:space="preserve" font-family="Helvetica-Light,Helvetica" font-size="97.4" fill="#000000" transform="matrix(1.00, 0.00, -0.00, -1.00, 197.3, 22.4)">e</text><text xml:space="preserve" font-family="Helvetica-Light,Helvetica" font-size="97.4" fill="#000000" transform="matrix(1.00, 0.00, -0.00, -1.00, 251.5, 22.4)">g</text><text xml:space="preserve" font-family="Helvetica-Light,Helvetica" font-size="97.4" fill="#000000" transform="matrix(1.00, 0.00, -0.00, -1.00, 311.0, 22.4)">y</text><text xml:space="preserve" font-family="Helvetica-Light,Helvetica" font-size="97.4" fill="#000000" transform="matrix(1.00, 0.00, -0.00, -1.00, 359.8, 22.4)"> </text><text xml:space="preserve" font-family="Helvetica-Light,Helvetica" font-size="97.4" fill="#000000" transform="matrix(1.00, 0.00, -0.00, -1.00, 384.1, 22.4)">3</text><text xml:space="preserve" font-family="Helvetica-Light,Helvetica" font-size="97.4" fill="#000000" transform="matrix(1.00, 0.00, -0.00, -1.00, 438.3, 22.4)">:</text><text xml:space="preserve" font-family="Helvetica-Light,Helvetica" font-size="97.4" fill="#000000" transform="matrix(1.00, 0.00, -0.00, -1.00, 465.4, 22.4)"> </text><text xml:space="preserve" font-family="Helvetica-Light,Helvetica" font-size="97.4" fill="#000000" transform="matrix(1.00, 0.00, -0.00, -1.00, 489.7, 22.4)">L</text><text xml:space="preserve" font-family="Helvetica-Light,Helvetica" font-size="97.4" fill="#000000" transform="matrix(1.00, 0.00, -0.00, -1.00, 543.9, 22.4)">o</text><text xml:space="preserve" font-family="Helvetica-Light,Helvetica" font-size="97.4" fill="#000000" transform="matrix(1.00, 0.00, -0.00, -1.00, 598.0, 22.4)">c</text><text xml:space="preserve" font-family="Helvetica-Light,Helvetica" font-size="97.4" fill="#000000" transform="matrix(1.00, 0.00, -0.00, -1.00, 652.2, 22.4)">a</text><text xml:space="preserve" font-family="Helvetica-Light,Helvetica" font-size="97.4" fill="#000000" transform="matrix(1.00, 0.00, -0.00, -1.00, 706.4, 22.4)">l</text><text xml:space="preserve" font-family="Helvetica-Light,Helvetica" font-size="97.4" fill="#000000" transform="matrix(1.00, 0.00, -0.00, -1.00, 728.0, 22.4)">i</text><text xml:space="preserve" font-family="Helvetica-Light,Helvetica" font-size="97.4" fill="#000000" transform="matrix(1.00, 0.00, -0.00, -1.00, 749.6, 22.4)">z</text><text xml:space="preserve" font-family="Helvetica-Light,Helvetica" font-size="97.4" fill="#000000" transform="matrix(1.00, 0.00, -0.00, -1.00, 798.4, 22.4)">a</text><text xml:space="preserve" font-family="Helvetica-Light,Helvetica" font-size="97.4" fill="#000000" transform="matrix(1.00, 0.00, -0.00, -1.00, 852.5, 22.4)">t</text><text xml:space="preserve" font-family="Helvetica-Light,Helvetica" font-size="97.4" fill="#000000" transform="matrix(1.00, 0.00, -0.00, -1.00, 879.6, 22.4)">i</text><text xml:space="preserve" font-family="Helvetica-Light,Helvetica" font-size="97.4" fill="#000000" transform="matrix(1.00, 0.00, -0.00, -1.00, 901.3, 22.4)">o</text><text xml:space="preserve" font-family="Helvetica-Light,Helvetica" font-size="97.4" fill="#000000" transform="matrix(1.00, 0.00, -0.00, -1.00, 955.4, 22.4)">n</text><text xml:space="preserve" font-family="Helvetica-Light,Helvetica" font-size="97.4" fill="#000000" transform="matrix(1.00, 0.00, -0.00, -1.00, 1009.6, 22.4)"> </text><text xml:space="preserve" font-family="Helvetica-Light,Helvetica" font-size="97.4" fill="#000000" transform="matrix(1.00, 0.00, -0.00, -1.00, 1033.9, 22.4)">c</text><text xml:space="preserve" font-family="Helvetica-Light,Helvetica" font-size="97.4" fill="#000000" transform="matrix(1.00, 0.00, -0.00, -1.00, 1088.1, 22.4)">o</text><text xml:space="preserve" font-family="Helvetica-Light,Helvetica" font-size="97.4" fill="#000000" transform="matrix(1.00, 0.00, -0.00, -1.00, 1142.3, 22.4)">v</text><text xml:space="preserve" font-family="Helvetica-Light,Helvetica" font-size="97.4" fill="#000000" transform="matrix(1.00, 0.00, -0.00, -1.00, 1191.0, 22.4)">e</text><text xml:space="preserve" font-family="Helvetica-Light,Helvetica" font-size="97.4" fill="#000000" transform="matrix(1.00, 0.00, -0.00, -1.00, 1245.2, 22.4)">r</text><text xml:space="preserve" font-family="Helvetica-Light,Helvetica" font-size="97.4" fill="#000000" transform="matrix(1.00, 0.00, -0.00, -1.00, 1277.6, 22.4)">a</text><text xml:space="preserve" font-family="Helvetica-Light,Helvetica" font-size="97.4" fill="#000000" transform="matrix(1.00, 0.00, -0.00, -1.00, 1331.8, 22.4)">g</text><text xml:space="preserve" font-family="Helvetica-Light,Helvetica" font-size="97.4" fill="#000000" transform="matrix(1.00, 0.00, -0.00, -1.00, 1391.3, 22.4)">e</text><text xml:space="preserve" font-family="Helvetica-Light,Helvetica" font-size="97.4" fill="#000000" transform="matrix(1.00, 0.00, -0.00, -1.00, 1445.5, 22.4)"> </text><text xml:space="preserve" font-family="Helvetica-Light,Helvetica" font-size="97.4" fill="#000000" transform="matrix(1.00, 0.00, -0.00, -1.00, 1469.8, 22.4)">l</text><text xml:space="preserve" font-family="Helvetica-Light,Helvetica" font-size="97.4" fill="#000000" transform="matrix(1.00, 0.00, -0.00, -1.00, 1491.5, 22.4)">i</text><text xml:space="preserve" font-family="Helvetica-Light,Helvetica" font-size="97.4" fill="#000000" transform="matrix(1.00, 0.00, -0.00, -1.00, 1513.1, 22.4)">m</text><text xml:space="preserve" font-family="Helvetica-Light,Helvetica" font-size="97.4" fill="#000000" transform="matrix(1.00, 0.00, -0.00, -1.00, 1594.3, 22.4)">i</text><text xml:space="preserve" font-family="Helvetica-Light,Helvetica" font-size="97.4" fill="#000000" transform="matrix(1.00, 0.00, -0.00, -1.00, 1615.9, 22.4)">t</text></g></svg>