<?xml version="1.0" encoding="UTF-8" standalone="no"?><svg xmlns="http://www.w3.org/2000/svg" xmlns:xlink="http://www.w3.org/1999/xlink" clip-rule="evenodd" stroke-miterlimit="10" viewBox="0 0 1801 97"><desc>SVG generated by Keynote</desc><defs></defs><g transform="matrix(1.00, 0.00, -0.00, -1.00, 0.0, 97.0)"><text xml:space="preserve" font-family="Helvetica-Light,Helvetica" font-size="100.8" fill="#000000" transform="matrix(1.00, 0.00, -0.00, -1.00, -7.0, 21.2)">L</text><text xml:space="preserve" font-family="Helvetica-Light,Helvetica" font-size="100.8" fill="#000000" transform="matrix(1.00, 0.00, -0.00, -1.00, 49.0, 21.2)">o</text><text xml:space="preserve" font-family="Helvetica-Light,Helvetica" font-size="100.8" fill="#000000" transform="matrix(1.00, 0.00, -0.00, -1.00, 105.1, 21.2)">c</text><text xml:space="preserve" font-family="Helvetica-Light,Helvetica" font-size="100.8" fill="#000000" transform="matrix(1.00, 0.00, -0.00, -1.00, 161.1, 21.2)">a</text><text xml:space="preserve" font-family="Helvetica-Light,Helvetica" font-size="100.8" fill="#000000" transform="matrix(1.00, 0.00, -0.00, -1.00, 217.2, 21.2)">t</text><text xml:space="preserve" font-family="Helvetica-Light,Helvetica" font-size="100.8" fill="#000000" transform="matrix(1.00, 0.00, -0.00, -1.00, 245.2, 21.2)">i</text><text xml:space="preserve" font-family="Helvetica-Light,Helvetica" font-size="100.8" fill="#000000" transform="matrix(1.00, 0.00, -0.00, -1.00, 267.6, 21.2)">o</text><text xml:space="preserve" font-family="Helvetica-Light,Helvetica" font-size="100.8" fill="#000000" transform="matrix(1.00, 0.00, -0.00, -1.00, 323.6, 21.2)">n</text><text xml:space="preserve" font-family="Helvetica-Light,Helvetica" font-size="100.8" fill="#000000" transform="matrix(1.00, 0.00, -0.00, -1.00, 379.7, 21.2)"> </text><text xml:space="preserve" font-family="Helvetica-Light,Helvetica" font-size="100.8" fill="#000000" transform="matrix(1.00, 0.00, -0.00, -1.00, 404.1, 21.2)">b</text><text xml:space="preserve" font-family="Helvetica-Light,Helvetica" font-size="100.8" fill="#000000" transform="matrix(1.00, 0.00, -0.00, -1.00, 465.7, 21.2)">a</text><text xml:space="preserve" font-family="Helvetica-Light,Helvetica" font-size="100.8" fill="#000000" transform="matrix(1.00, 0.00, -0.00, -1.00, 521.8, 21.2)">s</text><text xml:space="preserve" font-family="Helvetica-Light,Helvetica" font-size="100.8" fill="#000000" transform="matrix(1.00, 0.00, -0.00, -1.00, 572.2, 21.2)">e</text><text xml:space="preserve" font-family="Helvetica-Light,Helvetica" font-size="100.8" fill="#000000" transform="matrix(1.00, 0.00, -0.00, -1.00, 628.2, 21.2)">d</text><text xml:space="preserve" font-family="Helvetica-Light,Helvetica" font-size="100.8" fill="#000000" transform="matrix(1.00, 0.00, -0.00, -1.00, 689.8, 21.2)"> </text><text xml:space="preserve" font-family="Helvetica-Light,Helvetica" font-size="100.8" fill="#000000" transform="matrix(1.00, 0.00, -0.00, -1.00, 714.3, 21.2)">s</text><text xml:space="preserve" font-family="Helvetica-Light,Helvetica" font-size="100.8" fill="#000000" transform="matrix(1.00, 0.00, -0.00, -1.00, 764.7, 21.2)">o</text><text xml:space="preserve" font-family="Helvetica-Light,Helvetica" font-size="100.8" fill="#000000" transform="matrix(1.00, 0.00, -0.00, -1.00, 820.7, 21.2)">c</text><text xml:space="preserve" font-family="Helvetica-Light,Helvetica" font-size="100.8" fill="#000000" transform="matrix(1.00, 0.00, -0.00, -1.00, 876.8, 21.2)">i</text><text xml:space="preserve" font-family="Helvetica-Light,Helvetica" font-size="100.8" fill="#000000" transform="matrix(1.00, 0.00, -0.00, -1.00, 899.2, 21.2)">a</text><text xml:space="preserve" font-family="Helvetica-Light,Helvetica" font-size="100.8" fill="#000000" transform="matrix(1.00, 0.00, -0.00, -1.00, 955.2, 21.2)">l</text><text xml:space="preserve" font-family="Helvetica-Light,Helvetica" font-size="100.8" fill="#000000" transform="matrix(1.00, 0.00, -0.00, -1.00, 977.6, 21.2)"> </text><text xml:space="preserve" font-family="Helvetica-Light,Helvetica" font-size="100.8" fill="#000000" transform="matrix(1.00, 0.00, -0.00, -1.00, 1002.0, 21.2)">n</text><text xml:space="preserve" font-family="Helvetica-Light,Helvetica" font-size="100.8" fill="#000000" transform="matrix(1.00, 0.00, -0.00, -1.00, 1058.1, 21.2)">e</text><text xml:space="preserve" font-family="Helvetica-Light,Helvetica" font-size="100.8" fill="#000000" transform="matrix(1.00, 0.00, -0.00, -1.00, 1114.1, 21.2)">t</text><text xml:space="preserve" font-family="Helvetica-Light,Helvetica" font-size="100.8" fill="#000000" transform="matrix(1.00, 0.00, -0.00, -1.00, 1142.2, 21.2)">w</text><text xml:space="preserve" font-family="Helvetica-Light,Helvetica" font-size="100.8" fill="#000000" transform="matrix(1.00, 0.00, -0.00, -1.00, 1214.9, 21.2)">o</text><text xml:space="preserve" font-family="Helvetica-Light,Helvetica" font-size="100.8" fill="#000000" transform="matrix(1.00, 0.00, -0.00, -1.00, 1271.0, 21.2)">r</text><text xml:space="preserve" font-family="Helvetica-Light,Helvetica" font-size="100.8" fill="#000000" transform="matrix(1.00, 0.00, -0.00, -1.00, 1304.5, 21.2)">k</text><text xml:space="preserve" font-family="Helvetica-Light,Helvetica" font-size="100.8" fill="#000000" transform="matrix(1.00, 0.00, -0.00, -1.00, 1354.9, 21.2)">s</text><text xml:space="preserve" font-family="Helvetica-Light,Helvetica" font-size="100.8" fill="#000000" transform="matrix(1.00, 0.00, -0.00, -1.00, 1405.3, 21.2)"> </text><text xml:space="preserve" font-family="Helvetica-Light,Helvetica" font-size="100.8" fill="#000000" transform="matrix(1.00, 0.00, -0.00, -1.00, 1429.8, 21.2)">(</text><text xml:space="preserve" font-family="Helvetica-Light,Helvetica" font-size="100.8" fill="#000000" transform="matrix(1.00, 0.00, -0.00, -1.00, 1463.4, 21.2)">L</text><text xml:space="preserve" font-family="Helvetica-Light,Helvetica" font-size="100.8" fill="#000000" transform="matrix(1.00, 0.00, -0.00, -1.00, 1519.4, 21.2)">B</text><text xml:space="preserve" font-family="Helvetica-Light,Helvetica" font-size="100.8" fill="#000000" transform="matrix(1.00, 0.00, -0.00, -1.00, 1586.7, 21.2)">S</text><text xml:space="preserve" font-family="Helvetica-Light,Helvetica" font-size="100.8" fill="#000000" transform="matrix(1.00, 0.00, -0.00, -1.00, 1648.3, 21.2)">N</text><text xml:space="preserve" font-family="Helvetica-Light,Helvetica" font-size="100.8" fill="#000000" transform="matrix(1.00, 0.00, -0.00, -1.00, 1721.0, 21.2)">s</text><text xml:space="preserve" font-family="Helvetica-Light,Helvetica" font-size="100.8" fill="#000000" transform="matrix(1.00, 0.00, -0.00, -1.00, 1771.4, 21.2)">)</text></g></svg>