<?xml version="1.0" encoding="UTF-8" standalone="no"?><svg xmlns="http://www.w3.org/2000/svg" xmlns:xlink="http://www.w3.org/1999/xlink" clip-rule="evenodd" stroke-miterlimit="10" viewBox="0 0 1920 1080"><desc>SVG generated by Keynote</desc><defs></defs><g transform="matrix(1.00, 0.00, -0.00, -1.00, 0.0, 1080.0)"><path d="M 0.0 1080.0 L 1920.0 1080.0 L 1920.0 0.0 L 0.0 0.0 Z M 0.0 1080.0 " fill="#FEFFFE"></path><text xml:space="preserve" font-family="Helvetica-Light,Helvetica" font-size="106.4" fill="#000000" transform="matrix(1.00, 0.00, -0.00, -1.00, 137.0, 875.5)">S</text><text xml:space="preserve" font-family="Helvetica-Light,Helvetica" font-size="106.4" fill="#000000" transform="matrix(1.00, 0.00, -0.00, -1.00, 201.9, 875.5)">t</text><text xml:space="preserve" font-family="Helvetica-Light,Helvetica" font-size="106.4" fill="#000000" transform="matrix(1.00, 0.00, -0.00, -1.00, 231.4, 875.5)">r</text><text xml:space="preserve" font-family="Helvetica-Light,Helvetica" font-size="106.4" fill="#000000" transform="matrix(1.00, 0.00, -0.00, -1.00, 266.7, 875.5)">a</text><text xml:space="preserve" font-family="Helvetica-Light,Helvetica" font-size="106.4" fill="#000000" transform="matrix(1.00, 0.00, -0.00, -1.00, 325.8, 875.5)">t</text><text xml:space="preserve" font-family="Helvetica-Light,Helvetica" font-size="106.4" fill="#000000" transform="matrix(1.00, 0.00, -0.00, -1.00, 355.2, 875.5)">e</text><text xml:space="preserve" font-family="Helvetica-Light,Helvetica" font-size="106.4" fill="#000000" transform="matrix(1.00, 0.00, -0.00, -1.00, 414.3, 875.5)">g</text><text xml:space="preserve" font-family="Helvetica-Light,Helvetica" font-size="106.4" fill="#000000" transform="matrix(1.00, 0.00, -0.00, -1.00, 479.2, 875.5)">y</text><text xml:space="preserve" font-family="Helvetica-Light,Helvetica" font-size="106.4" fill="#000000" transform="matrix(1.00, 0.00, -0.00, -1.00, 532.4, 875.5)"> </text><text xml:space="preserve" font-family="Helvetica-Light,Helvetica" font-size="106.4" fill="#000000" transform="matrix(1.00, 0.00, -0.00, -1.00, 557.3, 875.5)">2</text><text xml:space="preserve" font-family="Helvetica-Light,Helvetica" font-size="106.4" fill="#000000" transform="matrix(1.00, 0.00, -0.00, -1.00, 616.4, 875.5)">:</text><text xml:space="preserve" font-family="Helvetica-Light,Helvetica" font-size="106.4" fill="#000000" transform="matrix(1.00, 0.00, -0.00, -1.00, 646.0, 875.5)"> </text><text xml:space="preserve" font-family="Helvetica-Light,Helvetica" font-size="106.4" fill="#000000" transform="matrix(1.00, 0.00, -0.00, -1.00, 670.9, 875.5)">M</text><text xml:space="preserve" font-family="Helvetica-Light,Helvetica" font-size="106.4" fill="#000000" transform="matrix(1.00, 0.00, -0.00, -1.00, 759.4, 875.5)">i</text><text xml:space="preserve" font-family="Helvetica-Light,Helvetica" font-size="106.4" fill="#000000" transform="matrix(1.00, 0.00, -0.00, -1.00, 783.0, 875.5)">n</text><text xml:space="preserve" font-family="Helvetica-Light,Helvetica" font-size="106.4" fill="#000000" transform="matrix(1.00, 0.00, -0.00, -1.00, 842.0, 875.5)">i</text><text xml:space="preserve" font-family="Helvetica-Light,Helvetica" font-size="106.4" fill="#000000" transform="matrix(1.00, 0.00, -0.00, -1.00, 865.5, 875.5)">m</text><text xml:space="preserve" font-family="Helvetica-Light,Helvetica" font-size="106.4" fill="#000000" transform="matrix(1.00, 0.00, -0.00, -1.00, 954.0, 875.5)">u</text><text xml:space="preserve" font-family="Helvetica-Light,Helvetica" font-size="106.4" fill="#000000" transform="matrix(1.00, 0.00, -0.00, -1.00, 1013.1, 875.5)">m</text><text xml:space="preserve" font-family="Helvetica-Light,Helvetica" font-size="106.4" fill="#000000" transform="matrix(1.00, 0.00, -0.00, -1.00, 1101.7, 875.5)"> </text><text xml:space="preserve" font-family="Helvetica-Light,Helvetica" font-size="106.4" fill="#000000" transform="matrix(1.00, 0.00, -0.00, -1.00, 1126.7, 875.5)">a</text><text xml:space="preserve" font-family="Helvetica-Light,Helvetica" font-size="106.4" fill="#000000" transform="matrix(1.00, 0.00, -0.00, -1.00, 1185.7, 875.5)">c</text><text xml:space="preserve" font-family="Helvetica-Light,Helvetica" font-size="106.4" fill="#000000" transform="matrix(1.00, 0.00, -0.00, -1.00, 1244.8, 875.5)">c</text><text xml:space="preserve" font-family="Helvetica-Light,Helvetica" font-size="106.4" fill="#000000" transform="matrix(1.00, 0.00, -0.00, -1.00, 1303.8, 875.5)">u</text><text xml:space="preserve" font-family="Helvetica-Light,Helvetica" font-size="106.4" fill="#000000" transform="matrix(1.00, 0.00, -0.00, -1.00, 1362.9, 875.5)">r</text><text xml:space="preserve" font-family="Helvetica-Light,Helvetica" font-size="106.4" fill="#000000" transform="matrix(1.00, 0.00, -0.00, -1.00, 1398.2, 875.5)">a</text><text xml:space="preserve" font-family="Helvetica-Light,Helvetica" font-size="106.4" fill="#000000" transform="matrix(1.00, 0.00, -0.00, -1.00, 1457.3, 875.5)">c</text><text xml:space="preserve" font-family="Helvetica-Light,Helvetica" font-size="106.4" fill="#000000" transform="matrix(1.00, 0.00, -0.00, -1.00, 1516.3, 875.5)">y</text><text xml:space="preserve" font-family="Helvetica-Light,Helvetica" font-size="106.4" fill="#000000" transform="matrix(1.00, 0.00, -0.00, -1.00, 1569.5, 875.5)"> </text><text xml:space="preserve" font-family="Helvetica-Light,Helvetica" font-size="106.4" fill="#000000" transform="matrix(1.00, 0.00, -0.00, -1.00, 1594.5, 875.5)">l</text><text xml:space="preserve" font-family="Helvetica-Light,Helvetica" font-size="106.4" fill="#000000" transform="matrix(1.00, 0.00, -0.00, -1.00, 1618.0, 875.5)">i</text><text xml:space="preserve" font-family="Helvetica-Light,Helvetica" font-size="106.4" fill="#000000" transform="matrix(1.00, 0.00, -0.00, -1.00, 1641.5, 875.5)">m</text><text xml:space="preserve" font-family="Helvetica-Light,Helvetica" font-size="106.4" fill="#000000" transform="matrix(1.00, 0.00, -0.00, -1.00, 1730.0, 875.5)">i</text><text xml:space="preserve" font-family="Helvetica-Light,Helvetica" font-size="106.4" fill="#000000" transform="matrix(1.00, 0.00, -0.00, -1.00, 1753.5, 875.5)">t</text><text xml:space="preserve" font-family="Helvetica-Light,Helvetica" font-size="39.0" fill="#000000" transform="matrix(1.00, 0.00, -0.00, -1.00, 35.0, 478.5)">•</text><text xml:space="preserve" font-family="Helvetica-Light,Helvetica" font-size="52.0" fill="#000000" transform="matrix(1.00, 0.00, -0.00, -1.00, 79.0, 474.0)">M</text><text xml:space="preserve" font-family="Helvetica-Light,Helvetica" font-size="52.0" fill="#000000" transform="matrix(1.00, 0.00, -0.00, -1.00, 122.3, 474.0)">i</text><text xml:space="preserve" font-family="Helvetica-Light,Helvetica" font-size="52.0" fill="#000000" transform="matrix(1.00, 0.00, -0.00, -1.00, 133.9, 474.0)">n</text><text xml:space="preserve" font-family="Helvetica-Light,Helvetica" font-size="52.0" fill="#000000" transform="matrix(1.00, 0.00, -0.00, -1.00, 162.8, 474.0)">i</text><text xml:space="preserve" font-family="Helvetica-Light,Helvetica" font-size="52.0" fill="#000000" transform="matrix(1.00, 0.00, -0.00, -1.00, 174.3, 474.0)">m</text><text xml:space="preserve" font-family="Helvetica-Light,Helvetica" font-size="52.0" fill="#000000" transform="matrix(1.00, 0.00, -0.00, -1.00, 217.6, 474.0)">u</text><text xml:space="preserve" font-family="Helvetica-Light,Helvetica" font-size="52.0" fill="#000000" transform="matrix(1.00, 0.00, -0.00, -1.00, 246.5, 474.0)">m</text><text xml:space="preserve" font-family="Helvetica-Light,Helvetica" font-size="52.0" fill="#000000" transform="matrix(1.00, 0.00, -0.00, -1.00, 304.3, 474.0)">a</text><text xml:space="preserve" font-family="Helvetica-Light,Helvetica" font-size="52.0" fill="#000000" transform="matrix(1.00, 0.00, -0.00, -1.00, 333.2, 474.0)">c</text><text xml:space="preserve" font-family="Helvetica-Light,Helvetica" font-size="52.0" fill="#000000" transform="matrix(1.00, 0.00, -0.00, -1.00, 362.1, 474.0)">c</text><text xml:space="preserve" font-family="Helvetica-Light,Helvetica" font-size="52.0" fill="#000000" transform="matrix(1.00, 0.00, -0.00, -1.00, 391.1, 474.0)">u</text><text xml:space="preserve" font-family="Helvetica-Light,Helvetica" font-size="52.0" fill="#000000" transform="matrix(1.00, 0.00, -0.00, -1.00, 420.0, 474.0)">r</text><text xml:space="preserve" font-family="Helvetica-Light,Helvetica" font-size="52.0" fill="#000000" transform="matrix(1.00, 0.00, -0.00, -1.00, 437.3, 474.0)">a</text><text xml:space="preserve" font-family="Helvetica-Light,Helvetica" font-size="52.0" fill="#000000" transform="matrix(1.00, 0.00, -0.00, -1.00, 466.2, 474.0)">c</text><text xml:space="preserve" font-family="Helvetica-Light,Helvetica" font-size="52.0" fill="#000000" transform="matrix(1.00, 0.00, -0.00, -1.00, 495.1, 474.0)">y</text><text xml:space="preserve" font-family="Helvetica-Light,Helvetica" font-size="52.0" fill="#000000" transform="matrix(1.00, 0.00, -0.00, -1.00, 535.6, 474.0)">l</text><text xml:space="preserve" font-family="Helvetica-Light,Helvetica" font-size="52.0" fill="#000000" transform="matrix(1.00, 0.00, -0.00, -1.00, 547.1, 474.0)">i</text><text xml:space="preserve" font-family="Helvetica-Light,Helvetica" font-size="52.0" fill="#000000" transform="matrix(1.00, 0.00, -0.00, -1.00, 558.6, 474.0)">m</text><text xml:space="preserve" font-family="Helvetica-Light,Helvetica" font-size="52.0" fill="#000000" transform="matrix(1.00, 0.00, -0.00, -1.00, 602.0, 474.0)">i</text><text xml:space="preserve" font-family="Helvetica-Light,Helvetica" font-size="52.0" fill="#000000" transform="matrix(1.00, 0.00, -0.00, -1.00, 613.5, 474.0)">t</text><text xml:space="preserve" font-family="Helvetica-Light,Helvetica" font-size="52.0" fill="#000000" transform="matrix(1.00, 0.00, -0.00, -1.00, 628.0, 474.0)">:</text><text xml:space="preserve" font-family="Helvetica-Light,Helvetica" font-size="52.0" fill="#000000" transform="matrix(1.00, 0.00, -0.00, -1.00, 656.9, 474.0)">S</text><text xml:space="preserve" font-family="Helvetica-Light,Helvetica" font-size="52.0" fill="#000000" transform="matrix(1.00, 0.00, -0.00, -1.00, 688.6, 474.0)">k</text><text xml:space="preserve" font-family="Helvetica-Light,Helvetica" font-size="52.0" fill="#000000" transform="matrix(1.00, 0.00, -0.00, -1.00, 714.6, 474.0)">o</text><text xml:space="preserve" font-family="Helvetica-Light,Helvetica" font-size="52.0" fill="#000000" transform="matrix(1.00, 0.00, -0.00, -1.00, 743.6, 474.0)">u</text><text xml:space="preserve" font-family="Helvetica-Light,Helvetica" font-size="52.0" fill="#000000" transform="matrix(1.00, 0.00, -0.00, -1.00, 772.5, 474.0)">t</text><text xml:space="preserve" font-family="Helvetica-Light,Helvetica" font-size="39.0" fill="#000000" transform="matrix(1.00, 0.00, -0.00, -1.00, 79.0, 371.5)">•</text><text xml:space="preserve" font-family="Helvetica-Light,Helvetica" font-size="52.0" fill="#000000" transform="matrix(1.00, 0.00, -0.00, -1.00, 123.0, 367.0)">W</text><text xml:space="preserve" font-family="Helvetica-Light,Helvetica" font-size="52.0" fill="#000000" transform="matrix(1.00, 0.00, -0.00, -1.00, 169.2, 367.0)">h</text><text xml:space="preserve" font-family="Helvetica-Light,Helvetica" font-size="52.0" fill="#000000" transform="matrix(1.00, 0.00, -0.00, -1.00, 198.1, 367.0)">e</text><text xml:space="preserve" font-family="Helvetica-Light,Helvetica" font-size="52.0" fill="#000000" transform="matrix(1.00, 0.00, -0.00, -1.00, 227.1, 367.0)">n</text><text xml:space="preserve" font-family="Helvetica-Light,Helvetica" font-size="52.0" fill="#000000" transform="matrix(1.00, 0.00, -0.00, -1.00, 270.4, 367.0)">r</text><text xml:space="preserve" font-family="Helvetica-Light,Helvetica" font-size="52.0" fill="#000000" transform="matrix(1.00, 0.00, -0.00, -1.00, 286.8, 367.0)">e</text><text xml:space="preserve" font-family="Helvetica-Light,Helvetica" font-size="52.0" fill="#000000" transform="matrix(1.00, 0.00, -0.00, -1.00, 315.7, 367.0)">l</text><text xml:space="preserve" font-family="Helvetica-Light,Helvetica" font-size="52.0" fill="#000000" transform="matrix(1.00, 0.00, -0.00, -1.00, 327.3, 367.0)">a</text><text xml:space="preserve" font-family="Helvetica-Light,Helvetica" font-size="52.0" fill="#000000" transform="matrix(1.00, 0.00, -0.00, -1.00, 356.2, 367.0)">t</text><text xml:space="preserve" font-family="Helvetica-Light,Helvetica" font-size="52.0" fill="#000000" transform="matrix(1.00, 0.00, -0.00, -1.00, 370.6, 367.0)">i</text><text xml:space="preserve" font-family="Helvetica-Light,Helvetica" font-size="52.0" fill="#000000" transform="matrix(1.00, 0.00, -0.00, -1.00, 382.2, 367.0)">v</text><text xml:space="preserve" font-family="Helvetica-Light,Helvetica" font-size="52.0" fill="#000000" transform="matrix(1.00, 0.00, -0.00, -1.00, 408.2, 367.0)">e</text><text xml:space="preserve" font-family="Helvetica-Light,Helvetica" font-size="52.0" fill="#000000" transform="matrix(1.00, 0.00, -0.00, -1.00, 451.5, 367.0)">d</text><text xml:space="preserve" font-family="Helvetica-Light,Helvetica" font-size="52.0" fill="#000000" transform="matrix(1.00, 0.00, -0.00, -1.00, 483.3, 367.0)">i</text><text xml:space="preserve" font-family="Helvetica-Light,Helvetica" font-size="52.0" fill="#000000" transform="matrix(1.00, 0.00, -0.00, -1.00, 494.9, 367.0)">s</text><text xml:space="preserve" font-family="Helvetica-Light,Helvetica" font-size="52.0" fill="#000000" transform="matrix(1.00, 0.00, -0.00, -1.00, 520.9, 367.0)">t</text><text xml:space="preserve" font-family="Helvetica-Light,Helvetica" font-size="52.0" fill="#000000" transform="matrix(1.00, 0.00, -0.00, -1.00, 535.3, 367.0)">a</text><text xml:space="preserve" font-family="Helvetica-Light,Helvetica" font-size="52.0" fill="#000000" transform="matrix(1.00, 0.00, -0.00, -1.00, 564.2, 367.0)">n</text><text xml:space="preserve" font-family="Helvetica-Light,Helvetica" font-size="52.0" fill="#000000" transform="matrix(1.00, 0.00, -0.00, -1.00, 593.1, 367.0)">c</text><text xml:space="preserve" font-family="Helvetica-Light,Helvetica" font-size="52.0" fill="#000000" transform="matrix(1.00, 0.00, -0.00, -1.00, 622.0, 367.0)">e</text><text xml:space="preserve" font-family="Helvetica-Light,Helvetica" font-size="52.0" fill="#000000" transform="matrix(1.00, 0.00, -0.00, -1.00, 665.4, 367.0)">i</text><text xml:space="preserve" font-family="Helvetica-Light,Helvetica" font-size="52.0" fill="#000000" transform="matrix(1.00, 0.00, -0.00, -1.00, 677.0, 367.0)">s</text><text xml:space="preserve" font-family="Helvetica-Light,Helvetica" font-size="52.0" fill="#000000" transform="matrix(1.00, 0.00, -0.00, -1.00, 717.4, 367.0)">l</text><text xml:space="preserve" font-family="Helvetica-Light,Helvetica" font-size="52.0" fill="#000000" transform="matrix(1.00, 0.00, -0.00, -1.00, 729.0, 367.0)">e</text><text xml:space="preserve" font-family="Helvetica-Light,Helvetica" font-size="52.0" fill="#000000" transform="matrix(1.00, 0.00, -0.00, -1.00, 757.9, 367.0)">s</text><text xml:space="preserve" font-family="Helvetica-Light,Helvetica" font-size="52.0" fill="#000000" transform="matrix(1.00, 0.00, -0.00, -1.00, 783.9, 367.0)">s</text><text xml:space="preserve" font-family="Helvetica-Light,Helvetica" font-size="52.0" fill="#000000" transform="matrix(1.00, 0.00, -0.00, -1.00, 123.0, 305.0)">t</text><text xml:space="preserve" font-family="Helvetica-Light,Helvetica" font-size="52.0" fill="#000000" transform="matrix(1.00, 0.00, -0.00, -1.00, 137.5, 305.0)">h</text><text xml:space="preserve" font-family="Helvetica-Light,Helvetica" font-size="52.0" fill="#000000" transform="matrix(1.00, 0.00, -0.00, -1.00, 166.4, 305.0)">a</text><text xml:space="preserve" font-family="Helvetica-Light,Helvetica" font-size="52.0" fill="#000000" transform="matrix(1.00, 0.00, -0.00, -1.00, 195.3, 305.0)">n</text><text xml:space="preserve" font-family="Helvetica-Light,Helvetica" font-size="52.0" fill="#000000" transform="matrix(1.00, 0.00, -0.00, -1.00, 238.6, 305.0)">0</text><text xml:space="preserve" font-family="Helvetica-Light,Helvetica" font-size="52.0" fill="#000000" transform="matrix(1.00, 0.00, -0.00, -1.00, 267.6, 305.0)">.</text><text xml:space="preserve" font-family="Helvetica-Light,Helvetica" font-size="52.0" fill="#000000" transform="matrix(1.00, 0.00, -0.00, -1.00, 282.0, 305.0)">5</text><text xml:space="preserve" font-family="Helvetica-Light,Helvetica" font-size="52.0" fill="#000000" transform="matrix(1.00, 0.00, -0.00, -1.00, 325.4, 305.0)">m</text><text xml:space="preserve" font-family="Helvetica-Light,Helvetica" font-size="52.0" fill="#000000" transform="matrix(1.00, 0.00, -0.00, -1.00, 368.7, 305.0)">i</text><text xml:space="preserve" font-family="Helvetica-Light,Helvetica" font-size="52.0" fill="#000000" transform="matrix(1.00, 0.00, -0.00, -1.00, 380.2, 305.0)">,</text><text xml:space="preserve" font-family="Helvetica-Light,Helvetica" font-size="52.0" fill="#000000" transform="matrix(1.00, 0.00, -0.00, -1.00, 409.2, 305.0)">i</text><text xml:space="preserve" font-family="Helvetica-Light,Helvetica" font-size="52.0" fill="#000000" transform="matrix(1.00, 0.00, -0.00, -1.00, 420.7, 305.0)">t</text><text xml:space="preserve" font-family="Helvetica-Light,Helvetica" font-size="52.0" fill="#000000" transform="matrix(1.00, 0.00, -0.00, -1.00, 449.6, 305.0)">d</text><text xml:space="preserve" font-family="Helvetica-Light,Helvetica" font-size="52.0" fill="#000000" transform="matrix(1.00, 0.00, -0.00, -1.00, 481.4, 305.0)">i</text><text xml:space="preserve" font-family="Helvetica-Light,Helvetica" font-size="52.0" fill="#000000" transform="matrix(1.00, 0.00, -0.00, -1.00, 492.9, 305.0)">s</text><text xml:space="preserve" font-family="Helvetica-Light,Helvetica" font-size="52.0" fill="#000000" transform="matrix(1.00, 0.00, -0.00, -1.00, 518.9, 305.0)">p</text><text xml:space="preserve" font-family="Helvetica-Light,Helvetica" font-size="52.0" fill="#000000" transform="matrix(1.00, 0.00, -0.00, -1.00, 550.7, 305.0)">l</text><text xml:space="preserve" font-family="Helvetica-Light,Helvetica" font-size="52.0" fill="#000000" transform="matrix(1.00, 0.00, -0.00, -1.00, 562.2, 305.0)">a</text><text xml:space="preserve" font-family="Helvetica-Light,Helvetica" font-size="52.0" fill="#000000" transform="matrix(1.00, 0.00, -0.00, -1.00, 591.2, 305.0)">y</text><text xml:space="preserve" font-family="Helvetica-Light,Helvetica" font-size="52.0" fill="#000000" transform="matrix(1.00, 0.00, -0.00, -1.00, 617.2, 305.0)">s</text><text xml:space="preserve" font-family="Helvetica-Light,Helvetica" font-size="52.0" fill="#000000" transform="matrix(1.00, 0.00, -0.00, -1.00, 657.6, 305.0)">“</text><text xml:space="preserve" font-family="Helvetica-Light,Helvetica" font-size="52.0" fill="#000000" transform="matrix(1.00, 0.00, -0.00, -1.00, 677.8, 305.0)">&lt;</text><text xml:space="preserve" font-family="Helvetica-Light,Helvetica" font-size="52.0" fill="#000000" transform="matrix(1.00, 0.00, -0.00, -1.00, 726.6, 305.0)">0</text><text xml:space="preserve" font-family="Helvetica-Light,Helvetica" font-size="52.0" fill="#000000" transform="matrix(1.00, 0.00, -0.00, -1.00, 755.5, 305.0)">.</text><text xml:space="preserve" font-family="Helvetica-Light,Helvetica" font-size="52.0" fill="#000000" transform="matrix(1.00, 0.00, -0.00, -1.00, 770.0, 305.0)">5</text><text xml:space="preserve" font-family="Helvetica-Light,Helvetica" font-size="52.0" fill="#000000" transform="matrix(1.00, 0.00, -0.00, -1.00, 813.4, 305.0)">m</text><text xml:space="preserve" font-family="Helvetica-Light,Helvetica" font-size="52.0" fill="#000000" transform="matrix(1.00, 0.00, -0.00, -1.00, 856.7, 305.0)">i</text><text xml:space="preserve" font-family="Helvetica-Light,Helvetica" font-size="52.0" fill="#000000" transform="matrix(1.00, 0.00, -0.00, -1.00, 868.2, 305.0)">”</text><g><clipPath id="clip0x7fdfa94d1620"><path d="M 952.8 -81.4 L 1819.5 -81.4 L 1819.5 830.2 L 952.8 830.2 Z M 952.8 -81.4 "></path></clipPath><g clip-path="url(#clip0x7fdfa94d1620)"><image xlink:href="../../0F2EF73D-F45A-4340-9170-0D61FFA41278/assets/2F61CD86A1195544047A0B8C6906988B.jpeg" width="598.00" height="629.00" transform="matrix(1.45, 0.00, -0.00, -1.45, 952.8, 830.2)"></image></g></g><g><clipPath id="clip0x7fdfa4946230"><path d="M 1640.1 459.7 L 1825.4 459.7 L 1825.4 481.7 L 1640.1 481.7 Z M 1640.1 459.7 "></path></clipPath><g clip-path="url(#clip0x7fdfa4946230)"><path d="M 1685.9 465.8 C 1685.0 466.3 1682.6 465.5 1681.9 466.1 M 1685.9 465.8 C 1685.9 465.8 1685.9 465.8 1685.9 465.8 C 1686.9 465.2 1683.0 463.4 1682.6 462.8 C 1682.2 462.2 1681.5 462.9 1681.0 462.9 C 1679.8 462.9 1681.5 461.2 1678.9 461.7 C 1677.0 462.1 1675.2 461.4 1673.3 461.2 C 1671.7 461.0 1670.5 461.1 1670.8 463.0 C 1673.1 464.4 1672.8 466.1 1672.8 466.1 C 1670.9 466.3 1666.7 466.6 1665.2 465.8 C 1664.8 465.6 1666.0 460.9 1665.6 460.9 C 1664.5 460.5 1664.0 462.0 1662.8 462.0 C 1661.5 462.0 1660.8 462.2 1659.7 461.4 C 1659.5 461.2 1657.2 461.1 1658.1 461.8 C 1657.2 461.7 1655.8 461.4 1654.9 461.7 C 1654.1 462.1 1653.8 463.6 1654.9 463.8 C 1654.7 464.0 1659.3 464.4 1659.3 464.1 C 1659.2 465.4 1655.6 463.5 1654.6 465.5 C 1653.3 468.2 1655.5 467.1 1656.7 467.9 C 1658.0 468.6 1654.7 469.9 1653.5 469.9 C 1651.0 470.0 1657.2 472.4 1654.7 473.2 C 1652.2 473.9 1654.8 474.6 1656.8 475.9 C 1658.3 476.8 1657.8 477.8 1656.6 478.4 C 1658.2 478.2 1659.2 478.6 1660.3 480.1 C 1662.0 480.4 1661.3 479.3 1661.1 478.6 C 1660.5 475.5 1666.1 479.1 1666.4 479.0 C 1667.2 478.9 1667.9 478.0 1668.8 478.3 C 1669.5 478.6 1669.4 480.0 1670.0 480.0 C 1670.8 480.0 1671.7 479.9 1672.5 479.9 C 1673.2 479.9 1671.7 479.3 1672.7 478.4 C 1673.6 477.4 1672.3 475.7 1672.1 475.5 C 1672.2 474.4 1676.4 478.9 1678.7 478.8 C 1681.1 478.7 1679.6 477.7 1681.1 477.6 C 1682.5 477.5 1682.0 478.9 1683.0 478.9 C 1684.0 478.9 1684.4 478.1 1685.2 478.5 C 1687.2 479.2 1687.2 477.1 1685.8 475.4 C 1685.2 474.6 1684.0 474.0 1684.8 472.5 C 1685.5 471.1 1687.8 472.0 1686.7 470.9 C 1685.5 469.9 1680.9 471.4 1680.2 470.5 C 1679.6 469.6 1684.7 469.9 1684.0 468.6 C 1683.3 467.4 1682.9 468.8 1681.2 468.2 C 1681.3 467.5 1682.2 468.1 1682.3 467.3 C 1682.5 466.5 1681.1 466.6 1681.9 466.1 C 1682.6 465.5 1685.0 466.3 1685.9 465.8 C 1685.9 465.8 1685.9 465.8 1685.9 465.8 Z M 1663.3 463.0 C 1663.3 463.0 1663.3 463.0 1663.3 463.0 C 1663.1 462.7 1663.6 462.4 1664.1 462.6 C 1664.7 462.7 1663.6 463.3 1663.3 463.0 C 1663.3 463.0 1663.3 463.0 1663.3 463.0 Z M 1678.7 480.0 C 1678.7 480.0 1678.7 480.0 1678.7 480.0 C 1678.5 479.7 1679.0 479.3 1679.5 479.5 C 1680.1 479.7 1679.0 480.3 1678.7 480.0 C 1678.7 480.0 1678.7 480.0 1678.7 480.0 Z M 1662.2 478.7 C 1662.2 478.7 1662.2 478.7 1662.2 478.7 C 1661.9 478.4 1662.5 478.0 1663.0 478.2 C 1663.6 478.4 1662.5 479.0 1662.2 478.7 C 1662.2 478.7 1662.2 478.7 1662.2 478.7 Z M 1669.2 463.9 C 1669.2 463.9 1669.2 463.9 1669.2 463.9 C 1670.0 463.8 1670.9 464.5 1669.3 465.0 C 1668.6 465.2 1668.0 465.2 1667.5 465.0 C 1666.9 465.0 1666.0 464.9 1665.7 464.4 C 1667.2 464.1 1668.4 463.0 1669.2 463.9 C 1669.2 463.9 1669.2 463.9 1669.2 463.9 Z M 1669.7 471.2 C 1669.7 471.2 1669.7 471.2 1669.7 471.2 C 1670.0 470.7 1671.4 470.6 1671.3 471.9 C 1670.3 472.2 1669.4 471.6 1669.7 471.2 C 1669.7 471.2 1669.7 471.2 1669.7 471.2 Z M 1652.1 466.0 C 1652.1 466.0 1652.1 466.0 1652.1 466.0 C 1652.3 465.5 1653.8 465.4 1653.6 466.7 C 1652.7 467.0 1651.8 466.4 1652.1 466.0 C 1652.1 466.0 1652.1 466.0 1652.1 466.0 Z M 1673.3 467.2 C 1673.3 467.2 1673.3 467.2 1673.3 467.2 C 1674.1 467.4 1674.5 468.6 1673.4 468.8 C 1672.9 468.2 1670.4 468.0 1673.3 467.2 C 1673.3 467.2 1673.3 467.2 1673.3 467.2 Z M 1678.8 463.0 C 1678.8 463.0 1678.8 463.0 1678.8 463.0 C 1679.4 463.3 1679.7 463.2 1679.6 464.2 C 1678.9 464.1 1679.1 464.2 1678.2 464.3 C 1677.0 464.0 1676.5 466.3 1675.8 465.0 C 1675.0 463.0 1678.5 462.3 1678.8 463.0 C 1678.8 463.0 1678.8 463.0 1678.8 463.0 Z M 1675.0 469.0 C 1675.0 469.0 1675.0 469.0 1675.0 469.0 C 1675.3 469.1 1675.6 469.3 1675.7 469.5 C 1675.4 470.0 1674.7 469.2 1675.0 469.0 C 1675.0 469.0 1675.0 469.0 1675.0 469.0 Z M 1654.5 475.4 C 1654.5 475.4 1654.5 475.4 1654.5 475.4 C 1654.8 475.5 1655.1 475.8 1655.2 475.9 C 1654.9 476.5 1654.2 475.6 1654.5 475.4 C 1654.5 475.4 1654.5 475.4 1654.5 475.4 Z M 1667.5 479.3 C 1667.5 479.3 1667.5 479.3 1667.5 479.3 C 1667.8 479.4 1668.1 479.7 1668.2 479.9 C 1667.9 480.4 1667.2 479.6 1667.5 479.3 C 1667.5 479.3 1667.5 479.3 1667.5 479.3 Z M 1662.6 466.4 C 1662.6 466.4 1662.6 466.4 1662.6 466.4 C 1662.0 466.9 1660.4 465.7 1660.6 465.3 C 1661.2 464.3 1663.2 465.9 1662.6 466.4 C 1662.6 466.4 1662.6 466.4 1662.6 466.4 Z M 1685.7 462.7 C 1685.7 462.7 1685.7 462.7 1685.7 462.7 C 1685.1 463.2 1683.4 462.0 1683.7 461.6 C 1684.3 460.6 1686.3 462.2 1685.7 462.7 C 1685.7 462.7 1685.7 462.7 1685.7 462.7 Z M 1808.7 463.9 C 1808.7 463.9 1808.7 463.9 1808.7 463.9 C 1809.1 463.8 1809.6 463.7 1810.0 463.5 C 1809.8 463.4 1809.6 463.3 1809.4 463.2 C 1809.1 463.2 1808.8 463.2 1808.5 463.2 C 1807.1 463.2 1809.0 461.5 1806.3 462.0 C 1804.4 462.4 1804.2 461.7 1802.3 461.5 C 1801.9 461.5 1803.0 463.6 1803.1 464.0 C 1803.3 465.3 1802.0 466.9 1801.6 466.8 C 1800.9 466.9 1799.2 467.3 1797.9 466.6 C 1796.3 466.7 1797.1 463.9 1797.1 463.9 C 1795.0 464.1 1795.7 463.7 1794.2 463.4 C 1793.1 463.5 1793.4 465.1 1792.2 465.1 C 1791.8 465.4 1791.4 462.2 1788.8 462.2 C 1787.3 462.2 1786.7 462.3 1785.5 461.5 C 1785.2 461.3 1782.7 461.2 1783.7 461.9 C 1783.1 461.9 1782.3 461.7 1781.9 462.2 C 1780.8 464.2 1783.9 463.4 1784.2 463.9 C 1784.2 464.1 1782.4 464.5 1782.7 465.3 C 1782.9 466.3 1776.2 465.7 1778.5 466.8 C 1781.2 468.0 1780.4 471.2 1779.8 471.6 C 1779.4 471.5 1779.3 469.9 1778.4 470.8 C 1777.6 471.7 1779.8 472.8 1779.8 473.5 C 1779.8 477.5 1779.9 474.9 1782.1 476.3 C 1783.2 476.9 1781.5 477.9 1781.0 478.5 C 1781.2 478.7 1783.0 478.6 1783.2 478.9 C 1784.2 479.0 1784.0 478.6 1784.8 479.6 C 1785.3 480.2 1786.9 479.5 1787.1 479.5 C 1787.5 479.2 1786.2 479.2 1786.1 478.7 C 1785.6 476.2 1788.0 479.2 1789.6 479.1 C 1791.2 479.1 1791.8 478.9 1792.1 479.0 C 1792.4 479.0 1792.3 477.3 1792.7 477.4 C 1793.3 477.1 1793.8 477.9 1794.3 478.4 C 1794.8 479.0 1796.1 477.8 1796.9 477.8 C 1797.6 477.9 1797.5 478.8 1799.2 479.3 C 1800.9 479.9 1800.8 477.3 1800.6 476.7 C 1799.7 474.3 1802.0 479.0 1803.2 478.8 C 1804.4 478.7 1804.3 477.8 1805.1 477.8 C 1805.5 477.9 1805.8 478.2 1806.2 478.5 C 1806.6 478.0 1807.2 478.3 1808.4 478.3 C 1808.6 478.3 1808.7 478.3 1808.8 478.3 C 1808.9 478.1 1807.0 477.0 1807.2 476.7 C 1807.8 475.8 1808.9 477.1 1809.3 477.6 C 1810.0 476.8 1810.9 476.4 1812.0 476.9 C 1814.1 477.7 1814.2 475.5 1812.7 473.7 C 1812.0 472.9 1810.4 471.9 1811.6 470.8 C 1812.8 469.7 1815.0 470.9 1813.7 469.2 C 1813.6 469.2 1813.9 468.3 1811.9 468.9 C 1809.8 469.6 1808.7 468.6 1808.7 468.6 C 1807.5 468.4 1807.4 469.3 1806.7 468.7 C 1806.0 468.0 1807.7 468.0 1808.8 468.1 C 1809.0 467.7 1808.4 467.1 1809.5 467.0 C 1810.5 467.0 1810.5 467.9 1811.0 467.3 C 1811.5 466.7 1810.9 467.0 1810.8 466.8 C 1811.6 466.6 1812.4 466.7 1813.2 466.7 C 1814.8 467.0 1812.2 465.0 1811.6 464.9 C 1810.3 464.6 1809.1 466.1 1808.7 463.9 C 1808.7 463.9 1808.7 463.9 1808.7 463.9 Z M 1809.8 470.3 C 1809.8 470.3 1809.8 470.3 1809.8 470.3 C 1809.4 470.6 1807.9 470.2 1808.5 469.8 C 1809.2 469.3 1810.2 470.1 1809.8 470.3 C 1809.8 470.3 1809.8 470.3 1809.8 470.3 Z M 1798.8 480.3 C 1798.8 480.3 1798.8 480.3 1798.8 480.3 C 1798.3 480.6 1796.8 480.2 1797.5 479.8 C 1798.2 479.3 1799.2 480.1 1798.8 480.3 C 1798.8 480.3 1798.8 480.3 1798.8 480.3 Z M 1799.2 462.7 C 1799.2 462.7 1799.2 462.7 1799.2 462.7 C 1798.7 463.6 1797.3 462.2 1797.9 461.7 C 1798.4 461.9 1799.0 462.4 1799.2 462.7 C 1799.2 462.7 1799.2 462.7 1799.2 462.7 Z M 1803.8 476.6 C 1803.8 476.6 1803.8 476.6 1803.8 476.6 C 1803.6 476.6 1803.4 476.6 1803.3 476.6 C 1803.5 476.2 1804.5 475.9 1804.9 475.8 C 1805.1 476.6 1804.3 476.7 1803.8 476.6 C 1803.8 476.6 1803.8 476.6 1803.8 476.6 Z M 1794.0 462.7 C 1794.0 462.7 1794.0 462.7 1794.0 462.7 C 1793.4 463.4 1792.7 463.1 1792.0 463.0 C 1791.8 460.4 1794.6 462.1 1794.0 462.7 C 1794.0 462.7 1794.0 462.7 1794.0 462.7 Z M 1784.9 467.1 C 1784.9 467.1 1784.9 467.1 1784.9 467.1 C 1785.9 467.9 1783.2 469.2 1782.7 468.4 C 1782.3 467.7 1783.3 467.4 1784.0 467.3 C 1784.1 467.1 1783.8 466.3 1784.9 467.1 C 1784.9 467.1 1784.9 467.1 1784.9 467.1 Z M 1791.2 477.1 C 1791.2 477.1 1791.2 477.1 1791.2 477.1 C 1791.4 477.0 1791.6 476.6 1791.8 476.8 C 1792.0 477.1 1791.6 477.5 1791.2 477.1 C 1791.2 477.1 1791.2 477.1 1791.2 477.1 Z M 1811.0 477.8 C 1811.0 477.8 1811.0 477.8 1811.0 477.8 C 1811.2 477.7 1811.4 477.3 1811.6 477.5 C 1811.8 477.7 1811.4 478.1 1811.0 477.8 C 1811.0 477.8 1811.0 477.8 1811.0 477.8 Z M 1785.6 476.7 C 1785.6 476.7 1785.6 476.7 1785.6 476.7 C 1785.3 475.9 1786.1 476.3 1786.4 476.2 C 1786.6 476.7 1785.9 477.4 1785.6 476.7 C 1785.6 476.7 1785.6 476.7 1785.6 476.7 Z M 1798.3 464.6 C 1798.3 464.6 1798.3 464.6 1798.3 464.6 C 1799.2 463.5 1801.7 463.3 1801.7 465.5 C 1800.9 465.6 1800.3 465.9 1799.6 465.8 C 1799.1 465.7 1798.7 464.9 1798.3 464.6 C 1798.3 464.6 1798.3 464.6 1798.3 464.6 Z M 1805.8 464.2 C 1805.8 464.2 1805.8 464.2 1805.8 464.2 C 1806.2 463.8 1807.3 463.9 1806.7 464.8 C 1806.4 465.2 1806.0 465.5 1805.5 465.5 C 1805.1 465.8 1804.3 466.3 1804.0 465.9 C 1803.8 465.5 1804.7 464.0 1805.8 464.2 C 1805.8 464.2 1805.8 464.2 1805.8 464.2 Z M 1793.9 465.0 C 1793.9 465.0 1793.9 465.0 1793.9 465.0 C 1794.2 464.3 1796.0 464.3 1796.0 464.6 C 1796.0 465.0 1793.8 465.6 1793.9 465.0 C 1793.9 465.0 1793.9 465.0 1793.9 465.0 Z M 1801.2 463.0 C 1801.2 463.0 1801.2 463.0 1801.2 463.0 C 1801.5 463.0 1801.7 463.1 1801.5 463.3 C 1801.4 463.4 1801.1 463.4 1801.0 463.3 C 1800.8 463.2 1800.9 462.9 1801.2 463.0 C 1801.2 463.0 1801.2 463.0 1801.2 463.0 Z M 1788.3 461.2 C 1788.3 461.2 1788.3 461.2 1788.3 461.2 C 1788.6 461.2 1788.8 461.4 1788.7 461.5 C 1788.5 461.6 1788.2 461.6 1788.1 461.5 C 1788.0 461.4 1788.1 461.1 1788.3 461.2 C 1788.3 461.2 1788.3 461.2 1788.3 461.2 Z M 1809.3 462.3 C 1809.3 462.3 1809.3 462.3 1809.3 462.3 C 1809.6 462.4 1809.8 462.5 1809.6 462.6 C 1809.4 462.8 1809.2 462.7 1809.0 462.6 C 1808.9 462.5 1809.0 462.3 1809.3 462.3 C 1809.3 462.3 1809.3 462.3 1809.3 462.3 Z M 1789.5 463.6 C 1789.5 463.6 1789.5 463.6 1789.5 463.6 C 1790.0 464.0 1789.9 464.7 1788.9 464.8 C 1794.5 466.9 1786.6 467.5 1785.9 465.8 C 1784.8 463.3 1789.0 462.7 1789.5 463.6 C 1789.5 463.6 1789.5 463.6 1789.5 463.6 Z M 1694.7 465.9 C 1693.5 464.6 1691.2 465.7 1689.9 465.1 C 1688.5 464.4 1687.5 462.7 1686.9 465.0 C 1686.5 466.6 1683.1 466.6 1683.4 468.1 C 1683.6 469.3 1684.1 470.1 1684.1 471.4 C 1684.0 473.6 1682.6 474.2 1684.3 475.7 C 1685.7 477.0 1685.6 474.2 1686.7 477.0 C 1687.4 479.1 1689.3 479.2 1690.0 477.2 C 1690.7 475.3 1691.9 474.2 1692.8 476.8 C 1693.3 478.2 1693.3 478.6 1694.3 479.1 C 1694.6 479.3 1697.0 478.0 1697.0 478.0 C 1696.8 477.5 1695.3 476.0 1696.6 475.9 C 1697.4 475.8 1698.7 477.0 1698.3 478.3 C 1697.8 480.3 1702.9 478.6 1702.4 478.1 C 1702.6 478.3 1703.7 480.5 1704.2 478.9 C 1704.2 478.9 1706.3 478.6 1706.7 478.5 C 1711.2 477.9 1703.8 474.5 1708.7 474.5 C 1711.9 474.4 1709.8 477.4 1709.9 478.0 C 1710.3 479.2 1712.9 479.1 1713.9 479.2 C 1714.7 479.3 1715.4 477.9 1715.9 477.3 C 1716.6 476.4 1718.4 476.7 1719.0 477.6 C 1719.3 478.1 1719.8 479.2 1720.2 479.4 C 1720.2 479.4 1721.8 479.5 1721.5 479.2 C 1721.4 479.0 1720.0 478.1 1720.6 477.6 C 1721.0 477.2 1722.4 479.2 1722.9 479.3 C 1723.9 479.7 1723.9 476.2 1725.7 477.8 C 1727.0 478.9 1726.2 478.8 1727.1 477.2 C 1727.5 476.4 1729.4 478.3 1729.5 479.0 C 1729.0 475.6 1730.9 478.6 1731.0 478.1 C 1731.0 478.5 1730.0 478.6 1730.1 479.1 C 1730.1 479.3 1737.6 479.8 1737.9 478.7 C 1738.2 477.6 1737.1 476.6 1739.2 476.9 C 1739.8 477.0 1740.9 477.8 1740.8 478.2 C 1739.7 478.7 1740.0 478.3 1738.8 479.1 C 1738.7 479.1 1741.2 479.5 1741.6 479.5 C 1742.9 479.5 1743.4 478.8 1744.6 478.0 C 1745.4 477.4 1746.0 479.0 1747.0 479.1 C 1748.1 479.1 1749.0 479.2 1750.1 478.9 C 1751.2 478.6 1751.5 478.7 1751.5 477.5 C 1751.6 476.4 1753.6 476.3 1754.1 475.8 C 1754.6 475.2 1754.7 475.2 1755.5 475.8 C 1756.8 476.8 1755.8 477.0 1756.0 477.6 C 1756.5 479.7 1759.8 479.5 1760.9 479.1 C 1762.1 478.7 1760.2 477.7 1760.4 477.5 C 1761.0 477.0 1761.9 477.6 1762.5 477.6 C 1763.5 477.6 1762.5 478.3 1762.8 478.7 C 1764.4 480.5 1765.0 476.6 1766.1 477.0 C 1767.7 477.4 1768.1 480.1 1769.9 478.8 C 1771.8 477.4 1773.3 480.0 1775.2 479.0 C 1776.8 478.0 1779.2 481.1 1780.1 478.4 C 1780.5 477.1 1782.1 475.6 1782.1 474.2 C 1782.1 473.8 1781.1 469.8 1780.7 470.5 C 1780.9 470.0 1782.0 470.1 1782.1 469.5 C 1782.2 469.0 1780.6 468.4 1780.4 468.0 C 1780.2 467.8 1782.3 466.8 1782.4 466.4 C 1782.5 465.9 1779.0 464.9 1779.0 463.0 C 1779.0 462.2 1777.6 461.6 1777.6 462.5 C 1777.6 463.0 1778.2 465.4 1778.6 465.3 C 1778.4 465.4 1776.6 464.7 1776.6 464.7 C 1776.8 465.1 1777.0 465.5 1777.0 466.0 C 1776.9 466.2 1772.9 466.2 1772.8 465.9 C 1772.4 465.2 1772.9 463.0 1772.4 462.6 C 1772.0 462.3 1771.2 463.6 1770.6 463.6 C 1769.8 463.5 1770.7 462.3 1769.9 462.0 C 1769.6 462.0 1765.2 462.8 1765.1 463.2 C 1765.1 463.3 1766.3 465.3 1766.3 466.0 C 1766.4 467.3 1765.1 466.8 1764.6 466.7 C 1763.8 466.6 1760.7 465.4 1760.7 463.7 C 1760.7 463.1 1762.8 462.9 1763.2 462.6 C 1762.8 463.0 1759.9 459.9 1759.1 462.1 C 1758.9 462.4 1760.1 462.5 1760.1 462.7 C 1760.3 462.9 1759.5 464.9 1758.9 464.8 C 1758.5 464.7 1757.7 463.2 1757.3 463.6 C 1757.5 463.5 1756.1 465.5 1756.0 464.7 C 1756.1 465.1 1757.2 466.5 1756.9 467.0 C 1756.9 467.0 1754.6 466.7 1754.4 466.7 C 1752.8 466.1 1753.4 466.8 1752.5 467.6 C 1751.7 468.4 1749.7 469.1 1750.0 466.9 C 1750.4 464.4 1748.5 463.7 1748.5 465.6 C 1748.5 467.6 1748.3 467.2 1746.9 466.7 C 1745.4 466.2 1743.9 467.0 1742.8 465.5 C 1741.3 463.6 1743.6 463.2 1743.2 462.5 C 1742.7 461.6 1741.4 461.8 1740.8 462.0 C 1739.7 462.2 1740.6 463.6 1740.2 463.8 C 1739.4 464.1 1738.5 462.1 1737.7 462.4 C 1737.6 462.5 1736.3 463.7 1736.6 463.7 C 1733.2 463.5 1736.7 464.5 1737.2 466.3 C 1737.3 467.0 1735.2 465.7 1735.7 467.9 C 1736.2 470.2 1733.2 470.1 1733.1 469.0 C 1733.3 468.8 1733.5 468.6 1733.7 468.4 C 1733.4 467.2 1730.3 467.5 1730.2 466.5 C 1730.2 466.0 1734.4 464.5 1733.7 463.3 C 1733.3 462.6 1732.4 463.8 1732.2 464.1 C 1731.7 464.7 1731.6 463.2 1731.5 463.1 C 1731.6 463.2 1729.8 463.3 1729.5 464.1 C 1729.5 464.3 1730.9 465.0 1730.4 465.3 C 1728.5 466.2 1729.5 464.4 1728.6 463.2 C 1728.1 462.6 1724.9 461.8 1725.0 461.9 C 1725.1 462.2 1726.1 462.4 1725.9 462.9 C 1725.7 463.6 1724.6 463.0 1724.4 463.7 C 1724.3 463.9 1725.2 464.2 1725.2 464.4 C 1724.7 465.1 1722.6 464.8 1722.5 465.5 C 1722.5 466.0 1724.7 465.6 1724.7 466.5 C 1724.7 467.1 1723.5 468.0 1723.4 467.0 C 1723.2 465.7 1721.1 467.2 1720.4 466.6 C 1719.7 465.8 1721.7 464.7 1720.0 464.4 C 1718.1 464.0 1719.5 465.2 1719.1 465.9 C 1718.0 467.8 1715.7 461.6 1715.1 463.2 C 1714.9 463.7 1716.8 466.1 1715.0 465.6 C 1714.2 465.3 1710.5 467.6 1710.5 465.6 C 1710.5 465.2 1712.7 465.0 1712.5 464.6 C 1712.1 463.7 1710.7 463.9 1710.1 463.8 C 1709.2 463.5 1709.7 462.5 1709.0 461.9 C 1708.2 461.1 1707.7 463.2 1707.0 463.1 C 1706.3 463.0 1707.0 466.2 1707.1 466.6 C 1706.8 465.3 1704.8 467.0 1704.3 465.8 C 1703.0 463.1 1702.8 464.1 1701.2 463.3 C 1701.5 463.3 1701.8 463.5 1701.9 463.9 C 1701.8 464.1 1700.6 464.2 1700.5 464.1 C 1700.9 464.3 1701.3 464.7 1701.6 465.2 C 1701.6 465.3 1696.5 468.6 1695.9 465.8 C 1695.8 465.4 1695.5 460.7 1694.6 462.2 C 1694.3 462.6 1694.7 465.9 1694.7 465.9 M 1713.7 464.0 C 1714.0 463.9 1714.2 464.1 1714.3 464.5 C 1714.0 464.9 1713.6 464.9 1713.2 464.6 C 1713.1 464.2 1713.3 464.0 1713.7 464.0 M 1713.5 462.5 C 1713.8 462.4 1714.0 462.6 1714.1 463.0 C 1712.1 464.0 1711.9 460.7 1713.7 461.9 C 1713.8 461.9 1713.2 462.4 1713.5 462.5 M 1730.3 462.3 C 1730.4 462.6 1728.8 463.2 1729.1 462.4 C 1729.2 462.0 1730.1 461.9 1730.3 462.3 M 1733.5 465.9 C 1734.0 466.6 1732.8 466.8 1732.6 466.3 C 1732.2 465.7 1733.4 465.7 1733.5 465.9 M 1770.7 464.7 C 1771.0 466.4 1767.6 469.2 1767.4 466.6 C 1767.1 463.6 1770.3 462.2 1770.7 464.7 M 1746.1 463.0 C 1746.0 463.6 1744.5 463.1 1744.6 462.3 C 1744.7 461.0 1746.3 462.2 1746.1 463.0 M 1744.7 465.1 C 1744.6 465.9 1743.6 465.4 1743.6 464.9 C 1743.6 464.4 1744.9 464.3 1744.7 465.1 M 1763.6 464.7 C 1763.8 464.2 1764.9 465.0 1764.6 465.2 C 1764.3 465.4 1763.4 465.3 1763.6 464.7 C 1763.6 464.7 1763.6 464.7 1763.6 464.7 Z M 1774.6 465.0 C 1774.4 464.8 1774.6 464.3 1774.8 464.5 C 1775.0 464.7 1774.9 465.2 1774.6 465.0 C 1774.6 465.0 1774.6 465.0 1774.6 465.0 Z M 1752.9 465.6 C 1751.8 465.5 1752.9 463.7 1754.2 464.6 C 1755.2 465.3 1754.3 465.7 1752.9 465.6 C 1752.9 465.6 1752.9 465.6 1752.9 465.6 Z M 1769.4 478.0 C 1769.6 478.2 1769.1 478.6 1768.8 478.4 C 1768.1 478.0 1769.1 477.8 1769.4 478.0 C 1769.4 478.0 1769.4 478.0 1769.4 478.0 Z M 1710.4 467.9 C 1711.0 468.3 1710.2 468.6 1710.0 468.3 C 1709.7 467.9 1709.9 467.5 1710.4 467.9 C 1710.4 467.9 1710.4 467.9 1710.4 467.9 Z M 1697.9 464.7 C 1698.4 465.1 1697.2 465.1 1697.0 464.8 C 1696.8 464.4 1697.4 464.3 1697.9 464.7 C 1697.9 464.7 1697.9 464.7 1697.9 464.7 Z M 1687.8 474.5 C 1688.3 474.9 1687.5 475.2 1687.3 474.9 C 1687.1 474.5 1687.3 474.0 1687.8 474.5 C 1687.8 474.5 1687.8 474.5 1687.8 474.5 Z M 1706.2 472.4 C 1706.8 472.9 1706.0 473.1 1705.8 472.8 C 1705.5 472.4 1705.7 472.0 1706.2 472.4 C 1706.2 472.4 1706.2 472.4 1706.2 472.4 Z M 1708.0 466.1 C 1707.6 465.3 1708.0 463.0 1709.2 464.9 C 1710.3 466.7 1708.5 466.8 1708.0 466.1 C 1708.0 466.1 1708.0 466.1 1708.0 466.1 Z M 1748.7 477.5 C 1748.7 477.5 1749.4 476.5 1749.6 476.8 C 1750.6 478.0 1748.7 477.5 1748.7 477.5 C 1748.7 477.5 1748.7 477.5 1748.7 477.5 Z M 1734.0 467.7 C 1734.0 467.7 1734.6 467.3 1734.7 467.4 C 1735.6 468.1 1734.0 467.7 1734.0 467.7 C 1734.0 467.7 1734.0 467.7 1734.0 467.7 Z M 1727.1 461.4 C 1727.1 461.4 1727.7 460.9 1727.8 461.0 C 1728.8 461.7 1727.1 461.4 1727.1 461.4 C 1727.1 461.4 1727.1 461.4 1727.1 461.4 Z M 1698.1 463.4 C 1696.8 463.1 1697.9 462.2 1698.9 462.5 C 1699.8 462.8 1699.5 463.7 1698.1 463.4 C 1698.1 463.4 1698.1 463.4 1698.1 463.4 Z M 1702.6 467.0 C 1701.4 465.6 1702.6 465.0 1703.5 466.2 C 1704.3 467.3 1703.8 468.3 1702.6 467.0 C 1702.6 467.0 1702.6 467.0 1702.6 467.0 Z M 1697.3 468.2 C 1697.6 468.2 1697.7 468.3 1697.6 468.7 C 1697.3 469.2 1696.2 468.9 1695.9 468.4 C 1695.5 467.6 1697.3 468.2 1697.3 468.2 M 1700.3 475.0 C 1702.6 472.8 1700.5 478.2 1700.2 477.6 C 1699.8 477.0 1699.8 475.5 1700.3 475.0 C 1700.3 475.0 1700.3 475.0 1700.3 475.0 Z M 1719.7 476.8 C 1720.1 476.2 1720.8 476.8 1720.4 477.3 C 1720.0 477.6 1719.2 477.3 1719.7 476.8 C 1719.7 476.8 1719.7 476.8 1719.7 476.8 Z M 1717.6 463.9 C 1717.9 463.6 1719.1 463.7 1718.6 464.2 C 1718.3 464.5 1717.2 464.4 1717.6 463.9 C 1717.6 463.9 1717.6 463.9 1717.6 463.9 Z M 1688.5 462.9 C 1688.8 462.6 1690.0 462.7 1689.5 463.2 C 1689.2 463.5 1688.1 463.4 1688.5 462.9 C 1688.5 462.9 1688.5 462.9 1688.5 462.9 Z M 1730.9 472.4 C 1731.8 471.6 1732.6 472.7 1731.8 473.1 C 1731.1 473.6 1729.9 473.3 1730.9 472.4 C 1730.9 472.4 1730.9 472.4 1730.9 472.4 Z M 1751.0 467.3 C 1751.4 466.8 1751.9 467.6 1751.5 467.7 C 1751.1 467.8 1750.8 467.6 1751.0 467.3 C 1751.0 467.3 1751.0 467.3 1751.0 467.3 Z M 1754.8 465.5 C 1755.0 465.3 1755.5 465.7 1755.1 465.8 C 1754.7 465.8 1754.5 465.7 1754.8 465.5 C 1754.8 465.5 1754.8 465.5 1754.8 465.5 Z M 1770.3 470.0 C 1771.0 469.5 1772.0 470.4 1771.1 470.6 C 1770.2 470.8 1769.8 470.4 1770.3 470.0 C 1770.3 470.0 1770.3 470.0 1770.3 470.0 Z M 1758.2 463.4 C 1758.4 463.2 1758.9 463.6 1758.5 463.6 C 1758.1 463.7 1757.9 463.6 1758.2 463.4 C 1758.2 463.4 1758.2 463.4 1758.2 463.4 Z M 1769.0 464.6 C 1769.6 463.9 1770.2 464.9 1769.6 465.0 C 1769.1 465.2 1768.7 464.9 1769.0 464.6 C 1769.0 464.6 1769.0 464.6 1769.0 464.6 Z M 1767.4 460.7 C 1768.1 460.1 1768.7 461.1 1768.1 461.2 C 1767.6 461.3 1767.2 461.0 1767.4 460.7 C 1767.4 460.7 1767.4 460.7 1767.4 460.7 Z M 1743.4 480.0 C 1744.0 479.4 1744.6 480.4 1744.1 480.5 C 1743.5 480.6 1743.1 480.3 1743.4 480.0 C 1743.4 480.0 1743.4 480.0 1743.4 480.0 Z M 1704.0 461.9 C 1705.2 461.8 1705.5 462.5 1704.9 463.1 C 1704.2 463.7 1702.9 462.0 1704.0 461.9 C 1704.0 461.9 1704.0 461.9 1704.0 461.9 Z M 1768.1 466.3 C 1768.4 465.9 1768.7 466.4 1768.4 466.6 C 1768.2 466.8 1767.8 466.6 1768.1 466.3 C 1768.1 466.3 1768.1 466.3 1768.1 466.3 Z M 1741.7 469.7 C 1741.9 470.1 1741.9 470.4 1741.7 470.7 C 1741.0 470.7 1740.2 469.3 1740.4 468.3 C 1740.7 467.4 1742.9 468.7 1742.4 469.6 C 1742.2 469.8 1741.5 469.2 1741.7 469.7 M 1745.3 476.0 C 1745.7 476.4 1745.2 476.9 1744.8 476.4 C 1744.3 475.8 1744.8 475.6 1745.3 476.0 C 1745.3 476.0 1745.3 476.0 1745.3 476.0 Z M 1733.3 478.3 C 1733.7 478.7 1733.2 479.2 1732.8 478.7 C 1732.4 478.1 1732.8 477.9 1733.3 478.3 C 1733.3 478.3 1733.3 478.3 1733.3 478.3 Z M 1756.3 462.6 C 1756.9 462.8 1756.2 462.2 1756.4 462.0 C 1756.8 462.0 1757.1 462.2 1757.4 462.6 C 1757.7 463.6 1755.9 463.0 1755.8 462.8 C 1756.0 462.7 1756.1 462.7 1756.3 462.6 M 1770.5 476.6 C 1771.1 476.8 1770.4 476.2 1770.6 476.0 C 1771.0 476.0 1771.3 476.2 1771.6 476.6 C 1771.9 477.6 1770.1 477.0 1770.0 476.8 C 1770.2 476.7 1770.3 476.7 1770.5 476.6 M 1684.7 464.3 C 1684.8 464.6 1683.2 465.3 1683.5 464.4 C 1683.7 464.0 1684.6 463.9 1684.7 464.3 M 1730.6 480.3 C 1730.7 480.6 1729.2 481.3 1729.4 480.4 C 1729.5 480.0 1730.5 479.9 1730.6 480.3 M 1736.2 475.5 C 1736.8 475.6 1736.2 475.1 1736.4 474.9 C 1736.8 474.9 1737.1 475.0 1737.3 475.4 C 1737.6 476.5 1735.9 475.8 1735.8 475.6 C 1735.9 475.6 1736.0 475.6 1736.2 475.5 M 1762.3 476.5 C 1762.2 476.1 1763.0 476.1 1762.8 476.6 C 1762.6 476.9 1762.3 476.9 1762.3 476.5 C 1762.3 476.5 1762.3 476.5 1762.3 476.5 Z M 1722.7 464.3 C 1722.7 463.9 1723.7 464.2 1723.2 464.4 C 1722.9 464.6 1722.8 464.7 1722.7 464.3 C 1722.7 464.3 1722.7 464.3 1722.7 464.3 Z M 1737.3 468.7 C 1736.8 469.2 1736.8 468.2 1737.0 467.9 C 1737.5 466.8 1738.4 469.1 1738.1 469.2 C 1737.9 469.2 1737.4 468.6 1737.3 468.7 M 1718.5 469.3 C 1717.5 470.2 1717.8 466.1 1719.3 468.4 C 1720.8 470.8 1718.7 469.1 1718.5 469.3 M 1776.7 477.5 C 1777.0 477.1 1775.0 476.6 1775.2 476.2 C 1775.8 475.3 1777.4 477.1 1777.4 478.0 C 1777.4 478.2 1776.0 478.3 1776.7 477.5 M 1760.6 466.7 C 1761.0 466.3 1759.0 465.8 1759.2 465.4 C 1759.7 464.5 1761.4 466.3 1761.4 467.2 C 1761.4 467.4 1760.0 467.4 1760.6 466.7 M 1725.7 466.1 C 1725.2 466.1 1726.3 464.7 1726.8 465.6 C 1727.6 467.2 1726.0 466.2 1725.7 466.1 M 1692.3 463.9 C 1692.0 464.1 1691.8 463.9 1691.6 463.5 C 1691.3 463.0 1692.9 462.8 1692.8 463.1 C 1692.6 463.4 1692.5 463.6 1692.3 463.9 M 1754.3 476.6 C 1754.6 475.9 1755.2 476.9 1754.8 477.1 C 1754.3 477.4 1754.1 477.4 1754.3 476.6 C 1754.3 476.6 1754.3 476.6 1754.3 476.6 Z M 1702.4 480.4 C 1702.6 479.7 1703.3 480.7 1702.9 480.9 C 1702.4 481.2 1702.1 481.2 1702.4 480.4 C 1702.4 480.4 1702.4 480.4 1702.4 480.4 Z M 1780.8 463.4 C 1781.1 462.8 1781.7 463.6 1781.3 463.8 C 1780.8 463.9 1780.6 463.9 1780.8 463.4 C 1780.8 463.4 1780.8 463.4 1780.8 463.4 Z M 1758.6 468.7 C 1758.8 468.5 1759.9 469.0 1759.0 469.5 C 1758.5 469.8 1758.4 468.9 1758.6 468.7 C 1758.6 468.7 1758.6 468.7 1758.6 468.7 Z M 1774.6 462.8 C 1774.9 462.6 1776.3 463.1 1775.1 463.7 C 1774.5 464.0 1774.4 463.0 1774.6 462.8 C 1774.6 462.8 1774.6 462.8 1774.6 462.8 Z M 1748.5 472.1 C 1748.8 471.7 1749.1 472.1 1748.7 472.4 C 1748.4 472.6 1748.3 472.4 1748.5 472.1 C 1748.5 472.1 1748.5 472.1 1748.5 472.1 Z M 1746.5 461.0 C 1746.8 460.7 1747.1 461.1 1746.7 461.4 C 1746.4 461.5 1746.3 461.4 1746.5 461.0 C 1746.5 461.0 1746.5 461.0 1746.5 461.0 Z M 1735.4 465.7 C 1735.7 465.4 1736.0 465.8 1735.6 466.1 C 1735.3 466.3 1735.2 466.1 1735.4 465.7 C 1735.4 465.7 1735.4 465.7 1735.4 465.7 Z M 1751.5 461.9 C 1753.1 461.3 1754.2 462.0 1752.3 463.2 C 1751.1 464.0 1751.2 462.1 1751.5 461.9 C 1751.5 461.9 1751.5 461.9 1751.5 461.9 Z M 1740.1 472.9 C 1740.5 472.6 1740.7 473.1 1740.3 473.2 C 1740.1 473.4 1739.8 473.2 1740.1 472.9 C 1740.1 472.9 1740.1 472.9 1740.1 472.9 Z M 1739.2 465.1 C 1738.1 464.2 1742.6 463.6 1741.9 465.8 C 1741.0 468.7 1739.7 465.5 1739.2 465.1 M 1720.8 462.5 C 1720.4 462.0 1721.7 461.9 1721.7 462.7 C 1721.6 464.3 1720.9 462.7 1720.8 462.5 M 1713.5 477.0 C 1713.5 477.0 1713.8 477.8 1713.4 477.6 C 1712.8 477.2 1713.5 477.0 1713.5 477.0 C 1713.5 477.0 1713.5 477.0 1713.5 477.0 Z M 1715.4 475.9 C 1715.7 475.3 1716.7 476.0 1716.0 476.2 C 1715.7 476.4 1715.1 476.4 1715.4 475.9 C 1715.4 475.9 1715.4 475.9 1715.4 475.9 Z M 1716.3 461.9 C 1716.4 461.6 1716.9 461.9 1716.6 462.0 C 1716.4 462.1 1716.2 462.1 1716.3 461.9 C 1716.3 461.9 1716.3 461.9 1716.3 461.9 Z M 1715.7 480.0 C 1715.9 479.6 1717.0 480.1 1716.3 480.3 C 1715.9 480.4 1715.4 480.4 1715.7 480.0 C 1715.7 480.0 1715.7 480.0 1715.7 480.0 Z M 1744.0 461.3 C 1744.1 461.1 1744.6 461.4 1744.3 461.5 C 1744.1 461.6 1743.9 461.6 1744.0 461.3 C 1744.0 461.3 1744.0 461.3 1744.0 461.3 Z M 1777.8 461.2 C 1777.9 461.0 1778.4 461.3 1778.1 461.4 C 1777.9 461.4 1777.7 461.4 1777.8 461.2 C 1777.8 461.2 1777.8 461.2 1777.8 461.2 Z M 1693.3 475.5 C 1693.5 474.9 1694.5 475.7 1693.9 475.9 C 1693.5 476.1 1693.0 476.1 1693.3 475.5 C 1693.3 475.5 1693.3 475.5 1693.3 475.5 Z M 1747.5 465.7 C 1747.8 465.1 1748.6 465.9 1747.8 466.2 C 1747.4 466.3 1747.2 466.3 1747.5 465.7 C 1747.5 465.7 1747.5 465.7 1747.5 465.7 Z M 1708.7 476.3 C 1708.9 475.7 1709.8 476.5 1709.0 476.8 C 1708.6 477.0 1708.4 477.0 1708.7 476.3 C 1708.7 476.3 1708.7 476.3 1708.7 476.3 Z M 1745.3 464.8 C 1745.5 464.4 1746.0 464.7 1745.6 464.9 C 1745.3 465.0 1745.2 465.1 1745.3 464.8 C 1745.3 464.8 1745.3 464.8 1745.3 464.8 Z M 1753.3 477.6 C 1753.5 477.2 1754.0 477.6 1753.6 477.7 C 1753.3 477.8 1753.1 477.9 1753.3 477.6 C 1753.3 477.6 1753.3 477.6 1753.3 477.6 Z M 1760.6 480.0 C 1760.7 479.7 1761.2 480.0 1760.8 480.2 C 1760.6 480.3 1760.4 480.4 1760.6 480.0 C 1760.6 480.0 1760.6 480.0 1760.6 480.0 Z M 1752.8 469.9 C 1752.9 469.6 1753.6 470.0 1753.2 470.1 C 1752.9 470.2 1752.6 470.2 1752.8 469.9 C 1752.8 469.9 1752.8 469.9 1752.8 469.9 Z M 1706.3 471.6 C 1705.6 471.7 1704.5 470.5 1704.4 469.4 C 1704.5 470.3 1706.8 469.5 1707.1 469.6 C 1707.4 469.7 1707.0 471.5 1706.3 471.6 M 1755.0 470.8 C 1750.7 471.4 1753.0 467.5 1755.9 468.8 C 1756.1 468.9 1755.7 470.7 1755.0 470.8 C 1756.1 468.9 1755.7 470.7 1755.0 470.8 C 1756.1 468.9 1755.7 470.7 1755.0 470.8 C 1756.1 468.9 1755.7 470.7 1755.0 470.8 " fill="#EB5C56"></path></g></g></g></svg>