<?xml version="1.0" encoding="UTF-8" standalone="no"?><svg xmlns="http://www.w3.org/2000/svg" xmlns:xlink="http://www.w3.org/1999/xlink" clip-rule="evenodd" stroke-miterlimit="10" viewBox="0 0 910 465"><desc>SVG generated by Keynote</desc><defs></defs><g transform="matrix(1.00, 0.00, -0.00, -1.00, 0.0, 465.0)"><g><clipPath id="clip0x7fdf9a8d60f0"><path d="M 1.2 1.5 L 908.8 1.5 L 908.8 463.5 L 1.2 463.5 Z M 1.2 1.5 "></path></clipPath><g clip-path="url(#clip0x7fdf9a8d60f0)"><g><g><clipPath id="clip0x7fdf9a8cf0e0"><path d="M 1.0 1.0 L 909.0 1.0 L 909.0 464.0 L 1.0 464.0 Z M 1.0 1.0 "></path></clipPath><g clip-path="url(#clip0x7fdf9a8cf0e0)"><path d="M -156.5 496.8 L 1490.4 496.8 L 1490.4 -130.5 L -156.5 -130.5 L -156.5 496.8 Z M -156.5 496.8 " fill="#FFFFFF"></path><path d="M 116.2 207.2 L 365.5 207.2 " fill="none" stroke="#22B7DB" stroke-width="2.80" transform="matrix(2.77, 0.00, 0.00, 2.77, -156.5, -131.4)"></path><path d="M 905.5 442.0 L 852.4 459.4 L 852.4 424.3 L 905.5 442.0 Z M 905.5 442.0 " fill="#22B7DB"></path><path d="M 116.2 112.4 L 366.1 112.4 " fill="none" stroke="#22B7DB" stroke-width="2.80" transform="matrix(2.77, 0.00, 0.00, 2.77, -156.5, -131.4)"></path><path d="M 907.1 179.6 L 854.0 197.4 L 854.0 161.9 L 907.1 179.6 Z M 907.1 179.6 " fill="#22B7DB"></path><path d="M 116.2 56.9 L 365.5 56.9 " fill="none" stroke="#22B7DB" stroke-width="2.80" transform="matrix(2.77, 0.00, 0.00, 2.77, -156.5, -131.4)"></path><path d="M 905.5 26.1 L 852.4 43.8 L 852.4 8.4 L 905.5 26.1 Z M 905.5 26.1 " fill="#22B7DB"></path><path d="M 116.2 68.3 L 116.2 48.4 " fill="none" stroke="#00B7FF" stroke-width="2.83" stroke-linejoin="round" transform="matrix(2.77, 0.00, 0.00, 2.77, -156.5, -131.4)"></path><path d="M 144.6 68.3 L 144.6 48.4 " fill="none" stroke="#00B7FF" stroke-width="2.83" stroke-linejoin="round" transform="matrix(2.77, 0.00, 0.00, 2.77, -156.5, -131.4)"></path><path d="M 172.8 68.3 L 172.8 48.4 " fill="none" stroke="#00B7FF" stroke-width="2.83" stroke-linejoin="round" transform="matrix(2.77, 0.00, 0.00, 2.77, -156.5, -131.4)"></path><path d="M 201.6 68.3 L 201.6 48.4 " fill="none" stroke="#00B7FF" stroke-width="2.83" stroke-linejoin="round" transform="matrix(2.77, 0.00, 0.00, 2.77, -156.5, -131.4)"></path><path d="M 229.9 68.3 L 229.9 48.4 " fill="none" stroke="#00B7FF" stroke-width="2.83" stroke-linejoin="round" transform="matrix(2.77, 0.00, 0.00, 2.77, -156.5, -131.4)"></path><path d="M 258.2 68.3 L 258.2 48.4 " fill="none" stroke="#00B7FF" stroke-width="2.83" stroke-linejoin="round" transform="matrix(2.77, 0.00, 0.00, 2.77, -156.5, -131.4)"></path><path d="M 287.0 68.3 L 287.0 48.4 " fill="none" stroke="#00B7FF" stroke-width="2.83" stroke-linejoin="round" transform="matrix(2.77, 0.00, 0.00, 2.77, -156.5, -131.4)"></path><path d="M 314.4 68.3 L 314.4 48.4 " fill="none" stroke="#00B7FF" stroke-width="2.83" stroke-linejoin="round" transform="matrix(2.77, 0.00, 0.00, 2.77, -156.5, -131.4)"></path><path d="M 343.2 68.3 L 343.2 48.4 " fill="none" stroke="#00B7FF" stroke-width="2.83" stroke-linejoin="round" transform="matrix(2.77, 0.00, 0.00, 2.77, -156.5, -131.4)"></path><text xml:space="preserve" font-family="ArialMT,Arial" font-size="18.0" fill="#000000" transform="matrix(2.77, 0.00, -0.00, -2.77, 1.2, 17.5)">T</text><text xml:space="preserve" font-family="ArialMT,Arial" font-size="18.0" fill="#000000" transform="matrix(2.77, 0.00, -0.00, -2.77, 30.0, 17.5)">i</text><text xml:space="preserve" font-family="ArialMT,Arial" font-size="18.0" fill="#000000" transform="matrix(2.77, 0.00, -0.00, -2.77, 41.0, 17.5)">m</text><text xml:space="preserve" font-family="ArialMT,Arial" font-size="18.0" fill="#000000" transform="matrix(2.77, 0.00, -0.00, -2.77, 82.5, 17.5)">e</text><text xml:space="preserve" font-family="ArialMT,Arial" font-size="18.0" fill="#000000" transform="matrix(2.77, 0.00, -0.00, -2.77, 4.8, 425.6)">U</text><text xml:space="preserve" font-family="ArialMT,Arial" font-size="18.0" fill="#000000" transform="matrix(2.77, 0.00, -0.00, -2.77, 40.5, 425.6)">s</text><text xml:space="preserve" font-family="ArialMT,Arial" font-size="18.0" fill="#000000" transform="matrix(2.77, 0.00, -0.00, -2.77, 65.4, 425.6)">e</text><text xml:space="preserve" font-family="ArialMT,Arial" font-size="18.0" fill="#000000" transform="matrix(2.77, 0.00, -0.00, -2.77, 93.1, 425.6)">r</text><text xml:space="preserve" font-family="ArialMT,Arial" font-size="18.0" fill="#000000" transform="matrix(2.77, 0.00, -0.00, -2.77, 3.7, 169.1)">N</text><text xml:space="preserve" font-family="ArialMT,Arial" font-size="18.0" fill="#000000" transform="matrix(2.77, 0.00, -0.00, -2.77, 39.4, 169.1)">o</text><text xml:space="preserve" font-family="ArialMT,Arial" font-size="18.0" fill="#000000" transform="matrix(2.77, 0.00, -0.00, -2.77, 67.1, 169.1)">d</text><text xml:space="preserve" font-family="ArialMT,Arial" font-size="18.0" fill="#000000" transform="matrix(2.77, 0.00, -0.00, -2.77, 94.5, 169.1)">e</text><path d="M 173.1 207.0 L 173.5 174.7 " fill="none" stroke="#FF3366" stroke-width="2.80" transform="matrix(2.77, 0.00, 0.00, 2.77, -156.5, -131.4)"></path><path d="M 324.4 301.4 L 341.3 354.5 L 306.1 354.0 L 324.4 301.4 Z M 324.4 301.4 " fill="#FF3366"></path><text xml:space="preserve" font-family="Arial-Black,Arial Black" font-weight="bold" font-size="10.5" fill="#000000" transform="matrix(2.77, 0.00, -0.00, -2.77, 199.3, 379.2)">S</text><text xml:space="preserve" font-family="Arial-Black,Arial Black" font-weight="bold" font-size="10.5" fill="#000000" transform="matrix(2.77, 0.00, -0.00, -2.77, 220.3, 379.2)">u</text><text xml:space="preserve" font-family="Arial-Black,Arial Black" font-weight="bold" font-size="10.5" fill="#000000" transform="matrix(2.77, 0.00, -0.00, -2.77, 239.4, 379.2)">b</text><text xml:space="preserve" font-family="Arial-Black,Arial Black" font-weight="bold" font-size="10.5" fill="#000000" transform="matrix(2.77, 0.00, -0.00, -2.77, 258.8, 379.2)">m</text><text xml:space="preserve" font-family="Arial-Black,Arial Black" font-weight="bold" font-size="10.5" fill="#000000" transform="matrix(2.77, 0.00, -0.00, -2.77, 287.8, 379.2)">i</text><text xml:space="preserve" font-family="Arial-Black,Arial Black" font-weight="bold" font-size="10.5" fill="#000000" transform="matrix(2.77, 0.00, -0.00, -2.77, 297.2, 379.2)">t</text><text xml:space="preserve" font-family="Arial-Black,Arial Black" font-weight="bold" font-size="10.5" fill="#000000" transform="matrix(2.77, 0.00, -0.00, -2.77, 310.2, 379.2)"> </text><text xml:space="preserve" font-family="Arial-Black,Arial Black" font-weight="bold" font-size="10.5" fill="#000000" transform="matrix(2.77, 0.00, -0.00, -2.77, 319.9, 379.2)"> </text><text xml:space="preserve" font-family="Arial-Black,Arial Black" font-weight="bold" font-size="10.5" fill="#000000" transform="matrix(2.77, 0.00, -0.00, -2.77, 329.6, 379.2)"> </text><text xml:space="preserve" font-family="Arial-Black,Arial Black" font-weight="bold" font-size="10.5" fill="#000000" transform="matrix(2.77, 0.00, -0.00, -2.77, 339.0, 379.2)">L</text><text xml:space="preserve" font-family="Arial-Black,Arial Black" font-weight="bold" font-size="10.5" fill="#000000" transform="matrix(2.77, 0.00, -0.00, -2.77, 358.4, 379.2)">o</text><text xml:space="preserve" font-family="Arial-Black,Arial Black" font-weight="bold" font-size="10.5" fill="#000000" transform="matrix(2.77, 0.00, -0.00, -2.77, 377.7, 379.2)">c</text><text xml:space="preserve" font-family="Arial-Black,Arial Black" font-weight="bold" font-size="10.5" fill="#000000" transform="matrix(2.77, 0.00, -0.00, -2.77, 396.8, 379.2)">a</text><text xml:space="preserve" font-family="Arial-Black,Arial Black" font-weight="bold" font-size="10.5" fill="#000000" transform="matrix(2.77, 0.00, -0.00, -2.77, 415.9, 379.2)">t</text><text xml:space="preserve" font-family="Arial-Black,Arial Black" font-weight="bold" font-size="10.5" fill="#000000" transform="matrix(2.77, 0.00, -0.00, -2.77, 428.6, 379.2)">i</text><text xml:space="preserve" font-family="Arial-Black,Arial Black" font-weight="bold" font-size="10.5" fill="#000000" transform="matrix(2.77, 0.00, -0.00, -2.77, 438.3, 379.2)">o</text><text xml:space="preserve" font-family="Arial-Black,Arial Black" font-weight="bold" font-size="10.5" fill="#000000" transform="matrix(2.77, 0.00, -0.00, -2.77, 457.7, 379.2)">n</text><path d="M 329.7 197.6 C 327.2 197.6 324.4 194.9 324.4 192.1 L 324.4 170.2 C 324.4 167.5 327.2 164.7 329.7 164.7 L 751.4 164.7 C 753.8 164.7 756.6 167.5 756.6 170.2 L 756.6 192.1 C 756.6 194.9 753.8 197.6 751.4 197.6 L 329.7 197.6 Z M 329.7 197.6 " fill="#E5FF00"></path><path d="M 175.7 118.9 C 174.8 118.9 173.8 117.9 173.8 116.9 L 173.8 109.0 C 173.8 108.0 174.8 107.0 175.7 107.0 L 328.1 107.0 C 329.0 107.0 330.0 108.0 330.0 109.0 L 330.0 116.9 C 330.0 117.9 329.0 118.9 328.1 118.9 L 175.7 118.9 Z M 175.7 118.9 " fill="none" stroke="#7F7F7F" stroke-width="0.00" stroke-linejoin="round" transform="matrix(2.77, 0.00, 0.00, 2.77, -156.5, -131.4)"></path><path d="M 173.8 118.9 L 173.8 118.9 Z M 173.8 118.9 " fill="none" stroke="#7F7F7F" stroke-width="0.00" stroke-linejoin="round" transform="matrix(2.77, 0.00, 0.00, 2.77, -156.5, -131.4)"></path><path d="M 330.0 107.0 L 330.0 107.0 Z M 330.0 107.0 " fill="none" stroke="#7F7F7F" stroke-width="0.00" stroke-linejoin="round" transform="matrix(2.77, 0.00, 0.00, 2.77, -156.5, -131.4)"></path><text xml:space="preserve" font-family="Arial-Black,Arial Black" font-weight="bold" font-size="10.5" fill="#000000" transform="matrix(2.77, 0.00, -0.00, -2.77, 497.9, 173.8)">A</text><text xml:space="preserve" font-family="Arial-Black,Arial Black" font-weight="bold" font-size="10.5" fill="#000000" transform="matrix(2.77, 0.00, -0.00, -2.77, 520.3, 173.8)">t</text><text xml:space="preserve" font-family="Arial-Black,Arial Black" font-weight="bold" font-size="10.5" fill="#000000" transform="matrix(2.77, 0.00, -0.00, -2.77, 533.3, 173.8)">t</text><text xml:space="preserve" font-family="Arial-Black,Arial Black" font-weight="bold" font-size="10.5" fill="#000000" transform="matrix(2.77, 0.00, -0.00, -2.77, 546.3, 173.8)">a</text><text xml:space="preserve" font-family="Arial-Black,Arial Black" font-weight="bold" font-size="10.5" fill="#000000" transform="matrix(2.77, 0.00, -0.00, -2.77, 565.6, 173.8)">c</text><text xml:space="preserve" font-family="Arial-Black,Arial Black" font-weight="bold" font-size="10.5" fill="#000000" transform="matrix(2.77, 0.00, -0.00, -2.77, 584.4, 173.8)">k</text><text xml:space="preserve" font-family="ArialMT,Arial" font-size="18.0" fill="#000000" transform="matrix(2.77, 0.00, -0.00, -2.77, 3.7, 295.3)">S</text><text xml:space="preserve" font-family="ArialMT,Arial" font-size="18.0" fill="#000000" transform="matrix(2.77, 0.00, -0.00, -2.77, 36.6, 295.3)">e</text><text xml:space="preserve" font-family="ArialMT,Arial" font-size="18.0" fill="#000000" transform="matrix(2.77, 0.00, -0.00, -2.77, 64.3, 295.3)">r</text><text xml:space="preserve" font-family="ArialMT,Arial" font-size="18.0" fill="#000000" transform="matrix(2.77, 0.00, -0.00, -2.77, 80.9, 295.3)">v</text><text xml:space="preserve" font-family="ArialMT,Arial" font-size="18.0" fill="#000000" transform="matrix(2.77, 0.00, -0.00, -2.77, 105.8, 295.3)">e</text><text xml:space="preserve" font-family="ArialMT,Arial" font-size="18.0" fill="#000000" transform="matrix(2.77, 0.00, -0.00, -2.77, 133.5, 295.3)">r</text><path d="M 328.8 110.8 L 328.4 140.6 " fill="none" stroke="#5D10A5" stroke-width="2.80" transform="matrix(2.77, 0.00, 0.00, 2.77, -156.5, -131.4)"></path><path d="M 751.4 308.3 L 734.5 255.2 L 769.9 255.7 L 751.4 308.3 Z M 751.4 308.3 " fill="#5D10A5"></path><path d="M 116.2 156.7 L 365.5 156.7 " fill="none" stroke="#22B7DB" stroke-width="2.80" transform="matrix(2.77, 0.00, 0.00, 2.77, -156.5, -131.4)"></path><path d="M 905.5 302.2 L 852.4 319.9 L 852.4 284.8 L 905.5 302.2 Z M 905.5 302.2 " fill="#22B7DB"></path><path d="M 173.1 154.5 L 173.1 136.5 " fill="none" stroke="#6A0093" stroke-width="2.80" transform="matrix(2.77, 0.00, 0.00, 2.77, -156.5, -131.4)"></path><path d="M 322.5 196.0 L 340.2 248.8 L 305.0 248.8 L 322.5 196.0 Z M 322.5 196.0 " fill="#6A0093"></path><path d="M 323.3 325.5 C 333.5 325.5 341.3 317.7 341.3 307.5 C 341.3 297.2 333.5 289.2 323.3 289.2 C 313.0 289.2 305.0 297.2 305.0 307.5 C 305.0 317.7 313.0 325.5 323.3 325.5 Z M 323.3 325.5 " fill="#FF0000"></path><path d="M 173.4 165.1 C 177.1 165.1 179.9 162.3 179.9 158.6 C 179.9 154.9 177.1 152.0 173.4 152.0 C 169.7 152.0 166.8 154.9 166.8 158.6 C 166.8 162.3 169.7 165.1 173.4 165.1 Z M 173.4 165.1 " fill="none" stroke="#7F7F7F" stroke-width="0.00" stroke-linejoin="round" transform="matrix(2.77, 0.00, 0.00, 2.77, -156.5, -131.4)"></path><path d="M 166.8 165.1 L 166.8 165.1 Z M 166.8 165.1 " fill="none" stroke="#7F7F7F" stroke-width="0.00" stroke-linejoin="round" transform="matrix(2.77, 0.00, 0.00, 2.77, -156.5, -131.4)"></path><path d="M 180.0 152.0 L 180.0 152.0 Z M 180.0 152.0 " fill="none" stroke="#7F7F7F" stroke-width="0.00" stroke-linejoin="round" transform="matrix(2.77, 0.00, 0.00, 2.77, -156.5, -131.4)"></path><text xml:space="preserve" font-family="Arial-Black,Arial Black" font-weight="bold" font-size="10.5" fill="#000000" transform="matrix(2.77, 0.00, -0.00, -2.77, 202.1, 252.1)">L</text><text xml:space="preserve" font-family="Arial-Black,Arial Black" font-weight="bold" font-size="10.5" fill="#000000" transform="matrix(2.77, 0.00, -0.00, -2.77, 221.4, 252.1)">a</text><text xml:space="preserve" font-family="Arial-Black,Arial Black" font-weight="bold" font-size="10.5" fill="#000000" transform="matrix(2.77, 0.00, -0.00, -2.77, 240.5, 252.1)">u</text><text xml:space="preserve" font-family="Arial-Black,Arial Black" font-weight="bold" font-size="10.5" fill="#000000" transform="matrix(2.77, 0.00, -0.00, -2.77, 259.9, 252.1)">n</text><text xml:space="preserve" font-family="Arial-Black,Arial Black" font-weight="bold" font-size="10.5" fill="#000000" transform="matrix(2.77, 0.00, -0.00, -2.77, 279.0, 252.1)">c</text><text xml:space="preserve" font-family="Arial-Black,Arial Black" font-weight="bold" font-size="10.5" fill="#000000" transform="matrix(2.77, 0.00, -0.00, -2.77, 298.1, 252.1)">h</text><text xml:space="preserve" font-family="Arial-Black,Arial Black" font-weight="bold" font-size="10.5" fill="#000000" transform="matrix(2.77, 0.00, -0.00, -2.77, 317.1, 252.1)"> </text><text xml:space="preserve" font-family="Arial-Black,Arial Black" font-weight="bold" font-size="10.5" fill="#000000" transform="matrix(2.77, 0.00, -0.00, -2.77, 326.8, 252.1)"> </text><text xml:space="preserve" font-family="Arial-Black,Arial Black" font-weight="bold" font-size="10.5" fill="#000000" transform="matrix(2.77, 0.00, -0.00, -2.77, 336.5, 252.1)">A</text><text xml:space="preserve" font-family="Arial-Black,Arial Black" font-weight="bold" font-size="10.5" fill="#000000" transform="matrix(2.77, 0.00, -0.00, -2.77, 358.9, 252.1)">t</text><text xml:space="preserve" font-family="Arial-Black,Arial Black" font-weight="bold" font-size="10.5" fill="#000000" transform="matrix(2.77, 0.00, -0.00, -2.77, 371.9, 252.1)">t</text><text xml:space="preserve" font-family="Arial-Black,Arial Black" font-weight="bold" font-size="10.5" fill="#000000" transform="matrix(2.77, 0.00, -0.00, -2.77, 384.9, 252.1)">a</text><text xml:space="preserve" font-family="Arial-Black,Arial Black" font-weight="bold" font-size="10.5" fill="#000000" transform="matrix(2.77, 0.00, -0.00, -2.77, 404.2, 252.1)">c</text><text xml:space="preserve" font-family="Arial-Black,Arial Black" font-weight="bold" font-size="10.5" fill="#000000" transform="matrix(2.77, 0.00, -0.00, -2.77, 423.1, 252.1)">k</text><path d="M 752.2 322.2 C 762.4 322.2 770.2 314.4 770.2 304.2 C 770.2 293.7 762.4 285.9 752.2 285.9 C 741.9 285.9 733.9 293.7 733.9 304.2 C 733.9 314.4 741.9 322.2 752.2 322.2 Z M 752.2 322.2 " fill="#FF0000"></path><path d="M 328.4 163.9 C 332.1 163.9 334.9 161.1 334.9 157.4 C 334.9 153.6 332.1 150.8 328.4 150.8 C 324.7 150.8 321.8 153.6 321.8 157.4 C 321.8 161.1 324.7 163.9 328.4 163.9 Z M 328.4 163.9 " fill="none" stroke="#7F7F7F" stroke-width="0.00" stroke-linejoin="round" transform="matrix(2.77, 0.00, 0.00, 2.77, -156.5, -131.4)"></path><path d="M 321.8 163.9 L 321.8 163.9 Z M 321.8 163.9 " fill="none" stroke="#7F7F7F" stroke-width="0.00" stroke-linejoin="round" transform="matrix(2.77, 0.00, 0.00, 2.77, -156.5, -131.4)"></path><path d="M 335.0 150.7 L 335.0 150.7 Z M 335.0 150.7 " fill="none" stroke="#7F7F7F" stroke-width="0.00" stroke-linejoin="round" transform="matrix(2.77, 0.00, 0.00, 2.77, -156.5, -131.4)"></path><text xml:space="preserve" font-family="Arial-Black,Arial Black" font-weight="bold" font-size="10.5" fill="#000000" transform="matrix(2.77, 0.00, -0.00, -2.77, 620.5, 214.2)">C</text><text xml:space="preserve" font-family="Arial-Black,Arial Black" font-weight="bold" font-size="10.5" fill="#000000" transform="matrix(2.77, 0.00, -0.00, -2.77, 643.1, 214.2)">o</text><text xml:space="preserve" font-family="Arial-Black,Arial Black" font-weight="bold" font-size="10.5" fill="#000000" transform="matrix(2.77, 0.00, -0.00, -2.77, 662.2, 214.2)">m</text><text xml:space="preserve" font-family="Arial-Black,Arial Black" font-weight="bold" font-size="10.5" fill="#000000" transform="matrix(2.77, 0.00, -0.00, -2.77, 691.3, 214.2)">m</text><text xml:space="preserve" font-family="Arial-Black,Arial Black" font-weight="bold" font-size="10.5" fill="#000000" transform="matrix(2.77, 0.00, -0.00, -2.77, 720.0, 214.2)">i</text><text xml:space="preserve" font-family="Arial-Black,Arial Black" font-weight="bold" font-size="10.5" fill="#000000" transform="matrix(2.77, 0.00, -0.00, -2.77, 729.7, 214.2)">t</text><text xml:space="preserve" font-family="Arial-Black,Arial Black" font-weight="bold" font-size="10.5" fill="#000000" transform="matrix(2.77, 0.00, -0.00, -2.77, 742.7, 214.2)"> </text><text xml:space="preserve" font-family="Arial-Black,Arial Black" font-weight="bold" font-size="10.5" fill="#000000" transform="matrix(2.77, 0.00, -0.00, -2.77, 752.4, 214.2)"> </text><text xml:space="preserve" font-family="Arial-Black,Arial Black" font-weight="bold" font-size="10.5" fill="#000000" transform="matrix(2.77, 0.00, -0.00, -2.77, 761.8, 214.2)">R</text><text xml:space="preserve" font-family="Arial-Black,Arial Black" font-weight="bold" font-size="10.5" fill="#000000" transform="matrix(2.77, 0.00, -0.00, -2.77, 783.7, 214.2)">e</text><text xml:space="preserve" font-family="Arial-Black,Arial Black" font-weight="bold" font-size="10.5" fill="#000000" transform="matrix(2.77, 0.00, -0.00, -2.77, 803.0, 214.2)">s</text><text xml:space="preserve" font-family="Arial-Black,Arial Black" font-weight="bold" font-size="10.5" fill="#000000" transform="matrix(2.77, 0.00, -0.00, -2.77, 820.7, 214.2)">u</text><text xml:space="preserve" font-family="Arial-Black,Arial Black" font-weight="bold" font-size="10.5" fill="#000000" transform="matrix(2.77, 0.00, -0.00, -2.77, 839.8, 214.2)">l</text><text xml:space="preserve" font-family="Arial-Black,Arial Black" font-weight="bold" font-size="10.5" fill="#000000" transform="matrix(2.77, 0.00, -0.00, -2.77, 849.5, 214.2)">t</text><path d="M 198.0 166.8 C 254.9 181.1 283.2 170.2 307.9 164.7 " fill="none" stroke="#00FF00" stroke-width="2.80" transform="matrix(2.77, 0.00, 0.00, 2.77, -156.5, -131.4)"></path><path d="M 353.7 318.6 L 397.2 317.4 L 389.1 343.7 L 353.7 318.6 Z M 353.7 318.6 " fill="#00FF00"></path><path d="M 732.5 315.2 L 695.7 338.5 L 689.1 311.9 L 732.5 315.2 Z M 732.5 315.2 " fill="#00FF00"></path><text xml:space="preserve" font-family="Arial-Black,Arial Black" font-weight="bold" font-size="10.5" fill="#000000" transform="matrix(2.77, 0.00, -0.00, -2.77, 554.6, 362.8)">C</text><text xml:space="preserve" font-family="Arial-Black,Arial Black" font-weight="bold" font-size="10.5" fill="#000000" transform="matrix(2.77, 0.00, -0.00, -2.77, 577.3, 362.8)">o</text><text xml:space="preserve" font-family="Arial-Black,Arial Black" font-weight="bold" font-size="10.5" fill="#000000" transform="matrix(2.77, 0.00, -0.00, -2.77, 596.6, 362.8)">m</text><text xml:space="preserve" font-family="Arial-Black,Arial Black" font-weight="bold" font-size="10.5" fill="#000000" transform="matrix(2.77, 0.00, -0.00, -2.77, 625.4, 362.8)">p</text><text xml:space="preserve" font-family="Arial-Black,Arial Black" font-weight="bold" font-size="10.5" fill="#000000" transform="matrix(2.77, 0.00, -0.00, -2.77, 644.7, 362.8)">a</text><text xml:space="preserve" font-family="Arial-Black,Arial Black" font-weight="bold" font-size="10.5" fill="#000000" transform="matrix(2.77, 0.00, -0.00, -2.77, 663.8, 362.8)">r</text><text xml:space="preserve" font-family="Arial-Black,Arial Black" font-weight="bold" font-size="10.5" fill="#000000" transform="matrix(2.77, 0.00, -0.00, -2.77, 677.1, 362.8)">e</text></g></g></g></g></g></g></svg>