<?xml version="1.0" encoding="UTF-8" standalone="no"?><svg xmlns="http://www.w3.org/2000/svg" xmlns:xlink="http://www.w3.org/1999/xlink" clip-rule="evenodd" stroke-miterlimit="10" viewBox="0 0 1920 1080"><desc>SVG generated by Keynote</desc><defs></defs><g transform="matrix(1.00, 0.00, -0.00, -1.00, 0.0, 1080.0)"><path d="M 0.0 1080.0 L 1920.0 1080.0 L 1920.0 0.0 L 0.0 0.0 Z M 0.0 1080.0 " fill="#FEFFFF"></path><text xml:space="preserve" font-family="Helvetica-Light,Helvetica" font-size="98.6" fill="#000000" transform="matrix(1.00, 0.00, -0.00, -1.00, 137.0, 877.7)">R</text><text xml:space="preserve" font-family="Helvetica-Light,Helvetica" font-size="98.6" fill="#000000" transform="matrix(1.00, 0.00, -0.00, -1.00, 201.8, 877.7)">e</text><text xml:space="preserve" font-family="Helvetica-Light,Helvetica" font-size="98.6" fill="#000000" transform="matrix(1.00, 0.00, -0.00, -1.00, 255.7, 877.7)">a</text><text xml:space="preserve" font-family="Helvetica-Light,Helvetica" font-size="98.6" fill="#000000" transform="matrix(1.00, 0.00, -0.00, -1.00, 309.6, 877.7)">d</text><text xml:space="preserve" font-family="Helvetica-Light,Helvetica" font-size="98.6" fill="#000000" transform="matrix(1.00, 0.00, -0.00, -1.00, 369.0, 877.7)">i</text><text xml:space="preserve" font-family="Helvetica-Light,Helvetica" font-size="98.6" fill="#000000" transform="matrix(1.00, 0.00, -0.00, -1.00, 390.0, 877.7)">n</text><text xml:space="preserve" font-family="Helvetica-Light,Helvetica" font-size="98.6" fill="#000000" transform="matrix(1.00, 0.00, -0.00, -1.00, 443.9, 877.7)">g</text><text xml:space="preserve" font-family="Helvetica-Light,Helvetica" font-size="98.6" fill="#000000" transform="matrix(1.00, 0.00, -0.00, -1.00, 504.1, 877.7)"> </text><text xml:space="preserve" font-family="Helvetica-Light,Helvetica" font-size="98.6" fill="#000000" transform="matrix(1.00, 0.00, -0.00, -1.00, 526.8, 877.7)">l</text><text xml:space="preserve" font-family="Helvetica-Light,Helvetica" font-size="98.6" fill="#000000" transform="matrix(1.00, 0.00, -0.00, -1.00, 547.8, 877.7)">o</text><text xml:space="preserve" font-family="Helvetica-Light,Helvetica" font-size="98.6" fill="#000000" transform="matrix(1.00, 0.00, -0.00, -1.00, 601.7, 877.7)">c</text><text xml:space="preserve" font-family="Helvetica-Light,Helvetica" font-size="98.6" fill="#000000" transform="matrix(1.00, 0.00, -0.00, -1.00, 655.6, 877.7)">a</text><text xml:space="preserve" font-family="Helvetica-Light,Helvetica" font-size="98.6" fill="#000000" transform="matrix(1.00, 0.00, -0.00, -1.00, 709.5, 877.7)">t</text><text xml:space="preserve" font-family="Helvetica-Light,Helvetica" font-size="98.6" fill="#000000" transform="matrix(1.00, 0.00, -0.00, -1.00, 736.0, 877.7)">i</text><text xml:space="preserve" font-family="Helvetica-Light,Helvetica" font-size="98.6" fill="#000000" transform="matrix(1.00, 0.00, -0.00, -1.00, 757.0, 877.7)">o</text><text xml:space="preserve" font-family="Helvetica-Light,Helvetica" font-size="98.6" fill="#000000" transform="matrix(1.00, 0.00, -0.00, -1.00, 810.9, 877.7)">n</text><text xml:space="preserve" font-family="Helvetica-Light,Helvetica" font-size="98.6" fill="#000000" transform="matrix(1.00, 0.00, -0.00, -1.00, 864.8, 877.7)">s</text><text xml:space="preserve" font-family="Helvetica-Light,Helvetica" font-size="98.6" fill="#000000" transform="matrix(1.00, 0.00, -0.00, -1.00, 913.2, 877.7)">:</text><text xml:space="preserve" font-family="Helvetica-Light,Helvetica" font-size="98.6" fill="#000000" transform="matrix(1.00, 0.00, -0.00, -1.00, 940.6, 877.7)"> </text><text xml:space="preserve" font-family="Helvetica-Light,Helvetica" font-size="98.6" fill="#000000" transform="matrix(1.00, 0.00, -0.00, -1.00, 963.3, 877.7)">C</text><text xml:space="preserve" font-family="Helvetica-Light,Helvetica" font-size="98.6" fill="#000000" transform="matrix(1.00, 0.00, -0.00, -1.00, 1033.5, 877.7)">o</text><text xml:space="preserve" font-family="Helvetica-Light,Helvetica" font-size="98.6" fill="#000000" transform="matrix(1.00, 0.00, -0.00, -1.00, 1087.4, 877.7)">n</text><text xml:space="preserve" font-family="Helvetica-Light,Helvetica" font-size="98.6" fill="#000000" transform="matrix(1.00, 0.00, -0.00, -1.00, 1141.3, 877.7)">t</text><text xml:space="preserve" font-family="Helvetica-Light,Helvetica" font-size="98.6" fill="#000000" transform="matrix(1.00, 0.00, -0.00, -1.00, 1167.8, 877.7)">r</text><text xml:space="preserve" font-family="Helvetica-Light,Helvetica" font-size="98.6" fill="#000000" transform="matrix(1.00, 0.00, -0.00, -1.00, 1198.0, 877.7)">o</text><text xml:space="preserve" font-family="Helvetica-Light,Helvetica" font-size="98.6" fill="#000000" transform="matrix(1.00, 0.00, -0.00, -1.00, 1251.9, 877.7)">l</text><text xml:space="preserve" font-family="Helvetica-Light,Helvetica" font-size="98.6" fill="#000000" transform="matrix(1.00, 0.00, -0.00, -1.00, 1272.9, 877.7)">l</text><text xml:space="preserve" font-family="Helvetica-Light,Helvetica" font-size="98.6" fill="#000000" transform="matrix(1.00, 0.00, -0.00, -1.00, 1293.9, 877.7)">i</text><text xml:space="preserve" font-family="Helvetica-Light,Helvetica" font-size="98.6" fill="#000000" transform="matrix(1.00, 0.00, -0.00, -1.00, 1314.9, 877.7)">n</text><text xml:space="preserve" font-family="Helvetica-Light,Helvetica" font-size="98.6" fill="#000000" transform="matrix(1.00, 0.00, -0.00, -1.00, 1368.8, 877.7)">g</text><text xml:space="preserve" font-family="Helvetica-Light,Helvetica" font-size="98.6" fill="#000000" transform="matrix(1.00, 0.00, -0.00, -1.00, 1429.0, 877.7)"> </text><text xml:space="preserve" font-family="Helvetica-Light,Helvetica" font-size="98.6" fill="#000000" transform="matrix(1.00, 0.00, -0.00, -1.00, 1451.7, 877.7)">t</text><text xml:space="preserve" font-family="Helvetica-Light,Helvetica" font-size="98.6" fill="#000000" transform="matrix(1.00, 0.00, -0.00, -1.00, 1478.2, 877.7)">h</text><text xml:space="preserve" font-family="Helvetica-Light,Helvetica" font-size="98.6" fill="#000000" transform="matrix(1.00, 0.00, -0.00, -1.00, 1532.1, 877.7)">e</text><text xml:space="preserve" font-family="Helvetica-Light,Helvetica" font-size="98.6" fill="#000000" transform="matrix(1.00, 0.00, -0.00, -1.00, 1586.9, 877.7)"> </text><text xml:space="preserve" font-family="Helvetica-Light,Helvetica" font-size="98.6" fill="#000000" transform="matrix(1.00, 0.00, -0.00, -1.00, 1609.6, 877.7)">a</text><text xml:space="preserve" font-family="Helvetica-Light,Helvetica" font-size="98.6" fill="#000000" transform="matrix(1.00, 0.00, -0.00, -1.00, 1663.5, 877.7)">p</text><text xml:space="preserve" font-family="Helvetica-Light,Helvetica" font-size="98.6" fill="#000000" transform="matrix(1.00, 0.00, -0.00, -1.00, 1722.8, 877.7)">p</text></g></svg>