<?xml version="1.0" encoding="UTF-8" standalone="no"?><svg xmlns="http://www.w3.org/2000/svg" xmlns:xlink="http://www.w3.org/1999/xlink" clip-rule="evenodd" stroke-miterlimit="10" viewBox="0 0 1920 1080"><desc>SVG generated by Keynote</desc><defs></defs><g transform="matrix(1.00, 0.00, -0.00, -1.00, 0.0, 1080.0)"><path d="M 0.0 1080.0 L 1920.0 1080.0 L 1920.0 0.0 L 0.0 0.0 Z M 0.0 1080.0 " fill="#FEFFFF"></path><text xml:space="preserve" font-family="Helvetica-Light,Helvetica" font-size="80.6" fill="#000000" transform="matrix(1.00, 0.00, -0.00, -1.00, 148.1, 884.5)">A</text><text xml:space="preserve" font-family="Helvetica-Light,Helvetica" font-size="80.6" fill="#000000" transform="matrix(1.00, 0.00, -0.00, -1.00, 201.9, 884.5)">u</text><text xml:space="preserve" font-family="Helvetica-Light,Helvetica" font-size="80.6" fill="#000000" transform="matrix(1.00, 0.00, -0.00, -1.00, 246.7, 884.5)">t</text><text xml:space="preserve" font-family="Helvetica-Light,Helvetica" font-size="80.6" fill="#000000" transform="matrix(1.00, 0.00, -0.00, -1.00, 269.1, 884.5)">o</text><text xml:space="preserve" font-family="Helvetica-Light,Helvetica" font-size="80.6" fill="#000000" transform="matrix(1.00, 0.00, -0.00, -1.00, 314.0, 884.5)">m</text><text xml:space="preserve" font-family="Helvetica-Light,Helvetica" font-size="80.6" fill="#000000" transform="matrix(1.00, 0.00, -0.00, -1.00, 381.1, 884.5)">a</text><text xml:space="preserve" font-family="Helvetica-Light,Helvetica" font-size="80.6" fill="#000000" transform="matrix(1.00, 0.00, -0.00, -1.00, 426.0, 884.5)">t</text><text xml:space="preserve" font-family="Helvetica-Light,Helvetica" font-size="80.6" fill="#000000" transform="matrix(1.00, 0.00, -0.00, -1.00, 448.4, 884.5)">i</text><text xml:space="preserve" font-family="Helvetica-Light,Helvetica" font-size="80.6" fill="#000000" transform="matrix(1.00, 0.00, -0.00, -1.00, 466.3, 884.5)">n</text><text xml:space="preserve" font-family="Helvetica-Light,Helvetica" font-size="80.6" fill="#000000" transform="matrix(1.00, 0.00, -0.00, -1.00, 511.1, 884.5)">g</text><text xml:space="preserve" font-family="Helvetica-Light,Helvetica" font-size="80.6" fill="#000000" transform="matrix(1.00, 0.00, -0.00, -1.00, 560.4, 884.5)"> </text><text xml:space="preserve" font-family="Helvetica-Light,Helvetica" font-size="80.6" fill="#000000" transform="matrix(1.00, 0.00, -0.00, -1.00, 582.8, 884.5)">e</text><text xml:space="preserve" font-family="Helvetica-Light,Helvetica" font-size="80.6" fill="#000000" transform="matrix(1.00, 0.00, -0.00, -1.00, 627.6, 884.5)">v</text><text xml:space="preserve" font-family="Helvetica-Light,Helvetica" font-size="80.6" fill="#000000" transform="matrix(1.00, 0.00, -0.00, -1.00, 668.0, 884.5)">e</text><text xml:space="preserve" font-family="Helvetica-Light,Helvetica" font-size="80.6" fill="#000000" transform="matrix(1.00, 0.00, -0.00, -1.00, 712.8, 884.5)">r</text><text xml:space="preserve" font-family="Helvetica-Light,Helvetica" font-size="80.6" fill="#000000" transform="matrix(1.00, 0.00, -0.00, -1.00, 741.1, 884.5)">y</text><text xml:space="preserve" font-family="Helvetica-Light,Helvetica" font-size="80.6" fill="#000000" transform="matrix(1.00, 0.00, -0.00, -1.00, 781.4, 884.5)">t</text><text xml:space="preserve" font-family="Helvetica-Light,Helvetica" font-size="80.6" fill="#000000" transform="matrix(1.00, 0.00, -0.00, -1.00, 803.8, 884.5)">h</text><text xml:space="preserve" font-family="Helvetica-Light,Helvetica" font-size="80.6" fill="#000000" transform="matrix(1.00, 0.00, -0.00, -1.00, 848.7, 884.5)">i</text><text xml:space="preserve" font-family="Helvetica-Light,Helvetica" font-size="80.6" fill="#000000" transform="matrix(1.00, 0.00, -0.00, -1.00, 866.6, 884.5)">n</text><text xml:space="preserve" font-family="Helvetica-Light,Helvetica" font-size="80.6" fill="#000000" transform="matrix(1.00, 0.00, -0.00, -1.00, 911.4, 884.5)">g</text><text xml:space="preserve" font-family="Helvetica-Light,Helvetica" font-size="80.6" fill="#000000" transform="matrix(1.00, 0.00, -0.00, -1.00, 960.7, 884.5)">:</text><text xml:space="preserve" font-family="Helvetica-Light,Helvetica" font-size="80.6" fill="#000000" transform="matrix(1.00, 0.00, -0.00, -1.00, 983.1, 884.5)"> </text><text xml:space="preserve" font-family="Helvetica-Light,Helvetica" font-size="80.6" fill="#000000" transform="matrix(1.00, 0.00, -0.00, -1.00, 1005.5, 884.5)">P</text><text xml:space="preserve" font-family="Helvetica-Light,Helvetica" font-size="80.6" fill="#000000" transform="matrix(1.00, 0.00, -0.00, -1.00, 1054.8, 884.5)">u</text><text xml:space="preserve" font-family="Helvetica-Light,Helvetica" font-size="80.6" fill="#000000" transform="matrix(1.00, 0.00, -0.00, -1.00, 1099.6, 884.5)">t</text><text xml:space="preserve" font-family="Helvetica-Light,Helvetica" font-size="80.6" fill="#000000" transform="matrix(1.00, 0.00, -0.00, -1.00, 1122.0, 884.5)"> </text><text xml:space="preserve" font-family="Helvetica-Light,Helvetica" font-size="80.6" fill="#000000" transform="matrix(1.00, 0.00, -0.00, -1.00, 1144.5, 884.5)">p</text><text xml:space="preserve" font-family="Helvetica-Light,Helvetica" font-size="80.6" fill="#000000" transform="matrix(1.00, 0.00, -0.00, -1.00, 1193.7, 884.5)">i</text><text xml:space="preserve" font-family="Helvetica-Light,Helvetica" font-size="80.6" fill="#000000" transform="matrix(1.00, 0.00, -0.00, -1.00, 1211.6, 884.5)">e</text><text xml:space="preserve" font-family="Helvetica-Light,Helvetica" font-size="80.6" fill="#000000" transform="matrix(1.00, 0.00, -0.00, -1.00, 1256.5, 884.5)">c</text><text xml:space="preserve" font-family="Helvetica-Light,Helvetica" font-size="80.6" fill="#000000" transform="matrix(1.00, 0.00, -0.00, -1.00, 1301.3, 884.5)">e</text><text xml:space="preserve" font-family="Helvetica-Light,Helvetica" font-size="80.6" fill="#000000" transform="matrix(1.00, 0.00, -0.00, -1.00, 1346.1, 884.5)">s</text><text xml:space="preserve" font-family="Helvetica-Light,Helvetica" font-size="80.6" fill="#000000" transform="matrix(1.00, 0.00, -0.00, -1.00, 1386.5, 884.5)"> </text><text xml:space="preserve" font-family="Helvetica-Light,Helvetica" font-size="80.6" fill="#000000" transform="matrix(1.00, 0.00, -0.00, -1.00, 1408.9, 884.5)">a</text><text xml:space="preserve" font-family="Helvetica-Light,Helvetica" font-size="80.6" fill="#000000" transform="matrix(1.00, 0.00, -0.00, -1.00, 1453.7, 884.5)">l</text><text xml:space="preserve" font-family="Helvetica-Light,Helvetica" font-size="80.6" fill="#000000" transform="matrix(1.00, 0.00, -0.00, -1.00, 1471.6, 884.5)">t</text><text xml:space="preserve" font-family="Helvetica-Light,Helvetica" font-size="80.6" fill="#000000" transform="matrix(1.00, 0.00, -0.00, -1.00, 1494.0, 884.5)">o</text><text xml:space="preserve" font-family="Helvetica-Light,Helvetica" font-size="80.6" fill="#000000" transform="matrix(1.00, 0.00, -0.00, -1.00, 1538.9, 884.5)">g</text><text xml:space="preserve" font-family="Helvetica-Light,Helvetica" font-size="80.6" fill="#000000" transform="matrix(1.00, 0.00, -0.00, -1.00, 1588.1, 884.5)">e</text><text xml:space="preserve" font-family="Helvetica-Light,Helvetica" font-size="80.6" fill="#000000" transform="matrix(1.00, 0.00, -0.00, -1.00, 1633.0, 884.5)">t</text><text xml:space="preserve" font-family="Helvetica-Light,Helvetica" font-size="80.6" fill="#000000" transform="matrix(1.00, 0.00, -0.00, -1.00, 1655.4, 884.5)">h</text><text xml:space="preserve" font-family="Helvetica-Light,Helvetica" font-size="80.6" fill="#000000" transform="matrix(1.00, 0.00, -0.00, -1.00, 1700.2, 884.5)">e</text><text xml:space="preserve" font-family="Helvetica-Light,Helvetica" font-size="80.6" fill="#000000" transform="matrix(1.00, 0.00, -0.00, -1.00, 1745.1, 884.5)">r</text></g></svg>