<?xml version="1.0" encoding="UTF-8" standalone="no"?><svg xmlns="http://www.w3.org/2000/svg" xmlns:xlink="http://www.w3.org/1999/xlink" clip-rule="evenodd" stroke-miterlimit="10" viewBox="0 0 1636 97"><desc>SVG generated by Keynote</desc><defs></defs><g transform="matrix(1.00, 0.00, -0.00, -1.00, 0.0, 97.0)"><text xml:space="preserve" font-family="Helvetica-Light,Helvetica" font-size="98.6" fill="#000000" transform="matrix(1.00, 0.00, -0.00, -1.00, -6.0, 22.7)">R</text><text xml:space="preserve" font-family="Helvetica-Light,Helvetica" font-size="98.6" fill="#000000" transform="matrix(1.00, 0.00, -0.00, -1.00, 58.8, 22.7)">e</text><text xml:space="preserve" font-family="Helvetica-Light,Helvetica" font-size="98.6" fill="#000000" transform="matrix(1.00, 0.00, -0.00, -1.00, 112.7, 22.7)">a</text><text xml:space="preserve" font-family="Helvetica-Light,Helvetica" font-size="98.6" fill="#000000" transform="matrix(1.00, 0.00, -0.00, -1.00, 166.6, 22.7)">d</text><text xml:space="preserve" font-family="Helvetica-Light,Helvetica" font-size="98.6" fill="#000000" transform="matrix(1.00, 0.00, -0.00, -1.00, 226.0, 22.7)">i</text><text xml:space="preserve" font-family="Helvetica-Light,Helvetica" font-size="98.6" fill="#000000" transform="matrix(1.00, 0.00, -0.00, -1.00, 247.0, 22.7)">n</text><text xml:space="preserve" font-family="Helvetica-Light,Helvetica" font-size="98.6" fill="#000000" transform="matrix(1.00, 0.00, -0.00, -1.00, 300.9, 22.7)">g</text><text xml:space="preserve" font-family="Helvetica-Light,Helvetica" font-size="98.6" fill="#000000" transform="matrix(1.00, 0.00, -0.00, -1.00, 361.1, 22.7)"> </text><text xml:space="preserve" font-family="Helvetica-Light,Helvetica" font-size="98.6" fill="#000000" transform="matrix(1.00, 0.00, -0.00, -1.00, 383.8, 22.7)">l</text><text xml:space="preserve" font-family="Helvetica-Light,Helvetica" font-size="98.6" fill="#000000" transform="matrix(1.00, 0.00, -0.00, -1.00, 404.8, 22.7)">o</text><text xml:space="preserve" font-family="Helvetica-Light,Helvetica" font-size="98.6" fill="#000000" transform="matrix(1.00, 0.00, -0.00, -1.00, 458.7, 22.7)">c</text><text xml:space="preserve" font-family="Helvetica-Light,Helvetica" font-size="98.6" fill="#000000" transform="matrix(1.00, 0.00, -0.00, -1.00, 512.6, 22.7)">a</text><text xml:space="preserve" font-family="Helvetica-Light,Helvetica" font-size="98.6" fill="#000000" transform="matrix(1.00, 0.00, -0.00, -1.00, 566.5, 22.7)">t</text><text xml:space="preserve" font-family="Helvetica-Light,Helvetica" font-size="98.6" fill="#000000" transform="matrix(1.00, 0.00, -0.00, -1.00, 593.0, 22.7)">i</text><text xml:space="preserve" font-family="Helvetica-Light,Helvetica" font-size="98.6" fill="#000000" transform="matrix(1.00, 0.00, -0.00, -1.00, 614.0, 22.7)">o</text><text xml:space="preserve" font-family="Helvetica-Light,Helvetica" font-size="98.6" fill="#000000" transform="matrix(1.00, 0.00, -0.00, -1.00, 667.9, 22.7)">n</text><text xml:space="preserve" font-family="Helvetica-Light,Helvetica" font-size="98.6" fill="#000000" transform="matrix(1.00, 0.00, -0.00, -1.00, 721.8, 22.7)">s</text><text xml:space="preserve" font-family="Helvetica-Light,Helvetica" font-size="98.6" fill="#000000" transform="matrix(1.00, 0.00, -0.00, -1.00, 770.2, 22.7)">:</text><text xml:space="preserve" font-family="Helvetica-Light,Helvetica" font-size="98.6" fill="#000000" transform="matrix(1.00, 0.00, -0.00, -1.00, 797.6, 22.7)"> </text><text xml:space="preserve" font-family="Helvetica-Light,Helvetica" font-size="98.6" fill="#000000" transform="matrix(1.00, 0.00, -0.00, -1.00, 820.3, 22.7)">C</text><text xml:space="preserve" font-family="Helvetica-Light,Helvetica" font-size="98.6" fill="#000000" transform="matrix(1.00, 0.00, -0.00, -1.00, 890.5, 22.7)">o</text><text xml:space="preserve" font-family="Helvetica-Light,Helvetica" font-size="98.6" fill="#000000" transform="matrix(1.00, 0.00, -0.00, -1.00, 944.4, 22.7)">n</text><text xml:space="preserve" font-family="Helvetica-Light,Helvetica" font-size="98.6" fill="#000000" transform="matrix(1.00, 0.00, -0.00, -1.00, 998.3, 22.7)">t</text><text xml:space="preserve" font-family="Helvetica-Light,Helvetica" font-size="98.6" fill="#000000" transform="matrix(1.00, 0.00, -0.00, -1.00, 1024.8, 22.7)">r</text><text xml:space="preserve" font-family="Helvetica-Light,Helvetica" font-size="98.6" fill="#000000" transform="matrix(1.00, 0.00, -0.00, -1.00, 1055.0, 22.7)">o</text><text xml:space="preserve" font-family="Helvetica-Light,Helvetica" font-size="98.6" fill="#000000" transform="matrix(1.00, 0.00, -0.00, -1.00, 1108.9, 22.7)">l</text><text xml:space="preserve" font-family="Helvetica-Light,Helvetica" font-size="98.6" fill="#000000" transform="matrix(1.00, 0.00, -0.00, -1.00, 1129.9, 22.7)">l</text><text xml:space="preserve" font-family="Helvetica-Light,Helvetica" font-size="98.6" fill="#000000" transform="matrix(1.00, 0.00, -0.00, -1.00, 1150.9, 22.7)">i</text><text xml:space="preserve" font-family="Helvetica-Light,Helvetica" font-size="98.6" fill="#000000" transform="matrix(1.00, 0.00, -0.00, -1.00, 1171.9, 22.7)">n</text><text xml:space="preserve" font-family="Helvetica-Light,Helvetica" font-size="98.6" fill="#000000" transform="matrix(1.00, 0.00, -0.00, -1.00, 1225.8, 22.7)">g</text><text xml:space="preserve" font-family="Helvetica-Light,Helvetica" font-size="98.6" fill="#000000" transform="matrix(1.00, 0.00, -0.00, -1.00, 1286.0, 22.7)"> </text><text xml:space="preserve" font-family="Helvetica-Light,Helvetica" font-size="98.6" fill="#000000" transform="matrix(1.00, 0.00, -0.00, -1.00, 1308.7, 22.7)">t</text><text xml:space="preserve" font-family="Helvetica-Light,Helvetica" font-size="98.6" fill="#000000" transform="matrix(1.00, 0.00, -0.00, -1.00, 1335.2, 22.7)">h</text><text xml:space="preserve" font-family="Helvetica-Light,Helvetica" font-size="98.6" fill="#000000" transform="matrix(1.00, 0.00, -0.00, -1.00, 1389.1, 22.7)">e</text><text xml:space="preserve" font-family="Helvetica-Light,Helvetica" font-size="98.6" fill="#000000" transform="matrix(1.00, 0.00, -0.00, -1.00, 1443.9, 22.7)"> </text><text xml:space="preserve" font-family="Helvetica-Light,Helvetica" font-size="98.6" fill="#000000" transform="matrix(1.00, 0.00, -0.00, -1.00, 1466.6, 22.7)">a</text><text xml:space="preserve" font-family="Helvetica-Light,Helvetica" font-size="98.6" fill="#000000" transform="matrix(1.00, 0.00, -0.00, -1.00, 1520.5, 22.7)">p</text><text xml:space="preserve" font-family="Helvetica-Light,Helvetica" font-size="98.6" fill="#000000" transform="matrix(1.00, 0.00, -0.00, -1.00, 1579.8, 22.7)">p</text></g></svg>